<svg version="1.1" viewBox="0.0 0.0 600.0 371.0" fill="none" stroke="none" stroke-linecap="square" stroke-miterlimit="10" width="600" height="371" xmlns:xlink="http://www.w3.org/1999/xlink" xmlns="http://www.w3.org/2000/svg"><path fill="#ffffff" d="M0 0L600.0 0L600.0 371.0L0 371.0L0 0Z" fill-rule="nonzero"/><path stroke="#cccccc" stroke-width="1.0" stroke-linecap="butt" d="M85.5 298.5L581.5 298.5" fill-rule="nonzero"/><path stroke="#cccccc" stroke-width="1.0" stroke-linecap="butt" d="M85.5 187.5L581.5 187.5" fill-rule="nonzero"/><path stroke="#cccccc" stroke-width="1.0" stroke-linecap="butt" d="M85.5 122.5L581.5 122.5" fill-rule="nonzero"/><path stroke="#cccccc" stroke-width="1.0" stroke-linecap="butt" d="M85.5 76.5L581.5 76.5" fill-rule="nonzero"/><clipPath id="id_0"><path d="M85.55 62.416668L581.45 62.416668L581.45 298.45L85.55 298.45L85.55 62.416668Z" clip-rule="nonzero"/></clipPath><path stroke="#4285f4" stroke-width="2.0" stroke-linecap="butt" clip-path="url(#id_0)" d="M120.97143 62.416668C120.97143 62.416668 168.2 138.13211 191.81429 154.24239C215.42857 170.35268 239.04286 154.1109 262.65714 159.07835C286.27142 164.0458 309.8857 164.44325 333.5 184.04712C357.1143 203.65097 380.72858 272.978 404.34286 276.7015C427.95715 280.42502 451.57144 237.23885 475.1857 206.3882C498.8 175.53757 546.02856 91.59763 546.02856 91.59763" fill-rule="nonzero"/><path fill="#000000" fill-opacity="0.0" clip-path="url(#id_0)" d="M123.97143 62.416668C123.97143 64.073524 122.62828 65.416664 120.97143 65.416664C119.314575 65.416664 117.97143 64.073524 117.97143 62.416668C117.97143 60.75981 119.314575 59.416668 120.97143 59.416668C122.62828 59.416668 123.97143 60.75981 123.97143 62.416668Z" fill-rule="nonzero"/><path fill="#000000" fill-opacity="0.0" clip-path="url(#id_0)" d="M194.81429 154.24239C194.81429 155.89925 193.47115 157.24239 191.81429 157.24239C190.15742 157.24239 188.81429 155.89925 188.81429 154.24239C188.81429 152.58554 190.15742 151.24239 191.81429 151.24239C193.47115 151.24239 194.81429 152.58554 194.81429 154.24239Z" fill-rule="nonzero"/><path fill="#000000" fill-opacity="0.0" clip-path="url(#id_0)" d="M265.65714 159.07835C265.65714 160.7352 264.314 162.07835 262.65714 162.07835C261.00027 162.07835 259.65714 160.7352 259.65714 159.07835C259.65714 157.4215 261.00027 156.07835 262.65714 156.07835C264.314 156.07835 265.65714 157.4215 265.65714 159.07835Z" fill-rule="nonzero"/><path fill="#000000" fill-opacity="0.0" clip-path="url(#id_0)" d="M336.5 184.04712C336.5 185.70396 335.15686 187.04712 333.5 187.04712C331.84314 187.04712 330.5 185.70396 330.5 184.04712C330.5 182.39026 331.84314 181.04712 333.5 181.04712C335.15686 181.04712 336.5 182.39026 336.5 184.04712Z" fill-rule="nonzero"/><path fill="#000000" fill-opacity="0.0" clip-path="url(#id_0)" d="M407.34286 276.7015C407.34286 278.35837 405.99973 279.7015 404.34286 279.7015C402.686 279.7015 401.34286 278.35837 401.34286 276.7015C401.34286 275.04465 402.686 273.7015 404.34286 273.7015C405.99973 273.7015 407.34286 275.04465 407.34286 276.7015Z" fill-rule="nonzero"/><path fill="#000000" fill-opacity="0.0" clip-path="url(#id_0)" d="M478.1857 206.3882C478.1857 208.04506 476.84256 209.3882 475.1857 209.3882C473.52887 209.3882 472.1857 208.04506 472.1857 206.3882C472.1857 204.73135 473.52887 203.3882 475.1857 203.3882C476.84256 203.3882 478.1857 204.73135 478.1857 206.3882Z" fill-rule="nonzero"/><path fill="#000000" fill-opacity="0.0" clip-path="url(#id_0)" d="M549.02856 91.59763C549.02856 93.254486 547.6854 94.59763 546.02856 94.59763C544.3717 94.59763 543.02856 93.254486 543.02856 91.59763C543.02856 89.94078 544.3717 88.59763 546.02856 88.59763C547.6854 88.59763 549.02856 89.94078 549.02856 91.59763Z" fill-rule="nonzero"/><path fill="#424242" d="M285.34375 343.10626L285.375 343.90314Q286.10938 342.9969 287.28125 342.9969Q289.29688 342.9969 289.3125 345.2625L289.3125 349.45L288.21875 349.45L288.21875 345.2469Q288.21875 344.575 287.90625 344.2469Q287.60938 343.91876 286.95312 343.91876Q286.42188 343.91876 286.01562 344.2Q285.625 344.48126 285.40625 344.9344L285.40625 349.45L284.32812 349.45L284.32812 343.10626L285.34375 343.10626ZM295.23438 348.825Q294.60938 349.575 293.375 349.575Q292.35938 349.575 291.82812 348.98126Q291.29688 348.3875 291.29688 347.23126L291.29688 343.10626L292.375 343.10626L292.375 347.2Q292.375 348.65314 293.54688 348.65314Q294.79688 348.65314 295.20312 347.71564L295.20312 343.10626L296.29688 343.10626L296.29688 349.45L295.26562 349.45L295.23438 348.825ZM299.34375 343.10626L299.375 343.8094Q300.0625 342.9969 301.25 342.9969Q302.57812 342.9969 303.0625 344.0125Q303.375 343.5594 303.875 343.27814Q304.39062 342.9969 305.07812 342.9969Q307.17188 342.9969 307.20312 345.2L307.20312 349.45L306.125 349.45L306.125 345.2625Q306.125 344.59064 305.8125 344.2625Q305.5 343.91876 304.76562 343.91876Q304.15625 343.91876 303.75 344.27814Q303.35938 344.6375 303.29688 345.2469L303.29688 349.45L302.21875 349.45L302.21875 345.29376Q302.21875 343.91876 300.85938 343.91876Q299.79688 343.91876 299.40625 344.825L299.40625 349.45L298.3125 349.45L298.3125 343.10626L299.34375 343.10626ZM314.6875 346.35626Q314.6875 347.8094 314.01562 348.7Q313.35938 349.575 312.23438 349.575Q311.03125 349.575 310.375 348.71564L310.3125 349.45L309.32812 349.45L309.32812 340.45L310.40625 340.45L310.40625 343.8094Q311.0625 342.9969 312.21875 342.9969Q313.375 342.9969 314.03125 343.8719Q314.6875 344.73126 314.6875 346.2625L314.6875 346.35626ZM313.60938 346.23126Q313.60938 345.1219 313.17188 344.52814Q312.75 343.91876 311.95312 343.91876Q310.875 343.91876 310.40625 344.90314L310.40625 347.65314Q310.90625 348.65314 311.95312 348.65314Q312.73438 348.65314 313.17188 348.04376Q313.60938 347.4344 313.60938 346.23126ZM318.95312 349.575Q317.65625 349.575 316.84375 348.73126Q316.04688 347.8719 316.04688 346.45L316.04688 346.2625Q316.04688 345.3094 316.40625 344.575Q316.76562 343.825 317.40625 343.41876Q318.0625 342.9969 318.8125 342.9969Q320.04688 342.9969 320.73438 343.8094Q321.42188 344.6219 321.42188 346.1375L321.42188 346.59064L317.125 346.59064Q317.15625 347.52814 317.67188 348.10626Q318.20312 348.6844 319.01562 348.6844Q319.57812 348.6844 319.96875 348.45Q320.375 348.21564 320.6875 347.825L321.34375 348.34064Q320.54688 349.575 318.95312 349.575ZM318.8125 343.8875Q318.15625 343.8875 317.70312 344.3719Q317.26562 344.84064 317.17188 345.7L320.34375 345.7L320.34375 345.6219Q320.29688 344.79376 319.89062 344.34064Q319.5 343.8875 318.8125 343.8875ZM325.39062 344.075Q325.14062 344.04376 324.85938 344.04376Q323.78125 344.04376 323.40625 344.95L323.40625 349.45L322.32812 349.45L322.32812 343.10626L323.375 343.10626L323.39062 343.84064Q323.92188 342.9969 324.90625 342.9969Q325.21875 342.9969 325.39062 343.075L325.39062 344.075ZM329.03125 346.21564Q329.03125 345.29376 329.39062 344.54376Q329.76562 343.79376 330.42188 343.40314Q331.07812 342.9969 331.90625 342.9969Q333.20312 342.9969 334.0 343.8875Q334.8125 344.77814 334.8125 346.27814L334.8125 346.35626Q334.8125 347.27814 334.45312 348.0125Q334.09375 348.7469 333.4375 349.16876Q332.78125 349.575 331.92188 349.575Q330.64062 349.575 329.82812 348.6844Q329.03125 347.77814 329.03125 346.29376L329.03125 346.21564ZM330.125 346.35626Q330.125 347.40314 330.60938 348.04376Q331.10938 348.6844 331.92188 348.6844Q332.75 348.6844 333.23438 348.04376Q333.71875 347.3875 333.71875 346.21564Q333.71875 345.1844 333.21875 344.54376Q332.73438 343.8875 331.90625 343.8875Q331.10938 343.8875 330.60938 344.52814Q330.125 345.15314 330.125 346.35626ZM336.85938 349.45L336.85938 343.95L335.85938 343.95L335.85938 343.10626L336.85938 343.10626L336.85938 342.46564Q336.85938 341.4344 337.39062 340.8875Q337.9375 340.325 338.9375 340.325Q339.3125 340.325 339.6875 340.41876L339.625 341.3094Q339.34375 341.2469 339.04688 341.2469Q338.51562 341.2469 338.21875 341.5594Q337.9375 341.8719 337.9375 342.4344L337.9375 343.10626L339.29688 343.10626L339.29688 343.95L337.9375 343.95L337.9375 349.45L336.85938 349.45ZM344.79688 341.575L344.79688 343.10626L345.96875 343.10626L345.96875 343.95L344.79688 343.95L344.79688 347.8719Q344.79688 348.2625 344.95312 348.45Q345.10938 348.6375 345.48438 348.6375Q345.67188 348.6375 346.0 348.575L346.0 349.45Q345.57812 349.575 345.17188 349.575Q344.45312 349.575 344.07812 349.1375Q343.70312 348.6844 343.70312 347.8719L343.70312 343.95L342.54688 343.95L342.54688 343.10626L343.70312 343.10626L343.70312 341.575L344.79688 341.575ZM348.40625 343.8719Q349.125 342.9969 350.28125 342.9969Q352.29688 342.9969 352.3125 345.2625L352.3125 349.45L351.21875 349.45L351.21875 345.2469Q351.21875 344.575 350.90625 344.2469Q350.60938 343.91876 349.95312 343.91876Q349.42188 343.91876 349.01562 344.2Q348.625 344.48126 348.40625 344.9344L348.40625 349.45L347.32812 349.45L347.32812 340.45L348.40625 340.45L348.40625 343.8719ZM357.39062 344.075Q357.14062 344.04376 356.85938 344.04376Q355.78125 344.04376 355.40625 344.95L355.40625 349.45L354.32812 349.45L354.32812 343.10626L355.375 343.10626L355.39062 343.84064Q355.92188 342.9969 356.90625 342.9969Q357.21875 342.9969 357.39062 343.075L357.39062 344.075ZM360.95312 349.575Q359.65625 349.575 358.84375 348.73126Q358.04688 347.8719 358.04688 346.45L358.04688 346.2625Q358.04688 345.3094 358.40625 344.575Q358.76562 343.825 359.40625 343.41876Q360.0625 342.9969 360.8125 342.9969Q362.04688 342.9969 362.73438 343.8094Q363.42188 344.6219 363.42188 346.1375L363.42188 346.59064L359.125 346.59064Q359.15625 347.52814 359.67188 348.10626Q360.20312 348.6844 361.01562 348.6844Q361.57812 348.6844 361.96875 348.45Q362.375 348.21564 362.6875 347.825L363.34375 348.34064Q362.54688 349.575 360.95312 349.575ZM360.8125 343.8875Q360.15625 343.8875 359.70312 344.3719Q359.26562 344.84064 359.17188 345.7L362.34375 345.7L362.34375 345.6219Q362.29688 344.79376 361.89062 344.34064Q361.5 343.8875 360.8125 343.8875ZM368.23438 349.45Q368.14062 349.2625 368.07812 348.77814Q367.32812 349.575 366.28125 349.575Q365.34375 349.575 364.73438 349.04376Q364.14062 348.5125 364.14062 347.6844Q364.14062 346.7 364.89062 346.15314Q365.64062 345.60626 367.01562 345.60626L368.0625 345.60626L368.0625 345.10626Q368.0625 344.54376 367.71875 344.21564Q367.39062 343.8719 366.71875 343.8719Q366.14062 343.8719 365.75 344.16876Q365.35938 344.45 365.35938 344.8719L364.26562 344.8719Q364.26562 344.3875 364.59375 343.95Q364.9375 343.5125 365.51562 343.2625Q366.09375 342.9969 366.78125 342.9969Q367.89062 342.9969 368.5 343.54376Q369.125 344.09064 369.15625 345.04376L369.15625 347.96564Q369.15625 348.84064 369.375 349.35626L369.375 349.45L368.23438 349.45ZM366.4375 348.6219Q366.95312 348.6219 367.40625 348.35626Q367.85938 348.09064 368.0625 347.66876L368.0625 346.3719L367.21875 346.3719Q365.21875 346.3719 365.21875 347.54376Q365.21875 348.04376 365.5625 348.34064Q365.90625 348.6219 366.4375 348.6219ZM371.0625 346.23126Q371.0625 344.7625 371.75 343.8875Q372.4375 342.9969 373.5625 342.9969Q374.67188 342.9969 375.32812 343.7469L375.32812 340.45L376.40625 340.45L376.40625 349.45L375.40625 349.45L375.35938 348.7625Q374.70312 349.575 373.54688 349.575Q372.45312 349.575 371.75 348.66876Q371.0625 347.7625 371.0625 346.3094L371.0625 346.23126ZM372.14062 346.35626Q372.14062 347.4344 372.57812 348.04376Q373.03125 348.65314 373.8125 348.65314Q374.84375 348.65314 375.32812 347.71564L375.32812 344.8094Q374.84375 343.91876 373.82812 343.91876Q373.03125 343.91876 372.57812 344.52814Q372.14062 345.1375 372.14062 346.35626ZM382.01562 347.7625Q382.01562 347.325 381.67188 347.09064Q381.34375 346.84064 380.51562 346.66876Q379.70312 346.4969 379.21875 346.2469Q378.73438 345.9969 378.5 345.66876Q378.28125 345.325 378.28125 344.85626Q378.28125 344.075 378.9375 343.54376Q379.59375 342.9969 380.625 342.9969Q381.70312 342.9969 382.35938 343.5594Q383.03125 344.10626 383.03125 344.96564L381.95312 344.96564Q381.95312 344.52814 381.5625 344.21564Q381.1875 343.8875 380.625 343.8875Q380.03125 343.8875 379.6875 344.15314Q379.35938 344.40314 379.35938 344.8094Q379.35938 345.2 379.67188 345.40314Q379.98438 345.60626 380.79688 345.79376Q381.60938 345.96564 382.10938 346.21564Q382.60938 346.46564 382.84375 346.825Q383.09375 347.1844 383.09375 347.6844Q383.09375 348.54376 382.40625 349.0594Q381.73438 349.575 380.65625 349.575Q379.89062 349.575 379.29688 349.3094Q378.71875 349.02814 378.39062 348.54376Q378.0625 348.0594 378.0625 347.4969L379.14062 347.4969Q379.17188 348.04376 379.57812 348.3719Q379.98438 348.6844 380.65625 348.6844Q381.26562 348.6844 381.64062 348.4344Q382.01562 348.1844 382.01562 347.7625Z" fill-rule="nonzero"/><path fill="#424242" d="M22.675013 240.38646L24.206263 240.38646L24.206263 239.21458L25.050013 239.21458L25.050013 240.38646L28.971888 240.38646Q29.362513 240.38646 29.550013 240.23021Q29.737513 240.07396 29.737513 239.69896Q29.737513 239.51146 29.675013 239.18333L30.550013 239.18333Q30.675013 239.60521 30.675013 240.01146Q30.675013 240.73021 30.237513 241.10521Q29.784388 241.48021 28.971888 241.48021L25.050013 241.48021L25.050013 242.63646L24.206263 242.63646L24.206263 241.48021L22.675013 241.48021L22.675013 240.38646ZM30.550013 236.68333L30.550013 237.76146L24.206263 237.76146L24.206263 236.68333L30.550013 236.68333ZM22.534388 237.85521Q22.268763 237.85521 22.081263 237.69896Q21.893763 237.52708 21.893763 237.21458Q21.893763 236.90208 22.081263 236.74583Q22.268763 236.57396 22.534388 236.57396Q22.784388 236.57396 22.971888 236.74583Q23.143763 236.90208 23.143763 237.21458Q23.143763 237.52708 22.971888 237.69896Q22.784388 237.85521 22.534388 237.85521ZM24.206263 233.83958L24.909388 233.80833Q24.096888 233.12083 24.096888 231.93333Q24.096888 230.60521 25.112513 230.12083Q24.659388 229.80833 24.378138 229.30833Q24.096888 228.79271 24.096888 228.10521Q24.096888 226.01146 26.300013 225.98021L30.550013 225.98021L30.550013 227.05833L26.362513 227.05833Q25.690638 227.05833 25.362513 227.37083Q25.018763 227.68333 25.018763 228.41771Q25.018763 229.02708 25.378138 229.43333Q25.737513 229.82396 26.346888 229.88646L30.550013 229.88646L30.550013 230.96458L26.393763 230.96458Q25.018763 230.96458 25.018763 232.32396Q25.018763 233.38646 25.925013 233.77708L30.550013 233.77708L30.550013 234.87083L24.206263 234.87083L24.206263 233.83958ZM30.675013 221.23021Q30.675013 222.52708 29.831263 223.33958Q28.971888 224.13646 27.550013 224.13646L27.362513 224.13646Q26.409388 224.13646 25.675013 223.77708Q24.925013 223.41771 24.518763 222.77708Q24.096888 222.12083 24.096888 221.37083Q24.096888 220.13646 24.909388 219.44896Q25.721888 218.76146 27.237513 218.76146L27.690638 218.76146L27.690638 223.05833Q28.628138 223.02708 29.206263 222.51146Q29.784388 221.98021 29.784388 221.16771Q29.784388 220.60521 29.550013 220.21458Q29.315638 219.80833 28.925013 219.49583L29.440638 218.83958Q30.675013 219.63646 30.675013 221.23021ZM24.987513 221.37083Q24.987513 222.02708 25.471888 222.48021Q25.940638 222.91771 26.800013 223.01146L26.800013 219.83958L26.721888 219.83958Q25.893763 219.88646 25.440638 220.29271Q24.987513 220.68333 24.987513 221.37083ZM27.081263 214.90208Q25.768763 214.90208 24.550013 214.55833Q23.331263 214.19896 22.331263 213.49583Q21.331263 212.79271 20.925013 212.02708L21.643763 211.80833Q22.300013 212.66771 23.643763 213.21458Q24.987513 213.76146 26.659388 213.80833L27.159388 213.82396Q29.425013 213.82396 31.081263 212.99583Q32.08126 212.49583 32.64376 211.80833L33.30001 212.02708Q32.878136 212.80833 31.846888 213.52708Q29.862513 214.90208 27.081263 214.90208ZM24.206263 209.83958L24.909388 209.80833Q24.096888 209.12083 24.096888 207.93333Q24.096888 206.60521 25.112513 206.12083Q24.659388 205.80833 24.378138 205.30833Q24.096888 204.79271 24.096888 204.10521Q24.096888 202.01146 26.300013 201.98021L30.550013 201.98021L30.550013 203.05833L26.362513 203.05833Q25.690638 203.05833 25.362513 203.37083Q25.018763 203.68333 25.018763 204.41771Q25.018763 205.02708 25.378138 205.43333Q25.737513 205.82396 26.346888 205.88646L30.550013 205.88646L30.550013 206.96458L26.393763 206.96458Q25.018763 206.96458 25.018763 208.32396Q25.018763 209.38646 25.925013 209.77708L30.550013 209.77708L30.550013 210.87083L24.206263 210.87083L24.206263 209.83958ZM30.550013 198.68333L30.550013 199.76146L24.206263 199.76146L24.206263 198.68333L30.550013 198.68333ZM22.534388 199.85521Q22.268763 199.85521 22.081263 199.69896Q21.893763 199.52708 21.893763 199.21458Q21.893763 198.90208 22.081263 198.74583Q22.268763 198.57396 22.534388 198.57396Q22.784388 198.57396 22.971888 198.74583Q23.143763 198.90208 23.143763 199.21458Q23.143763 199.52708 22.971888 199.69896Q22.784388 199.85521 22.534388 199.85521ZM29.784388 194.32396Q29.784388 193.74583 29.440638 193.30833Q29.081263 192.87083 28.550013 192.82396L28.550013 191.79271Q29.096888 191.82396 29.596888 192.18333Q30.081263 192.52708 30.378138 193.10521Q30.675013 193.66771 30.675013 194.32396Q30.675013 195.62083 29.815638 196.38646Q28.940638 197.13646 27.440638 197.13646L27.253138 197.13646Q26.331263 197.13646 25.612513 196.80833Q24.893763 196.46458 24.503138 195.83958Q24.096888 195.19896 24.096888 194.32396Q24.096888 193.26146 24.737513 192.55833Q25.362513 191.83958 26.393763 191.79271L26.393763 192.82396Q25.768763 192.87083 25.378138 193.29271Q24.987513 193.71458 24.987513 194.32396Q24.987513 195.15208 25.581263 195.60521Q26.175013 196.05833 27.300013 196.05833L27.503138 196.05833Q28.596888 196.05833 29.190638 195.60521Q29.784388 195.15208 29.784388 194.32396ZM25.175013 187.79271Q25.143763 188.04271 25.143763 188.32396Q25.143763 189.40208 26.050013 189.77708L30.550013 189.77708L30.550013 190.85521L24.206263 190.85521L24.206263 189.80833L24.940638 189.79271Q24.096888 189.26146 24.096888 188.27708Q24.096888 187.96458 24.175013 187.79271L25.175013 187.79271ZM27.315638 187.15208Q26.393763 187.15208 25.643763 186.79271Q24.893763 186.41771 24.503138 185.76146Q24.096888 185.10521 24.096888 184.27708Q24.096888 182.98021 24.987513 182.18333Q25.878138 181.37083 27.378138 181.37083L27.456263 181.37083Q28.378138 181.37083 29.112513 181.73021Q29.846888 182.08958 30.268763 182.74583Q30.675013 183.40208 30.675013 184.26146Q30.675013 185.54271 29.784388 186.35521Q28.878138 187.15208 27.393763 187.15208L27.315638 187.15208ZM27.456263 186.05833Q28.503138 186.05833 29.143763 185.57396Q29.784388 185.07396 29.784388 184.26146Q29.784388 183.43333 29.143763 182.94896Q28.487513 182.46458 27.315638 182.46458Q26.284388 182.46458 25.643763 182.96458Q24.987513 183.44896 24.987513 184.27708Q24.987513 185.07396 25.628138 185.57396Q26.253138 186.05833 27.456263 186.05833ZM28.862513 176.16771Q28.425013 176.16771 28.190638 176.51146Q27.940638 176.83958 27.768763 177.66771Q27.596888 178.48021 27.346888 178.96458Q27.096888 179.44896 26.768763 179.68333Q26.425013 179.90208 25.956263 179.90208Q25.175013 179.90208 24.643763 179.24583Q24.096888 178.58958 24.096888 177.55833Q24.096888 176.48021 24.659388 175.82396Q25.206263 175.15208 26.065638 175.15208L26.065638 176.23021Q25.628138 176.23021 25.315638 176.62083Q24.987513 176.99583 24.987513 177.55833Q24.987513 178.15208 25.253138 178.49583Q25.503138 178.82396 25.909388 178.82396Q26.300013 178.82396 26.503138 178.51146Q26.706263 178.19896 26.893763 177.38646Q27.065638 176.57396 27.315638 176.07396Q27.565638 175.57396 27.925013 175.33958Q28.284388 175.08958 28.784388 175.08958Q29.643763 175.08958 30.159388 175.77708Q30.675013 176.44896 30.675013 177.52708Q30.675013 178.29271 30.409388 178.88646Q30.128138 179.46458 29.643763 179.79271Q29.159388 180.12083 28.596888 180.12083L28.596888 179.04271Q29.143763 179.01146 29.471888 178.60521Q29.784388 178.19896 29.784388 177.52708Q29.784388 176.91771 29.534388 176.54271Q29.284388 176.16771 28.862513 176.16771ZM30.675013 171.23021Q30.675013 172.52708 29.831263 173.33958Q28.971888 174.13646 27.550013 174.13646L27.362513 174.13646Q26.409388 174.13646 25.675013 173.77708Q24.925013 173.41771 24.518763 172.77708Q24.096888 172.12083 24.096888 171.37083Q24.096888 170.13646 24.909388 169.44896Q25.721888 168.76146 27.237513 168.76146L27.690638 168.76146L27.690638 173.05833Q28.628138 173.02708 29.206263 172.51146Q29.784388 171.98021 29.784388 171.16771Q29.784388 170.60521 29.550013 170.21458Q29.315638 169.80833 28.925013 169.49583L29.440638 168.83958Q30.675013 169.63646 30.675013 171.23021ZM24.987513 171.37083Q24.987513 172.02708 25.471888 172.48021Q25.940638 172.91771 26.800013 173.01146L26.800013 169.83958L26.721888 169.83958Q25.893763 169.88646 25.440638 170.29271Q24.987513 170.68333 24.987513 171.37083ZM29.784388 165.32396Q29.784388 164.74583 29.440638 164.30833Q29.081263 163.87083 28.550013 163.82396L28.550013 162.79271Q29.096888 162.82396 29.596888 163.18333Q30.081263 163.52708 30.378138 164.10521Q30.675013 164.66771 30.675013 165.32396Q30.675013 166.62083 29.815638 167.38646Q28.940638 168.13646 27.440638 168.13646L27.253138 168.13646Q26.331263 168.13646 25.612513 167.80833Q24.893763 167.46458 24.503138 166.83958Q24.096888 166.19896 24.096888 165.32396Q24.096888 164.26146 24.737513 163.55833Q25.362513 162.83958 26.393763 162.79271L26.393763 163.82396Q25.768763 163.87083 25.378138 164.29271Q24.987513 164.71458 24.987513 165.32396Q24.987513 166.15208 25.581263 166.60521Q26.175013 167.05833 27.300013 167.05833L27.503138 167.05833Q28.596888 167.05833 29.190638 166.60521Q29.784388 166.15208 29.784388 165.32396ZM27.315638 162.15208Q26.393763 162.15208 25.643763 161.79271Q24.893763 161.41771 24.503138 160.76146Q24.096888 160.10521 24.096888 159.27708Q24.096888 157.98021 24.987513 157.18333Q25.878138 156.37083 27.378138 156.37083L27.456263 156.37083Q28.378138 156.37083 29.112513 156.73021Q29.846888 157.08958 30.268763 157.74583Q30.675013 158.40208 30.675013 159.26146Q30.675013 160.54271 29.784388 161.35521Q28.878138 162.15208 27.393763 162.15208L27.315638 162.15208ZM27.456263 161.05833Q28.503138 161.05833 29.143763 160.57396Q29.784388 160.07396 29.784388 159.26146Q29.784388 158.43333 29.143763 157.94896Q28.487513 157.46458 27.315638 157.46458Q26.284388 157.46458 25.643763 157.96458Q24.987513 158.44896 24.987513 159.27708Q24.987513 160.07396 25.628138 160.57396Q26.253138 161.05833 27.456263 161.05833ZM24.206263 153.83958L25.003138 153.80833Q24.096888 153.07396 24.096888 151.90208Q24.096888 149.88646 26.362513 149.87083L30.550013 149.87083L30.550013 150.96458L26.346888 150.96458Q25.675013 150.96458 25.346888 151.27708Q25.018763 151.57396 25.018763 152.23021Q25.018763 152.76146 25.300013 153.16771Q25.581263 153.55833 26.034388 153.77708L30.550013 153.77708L30.550013 154.85521L24.206263 154.85521L24.206263 153.83958ZM27.331263 148.12083Q25.862513 148.12083 24.987513 147.43333Q24.096888 146.74583 24.096888 145.62083Q24.096888 144.51146 24.846888 143.85521L21.550013 143.85521L21.550013 142.77708L30.550013 142.77708L30.550013 143.77708L29.862513 143.82396Q30.675013 144.48021 30.675013 145.63646Q30.675013 146.73021 29.768763 147.43333Q28.862513 148.12083 27.409388 148.12083L27.331263 148.12083ZM27.456263 147.04271Q28.534388 147.04271 29.143763 146.60521Q29.753138 146.15208 29.753138 145.37083Q29.753138 144.33958 28.815638 143.85521L25.909388 143.85521Q25.018763 144.33958 25.018763 145.35521Q25.018763 146.15208 25.628138 146.60521Q26.237513 147.04271 27.456263 147.04271ZM28.862513 137.16771Q28.425013 137.16771 28.190638 137.51146Q27.940638 137.83958 27.768763 138.66771Q27.596888 139.48021 27.346888 139.96458Q27.096888 140.44896 26.768763 140.68333Q26.425013 140.90208 25.956263 140.90208Q25.175013 140.90208 24.643763 140.24583Q24.096888 139.58958 24.096888 138.55833Q24.096888 137.48021 24.659388 136.82396Q25.206263 136.15208 26.065638 136.15208L26.065638 137.23021Q25.628138 137.23021 25.315638 137.62083Q24.987513 137.99583 24.987513 138.55833Q24.987513 139.15208 25.253138 139.49583Q25.503138 139.82396 25.909388 139.82396Q26.300013 139.82396 26.503138 139.51146Q26.706263 139.19896 26.893763 138.38646Q27.065638 137.57396 27.315638 137.07396Q27.565638 136.57396 27.925013 136.33958Q28.284388 136.08958 28.784388 136.08958Q29.643763 136.08958 30.159388 136.77708Q30.675013 137.44896 30.675013 138.52708Q30.675013 139.29271 30.409388 139.88646Q30.128138 140.46458 29.643763 140.79271Q29.159388 141.12083 28.596888 141.12083L28.596888 140.04271Q29.143763 140.01146 29.471888 139.60521Q29.784388 139.19896 29.784388 138.52708Q29.784388 137.91771 29.534388 137.54271Q29.284388 137.16771 28.862513 137.16771ZM27.143763 132.35521Q28.456263 132.35521 29.659388 132.69896Q30.846888 133.04271 31.862513 133.76146Q32.878136 134.46458 33.30001 135.23021L32.64376 135.46458Q31.956263 134.55833 30.503138 134.01146Q29.034388 133.46458 27.268763 133.44896L27.081263 133.44896Q25.846888 133.44896 24.784388 133.71458Q23.721888 133.96458 22.893763 134.43333Q22.050013 134.88646 21.581263 135.46458L20.925013 135.23021Q21.346888 134.46458 22.346888 133.76146Q23.346888 133.05833 24.565638 132.71458Q25.768763 132.35521 27.143763 132.35521Z" fill-rule="nonzero"/><path fill="#757575" d="M55.815624 302.95L54.7375 302.95L54.7375 295.73126L52.55 296.52814L52.55 295.54376L55.659374 294.3719L55.815624 294.3719L55.815624 302.95ZM64.6125 299.3094Q64.6125 301.21564 63.95625 302.15314Q63.315624 303.075 61.925 303.075Q60.565624 303.075 59.909374 302.16876Q59.253124 301.2625 59.221874 299.45L59.221874 298.0125Q59.221874 296.1219 59.8625 295.21564Q60.51875 294.29376 61.909374 294.29376Q63.284374 294.29376 63.940624 295.1844Q64.59688 296.0594 64.6125 297.90314L64.6125 299.3094ZM63.51875 297.825Q63.51875 296.45 63.128124 295.825Q62.753124 295.1844 61.909374 295.1844Q61.08125 295.1844 60.690624 295.825Q60.315624 296.45 60.315624 297.7469L60.315624 299.48126Q60.315624 300.85626 60.70625 301.52814Q61.1125 302.1844 61.925 302.1844Q62.721874 302.1844 63.1125 301.5594Q63.503124 300.9344 63.51875 299.60626L63.51875 297.825ZM71.6125 299.3094Q71.6125 301.21564 70.95625 302.15314Q70.31563 303.075 68.925 303.075Q67.56563 303.075 66.90938 302.16876Q66.25313 301.2625 66.22188 299.45L66.22188 298.0125Q66.22188 296.1219 66.8625 295.21564Q67.51875 294.29376 68.90938 294.29376Q70.28438 294.29376 70.94063 295.1844Q71.59688 296.0594 71.6125 297.90314L71.6125 299.3094ZM70.51875 297.825Q70.51875 296.45 70.12813 295.825Q69.75313 295.1844 68.90938 295.1844Q68.08125 295.1844 67.69063 295.825Q67.31563 296.45 67.31563 297.7469L67.31563 299.48126Q67.31563 300.85626 67.70625 301.52814Q68.1125 302.1844 68.925 302.1844Q69.72188 302.1844 70.1125 301.5594Q70.50313 300.9344 70.51875 299.60626L70.51875 297.825ZM78.6125 299.3094Q78.6125 301.21564 77.95625 302.15314Q77.31563 303.075 75.925 303.075Q74.56563 303.075 73.90938 302.16876Q73.25313 301.2625 73.22188 299.45L73.22188 298.0125Q73.22188 296.1219 73.8625 295.21564Q74.51875 294.29376 75.90938 294.29376Q77.28438 294.29376 77.94063 295.1844Q78.59688 296.0594 78.6125 297.90314L78.6125 299.3094ZM77.51875 297.825Q77.51875 296.45 77.12813 295.825Q76.75313 295.1844 75.90938 295.1844Q75.08125 295.1844 74.69063 295.825Q74.31563 296.45 74.31563 297.7469L74.31563 299.48126Q74.31563 300.85626 74.70625 301.52814Q75.1125 302.1844 75.925 302.1844Q76.72188 302.1844 77.1125 301.5594Q77.50313 300.9344 77.51875 299.60626L77.51875 297.825Z" fill-rule="nonzero"/><path fill="#757575" d="M57.846874 192.18835L52.253124 192.18835L52.253124 191.4071L55.20625 188.12585Q55.8625 187.37585 56.1125 186.92273Q56.3625 186.45398 56.3625 185.95398Q56.3625 185.2821 55.95625 184.86023Q55.565624 184.42273 54.878124 184.42273Q54.08125 184.42273 53.628124 184.89148Q53.175 185.3446 53.175 186.17273L52.096874 186.17273Q52.096874 184.98523 52.846874 184.26648Q53.6125 183.5321 54.878124 183.5321Q56.08125 183.5321 56.76875 184.1571Q57.45625 184.7821 57.45625 185.82898Q57.45625 187.07898 55.846874 188.82898L53.565624 191.29773L57.846874 191.29773L57.846874 192.18835ZM64.6125 188.54773Q64.6125 190.45398 63.95625 191.39148Q63.315624 192.31335 61.925 192.31335Q60.565624 192.31335 59.909374 191.4071Q59.253124 190.50085 59.221874 188.68835L59.221874 187.25085Q59.221874 185.36023 59.8625 184.45398Q60.51875 183.5321 61.909374 183.5321Q63.284374 183.5321 63.940624 184.42273Q64.59688 185.29773 64.6125 187.14148L64.6125 188.54773ZM63.51875 187.06335Q63.51875 185.68835 63.128124 185.06335Q62.753124 184.42273 61.909374 184.42273Q61.08125 184.42273 60.690624 185.06335Q60.315624 185.68835 60.315624 186.98523L60.315624 188.7196Q60.315624 190.0946 60.70625 190.76648Q61.1125 191.42273 61.925 191.42273Q62.721874 191.42273 63.1125 190.79773Q63.503124 190.17273 63.51875 188.8446L63.51875 187.06335ZM71.6125 188.54773Q71.6125 190.45398 70.95625 191.39148Q70.31563 192.31335 68.925 192.31335Q67.56563 192.31335 66.90938 191.4071Q66.25313 190.50085 66.22188 188.68835L66.22188 187.25085Q66.22188 185.36023 66.8625 184.45398Q67.51875 183.5321 68.90938 183.5321Q70.28438 183.5321 70.94063 184.42273Q71.59688 185.29773 71.6125 187.14148L71.6125 188.54773ZM70.51875 187.06335Q70.51875 185.68835 70.12813 185.06335Q69.75313 184.42273 68.90938 184.42273Q68.08125 184.42273 67.69063 185.06335Q67.31563 185.68835 67.31563 186.98523L67.31563 188.7196Q67.31563 190.0946 67.70625 190.76648Q68.1125 191.42273 68.925 191.42273Q69.72188 191.42273 70.1125 190.79773Q70.50313 190.17273 70.51875 188.8446L70.51875 187.06335ZM78.6125 188.54773Q78.6125 190.45398 77.95625 191.39148Q77.31563 192.31335 75.925 192.31335Q74.56563 192.31335 73.90938 191.4071Q73.25313 190.50085 73.22188 188.68835L73.22188 187.25085Q73.22188 185.36023 73.8625 184.45398Q74.51875 183.5321 75.90938 183.5321Q77.28438 183.5321 77.94063 184.42273Q78.59688 185.29773 78.6125 187.14148L78.6125 188.54773ZM77.51875 187.06335Q77.51875 185.68835 77.12813 185.06335Q76.75313 184.42273 75.90938 184.42273Q75.08125 184.42273 74.69063 185.06335Q74.31563 185.68835 74.31563 186.98523L74.31563 188.7196Q74.31563 190.0946 74.70625 190.76648Q75.1125 191.42273 75.925 191.42273Q76.72188 191.42273 77.1125 190.79773Q77.50313 190.17273 77.51875 188.8446L77.51875 187.06335Z" fill-rule="nonzero"/><path fill="#757575" d="M53.83125 122.60007L54.64375 122.60007Q55.425 122.58444 55.8625 122.19382Q56.3 121.80319 56.3 121.13132Q56.3 119.63132 54.8 119.63132Q54.096874 119.63132 53.675 120.03757Q53.26875 120.44382 53.26875 121.10007L52.175 121.10007Q52.175 120.08444 52.909374 119.41257Q53.659374 118.74069 54.8 118.74069Q56.003124 118.74069 56.690624 119.38132Q57.378124 120.02194 57.378124 121.16257Q57.378124 121.72507 57.01875 122.24069Q56.659374 122.75632 56.034374 123.02194Q56.7375 123.24069 57.1125 123.75632Q57.503124 124.27194 57.503124 125.02194Q57.503124 126.16257 56.753124 126.85007Q56.003124 127.52194 54.8 127.52194Q53.6125 127.52194 52.846874 126.86569Q52.096874 126.20944 52.096874 125.14694L53.190624 125.14694Q53.190624 125.81882 53.628124 126.22507Q54.065624 126.63132 54.815624 126.63132Q55.596874 126.63132 56.003124 126.22507Q56.425 125.80319 56.425 125.03757Q56.425 124.30319 55.971874 123.91257Q55.51875 123.50632 54.64375 123.49069L53.83125 123.49069L53.83125 122.60007ZM64.6125 123.75632Q64.6125 125.66257 63.95625 126.60007Q63.315624 127.52194 61.925 127.52194Q60.565624 127.52194 59.909374 126.61569Q59.253124 125.70944 59.221874 123.89694L59.221874 122.45944Q59.221874 120.56882 59.8625 119.66257Q60.51875 118.74069 61.909374 118.74069Q63.284374 118.74069 63.940624 119.63132Q64.59688 120.50632 64.6125 122.35007L64.6125 123.75632ZM63.51875 122.27194Q63.51875 120.89694 63.128124 120.27194Q62.753124 119.63132 61.909374 119.63132Q61.08125 119.63132 60.690624 120.27194Q60.315624 120.89694 60.315624 122.19382L60.315624 123.92819Q60.315624 125.30319 60.70625 125.97507Q61.1125 126.63132 61.925 126.63132Q62.721874 126.63132 63.1125 126.00632Q63.503124 125.38132 63.51875 124.05319L63.51875 122.27194ZM71.6125 123.75632Q71.6125 125.66257 70.95625 126.60007Q70.31563 127.52194 68.925 127.52194Q67.56563 127.52194 66.90938 126.61569Q66.25313 125.70944 66.22188 123.89694L66.22188 122.45944Q66.22188 120.56882 66.8625 119.66257Q67.51875 118.74069 68.90938 118.74069Q70.28438 118.74069 70.94063 119.63132Q71.59688 120.50632 71.6125 122.35007L71.6125 123.75632ZM70.51875 122.27194Q70.51875 120.89694 70.12813 120.27194Q69.75313 119.63132 68.90938 119.63132Q68.08125 119.63132 67.69063 120.27194Q67.31563 120.89694 67.31563 122.19382L67.31563 123.92819Q67.31563 125.30319 67.70625 125.97507Q68.1125 126.63132 68.925 126.63132Q69.72188 126.63132 70.1125 126.00632Q70.50313 125.38132 70.51875 124.05319L70.51875 122.27194ZM78.6125 123.75632Q78.6125 125.66257 77.95625 126.60007Q77.31563 127.52194 75.925 127.52194Q74.56563 127.52194 73.90938 126.61569Q73.25313 125.70944 73.22188 123.89694L73.22188 122.45944Q73.22188 120.56882 73.8625 119.66257Q74.51875 118.74069 75.90938 118.74069Q77.28438 118.74069 77.94063 119.63132Q78.59688 120.50632 78.6125 122.35007L78.6125 123.75632ZM77.51875 122.27194Q77.51875 120.89694 77.12813 120.27194Q76.75313 119.63132 75.90938 119.63132Q75.08125 119.63132 74.69063 120.27194Q74.31563 120.89694 74.31563 122.19382L74.31563 123.92819Q74.31563 125.30319 74.70625 125.97507Q75.1125 126.63132 75.925 126.63132Q76.72188 126.63132 77.1125 126.00632Q77.50313 125.38132 77.51875 124.05319L77.51875 122.27194Z" fill-rule="nonzero"/><path fill="#757575" d="M56.83125 78.56733L58.01875 78.56733L58.01875 79.44233L56.83125 79.44233L56.83125 81.426704L55.753124 81.426704L55.753124 79.44233L51.8625 79.44233L51.8625 78.801704L55.675 72.895454L56.83125 72.895454L56.83125 78.56733ZM53.096874 78.56733L55.753124 78.56733L55.753124 74.37983L55.6125 74.614204L53.096874 78.56733ZM64.6125 77.78608Q64.6125 79.69233 63.95625 80.62983Q63.315624 81.551704 61.925 81.551704Q60.565624 81.551704 59.909374 80.645454Q59.253124 79.739204 59.221874 77.926704L59.221874 76.489204Q59.221874 74.59858 59.8625 73.69233Q60.51875 72.770454 61.909374 72.770454Q63.284374 72.770454 63.940624 73.66108Q64.59688 74.53608 64.6125 76.37983L64.6125 77.78608ZM63.51875 76.301704Q63.51875 74.926704 63.128124 74.301704Q62.753124 73.66108 61.909374 73.66108Q61.08125 73.66108 60.690624 74.301704Q60.315624 74.926704 60.315624 76.22358L60.315624 77.957954Q60.315624 79.332954 60.70625 80.00483Q61.1125 80.66108 61.925 80.66108Q62.721874 80.66108 63.1125 80.03608Q63.503124 79.41108 63.51875 78.082954L63.51875 76.301704ZM71.6125 77.78608Q71.6125 79.69233 70.95625 80.62983Q70.31563 81.551704 68.925 81.551704Q67.56563 81.551704 66.90938 80.645454Q66.25313 79.739204 66.22188 77.926704L66.22188 76.489204Q66.22188 74.59858 66.8625 73.69233Q67.51875 72.770454 68.90938 72.770454Q70.28438 72.770454 70.94063 73.66108Q71.59688 74.53608 71.6125 76.37983L71.6125 77.78608ZM70.51875 76.301704Q70.51875 74.926704 70.12813 74.301704Q69.75313 73.66108 68.90938 73.66108Q68.08125 73.66108 67.69063 74.301704Q67.31563 74.926704 67.31563 76.22358L67.31563 77.957954Q67.31563 79.332954 67.70625 80.00483Q68.1125 80.66108 68.925 80.66108Q69.72188 80.66108 70.1125 80.03608Q70.50313 79.41108 70.51875 78.082954L70.51875 76.301704ZM78.6125 77.78608Q78.6125 79.69233 77.95625 80.62983Q77.31563 81.551704 75.925 81.551704Q74.56563 81.551704 73.90938 80.645454Q73.25313 79.739204 73.22188 77.926704L73.22188 76.489204Q73.22188 74.59858 73.8625 73.69233Q74.51875 72.770454 75.90938 72.770454Q77.28438 72.770454 77.94063 73.66108Q78.59688 74.53608 78.6125 76.37983L78.6125 77.78608ZM77.51875 76.301704Q77.51875 74.926704 77.12813 74.301704Q76.75313 73.66108 75.90938 73.66108Q75.08125 73.66108 74.69063 74.301704Q74.31563 74.926704 74.31563 76.22358L74.31563 77.957954Q74.31563 79.332954 74.70625 80.00483Q75.1125 80.66108 75.925 80.66108Q76.72188 80.66108 77.1125 80.03608Q77.50313 79.41108 77.51875 78.082954L77.51875 76.301704Z" fill-rule="nonzero"/><path fill="#757575" d="M121.73705 316.45L120.65893 316.45L120.65893 309.23126L118.47143 310.02814L118.47143 309.04376L121.5808 307.8719L121.73705 307.8719L121.73705 316.45Z" fill-rule="nonzero"/><path fill="#757575" d="M194.61116 316.45L189.01741 316.45L189.01741 315.66876L191.97054 312.3875Q192.62679 311.6375 192.87679 311.1844Q193.12679 310.71564 193.12679 310.21564Q193.12679 309.54376 192.72054 309.1219Q192.32991 308.6844 191.64241 308.6844Q190.84554 308.6844 190.39241 309.15314Q189.93929 309.60626 189.93929 310.4344L188.86116 310.4344Q188.86116 309.2469 189.61116 308.52814Q190.37679 307.79376 191.64241 307.79376Q192.84554 307.79376 193.53304 308.41876Q194.22054 309.04376 194.22054 310.09064Q194.22054 311.34064 192.61116 313.09064L190.32991 315.5594L194.61116 315.5594L194.61116 316.45Z" fill-rule="nonzero"/><path fill="#757575" d="M264.4384 313.59064L265.6259 313.59064L265.6259 314.46564L264.4384 314.46564L264.4384 316.45L263.36026 316.45L263.36026 314.46564L259.46964 314.46564L259.46964 313.825L263.28214 307.91876L264.4384 307.91876L264.4384 313.59064ZM260.704 313.59064L263.36026 313.59064L263.36026 309.40314L263.21964 309.6375L260.704 313.59064Z" fill-rule="nonzero"/><path fill="#757575" d="M335.89062 310.1375Q335.89062 310.77814 335.54688 311.27814Q335.20312 311.77814 334.64062 312.0594Q335.29688 312.34064 335.6875 312.90314Q336.07812 313.45 336.07812 314.15314Q336.07812 315.2469 335.32812 315.91876Q334.59375 316.575 333.375 316.575Q332.14062 316.575 331.39062 315.91876Q330.65625 315.2469 330.65625 314.15314Q330.65625 313.45 331.03125 312.90314Q331.40625 312.34064 332.07812 312.0594Q331.51562 311.77814 331.1875 311.27814Q330.85938 310.77814 330.85938 310.1375Q330.85938 309.0594 331.54688 308.4344Q332.23438 307.79376 333.375 307.79376Q334.5 307.79376 335.1875 308.4344Q335.89062 309.0594 335.89062 310.1375ZM335.0 314.1219Q335.0 313.40314 334.54688 312.96564Q334.09375 312.5125 333.35938 312.5125Q332.625 312.5125 332.17188 312.96564Q331.73438 313.40314 331.73438 314.1375Q331.73438 314.85626 332.17188 315.27814Q332.60938 315.6844 333.375 315.6844Q334.125 315.6844 334.5625 315.2625Q335.0 314.84064 335.0 314.1219ZM333.375 308.6844Q332.73438 308.6844 332.32812 309.09064Q331.9375 309.48126 331.9375 310.16876Q331.9375 310.8094 332.32812 311.21564Q332.71875 311.6219 333.35938 311.6219Q334.01562 311.6219 334.40625 311.21564Q334.79688 310.8094 334.79688 310.16876Q334.79688 309.5125 334.39062 309.10626Q333.98438 308.6844 333.375 308.6844Z" fill-rule="nonzero"/><path fill="#757575" d="M401.6085 316.45L400.53036 316.45L400.53036 309.23126L398.34286 310.02814L398.34286 309.04376L401.45224 307.8719L401.6085 307.8719L401.6085 316.45ZM409.3116 307.91876L409.3116 308.825L409.1085 308.825Q407.84286 308.85626 407.09286 309.59064Q406.34286 310.3094 406.21786 311.6219Q406.90536 310.85626 408.0616 310.85626Q409.171 310.85626 409.84286 311.6375Q410.51474 312.41876 410.51474 313.66876Q410.51474 314.98126 409.796 315.77814Q409.07724 316.575 407.8585 316.575Q406.63974 316.575 405.8741 315.6375Q405.1241 314.6844 405.1241 313.2L405.1241 312.79376Q405.1241 310.4344 406.1241 309.1844Q407.1241 307.9344 409.1085 307.91876L409.3116 307.91876ZM407.88974 311.7625Q407.32724 311.7625 406.8585 312.09064Q406.38974 312.41876 406.20224 312.9344L406.20224 313.325Q406.20224 314.3875 406.671 315.02814Q407.15536 315.66876 407.8585 315.66876Q408.59286 315.66876 409.01474 315.1375Q409.4366 314.59064 409.4366 313.71564Q409.4366 312.84064 409.01474 312.3094Q408.59286 311.7625 407.88974 311.7625Z" fill-rule="nonzero"/><path fill="#757575" d="M470.46695 311.65314L471.27945 311.65314Q472.0607 311.6375 472.4982 311.2469Q472.9357 310.85626 472.9357 310.1844Q472.9357 308.6844 471.4357 308.6844Q470.73257 308.6844 470.3107 309.09064Q469.90445 309.4969 469.90445 310.15314L468.8107 310.15314Q468.8107 309.1375 469.54507 308.46564Q470.29507 307.79376 471.4357 307.79376Q472.63882 307.79376 473.32632 308.4344Q474.01382 309.075 474.01382 310.21564Q474.01382 310.77814 473.65445 311.29376Q473.29507 311.8094 472.67007 312.075Q473.3732 312.29376 473.7482 312.8094Q474.13882 313.325 474.13882 314.075Q474.13882 315.21564 473.38882 315.90314Q472.63882 316.575 471.4357 316.575Q470.2482 316.575 469.48257 315.91876Q468.73257 315.2625 468.73257 314.2L469.82632 314.2Q469.82632 314.8719 470.26382 315.27814Q470.70132 315.6844 471.45132 315.6844Q472.23257 315.6844 472.63882 315.27814Q473.0607 314.85626 473.0607 314.09064Q473.0607 313.35626 472.60757 312.96564Q472.15445 312.5594 471.27945 312.54376L470.46695 312.54376L470.46695 311.65314ZM481.48257 316.45L475.88882 316.45L475.88882 315.66876L478.84195 312.3875Q479.4982 311.6375 479.7482 311.1844Q479.9982 310.71564 479.9982 310.21564Q479.9982 309.54376 479.59195 309.1219Q479.20132 308.6844 478.51382 308.6844Q477.71695 308.6844 477.26382 309.15314Q476.8107 309.60626 476.8107 310.4344L475.73257 310.4344Q475.73257 309.2469 476.48257 308.52814Q477.2482 307.79376 478.51382 307.79376Q479.71695 307.79376 480.40445 308.41876Q481.09195 309.04376 481.09195 310.09064Q481.09195 311.34064 479.48257 313.09064L477.20132 315.5594L481.48257 315.5594L481.48257 316.45Z" fill-rule="nonzero"/><path fill="#757575" d="M543.9973 307.91876L543.9973 308.825L543.7942 308.825Q542.52856 308.85626 541.77856 309.59064Q541.02856 310.3094 540.90356 311.6219Q541.59106 310.85626 542.7473 310.85626Q543.8567 310.85626 544.52856 311.6375Q545.20044 312.41876 545.20044 313.66876Q545.20044 314.98126 544.4817 315.77814Q543.76294 316.575 542.5442 316.575Q541.32544 316.575 540.5598 315.6375Q539.8098 314.6844 539.8098 313.2L539.8098 312.79376Q539.8098 310.4344 540.8098 309.1844Q541.8098 307.9344 543.7942 307.91876L543.9973 307.91876ZM542.57544 311.7625Q542.01294 311.7625 541.5442 312.09064Q541.07544 312.41876 540.88794 312.9344L540.88794 313.325Q540.88794 314.3875 541.3567 315.02814Q541.84106 315.66876 542.5442 315.66876Q543.27856 315.66876 543.70044 315.1375Q544.1223 314.59064 544.1223 313.71564Q544.1223 312.84064 543.70044 312.3094Q543.27856 311.7625 542.57544 311.7625ZM551.3098 313.59064L552.4973 313.59064L552.4973 314.46564L551.3098 314.46564L551.3098 316.45L550.2317 316.45L550.2317 314.46564L546.34106 314.46564L546.34106 313.825L550.15356 307.91876L551.3098 307.91876L551.3098 313.59064ZM547.57544 313.59064L550.2317 313.59064L550.2317 309.40314L550.09106 309.6375L547.57544 313.59064Z" fill-rule="nonzero"/><path fill="#757575" d="M24.159374 36.26875Q25.128124 36.26875 25.846874 35.690624Q26.565624 35.096874 26.64375 34.221874L28.3625 34.221874Q28.3 35.128124 27.721874 35.95625Q27.159374 36.76875 26.190624 37.26875Q25.2375 37.753124 24.159374 37.753124Q22.003124 37.753124 20.721874 36.315624Q19.45625 34.8625 19.45625 32.3625L19.45625 32.065624Q19.45625 30.51875 20.01875 29.315624Q20.58125 28.1125 21.64375 27.45625Q22.70625 26.784374 24.14375 26.784374Q25.925 26.784374 27.096874 27.846874Q28.284374 28.909374 28.3625 30.6125L26.64375 30.6125Q26.565624 29.596874 25.8625 28.940624Q25.175 28.26875 24.14375 28.26875Q22.76875 28.26875 22.003124 29.26875Q21.253124 30.253124 21.253124 32.128124L21.253124 32.471874Q21.253124 34.3 22.003124 35.284374Q22.753124 36.26875 24.159374 36.26875ZM34.3 37.753124Q32.159374 37.753124 30.8 36.346874Q29.45625 34.925 29.45625 32.565624L29.45625 32.221874Q29.45625 30.659374 30.05 29.425Q30.659374 28.190624 31.7375 27.4875Q32.815624 26.784374 34.08125 26.784374Q36.14375 26.784374 37.284374 28.14375Q38.425 29.503124 38.425 32.034374L38.425 32.784374L31.26875 32.784374Q31.3 34.346874 32.175 35.315624Q33.05 36.26875 34.39375 36.26875Q35.3625 36.26875 36.01875 35.878124Q36.690624 35.4875 37.190624 34.846874L38.284374 35.70625Q36.95625 37.753124 34.3 37.753124ZM34.08125 28.26875Q32.9875 28.26875 32.2375 29.065624Q31.503124 29.8625 31.33125 31.3L36.6125 31.3L36.6125 31.159374Q36.534374 29.784374 35.8625 29.034374Q35.20625 28.26875 34.08125 28.26875ZM40.4875 32.175Q40.4875 29.70625 41.628124 28.253124Q42.76875 26.784374 44.659374 26.784374Q46.596874 26.784374 47.675 28.159374L47.76875 26.9875L49.409374 26.9875L49.409374 37.3Q49.409374 39.346874 48.190624 40.51875Q46.9875 41.70625 44.925 41.70625Q43.784374 41.70625 42.690624 41.221874Q41.596874 40.7375 41.01875 39.878124L41.95625 38.8Q43.128124 40.2375 44.8 40.2375Q46.128124 40.2375 46.8625 39.4875Q47.596874 38.753124 47.596874 37.409374L47.596874 36.4875Q46.51875 37.753124 44.64375 37.753124Q42.784374 37.753124 41.628124 36.253124Q40.4875 34.753124 40.4875 32.175ZM42.3 32.378124Q42.3 34.175 43.034374 35.190624Q43.76875 36.20625 45.08125 36.20625Q46.8 36.20625 47.596874 34.659374L47.596874 29.83125Q46.76875 28.315624 45.1125 28.315624Q43.784374 28.315624 43.034374 29.346874Q42.3 30.378124 42.3 32.378124ZM55.675 32.253124L50.909374 32.253124L50.909374 30.76875L55.675 30.76875L55.675 32.253124ZM59.6125 26.9875L59.659374 28.159374Q60.83125 26.784374 62.8 26.784374Q65.01875 26.784374 65.81563 28.4875Q66.34688 27.721874 67.19063 27.253124Q68.03438 26.784374 69.19063 26.784374Q72.65938 26.784374 72.72188 30.471874L72.72188 37.55L70.90938 37.55L70.90938 30.58125Q70.90938 29.440624 70.39375 28.878124Q69.87813 28.315624 68.65938 28.315624Q67.65938 28.315624 66.9875 28.925Q66.33125 29.51875 66.22188 30.534374L66.22188 37.55L64.40938 37.55L64.40938 30.628124Q64.40938 28.315624 62.14375 28.315624Q60.3625 28.315624 59.721874 29.83125L59.721874 37.55L57.909374 37.55L57.909374 26.9875L59.6125 26.9875ZM75.44063 32.175Q75.44063 30.6125 76.05 29.378124Q76.65938 28.128124 77.7375 27.45625Q78.83125 26.784374 80.2375 26.784374Q82.39375 26.784374 83.72188 28.284374Q85.06563 29.76875 85.06563 32.253124L85.06563 32.378124Q85.06563 33.925 84.47188 35.159374Q83.87813 36.378124 82.76875 37.065624Q81.675 37.753124 80.25313 37.753124Q78.1125 37.753124 76.76875 36.253124Q75.44063 34.753124 75.44063 32.3L75.44063 32.175ZM77.25313 32.378124Q77.25313 34.14375 78.06563 35.20625Q78.89375 36.26875 80.25313 36.26875Q81.62813 36.26875 82.44063 35.190624Q83.25313 34.1125 83.25313 32.175Q83.25313 30.425 82.425 29.346874Q81.59688 28.26875 80.2375 28.26875Q78.89375 28.26875 78.06563 29.33125Q77.25313 30.39375 77.25313 32.378124ZM86.44063 32.175Q86.44063 30.6125 87.05 29.378124Q87.65938 28.128124 88.7375 27.45625Q89.83125 26.784374 91.2375 26.784374Q93.39375 26.784374 94.72188 28.284374Q96.06563 29.76875 96.06563 32.253124L96.06563 32.378124Q96.06563 33.925 95.47188 35.159374Q94.87813 36.378124 93.76875 37.065624Q92.675 37.753124 91.25313 37.753124Q89.1125 37.753124 87.76875 36.253124Q86.44063 34.753124 86.44063 32.3L86.44063 32.175ZM88.25313 32.378124Q88.25313 34.14375 89.06563 35.20625Q89.89375 36.26875 91.25313 36.26875Q92.62813 36.26875 93.44063 35.190624Q94.25313 34.1125 94.25313 32.175Q94.25313 30.425 93.425 29.346874Q92.59688 28.26875 91.2375 28.26875Q89.89375 28.26875 89.06563 29.33125Q88.25313 30.39375 88.25313 32.378124ZM103.01875 28.596874Q102.6125 28.534374 102.14375 28.534374Q100.3625 28.534374 99.72188 30.05L99.72188 37.55L97.925 37.55L97.925 26.9875L99.675 26.9875L99.70625 28.20625Q100.59688 26.784374 102.22188 26.784374Q102.75313 26.784374 103.01875 26.925L103.01875 28.596874ZM109.3 37.753124Q107.15938 37.753124 105.8 36.346874Q104.45625 34.925 104.45625 32.565624L104.45625 32.221874Q104.45625 30.659374 105.05 29.425Q105.65938 28.190624 106.7375 27.4875Q107.81563 26.784374 109.08125 26.784374Q111.14375 26.784374 112.28438 28.14375Q113.425 29.503124 113.425 32.034374L113.425 32.784374L106.26875 32.784374Q106.3 34.346874 107.175 35.315624Q108.05 36.26875 109.39375 36.26875Q110.3625 36.26875 111.01875 35.878124Q111.69063 35.4875 112.19063 34.846874L113.28438 35.70625Q111.95625 37.753124 109.3 37.753124ZM109.08125 28.26875Q107.9875 28.26875 107.2375 29.065624Q106.50313 29.8625 106.33125 31.3L111.6125 31.3L111.6125 31.159374Q111.53438 29.784374 110.8625 29.034374Q110.20625 28.26875 109.08125 28.26875ZM120.84688 31.784374Q120.84688 29.565624 121.44063 27.534374Q122.03438 25.503124 123.20625 23.846874Q124.37813 22.190624 125.62813 21.503124L126.00313 22.690624Q124.58125 23.784374 123.65938 26.034374Q122.75313 28.284374 122.65938 31.065624L122.65938 31.89375Q122.65938 35.659374 124.03438 38.440624Q124.8625 40.096874 126.00313 41.034374L125.62813 42.14375Q124.33125 41.425 123.15938 39.721874Q120.84688 36.39375 120.84688 31.784374ZM136.05 33.83125L130.09688 33.83125L128.75313 37.55L126.83125 37.55L132.25313 23.33125L133.89375 23.33125L139.33125 37.55L137.40938 37.55L136.05 33.83125ZM130.65938 32.3L135.50313 32.3L133.08125 25.64375L130.65938 32.3ZM143.62813 23.33125L148.26875 34.925L152.925 23.33125L155.34688 23.33125L155.34688 37.55L153.47188 37.55L153.47188 32.01875L153.65938 26.034374L148.9875 37.55L147.55 37.55L142.89375 26.065624L143.08125 32.01875L143.08125 37.55L141.20625 37.55L141.20625 23.33125L143.62813 23.33125ZM158.20625 37.55L158.20625 23.33125L162.22188 23.33125Q164.06563 23.33125 165.4875 24.159374Q166.925 24.971874 167.69063 26.4875Q168.47188 28.003124 168.4875 29.95625L168.4875 30.8625Q168.4875 32.878124 167.70625 34.39375Q166.925 35.909374 165.4875 36.721874Q164.05 37.534374 162.14375 37.55L158.20625 37.55ZM160.08125 24.878124L160.08125 36.01875L162.05 36.01875Q164.22188 36.01875 165.425 34.675Q166.62813 33.315624 166.62813 30.83125L166.62813 30.003124Q166.62813 27.58125 165.4875 26.2375Q164.34688 24.89375 162.26875 24.878124L160.08125 24.878124ZM187.14375 30.89375Q187.14375 32.9875 186.44063 34.55Q185.7375 36.096874 184.44063 36.925Q183.15938 37.753124 181.44063 37.753124Q179.75313 37.753124 178.45625 36.925Q177.15938 36.096874 176.44063 34.565624Q175.72188 33.034374 175.70625 31.01875L175.70625 30.003124Q175.70625 27.95625 176.40938 26.378124Q177.12813 24.8 178.425 23.971874Q179.7375 23.128124 181.40938 23.128124Q183.12813 23.128124 184.425 23.95625Q185.7375 24.784374 186.44063 26.3625Q187.14375 27.925 187.14375 30.003124L187.14375 30.89375ZM185.26875 29.9875Q185.26875 27.45625 184.25313 26.1125Q183.2375 24.753124 181.40938 24.753124Q179.64375 24.753124 178.6125 26.1125Q177.59688 27.45625 177.56563 29.846874L177.56563 30.89375Q177.56563 33.346874 178.59688 34.753124Q179.62813 36.159374 181.44063 36.159374Q183.25313 36.159374 184.2375 34.83125Q185.2375 33.503124 185.26875 31.034374L185.26875 29.9875ZM198.84688 32.378124Q198.84688 34.8 197.7375 36.284374Q196.64375 37.753124 194.75313 37.753124Q192.83125 37.753124 191.72188 36.51875L191.72188 41.6125L189.925 41.6125L189.925 26.9875L191.56563 26.9875L191.65938 28.159374Q192.75313 26.784374 194.72188 26.784374Q196.62813 26.784374 197.7375 28.221874Q198.84688 29.659374 198.84688 32.221874L198.84688 32.378124ZM197.03438 32.175Q197.03438 30.39375 196.26875 29.3625Q195.51875 28.315624 194.19063 28.315624Q192.55 28.315624 191.72188 29.76875L191.72188 34.83125Q192.53438 36.26875 194.20625 36.26875Q195.50313 36.26875 196.26875 35.2375Q197.03438 34.20625 197.03438 32.175ZM203.3625 24.425L203.3625 26.9875L205.34688 26.9875L205.34688 28.378124L203.3625 28.378124L203.3625 34.925Q203.3625 35.565624 203.62813 35.89375Q203.89375 36.20625 204.53438 36.20625Q204.84688 36.20625 205.39375 36.08125L205.39375 37.55Q204.675 37.753124 204.00313 37.753124Q202.8 37.753124 202.175 37.01875Q201.56563 36.284374 201.56563 34.925L201.56563 28.378124L199.64375 28.378124L199.64375 26.9875L201.56563 26.9875L201.56563 24.425L203.3625 24.425ZM212.3 37.753124Q210.15938 37.753124 208.8 36.346874Q207.45625 34.925 207.45625 32.565624L207.45625 32.221874Q207.45625 30.659374 208.05 29.425Q208.65938 28.190624 209.7375 27.4875Q210.81563 26.784374 212.08125 26.784374Q214.14375 26.784374 215.28438 28.14375Q216.425 29.503124 216.425 32.034374L216.425 32.784374L209.26875 32.784374Q209.3 34.346874 210.175 35.315624Q211.05 36.26875 212.39375 36.26875Q213.3625 36.26875 214.01875 35.878124Q214.69063 35.4875 215.19063 34.846874L216.28438 35.70625Q214.95625 37.753124 212.3 37.753124ZM212.08125 28.26875Q210.9875 28.26875 210.2375 29.065624Q209.50313 29.8625 209.33125 31.3L214.6125 31.3L214.6125 31.159374Q214.53438 29.784374 213.8625 29.034374Q213.20625 28.26875 212.08125 28.26875ZM224.01875 28.596874Q223.6125 28.534374 223.14375 28.534374Q221.3625 28.534374 220.72188 30.05L220.72188 37.55L218.925 37.55L218.925 26.9875L220.675 26.9875L220.70625 28.20625Q221.59688 26.784374 223.22188 26.784374Q223.75313 26.784374 224.01875 26.925L224.01875 28.596874ZM225.44063 32.175Q225.44063 30.6125 226.05 29.378124Q226.65938 28.128124 227.7375 27.45625Q228.83125 26.784374 230.2375 26.784374Q232.39375 26.784374 233.72188 28.284374Q235.06563 29.76875 235.06563 32.253124L235.06563 32.378124Q235.06563 33.925 234.47188 35.159374Q233.87813 36.378124 232.76875 37.065624Q231.675 37.753124 230.25313 37.753124Q228.1125 37.753124 226.76875 36.253124Q225.44063 34.753124 225.44063 32.3L225.44063 32.175ZM227.25313 32.378124Q227.25313 34.14375 228.06563 35.20625Q228.89375 36.26875 230.25313 36.26875Q231.62813 36.26875 232.44063 35.190624Q233.25313 34.1125 233.25313 32.175Q233.25313 30.425 232.425 29.346874Q231.59688 28.26875 230.2375 28.26875Q228.89375 28.26875 228.06563 29.33125Q227.25313 30.39375 227.25313 32.378124ZM238.62813 26.9875L238.69063 28.315624Q239.89375 26.784374 241.84688 26.784374Q245.20625 26.784374 245.22188 30.565624L245.22188 37.55L243.425 37.55L243.425 30.55Q243.40938 29.409374 242.89375 28.8625Q242.39375 28.315624 241.3 28.315624Q240.425 28.315624 239.75313 28.784374Q239.09688 29.253124 238.72188 30.01875L238.72188 37.55L236.925 37.55L236.925 26.9875L238.62813 26.9875ZM255.08125 31.9875L255.08125 37.55L253.20625 37.55L253.20625 23.33125L258.4406 23.33125Q260.78436 23.33125 262.09686 24.51875Q263.425 25.70625 263.425 27.675Q263.425 29.753124 262.1281 30.878124Q260.83124 31.9875 258.425 31.9875L255.08125 31.9875ZM255.08125 30.45625L258.4406 30.45625Q259.95624 30.45625 260.7531 29.753124Q261.55 29.034374 261.55 27.690624Q261.55 26.425 260.7531 25.675Q259.95624 24.909374 258.55 24.878124L255.08125 24.878124L255.08125 30.45625ZM271.01874 28.596874Q270.6125 28.534374 270.14374 28.534374Q268.3625 28.534374 267.72186 30.05L267.72186 37.55L265.925 37.55L265.925 26.9875L267.675 26.9875L267.70624 28.20625Q268.59686 26.784374 270.22186 26.784374Q270.7531 26.784374 271.01874 26.925L271.01874 28.596874ZM272.4406 32.175Q272.4406 30.6125 273.05 29.378124Q273.65936 28.128124 274.7375 27.45625Q275.83124 26.784374 277.2375 26.784374Q279.39374 26.784374 280.72186 28.284374Q282.0656 29.76875 282.0656 32.253124L282.0656 32.378124Q282.0656 33.925 281.47186 35.159374Q280.8781 36.378124 279.76874 37.065624Q278.675 37.753124 277.2531 37.753124Q275.1125 37.753124 273.76874 36.253124Q272.4406 34.753124 272.4406 32.3L272.4406 32.175ZM274.2531 32.378124Q274.2531 34.14375 275.0656 35.20625Q275.89374 36.26875 277.2531 36.26875Q278.6281 36.26875 279.4406 35.190624Q280.2531 34.1125 280.2531 32.175Q280.2531 30.425 279.425 29.346874Q278.59686 28.26875 277.2375 28.26875Q275.89374 28.26875 275.0656 29.33125Q274.2531 30.39375 274.2531 32.378124ZM288.15936 36.26875Q289.1281 36.26875 289.84686 35.690624Q290.5656 35.096874 290.64374 34.221874L292.3625 34.221874Q292.3 35.128124 291.72186 35.95625Q291.15936 36.76875 290.1906 37.26875Q289.2375 37.753124 288.15936 37.753124Q286.0031 37.753124 284.72186 36.315624Q283.45624 34.8625 283.45624 32.3625L283.45624 32.065624Q283.45624 30.51875 284.01874 29.315624Q284.58124 28.1125 285.64374 27.45625Q286.70624 26.784374 288.14374 26.784374Q289.925 26.784374 291.09686 27.846874Q292.28436 28.909374 292.3625 30.6125L290.64374 30.6125Q290.5656 29.596874 289.8625 28.940624Q289.175 28.26875 288.14374 28.26875Q286.76874 28.26875 286.0031 29.26875Q285.2531 30.253124 285.2531 32.128124L285.2531 32.471874Q285.2531 34.3 286.0031 35.284374Q286.7531 36.26875 288.15936 36.26875ZM298.3 37.753124Q296.15936 37.753124 294.8 36.346874Q293.45624 34.925 293.45624 32.565624L293.45624 32.221874Q293.45624 30.659374 294.05 29.425Q294.65936 28.190624 295.7375 27.4875Q296.8156 26.784374 298.08124 26.784374Q300.14374 26.784374 301.28436 28.14375Q302.425 29.503124 302.425 32.034374L302.425 32.784374L295.26874 32.784374Q295.3 34.346874 296.175 35.315624Q297.05 36.26875 298.39374 36.26875Q299.3625 36.26875 300.01874 35.878124Q300.6906 35.4875 301.1906 34.846874L302.28436 35.70625Q300.95624 37.753124 298.3 37.753124ZM298.08124 28.26875Q296.9875 28.26875 296.2375 29.065624Q295.5031 29.8625 295.33124 31.3L300.6125 31.3L300.6125 31.159374Q300.53436 29.784374 299.8625 29.034374Q299.20624 28.26875 298.08124 28.26875ZM311.0656 34.753124Q311.0656 34.01875 310.51874 33.6125Q309.97186 33.20625 308.59686 32.909374Q307.22186 32.6125 306.40936 32.20625Q305.6125 31.8 305.22186 31.2375Q304.84686 30.659374 304.84686 29.878124Q304.84686 28.58125 305.9406 27.690624Q307.03436 26.784374 308.7531 26.784374Q310.55 26.784374 311.65936 27.721874Q312.78436 28.64375 312.78436 30.08125L310.95624 30.08125Q310.95624 29.346874 310.33124 28.815624Q309.70624 28.26875 308.7531 28.26875Q307.7531 28.26875 307.1906 28.70625Q306.64374 29.128124 306.64374 29.83125Q306.64374 30.471874 307.15936 30.815624Q307.675 31.14375 309.03436 31.45625Q310.39374 31.753124 311.22186 32.175Q312.0656 32.58125 312.47186 33.175Q312.8781 33.76875 312.8781 34.6125Q312.8781 36.034374 311.7375 36.89375Q310.6125 37.753124 308.8 37.753124Q307.53436 37.753124 306.55 37.3Q305.58124 36.846874 305.01874 36.05Q304.47186 35.2375 304.47186 34.3L306.28436 34.3Q306.33124 35.20625 307.0031 35.7375Q307.6906 36.26875 308.8 36.26875Q309.83124 36.26875 310.4406 35.8625Q311.0656 35.440624 311.0656 34.753124ZM321.0656 34.753124Q321.0656 34.01875 320.51874 33.6125Q319.97186 33.20625 318.59686 32.909374Q317.22186 32.6125 316.40936 32.20625Q315.6125 31.8 315.22186 31.2375Q314.84686 30.659374 314.84686 29.878124Q314.84686 28.58125 315.9406 27.690624Q317.03436 26.784374 318.7531 26.784374Q320.55 26.784374 321.65936 27.721874Q322.78436 28.64375 322.78436 30.08125L320.95624 30.08125Q320.95624 29.346874 320.33124 28.815624Q319.70624 28.26875 318.7531 28.26875Q317.7531 28.26875 317.1906 28.70625Q316.64374 29.128124 316.64374 29.83125Q316.64374 30.471874 317.15936 30.815624Q317.675 31.14375 319.03436 31.45625Q320.39374 31.753124 321.22186 32.175Q322.0656 32.58125 322.47186 33.175Q322.8781 33.76875 322.8781 34.6125Q322.8781 36.034374 321.7375 36.89375Q320.6125 37.753124 318.8 37.753124Q317.53436 37.753124 316.55 37.3Q315.58124 36.846874 315.01874 36.05Q314.47186 35.2375 314.47186 34.3L316.28436 34.3Q316.33124 35.20625 317.0031 35.7375Q317.6906 36.26875 318.8 36.26875Q319.83124 36.26875 320.4406 35.8625Q321.0656 35.440624 321.0656 34.753124ZM324.4406 32.175Q324.4406 30.6125 325.05 29.378124Q325.65936 28.128124 326.7375 27.45625Q327.83124 26.784374 329.2375 26.784374Q331.39374 26.784374 332.72186 28.284374Q334.0656 29.76875 334.0656 32.253124L334.0656 32.378124Q334.0656 33.925 333.47186 35.159374Q332.8781 36.378124 331.76874 37.065624Q330.675 37.753124 329.2531 37.753124Q327.1125 37.753124 325.76874 36.253124Q324.4406 34.753124 324.4406 32.3L324.4406 32.175ZM326.2531 32.378124Q326.2531 34.14375 327.0656 35.20625Q327.89374 36.26875 329.2531 36.26875Q330.6281 36.26875 331.4406 35.190624Q332.2531 34.1125 332.2531 32.175Q332.2531 30.425 331.425 29.346874Q330.59686 28.26875 329.2375 28.26875Q327.89374 28.26875 327.0656 29.33125Q326.2531 30.39375 326.2531 32.378124ZM341.01874 28.596874Q340.6125 28.534374 340.14374 28.534374Q338.3625 28.534374 337.72186 30.05L337.72186 37.55L335.925 37.55L335.925 26.9875L337.675 26.9875L337.70624 28.20625Q338.59686 26.784374 340.22186 26.784374Q340.7531 26.784374 341.01874 26.925L341.01874 28.596874ZM354.8156 23.315624L354.8156 24.846874L354.4875 24.846874Q352.3781 24.89375 351.1281 26.1125Q349.8781 27.315624 349.6906 29.51875Q350.8156 28.221874 352.7531 28.221874Q354.6125 28.221874 355.72186 29.534374Q356.83124 30.846874 356.83124 32.909374Q356.83124 35.1125 355.6281 36.440624Q354.425 37.753124 352.425 37.753124Q350.3781 37.753124 349.1125 36.190624Q347.84686 34.6125 347.84686 32.14375L347.84686 31.440624Q347.84686 27.51875 349.51874 25.440624Q351.1906 23.3625 354.5031 23.315624L354.8156 23.315624ZM352.45624 29.721874Q351.51874 29.721874 350.7375 30.284374Q349.95624 30.846874 349.65936 31.675L349.65936 32.346874Q349.65936 34.096874 350.4406 35.175Q351.2375 36.253124 352.425 36.253124Q353.64374 36.253124 354.33124 35.3625Q355.03436 34.45625 355.03436 33.003124Q355.03436 31.534374 354.33124 30.628124Q353.6281 29.721874 352.45624 29.721874ZM364.675 37.55L362.84686 37.55L362.84686 25.503124L359.20624 26.846874L359.20624 25.20625L364.39374 23.26875L364.675 23.26875L364.675 37.55ZM378.90936 24.346874L373.01874 37.55L371.1281 37.55L377.0031 24.815624L369.3 24.815624L369.3 23.33125L378.90936 23.33125L378.90936 24.346874ZM388.3625 32.76875L390.33124 32.76875L390.33124 34.253124L388.3625 34.253124L388.3625 37.55L386.55 37.55L386.55 34.253124L380.0656 34.253124L380.0656 33.190624L386.4406 23.33125L388.3625 23.33125L388.3625 32.76875ZM382.1125 32.76875L386.55 32.76875L386.55 25.8L386.33124 26.190624L382.1125 32.76875ZM396.08124 31.878124Q396.08124 34.05 395.5031 36.05Q394.9406 38.05 393.76874 39.7375Q392.59686 41.425 391.3 42.14375L390.925 41.034374Q392.425 39.878124 393.33124 37.45625Q394.2531 35.034374 394.26874 32.065624L394.26874 31.753124Q394.26874 29.70625 393.83124 27.940624Q393.40936 26.175 392.64374 24.784374Q391.8781 23.39375 390.925 22.6125L391.3 21.503124Q392.59686 22.221874 393.7531 23.89375Q394.925 25.55 395.5031 27.565624Q396.08124 29.58125 396.08124 31.878124ZM403.84686 31.784374Q403.84686 29.565624 404.4406 27.534374Q405.03436 25.503124 406.20624 23.846874Q407.3781 22.190624 408.6281 21.503124L409.0031 22.690624Q407.58124 23.784374 406.65936 26.034374Q405.7531 28.284374 405.65936 31.065624L405.65936 31.89375Q405.65936 35.659374 407.03436 38.440624Q407.8625 40.096874 409.0031 41.034374L408.6281 42.14375Q407.33124 41.425 406.15936 39.721874Q403.84686 36.39375 403.84686 31.784374ZM418.3625 32.76875L420.33124 32.76875L420.33124 34.253124L418.3625 34.253124L418.3625 37.55L416.55 37.55L416.55 34.253124L410.0656 34.253124L410.0656 33.190624L416.4406 23.33125L418.3625 23.33125L418.3625 32.76875ZM412.1125 32.76875L416.55 32.76875L416.55 25.8L416.33124 26.190624L412.1125 32.76875ZM430.3625 27.034374Q430.3625 28.1125 429.8 28.940624Q429.2375 29.76875 428.26874 30.2375Q429.39374 30.70625 430.03436 31.628124Q430.6906 32.55 430.6906 33.70625Q430.6906 35.55 429.4406 36.659374Q428.1906 37.753124 426.15936 37.753124Q424.1125 37.753124 422.8781 36.659374Q421.64374 35.55 421.64374 33.70625Q421.64374 32.565624 422.26874 31.64375Q422.90936 30.70625 424.01874 30.221874Q423.0656 29.753124 422.51874 28.925Q421.97186 28.096874 421.97186 27.034374Q421.97186 25.2375 423.1281 24.190624Q424.28436 23.128124 426.15936 23.128124Q428.03436 23.128124 429.1906 24.190624Q430.3625 25.2375 430.3625 27.034374ZM428.8781 33.675Q428.8781 32.4875 428.1125 31.7375Q427.3625 30.971874 426.14374 30.971874Q424.925 30.971874 424.1906 31.721874Q423.45624 32.45625 423.45624 33.675Q423.45624 34.878124 424.175 35.58125Q424.89374 36.26875 426.15936 36.26875Q427.4406 36.26875 428.15936 35.58125Q428.8781 34.878124 428.8781 33.675ZM426.15936 24.6125Q425.09686 24.6125 424.4406 25.284374Q423.78436 25.940624 423.78436 27.065624Q423.78436 28.159374 424.425 28.83125Q425.08124 29.4875 426.15936 29.4875Q427.2531 29.4875 427.89374 28.83125Q428.55 28.159374 428.55 27.08125Q428.55 25.9875 427.8781 25.3Q427.20624 24.6125 426.15936 24.6125ZM442.15936 36.26875Q443.1281 36.26875 443.84686 35.690624Q444.5656 35.096874 444.64374 34.221874L446.3625 34.221874Q446.3 35.128124 445.72186 35.95625Q445.15936 36.76875 444.1906 37.26875Q443.2375 37.753124 442.15936 37.753124Q440.0031 37.753124 438.72186 36.315624Q437.45624 34.8625 437.45624 32.3625L437.45624 32.065624Q437.45624 30.51875 438.01874 29.315624Q438.58124 28.1125 439.64374 27.45625Q440.70624 26.784374 442.14374 26.784374Q443.925 26.784374 445.09686 27.846874Q446.28436 28.909374 446.3625 30.6125L444.64374 30.6125Q444.5656 29.596874 443.8625 28.940624Q443.175 28.26875 442.14374 28.26875Q440.76874 28.26875 440.0031 29.26875Q439.2531 30.253124 439.2531 32.128124L439.2531 32.471874Q439.2531 34.3 440.0031 35.284374Q440.7531 36.26875 442.15936 36.26875ZM447.4406 32.175Q447.4406 30.6125 448.05 29.378124Q448.65936 28.128124 449.7375 27.45625Q450.83124 26.784374 452.2375 26.784374Q454.39374 26.784374 455.72186 28.284374Q457.0656 29.76875 457.0656 32.253124L457.0656 32.378124Q457.0656 33.925 456.47186 35.159374Q455.8781 36.378124 454.76874 37.065624Q453.675 37.753124 452.2531 37.753124Q450.1125 37.753124 448.76874 36.253124Q447.4406 34.753124 447.4406 32.3L447.4406 32.175ZM449.2531 32.378124Q449.2531 34.14375 450.0656 35.20625Q450.89374 36.26875 452.2531 36.26875Q453.6281 36.26875 454.4406 35.190624Q455.2531 34.1125 455.2531 32.175Q455.2531 30.425 454.425 29.346874Q453.59686 28.26875 452.2375 28.26875Q450.89374 28.26875 450.0656 29.33125Q449.2531 30.39375 449.2531 32.378124ZM464.01874 28.596874Q463.6125 28.534374 463.14374 28.534374Q461.3625 28.534374 460.72186 30.05L460.72186 37.55L458.925 37.55L458.925 26.9875L460.675 26.9875L460.70624 28.20625Q461.59686 26.784374 463.22186 26.784374Q463.7531 26.784374 464.01874 26.925L464.01874 28.596874ZM470.3 37.753124Q468.15936 37.753124 466.8 36.346874Q465.45624 34.925 465.45624 32.565624L465.45624 32.221874Q465.45624 30.659374 466.05 29.425Q466.65936 28.190624 467.7375 27.4875Q468.8156 26.784374 470.08124 26.784374Q472.14374 26.784374 473.28436 28.14375Q474.425 29.503124 474.425 32.034374L474.425 32.784374L467.26874 32.784374Q467.3 34.346874 468.175 35.315624Q469.05 36.26875 470.39374 36.26875Q471.3625 36.26875 472.01874 35.878124Q472.6906 35.4875 473.1906 34.846874L474.28436 35.70625Q472.95624 37.753124 470.3 37.753124ZM470.08124 28.26875Q468.9875 28.26875 468.2375 29.065624Q467.5031 29.8625 467.33124 31.3L472.6125 31.3L472.6125 31.159374Q472.53436 29.784374 471.8625 29.034374Q471.20624 28.26875 470.08124 28.26875ZM483.0656 34.753124Q483.0656 34.01875 482.51874 33.6125Q481.97186 33.20625 480.59686 32.909374Q479.22186 32.6125 478.40936 32.20625Q477.6125 31.8 477.22186 31.2375Q476.84686 30.659374 476.84686 29.878124Q476.84686 28.58125 477.9406 27.690624Q479.03436 26.784374 480.7531 26.784374Q482.55 26.784374 483.65936 27.721874Q484.78436 28.64375 484.78436 30.08125L482.95624 30.08125Q482.95624 29.346874 482.33124 28.815624Q481.70624 28.26875 480.7531 28.26875Q479.7531 28.26875 479.1906 28.70625Q478.64374 29.128124 478.64374 29.83125Q478.64374 30.471874 479.15936 30.815624Q479.675 31.14375 481.03436 31.45625Q482.39374 31.753124 483.22186 32.175Q484.0656 32.58125 484.47186 33.175Q484.8781 33.76875 484.8781 34.6125Q484.8781 36.034374 483.7375 36.89375Q482.6125 37.753124 480.8 37.753124Q479.53436 37.753124 478.55 37.3Q477.58124 36.846874 477.01874 36.05Q476.47186 35.2375 476.47186 34.3L478.28436 34.3Q478.33124 35.20625 479.0031 35.7375Q479.6906 36.26875 480.8 36.26875Q481.83124 36.26875 482.4406 35.8625Q483.0656 35.440624 483.0656 34.753124ZM491.08124 31.878124Q491.08124 34.05 490.5031 36.05Q489.9406 38.05 488.76874 39.7375Q487.59686 41.425 486.3 42.14375L485.925 41.034374Q487.425 39.878124 488.33124 37.45625Q489.2531 35.034374 489.26874 32.065624L489.26874 31.753124Q489.26874 29.70625 488.83124 27.940624Q488.40936 26.175 487.64374 24.784374Q486.8781 23.39375 485.925 22.6125L486.3 21.503124Q487.59686 22.221874 488.7531 23.89375Q489.925 25.55 490.5031 27.565624Q491.08124 29.58125 491.08124 31.878124Z" fill-rule="nonzero"/></svg>