<svg version="1.1" viewBox="0.0 0.0 600.0 371.0" fill="none" stroke="none" stroke-linecap="square" stroke-miterlimit="10" width="600" height="371" xmlns:xlink="http://www.w3.org/1999/xlink" xmlns="http://www.w3.org/2000/svg"><path fill="#ffffff" d="M0 0L600.0 0L600.0 371.0L0 371.0L0 0Z" fill-rule="nonzero"/><path stroke="#cccccc" stroke-width="1.0" stroke-linecap="butt" d="M85.5 298.5L581.5 298.5" fill-rule="nonzero"/><path stroke="#cccccc" stroke-width="1.0" stroke-linecap="butt" d="M85.5 261.5L581.5 261.5" fill-rule="nonzero"/><path stroke="#cccccc" stroke-width="1.0" stroke-linecap="butt" d="M85.5 236.5L581.5 236.5" fill-rule="nonzero"/><path stroke="#cccccc" stroke-width="1.0" stroke-linecap="butt" d="M85.5 216.5L581.5 216.5" fill-rule="nonzero"/><path stroke="#cccccc" stroke-width="1.0" stroke-linecap="butt" d="M85.5 153.5L581.5 153.5" fill-rule="nonzero"/><path stroke="#cccccc" stroke-width="1.0" stroke-linecap="butt" d="M85.5 91.5L581.5 91.5" fill-rule="nonzero"/><clipPath id="id_0"><path d="M85.55 62.416668L581.45 62.416668L581.45 298.45L85.55 298.45L85.55 62.416668Z" clip-rule="nonzero"/></clipPath><path stroke="#4285f4" stroke-width="2.0" stroke-linecap="butt" clip-path="url(#id_0)" d="M120.97143 62.416668C120.97143 62.416668 168.2 108.51078 191.81429 139.85799C215.42857 171.20518 239.04286 232.06934 262.65714 250.49986C286.27142 268.9304 309.8857 254.41199 333.5 250.44115C357.1143 246.47029 380.72858 233.13089 404.34286 226.67477C427.95715 220.21866 451.57144 216.09315 475.1857 211.70447C498.8 207.31578 546.02856 200.34262 546.02856 200.34262" fill-rule="nonzero"/><path fill="#000000" fill-opacity="0.0" clip-path="url(#id_0)" d="M123.97143 62.416668C123.97143 64.073524 122.62828 65.416664 120.97143 65.416664C119.314575 65.416664 117.97143 64.073524 117.97143 62.416668C117.97143 60.75981 119.314575 59.416668 120.97143 59.416668C122.62828 59.416668 123.97143 60.75981 123.97143 62.416668Z" fill-rule="nonzero"/><path fill="#000000" fill-opacity="0.0" clip-path="url(#id_0)" d="M194.81429 139.85799C194.81429 141.51483 193.47115 142.85799 191.81429 142.85799C190.15742 142.85799 188.81429 141.51483 188.81429 139.85799C188.81429 138.20113 190.15742 136.85799 191.81429 136.85799C193.47115 136.85799 194.81429 138.20113 194.81429 139.85799Z" fill-rule="nonzero"/><path fill="#000000" fill-opacity="0.0" clip-path="url(#id_0)" d="M265.65714 250.49986C265.65714 252.15672 264.314 253.49986 262.65714 253.49986C261.00027 253.49986 259.65714 252.15672 259.65714 250.49986C259.65714 248.84302 261.00027 247.49986 262.65714 247.49986C264.314 247.49986 265.65714 248.84302 265.65714 250.49986Z" fill-rule="nonzero"/><path fill="#000000" fill-opacity="0.0" clip-path="url(#id_0)" d="M336.5 250.44115C336.5 252.09799 335.15686 253.44115 333.5 253.44115C331.84314 253.44115 330.5 252.09799 330.5 250.44115C330.5 248.78429 331.84314 247.44115 333.5 247.44115C335.15686 247.44115 336.5 248.78429 336.5 250.44115Z" fill-rule="nonzero"/><path fill="#000000" fill-opacity="0.0" clip-path="url(#id_0)" d="M407.34286 226.67477C407.34286 228.33162 405.99973 229.67477 404.34286 229.67477C402.686 229.67477 401.34286 228.33162 401.34286 226.67477C401.34286 225.01791 402.686 223.67477 404.34286 223.67477C405.99973 223.67477 407.34286 225.01791 407.34286 226.67477Z" fill-rule="nonzero"/><path fill="#000000" fill-opacity="0.0" clip-path="url(#id_0)" d="M478.1857 211.70447C478.1857 213.36133 476.84256 214.70447 475.1857 214.70447C473.52887 214.70447 472.1857 213.36133 472.1857 211.70447C472.1857 210.0476 473.52887 208.70447 475.1857 208.70447C476.84256 208.70447 478.1857 210.0476 478.1857 211.70447Z" fill-rule="nonzero"/><path fill="#000000" fill-opacity="0.0" clip-path="url(#id_0)" d="M549.02856 200.34262C549.02856 201.99948 547.6854 203.34262 546.02856 203.34262C544.3717 203.34262 543.02856 201.99948 543.02856 200.34262C543.02856 198.68578 544.3717 197.34262 546.02856 197.34262C547.6854 197.34262 549.02856 198.68578 549.02856 200.34262Z" fill-rule="nonzero"/><path fill="#424242" d="M285.34375 343.10626L285.375 343.90314Q286.10938 342.9969 287.28125 342.9969Q289.29688 342.9969 289.3125 345.2625L289.3125 349.45L288.21875 349.45L288.21875 345.2469Q288.21875 344.575 287.90625 344.2469Q287.60938 343.91876 286.95312 343.91876Q286.42188 343.91876 286.01562 344.2Q285.625 344.48126 285.40625 344.9344L285.40625 349.45L284.32812 349.45L284.32812 343.10626L285.34375 343.10626ZM295.23438 348.825Q294.60938 349.575 293.375 349.575Q292.35938 349.575 291.82812 348.98126Q291.29688 348.3875 291.29688 347.23126L291.29688 343.10626L292.375 343.10626L292.375 347.2Q292.375 348.65314 293.54688 348.65314Q294.79688 348.65314 295.20312 347.71564L295.20312 343.10626L296.29688 343.10626L296.29688 349.45L295.26562 349.45L295.23438 348.825ZM299.34375 343.10626L299.375 343.8094Q300.0625 342.9969 301.25 342.9969Q302.57812 342.9969 303.0625 344.0125Q303.375 343.5594 303.875 343.27814Q304.39062 342.9969 305.07812 342.9969Q307.17188 342.9969 307.20312 345.2L307.20312 349.45L306.125 349.45L306.125 345.2625Q306.125 344.59064 305.8125 344.2625Q305.5 343.91876 304.76562 343.91876Q304.15625 343.91876 303.75 344.27814Q303.35938 344.6375 303.29688 345.2469L303.29688 349.45L302.21875 349.45L302.21875 345.29376Q302.21875 343.91876 300.85938 343.91876Q299.79688 343.91876 299.40625 344.825L299.40625 349.45L298.3125 349.45L298.3125 343.10626L299.34375 343.10626ZM314.6875 346.35626Q314.6875 347.8094 314.01562 348.7Q313.35938 349.575 312.23438 349.575Q311.03125 349.575 310.375 348.71564L310.3125 349.45L309.32812 349.45L309.32812 340.45L310.40625 340.45L310.40625 343.8094Q311.0625 342.9969 312.21875 342.9969Q313.375 342.9969 314.03125 343.8719Q314.6875 344.73126 314.6875 346.2625L314.6875 346.35626ZM313.60938 346.23126Q313.60938 345.1219 313.17188 344.52814Q312.75 343.91876 311.95312 343.91876Q310.875 343.91876 310.40625 344.90314L310.40625 347.65314Q310.90625 348.65314 311.95312 348.65314Q312.73438 348.65314 313.17188 348.04376Q313.60938 347.4344 313.60938 346.23126ZM318.95312 349.575Q317.65625 349.575 316.84375 348.73126Q316.04688 347.8719 316.04688 346.45L316.04688 346.2625Q316.04688 345.3094 316.40625 344.575Q316.76562 343.825 317.40625 343.41876Q318.0625 342.9969 318.8125 342.9969Q320.04688 342.9969 320.73438 343.8094Q321.42188 344.6219 321.42188 346.1375L321.42188 346.59064L317.125 346.59064Q317.15625 347.52814 317.67188 348.10626Q318.20312 348.6844 319.01562 348.6844Q319.57812 348.6844 319.96875 348.45Q320.375 348.21564 320.6875 347.825L321.34375 348.34064Q320.54688 349.575 318.95312 349.575ZM318.8125 343.8875Q318.15625 343.8875 317.70312 344.3719Q317.26562 344.84064 317.17188 345.7L320.34375 345.7L320.34375 345.6219Q320.29688 344.79376 319.89062 344.34064Q319.5 343.8875 318.8125 343.8875ZM325.39062 344.075Q325.14062 344.04376 324.85938 344.04376Q323.78125 344.04376 323.40625 344.95L323.40625 349.45L322.32812 349.45L322.32812 343.10626L323.375 343.10626L323.39062 343.84064Q323.92188 342.9969 324.90625 342.9969Q325.21875 342.9969 325.39062 343.075L325.39062 344.075ZM329.03125 346.21564Q329.03125 345.29376 329.39062 344.54376Q329.76562 343.79376 330.42188 343.40314Q331.07812 342.9969 331.90625 342.9969Q333.20312 342.9969 334.0 343.8875Q334.8125 344.77814 334.8125 346.27814L334.8125 346.35626Q334.8125 347.27814 334.45312 348.0125Q334.09375 348.7469 333.4375 349.16876Q332.78125 349.575 331.92188 349.575Q330.64062 349.575 329.82812 348.6844Q329.03125 347.77814 329.03125 346.29376L329.03125 346.21564ZM330.125 346.35626Q330.125 347.40314 330.60938 348.04376Q331.10938 348.6844 331.92188 348.6844Q332.75 348.6844 333.23438 348.04376Q333.71875 347.3875 333.71875 346.21564Q333.71875 345.1844 333.21875 344.54376Q332.73438 343.8875 331.90625 343.8875Q331.10938 343.8875 330.60938 344.52814Q330.125 345.15314 330.125 346.35626ZM336.85938 349.45L336.85938 343.95L335.85938 343.95L335.85938 343.10626L336.85938 343.10626L336.85938 342.46564Q336.85938 341.4344 337.39062 340.8875Q337.9375 340.325 338.9375 340.325Q339.3125 340.325 339.6875 340.41876L339.625 341.3094Q339.34375 341.2469 339.04688 341.2469Q338.51562 341.2469 338.21875 341.5594Q337.9375 341.8719 337.9375 342.4344L337.9375 343.10626L339.29688 343.10626L339.29688 343.95L337.9375 343.95L337.9375 349.45L336.85938 349.45ZM344.79688 341.575L344.79688 343.10626L345.96875 343.10626L345.96875 343.95L344.79688 343.95L344.79688 347.8719Q344.79688 348.2625 344.95312 348.45Q345.10938 348.6375 345.48438 348.6375Q345.67188 348.6375 346.0 348.575L346.0 349.45Q345.57812 349.575 345.17188 349.575Q344.45312 349.575 344.07812 349.1375Q343.70312 348.6844 343.70312 347.8719L343.70312 343.95L342.54688 343.95L342.54688 343.10626L343.70312 343.10626L343.70312 341.575L344.79688 341.575ZM348.40625 343.8719Q349.125 342.9969 350.28125 342.9969Q352.29688 342.9969 352.3125 345.2625L352.3125 349.45L351.21875 349.45L351.21875 345.2469Q351.21875 344.575 350.90625 344.2469Q350.60938 343.91876 349.95312 343.91876Q349.42188 343.91876 349.01562 344.2Q348.625 344.48126 348.40625 344.9344L348.40625 349.45L347.32812 349.45L347.32812 340.45L348.40625 340.45L348.40625 343.8719ZM357.39062 344.075Q357.14062 344.04376 356.85938 344.04376Q355.78125 344.04376 355.40625 344.95L355.40625 349.45L354.32812 349.45L354.32812 343.10626L355.375 343.10626L355.39062 343.84064Q355.92188 342.9969 356.90625 342.9969Q357.21875 342.9969 357.39062 343.075L357.39062 344.075ZM360.95312 349.575Q359.65625 349.575 358.84375 348.73126Q358.04688 347.8719 358.04688 346.45L358.04688 346.2625Q358.04688 345.3094 358.40625 344.575Q358.76562 343.825 359.40625 343.41876Q360.0625 342.9969 360.8125 342.9969Q362.04688 342.9969 362.73438 343.8094Q363.42188 344.6219 363.42188 346.1375L363.42188 346.59064L359.125 346.59064Q359.15625 347.52814 359.67188 348.10626Q360.20312 348.6844 361.01562 348.6844Q361.57812 348.6844 361.96875 348.45Q362.375 348.21564 362.6875 347.825L363.34375 348.34064Q362.54688 349.575 360.95312 349.575ZM360.8125 343.8875Q360.15625 343.8875 359.70312 344.3719Q359.26562 344.84064 359.17188 345.7L362.34375 345.7L362.34375 345.6219Q362.29688 344.79376 361.89062 344.34064Q361.5 343.8875 360.8125 343.8875ZM368.23438 349.45Q368.14062 349.2625 368.07812 348.77814Q367.32812 349.575 366.28125 349.575Q365.34375 349.575 364.73438 349.04376Q364.14062 348.5125 364.14062 347.6844Q364.14062 346.7 364.89062 346.15314Q365.64062 345.60626 367.01562 345.60626L368.0625 345.60626L368.0625 345.10626Q368.0625 344.54376 367.71875 344.21564Q367.39062 343.8719 366.71875 343.8719Q366.14062 343.8719 365.75 344.16876Q365.35938 344.45 365.35938 344.8719L364.26562 344.8719Q364.26562 344.3875 364.59375 343.95Q364.9375 343.5125 365.51562 343.2625Q366.09375 342.9969 366.78125 342.9969Q367.89062 342.9969 368.5 343.54376Q369.125 344.09064 369.15625 345.04376L369.15625 347.96564Q369.15625 348.84064 369.375 349.35626L369.375 349.45L368.23438 349.45ZM366.4375 348.6219Q366.95312 348.6219 367.40625 348.35626Q367.85938 348.09064 368.0625 347.66876L368.0625 346.3719L367.21875 346.3719Q365.21875 346.3719 365.21875 347.54376Q365.21875 348.04376 365.5625 348.34064Q365.90625 348.6219 366.4375 348.6219ZM371.0625 346.23126Q371.0625 344.7625 371.75 343.8875Q372.4375 342.9969 373.5625 342.9969Q374.67188 342.9969 375.32812 343.7469L375.32812 340.45L376.40625 340.45L376.40625 349.45L375.40625 349.45L375.35938 348.7625Q374.70312 349.575 373.54688 349.575Q372.45312 349.575 371.75 348.66876Q371.0625 347.7625 371.0625 346.3094L371.0625 346.23126ZM372.14062 346.35626Q372.14062 347.4344 372.57812 348.04376Q373.03125 348.65314 373.8125 348.65314Q374.84375 348.65314 375.32812 347.71564L375.32812 344.8094Q374.84375 343.91876 373.82812 343.91876Q373.03125 343.91876 372.57812 344.52814Q372.14062 345.1375 372.14062 346.35626ZM382.01562 347.7625Q382.01562 347.325 381.67188 347.09064Q381.34375 346.84064 380.51562 346.66876Q379.70312 346.4969 379.21875 346.2469Q378.73438 345.9969 378.5 345.66876Q378.28125 345.325 378.28125 344.85626Q378.28125 344.075 378.9375 343.54376Q379.59375 342.9969 380.625 342.9969Q381.70312 342.9969 382.35938 343.5594Q383.03125 344.10626 383.03125 344.96564L381.95312 344.96564Q381.95312 344.52814 381.5625 344.21564Q381.1875 343.8875 380.625 343.8875Q380.03125 343.8875 379.6875 344.15314Q379.35938 344.40314 379.35938 344.8094Q379.35938 345.2 379.67188 345.40314Q379.98438 345.60626 380.79688 345.79376Q381.60938 345.96564 382.10938 346.21564Q382.60938 346.46564 382.84375 346.825Q383.09375 347.1844 383.09375 347.6844Q383.09375 348.54376 382.40625 349.0594Q381.73438 349.575 380.65625 349.575Q379.89062 349.575 379.29688 349.3094Q378.71875 349.02814 378.39062 348.54376Q378.0625 348.0594 378.0625 347.4969L379.14062 347.4969Q379.17188 348.04376 379.57812 348.3719Q379.98438 348.6844 380.65625 348.6844Q381.26562 348.6844 381.64062 348.4344Q382.01562 348.1844 382.01562 347.7625Z" fill-rule="nonzero"/><path fill="#424242" d="M22.675013 240.38646L24.206263 240.38646L24.206263 239.21458L25.050013 239.21458L25.050013 240.38646L28.971888 240.38646Q29.362513 240.38646 29.550013 240.23021Q29.737513 240.07396 29.737513 239.69896Q29.737513 239.51146 29.675013 239.18333L30.550013 239.18333Q30.675013 239.60521 30.675013 240.01146Q30.675013 240.73021 30.237513 241.10521Q29.784388 241.48021 28.971888 241.48021L25.050013 241.48021L25.050013 242.63646L24.206263 242.63646L24.206263 241.48021L22.675013 241.48021L22.675013 240.38646ZM30.550013 236.68333L30.550013 237.76146L24.206263 237.76146L24.206263 236.68333L30.550013 236.68333ZM22.534388 237.85521Q22.268763 237.85521 22.081263 237.69896Q21.893763 237.52708 21.893763 237.21458Q21.893763 236.90208 22.081263 236.74583Q22.268763 236.57396 22.534388 236.57396Q22.784388 236.57396 22.971888 236.74583Q23.143763 236.90208 23.143763 237.21458Q23.143763 237.52708 22.971888 237.69896Q22.784388 237.85521 22.534388 237.85521ZM24.206263 233.83958L24.909388 233.80833Q24.096888 233.12083 24.096888 231.93333Q24.096888 230.60521 25.112513 230.12083Q24.659388 229.80833 24.378138 229.30833Q24.096888 228.79271 24.096888 228.10521Q24.096888 226.01146 26.300013 225.98021L30.550013 225.98021L30.550013 227.05833L26.362513 227.05833Q25.690638 227.05833 25.362513 227.37083Q25.018763 227.68333 25.018763 228.41771Q25.018763 229.02708 25.378138 229.43333Q25.737513 229.82396 26.346888 229.88646L30.550013 229.88646L30.550013 230.96458L26.393763 230.96458Q25.018763 230.96458 25.018763 232.32396Q25.018763 233.38646 25.925013 233.77708L30.550013 233.77708L30.550013 234.87083L24.206263 234.87083L24.206263 233.83958ZM30.675013 221.23021Q30.675013 222.52708 29.831263 223.33958Q28.971888 224.13646 27.550013 224.13646L27.362513 224.13646Q26.409388 224.13646 25.675013 223.77708Q24.925013 223.41771 24.518763 222.77708Q24.096888 222.12083 24.096888 221.37083Q24.096888 220.13646 24.909388 219.44896Q25.721888 218.76146 27.237513 218.76146L27.690638 218.76146L27.690638 223.05833Q28.628138 223.02708 29.206263 222.51146Q29.784388 221.98021 29.784388 221.16771Q29.784388 220.60521 29.550013 220.21458Q29.315638 219.80833 28.925013 219.49583L29.440638 218.83958Q30.675013 219.63646 30.675013 221.23021ZM24.987513 221.37083Q24.987513 222.02708 25.471888 222.48021Q25.940638 222.91771 26.800013 223.01146L26.800013 219.83958L26.721888 219.83958Q25.893763 219.88646 25.440638 220.29271Q24.987513 220.68333 24.987513 221.37083ZM27.081263 214.90208Q25.768763 214.90208 24.550013 214.55833Q23.331263 214.19896 22.331263 213.49583Q21.331263 212.79271 20.925013 212.02708L21.643763 211.80833Q22.300013 212.66771 23.643763 213.21458Q24.987513 213.76146 26.659388 213.80833L27.159388 213.82396Q29.425013 213.82396 31.081263 212.99583Q32.08126 212.49583 32.64376 211.80833L33.30001 212.02708Q32.878136 212.80833 31.846888 213.52708Q29.862513 214.90208 27.081263 214.90208ZM24.206263 209.83958L24.909388 209.80833Q24.096888 209.12083 24.096888 207.93333Q24.096888 206.60521 25.112513 206.12083Q24.659388 205.80833 24.378138 205.30833Q24.096888 204.79271 24.096888 204.10521Q24.096888 202.01146 26.300013 201.98021L30.550013 201.98021L30.550013 203.05833L26.362513 203.05833Q25.690638 203.05833 25.362513 203.37083Q25.018763 203.68333 25.018763 204.41771Q25.018763 205.02708 25.378138 205.43333Q25.737513 205.82396 26.346888 205.88646L30.550013 205.88646L30.550013 206.96458L26.393763 206.96458Q25.018763 206.96458 25.018763 208.32396Q25.018763 209.38646 25.925013 209.77708L30.550013 209.77708L30.550013 210.87083L24.206263 210.87083L24.206263 209.83958ZM30.550013 198.68333L30.550013 199.76146L24.206263 199.76146L24.206263 198.68333L30.550013 198.68333ZM22.534388 199.85521Q22.268763 199.85521 22.081263 199.69896Q21.893763 199.52708 21.893763 199.21458Q21.893763 198.90208 22.081263 198.74583Q22.268763 198.57396 22.534388 198.57396Q22.784388 198.57396 22.971888 198.74583Q23.143763 198.90208 23.143763 199.21458Q23.143763 199.52708 22.971888 199.69896Q22.784388 199.85521 22.534388 199.85521ZM29.784388 194.32396Q29.784388 193.74583 29.440638 193.30833Q29.081263 192.87083 28.550013 192.82396L28.550013 191.79271Q29.096888 191.82396 29.596888 192.18333Q30.081263 192.52708 30.378138 193.10521Q30.675013 193.66771 30.675013 194.32396Q30.675013 195.62083 29.815638 196.38646Q28.940638 197.13646 27.440638 197.13646L27.253138 197.13646Q26.331263 197.13646 25.612513 196.80833Q24.893763 196.46458 24.503138 195.83958Q24.096888 195.19896 24.096888 194.32396Q24.096888 193.26146 24.737513 192.55833Q25.362513 191.83958 26.393763 191.79271L26.393763 192.82396Q25.768763 192.87083 25.378138 193.29271Q24.987513 193.71458 24.987513 194.32396Q24.987513 195.15208 25.581263 195.60521Q26.175013 196.05833 27.300013 196.05833L27.503138 196.05833Q28.596888 196.05833 29.190638 195.60521Q29.784388 195.15208 29.784388 194.32396ZM25.175013 187.79271Q25.143763 188.04271 25.143763 188.32396Q25.143763 189.40208 26.050013 189.77708L30.550013 189.77708L30.550013 190.85521L24.206263 190.85521L24.206263 189.80833L24.940638 189.79271Q24.096888 189.26146 24.096888 188.27708Q24.096888 187.96458 24.175013 187.79271L25.175013 187.79271ZM27.315638 187.15208Q26.393763 187.15208 25.643763 186.79271Q24.893763 186.41771 24.503138 185.76146Q24.096888 185.10521 24.096888 184.27708Q24.096888 182.98021 24.987513 182.18333Q25.878138 181.37083 27.378138 181.37083L27.456263 181.37083Q28.378138 181.37083 29.112513 181.73021Q29.846888 182.08958 30.268763 182.74583Q30.675013 183.40208 30.675013 184.26146Q30.675013 185.54271 29.784388 186.35521Q28.878138 187.15208 27.393763 187.15208L27.315638 187.15208ZM27.456263 186.05833Q28.503138 186.05833 29.143763 185.57396Q29.784388 185.07396 29.784388 184.26146Q29.784388 183.43333 29.143763 182.94896Q28.487513 182.46458 27.315638 182.46458Q26.284388 182.46458 25.643763 182.96458Q24.987513 183.44896 24.987513 184.27708Q24.987513 185.07396 25.628138 185.57396Q26.253138 186.05833 27.456263 186.05833ZM28.862513 176.16771Q28.425013 176.16771 28.190638 176.51146Q27.940638 176.83958 27.768763 177.66771Q27.596888 178.48021 27.346888 178.96458Q27.096888 179.44896 26.768763 179.68333Q26.425013 179.90208 25.956263 179.90208Q25.175013 179.90208 24.643763 179.24583Q24.096888 178.58958 24.096888 177.55833Q24.096888 176.48021 24.659388 175.82396Q25.206263 175.15208 26.065638 175.15208L26.065638 176.23021Q25.628138 176.23021 25.315638 176.62083Q24.987513 176.99583 24.987513 177.55833Q24.987513 178.15208 25.253138 178.49583Q25.503138 178.82396 25.909388 178.82396Q26.300013 178.82396 26.503138 178.51146Q26.706263 178.19896 26.893763 177.38646Q27.065638 176.57396 27.315638 176.07396Q27.565638 175.57396 27.925013 175.33958Q28.284388 175.08958 28.784388 175.08958Q29.643763 175.08958 30.159388 175.77708Q30.675013 176.44896 30.675013 177.52708Q30.675013 178.29271 30.409388 178.88646Q30.128138 179.46458 29.643763 179.79271Q29.159388 180.12083 28.596888 180.12083L28.596888 179.04271Q29.143763 179.01146 29.471888 178.60521Q29.784388 178.19896 29.784388 177.52708Q29.784388 176.91771 29.534388 176.54271Q29.284388 176.16771 28.862513 176.16771ZM30.675013 171.23021Q30.675013 172.52708 29.831263 173.33958Q28.971888 174.13646 27.550013 174.13646L27.362513 174.13646Q26.409388 174.13646 25.675013 173.77708Q24.925013 173.41771 24.518763 172.77708Q24.096888 172.12083 24.096888 171.37083Q24.096888 170.13646 24.909388 169.44896Q25.721888 168.76146 27.237513 168.76146L27.690638 168.76146L27.690638 173.05833Q28.628138 173.02708 29.206263 172.51146Q29.784388 171.98021 29.784388 171.16771Q29.784388 170.60521 29.550013 170.21458Q29.315638 169.80833 28.925013 169.49583L29.440638 168.83958Q30.675013 169.63646 30.675013 171.23021ZM24.987513 171.37083Q24.987513 172.02708 25.471888 172.48021Q25.940638 172.91771 26.800013 173.01146L26.800013 169.83958L26.721888 169.83958Q25.893763 169.88646 25.440638 170.29271Q24.987513 170.68333 24.987513 171.37083ZM29.784388 165.32396Q29.784388 164.74583 29.440638 164.30833Q29.081263 163.87083 28.550013 163.82396L28.550013 162.79271Q29.096888 162.82396 29.596888 163.18333Q30.081263 163.52708 30.378138 164.10521Q30.675013 164.66771 30.675013 165.32396Q30.675013 166.62083 29.815638 167.38646Q28.940638 168.13646 27.440638 168.13646L27.253138 168.13646Q26.331263 168.13646 25.612513 167.80833Q24.893763 167.46458 24.503138 166.83958Q24.096888 166.19896 24.096888 165.32396Q24.096888 164.26146 24.737513 163.55833Q25.362513 162.83958 26.393763 162.79271L26.393763 163.82396Q25.768763 163.87083 25.378138 164.29271Q24.987513 164.71458 24.987513 165.32396Q24.987513 166.15208 25.581263 166.60521Q26.175013 167.05833 27.300013 167.05833L27.503138 167.05833Q28.596888 167.05833 29.190638 166.60521Q29.784388 166.15208 29.784388 165.32396ZM27.315638 162.15208Q26.393763 162.15208 25.643763 161.79271Q24.893763 161.41771 24.503138 160.76146Q24.096888 160.10521 24.096888 159.27708Q24.096888 157.98021 24.987513 157.18333Q25.878138 156.37083 27.378138 156.37083L27.456263 156.37083Q28.378138 156.37083 29.112513 156.73021Q29.846888 157.08958 30.268763 157.74583Q30.675013 158.40208 30.675013 159.26146Q30.675013 160.54271 29.784388 161.35521Q28.878138 162.15208 27.393763 162.15208L27.315638 162.15208ZM27.456263 161.05833Q28.503138 161.05833 29.143763 160.57396Q29.784388 160.07396 29.784388 159.26146Q29.784388 158.43333 29.143763 157.94896Q28.487513 157.46458 27.315638 157.46458Q26.284388 157.46458 25.643763 157.96458Q24.987513 158.44896 24.987513 159.27708Q24.987513 160.07396 25.628138 160.57396Q26.253138 161.05833 27.456263 161.05833ZM24.206263 153.83958L25.003138 153.80833Q24.096888 153.07396 24.096888 151.90208Q24.096888 149.88646 26.362513 149.87083L30.550013 149.87083L30.550013 150.96458L26.346888 150.96458Q25.675013 150.96458 25.346888 151.27708Q25.018763 151.57396 25.018763 152.23021Q25.018763 152.76146 25.300013 153.16771Q25.581263 153.55833 26.034388 153.77708L30.550013 153.77708L30.550013 154.85521L24.206263 154.85521L24.206263 153.83958ZM27.331263 148.12083Q25.862513 148.12083 24.987513 147.43333Q24.096888 146.74583 24.096888 145.62083Q24.096888 144.51146 24.846888 143.85521L21.550013 143.85521L21.550013 142.77708L30.550013 142.77708L30.550013 143.77708L29.862513 143.82396Q30.675013 144.48021 30.675013 145.63646Q30.675013 146.73021 29.768763 147.43333Q28.862513 148.12083 27.409388 148.12083L27.331263 148.12083ZM27.456263 147.04271Q28.534388 147.04271 29.143763 146.60521Q29.753138 146.15208 29.753138 145.37083Q29.753138 144.33958 28.815638 143.85521L25.909388 143.85521Q25.018763 144.33958 25.018763 145.35521Q25.018763 146.15208 25.628138 146.60521Q26.237513 147.04271 27.456263 147.04271ZM28.862513 137.16771Q28.425013 137.16771 28.190638 137.51146Q27.940638 137.83958 27.768763 138.66771Q27.596888 139.48021 27.346888 139.96458Q27.096888 140.44896 26.768763 140.68333Q26.425013 140.90208 25.956263 140.90208Q25.175013 140.90208 24.643763 140.24583Q24.096888 139.58958 24.096888 138.55833Q24.096888 137.48021 24.659388 136.82396Q25.206263 136.15208 26.065638 136.15208L26.065638 137.23021Q25.628138 137.23021 25.315638 137.62083Q24.987513 137.99583 24.987513 138.55833Q24.987513 139.15208 25.253138 139.49583Q25.503138 139.82396 25.909388 139.82396Q26.300013 139.82396 26.503138 139.51146Q26.706263 139.19896 26.893763 138.38646Q27.065638 137.57396 27.315638 137.07396Q27.565638 136.57396 27.925013 136.33958Q28.284388 136.08958 28.784388 136.08958Q29.643763 136.08958 30.159388 136.77708Q30.675013 137.44896 30.675013 138.52708Q30.675013 139.29271 30.409388 139.88646Q30.128138 140.46458 29.643763 140.79271Q29.159388 141.12083 28.596888 141.12083L28.596888 140.04271Q29.143763 140.01146 29.471888 139.60521Q29.784388 139.19896 29.784388 138.52708Q29.784388 137.91771 29.534388 137.54271Q29.284388 137.16771 28.862513 137.16771ZM27.143763 132.35521Q28.456263 132.35521 29.659388 132.69896Q30.846888 133.04271 31.862513 133.76146Q32.878136 134.46458 33.30001 135.23021L32.64376 135.46458Q31.956263 134.55833 30.503138 134.01146Q29.034388 133.46458 27.268763 133.44896L27.081263 133.44896Q25.846888 133.44896 24.784388 133.71458Q23.721888 133.96458 22.893763 134.43333Q22.050013 134.88646 21.581263 135.46458L20.925013 135.23021Q21.346888 134.46458 22.346888 133.76146Q23.346888 133.05833 24.565638 132.71458Q25.768763 132.35521 27.143763 132.35521Z" fill-rule="nonzero"/><path fill="#757575" d="M63.83125 300.09064L65.01875 300.09064L65.01875 300.96564L63.83125 300.96564L63.83125 302.95L62.753124 302.95L62.753124 300.96564L58.8625 300.96564L58.8625 300.325L62.675 294.41876L63.83125 294.41876L63.83125 300.09064ZM60.096874 300.09064L62.753124 300.09064L62.753124 295.90314L62.6125 296.1375L60.096874 300.09064ZM71.6125 299.3094Q71.6125 301.21564 70.95625 302.15314Q70.31563 303.075 68.925 303.075Q67.56563 303.075 66.90938 302.16876Q66.25313 301.2625 66.22188 299.45L66.22188 298.0125Q66.22188 296.1219 66.8625 295.21564Q67.51875 294.29376 68.90938 294.29376Q70.28438 294.29376 70.94063 295.1844Q71.59688 296.0594 71.6125 297.90314L71.6125 299.3094ZM70.51875 297.825Q70.51875 296.45 70.12813 295.825Q69.75313 295.1844 68.90938 295.1844Q68.08125 295.1844 67.69063 295.825Q67.31563 296.45 67.31563 297.7469L67.31563 299.48126Q67.31563 300.85626 67.70625 301.52814Q68.1125 302.1844 68.925 302.1844Q69.72188 302.1844 70.1125 301.5594Q70.50313 300.9344 70.51875 299.60626L70.51875 297.825ZM78.6125 299.3094Q78.6125 301.21564 77.95625 302.15314Q77.31563 303.075 75.925 303.075Q74.56563 303.075 73.90938 302.16876Q73.25313 301.2625 73.22188 299.45L73.22188 298.0125Q73.22188 296.1219 73.8625 295.21564Q74.51875 294.29376 75.90938 294.29376Q77.28438 294.29376 77.94063 295.1844Q78.59688 296.0594 78.6125 297.90314L78.6125 299.3094ZM77.51875 297.825Q77.51875 296.45 77.12813 295.825Q76.75313 295.1844 75.90938 295.1844Q75.08125 295.1844 74.69063 295.825Q74.31563 296.45 74.31563 297.7469L74.31563 299.48126Q74.31563 300.85626 74.70625 301.52814Q75.1125 302.1844 75.925 302.1844Q76.72188 302.1844 77.1125 301.5594Q77.50313 300.9344 77.51875 299.60626L77.51875 297.825Z" fill-rule="nonzero"/><path fill="#757575" d="M63.51875 257.9377L63.51875 258.84396L63.315624 258.84396Q62.05 258.8752 61.3 259.6096Q60.55 260.32834 60.425 261.64084Q61.1125 260.8752 62.26875 260.8752Q63.378124 260.8752 64.05 261.65646Q64.72188 262.4377 64.72188 263.6877Q64.72188 265.0002 64.00313 265.7971Q63.284374 266.59396 62.065624 266.59396Q60.846874 266.59396 60.08125 265.65646Q59.33125 264.70334 59.33125 263.21896L59.33125 262.8127Q59.33125 260.45334 60.33125 259.20334Q61.33125 257.95334 63.315624 257.9377L63.51875 257.9377ZM62.096874 261.78146Q61.534374 261.78146 61.065624 262.1096Q60.596874 262.4377 60.409374 262.95334L60.409374 263.34396Q60.409374 264.40646 60.878124 265.0471Q61.3625 265.6877 62.065624 265.6877Q62.8 265.6877 63.221874 265.15646Q63.64375 264.6096 63.64375 263.7346Q63.64375 262.8596 63.221874 262.32834Q62.8 261.78146 62.096874 261.78146ZM71.6125 262.82834Q71.6125 264.7346 70.95625 265.6721Q70.31563 266.59396 68.925 266.59396Q67.56563 266.59396 66.90938 265.6877Q66.25313 264.78146 66.22188 262.96896L66.22188 261.53146Q66.22188 259.64084 66.8625 258.7346Q67.51875 257.8127 68.90938 257.8127Q70.28438 257.8127 70.94063 258.70334Q71.59688 259.57834 71.6125 261.4221L71.6125 262.82834ZM70.51875 261.34396Q70.51875 259.96896 70.12813 259.34396Q69.75313 258.70334 68.90938 258.70334Q68.08125 258.70334 67.69063 259.34396Q67.31563 259.96896 67.31563 261.26584L67.31563 263.0002Q67.31563 264.3752 67.70625 265.0471Q68.1125 265.70334 68.925 265.70334Q69.72188 265.70334 70.1125 265.07834Q70.50313 264.45334 70.51875 263.1252L70.51875 261.34396ZM78.6125 262.82834Q78.6125 264.7346 77.95625 265.6721Q77.31563 266.59396 75.925 266.59396Q74.56563 266.59396 73.90938 265.6877Q73.25313 264.78146 73.22188 262.96896L73.22188 261.53146Q73.22188 259.64084 73.8625 258.7346Q74.51875 257.8127 75.90938 257.8127Q77.28438 257.8127 77.94063 258.70334Q78.59688 259.57834 78.6125 261.4221L78.6125 262.82834ZM77.51875 261.34396Q77.51875 259.96896 77.12813 259.34396Q76.75313 258.70334 75.90938 258.70334Q75.08125 258.70334 74.69063 259.34396Q74.31563 259.96896 74.31563 261.26584L74.31563 263.0002Q74.31563 264.3752 74.70625 265.0471Q75.1125 265.70334 75.925 265.70334Q76.72188 265.70334 77.1125 265.07834Q77.50313 264.45334 77.51875 263.1252L77.51875 261.34396Z" fill-rule="nonzero"/><path fill="#757575" d="M64.44063 234.27275Q64.44063 234.91338 64.09688 235.41338Q63.753124 235.91338 63.190624 236.19463Q63.846874 236.47588 64.2375 237.03838Q64.62813 237.58525 64.62813 238.28838Q64.62813 239.38213 63.878124 240.054Q63.14375 240.71025 61.925 240.71025Q60.690624 240.71025 59.940624 240.054Q59.20625 239.38213 59.20625 238.28838Q59.20625 237.58525 59.58125 237.03838Q59.95625 236.47588 60.628124 236.19463Q60.065624 235.91338 59.7375 235.41338Q59.409374 234.91338 59.409374 234.27275Q59.409374 233.19463 60.096874 232.56963Q60.784374 231.929 61.925 231.929Q63.05 231.929 63.7375 232.56963Q64.44063 233.19463 64.44063 234.27275ZM63.55 238.25713Q63.55 237.53838 63.096874 237.10088Q62.64375 236.64775 61.909374 236.64775Q61.175 236.64775 60.721874 237.10088Q60.284374 237.53838 60.284374 238.27275Q60.284374 238.9915 60.721874 239.41338Q61.159374 239.81963 61.925 239.81963Q62.675 239.81963 63.1125 239.39775Q63.55 238.97588 63.55 238.25713ZM61.925 232.81963Q61.284374 232.81963 60.878124 233.22588Q60.4875 233.6165 60.4875 234.304Q60.4875 234.94463 60.878124 235.35088Q61.26875 235.75713 61.909374 235.75713Q62.565624 235.75713 62.95625 235.35088Q63.346874 234.94463 63.346874 234.304Q63.346874 233.64775 62.940624 233.2415Q62.534374 232.81963 61.925 232.81963ZM71.6125 236.94463Q71.6125 238.85088 70.95625 239.78838Q70.31563 240.71025 68.925 240.71025Q67.56563 240.71025 66.90938 239.804Q66.25313 238.89775 66.22188 237.08525L66.22188 235.64775Q66.22188 233.75713 66.8625 232.85088Q67.51875 231.929 68.90938 231.929Q70.28438 231.929 70.94063 232.81963Q71.59688 233.69463 71.6125 235.53838L71.6125 236.94463ZM70.51875 235.46025Q70.51875 234.08525 70.12813 233.46025Q69.75313 232.81963 68.90938 232.81963Q68.08125 232.81963 67.69063 233.46025Q67.31563 234.08525 67.31563 235.38213L67.31563 237.1165Q67.31563 238.4915 67.70625 239.16338Q68.1125 239.81963 68.925 239.81963Q69.72188 239.81963 70.1125 239.19463Q70.50313 238.56963 70.51875 237.2415L70.51875 235.46025ZM78.6125 236.94463Q78.6125 238.85088 77.95625 239.78838Q77.31563 240.71025 75.925 240.71025Q74.56563 240.71025 73.90938 239.804Q73.25313 238.89775 73.22188 237.08525L73.22188 235.64775Q73.22188 233.75713 73.8625 232.85088Q74.51875 231.929 75.90938 231.929Q77.28438 231.929 77.94063 232.81963Q78.59688 233.69463 78.6125 235.53838L78.6125 236.94463ZM77.51875 235.46025Q77.51875 234.08525 77.12813 233.46025Q76.75313 232.81963 75.90938 232.81963Q75.08125 232.81963 74.69063 233.46025Q74.31563 234.08525 74.31563 235.38213L74.31563 237.1165Q74.31563 238.4915 74.70625 239.16338Q75.1125 239.81963 75.925 239.81963Q76.72188 239.81963 77.1125 239.19463Q77.50313 238.56963 77.51875 237.2415L77.51875 235.46025Z" fill-rule="nonzero"/><path fill="#757575" d="M55.815624 220.50829L54.7375 220.50829L54.7375 213.28954L52.55 214.08641L52.55 213.10204L55.659374 211.93016L55.815624 211.93016L55.815624 220.50829ZM64.6125 216.86766Q64.6125 218.77391 63.95625 219.71141Q63.315624 220.63329 61.925 220.63329Q60.565624 220.63329 59.909374 219.72704Q59.253124 218.82079 59.221874 217.00829L59.221874 215.57079Q59.221874 213.68016 59.8625 212.77391Q60.51875 211.85204 61.909374 211.85204Q63.284374 211.85204 63.940624 212.74266Q64.59688 213.61766 64.6125 215.46141L64.6125 216.86766ZM63.51875 215.38329Q63.51875 214.00829 63.128124 213.38329Q62.753124 212.74266 61.909374 212.74266Q61.08125 212.74266 60.690624 213.38329Q60.315624 214.00829 60.315624 215.30516L60.315624 217.03954Q60.315624 218.41454 60.70625 219.08641Q61.1125 219.74266 61.925 219.74266Q62.721874 219.74266 63.1125 219.11766Q63.503124 218.49266 63.51875 217.16454L63.51875 215.38329ZM71.6125 216.86766Q71.6125 218.77391 70.95625 219.71141Q70.31563 220.63329 68.925 220.63329Q67.56563 220.63329 66.90938 219.72704Q66.25313 218.82079 66.22188 217.00829L66.22188 215.57079Q66.22188 213.68016 66.8625 212.77391Q67.51875 211.85204 68.90938 211.85204Q70.28438 211.85204 70.94063 212.74266Q71.59688 213.61766 71.6125 215.46141L71.6125 216.86766ZM70.51875 215.38329Q70.51875 214.00829 70.12813 213.38329Q69.75313 212.74266 68.90938 212.74266Q68.08125 212.74266 67.69063 213.38329Q67.31563 214.00829 67.31563 215.30516L67.31563 217.03954Q67.31563 218.41454 67.70625 219.08641Q68.1125 219.74266 68.925 219.74266Q69.72188 219.74266 70.1125 219.11766Q70.50313 218.49266 70.51875 217.16454L70.51875 215.38329ZM78.6125 216.86766Q78.6125 218.77391 77.95625 219.71141Q77.31563 220.63329 75.925 220.63329Q74.56563 220.63329 73.90938 219.72704Q73.25313 218.82079 73.22188 217.00829L73.22188 215.57079Q73.22188 213.68016 73.8625 212.77391Q74.51875 211.85204 75.90938 211.85204Q77.28438 211.85204 77.94063 212.74266Q78.59688 213.61766 78.6125 215.46141L78.6125 216.86766ZM77.51875 215.38329Q77.51875 214.00829 77.12813 213.38329Q76.75313 212.74266 75.90938 212.74266Q75.08125 212.74266 74.69063 213.38329Q74.31563 214.00829 74.31563 215.30516L74.31563 217.03954Q74.31563 218.41454 74.70625 219.08641Q75.1125 219.74266 75.925 219.74266Q76.72188 219.74266 77.1125 219.11766Q77.50313 218.49266 77.51875 217.16454L77.51875 215.38329Z" fill-rule="nonzero"/><path fill="#757575" d="M57.846874 158.14355L52.253124 158.14355L52.253124 157.3623L55.20625 154.08105Q55.8625 153.33105 56.1125 152.87793Q56.3625 152.40918 56.3625 151.90918Q56.3625 151.2373 55.95625 150.81543Q55.565624 150.37793 54.878124 150.37793Q54.08125 150.37793 53.628124 150.84668Q53.175 151.2998 53.175 152.12793L52.096874 152.12793Q52.096874 150.94043 52.846874 150.22168Q53.6125 149.4873 54.878124 149.4873Q56.08125 149.4873 56.76875 150.1123Q57.45625 150.7373 57.45625 151.78418Q57.45625 153.03418 55.846874 154.78418L53.565624 157.25293L57.846874 157.25293L57.846874 158.14355ZM64.6125 154.50293Q64.6125 156.40918 63.95625 157.34668Q63.315624 158.26855 61.925 158.26855Q60.565624 158.26855 59.909374 157.3623Q59.253124 156.45605 59.221874 154.64355L59.221874 153.20605Q59.221874 151.31543 59.8625 150.40918Q60.51875 149.4873 61.909374 149.4873Q63.284374 149.4873 63.940624 150.37793Q64.59688 151.25293 64.6125 153.09668L64.6125 154.50293ZM63.51875 153.01855Q63.51875 151.64355 63.128124 151.01855Q62.753124 150.37793 61.909374 150.37793Q61.08125 150.37793 60.690624 151.01855Q60.315624 151.64355 60.315624 152.94043L60.315624 154.6748Q60.315624 156.0498 60.70625 156.72168Q61.1125 157.37793 61.925 157.37793Q62.721874 157.37793 63.1125 156.75293Q63.503124 156.12793 63.51875 154.7998L63.51875 153.01855ZM71.6125 154.50293Q71.6125 156.40918 70.95625 157.34668Q70.31563 158.26855 68.925 158.26855Q67.56563 158.26855 66.90938 157.3623Q66.25313 156.45605 66.22188 154.64355L66.22188 153.20605Q66.22188 151.31543 66.8625 150.40918Q67.51875 149.4873 68.90938 149.4873Q70.28438 149.4873 70.94063 150.37793Q71.59688 151.25293 71.6125 153.09668L71.6125 154.50293ZM70.51875 153.01855Q70.51875 151.64355 70.12813 151.01855Q69.75313 150.37793 68.90938 150.37793Q68.08125 150.37793 67.69063 151.01855Q67.31563 151.64355 67.31563 152.94043L67.31563 154.6748Q67.31563 156.0498 67.70625 156.72168Q68.1125 157.37793 68.925 157.37793Q69.72188 157.37793 70.1125 156.75293Q70.50313 156.12793 70.51875 154.7998L70.51875 153.01855ZM78.6125 154.50293Q78.6125 156.40918 77.95625 157.34668Q77.31563 158.26855 75.925 158.26855Q74.56563 158.26855 73.90938 157.3623Q73.25313 156.45605 73.22188 154.64355L73.22188 153.20605Q73.22188 151.31543 73.8625 150.40918Q74.51875 149.4873 75.90938 149.4873Q77.28438 149.4873 77.94063 150.37793Q78.59688 151.25293 78.6125 153.09668L78.6125 154.50293ZM77.51875 153.01855Q77.51875 151.64355 77.12813 151.01855Q76.75313 150.37793 75.90938 150.37793Q75.08125 150.37793 74.69063 151.01855Q74.31563 151.64355 74.31563 152.94043L74.31563 154.6748Q74.31563 156.0498 74.70625 156.72168Q75.1125 157.37793 75.925 157.37793Q76.72188 157.37793 77.1125 156.75293Q77.50313 156.12793 77.51875 154.7998L77.51875 153.01855Z" fill-rule="nonzero"/><path fill="#757575" d="M56.83125 92.919426L58.01875 92.919426L58.01875 93.794426L56.83125 93.794426L56.83125 95.7788L55.753124 95.7788L55.753124 93.794426L51.8625 93.794426L51.8625 93.1538L55.675 87.24755L56.83125 87.24755L56.83125 92.919426ZM53.096874 92.919426L55.753124 92.919426L55.753124 88.731926L55.6125 88.9663L53.096874 92.919426ZM64.6125 92.138176Q64.6125 94.044426 63.95625 94.981926Q63.315624 95.9038 61.925 95.9038Q60.565624 95.9038 59.909374 94.99755Q59.253124 94.0913 59.221874 92.2788L59.221874 90.8413Q59.221874 88.950676 59.8625 88.044426Q60.51875 87.12255 61.909374 87.12255Q63.284374 87.12255 63.940624 88.013176Q64.59688 88.888176 64.6125 90.731926L64.6125 92.138176ZM63.51875 90.6538Q63.51875 89.2788 63.128124 88.6538Q62.753124 88.013176 61.909374 88.013176Q61.08125 88.013176 60.690624 88.6538Q60.315624 89.2788 60.315624 90.575676L60.315624 92.31005Q60.315624 93.68505 60.70625 94.356926Q61.1125 95.013176 61.925 95.013176Q62.721874 95.013176 63.1125 94.388176Q63.503124 93.763176 63.51875 92.43505L63.51875 90.6538ZM71.6125 92.138176Q71.6125 94.044426 70.95625 94.981926Q70.31563 95.9038 68.925 95.9038Q67.56563 95.9038 66.90938 94.99755Q66.25313 94.0913 66.22188 92.2788L66.22188 90.8413Q66.22188 88.950676 66.8625 88.044426Q67.51875 87.12255 68.90938 87.12255Q70.28438 87.12255 70.94063 88.013176Q71.59688 88.888176 71.6125 90.731926L71.6125 92.138176ZM70.51875 90.6538Q70.51875 89.2788 70.12813 88.6538Q69.75313 88.013176 68.90938 88.013176Q68.08125 88.013176 67.69063 88.6538Q67.31563 89.2788 67.31563 90.575676L67.31563 92.31005Q67.31563 93.68505 67.70625 94.356926Q68.1125 95.013176 68.925 95.013176Q69.72188 95.013176 70.1125 94.388176Q70.50313 93.763176 70.51875 92.43505L70.51875 90.6538ZM78.6125 92.138176Q78.6125 94.044426 77.95625 94.981926Q77.31563 95.9038 75.925 95.9038Q74.56563 95.9038 73.90938 94.99755Q73.25313 94.0913 73.22188 92.2788L73.22188 90.8413Q73.22188 88.950676 73.8625 88.044426Q74.51875 87.12255 75.90938 87.12255Q77.28438 87.12255 77.94063 88.013176Q78.59688 88.888176 78.6125 90.731926L78.6125 92.138176ZM77.51875 90.6538Q77.51875 89.2788 77.12813 88.6538Q76.75313 88.013176 75.90938 88.013176Q75.08125 88.013176 74.69063 88.6538Q74.31563 89.2788 74.31563 90.575676L74.31563 92.31005Q74.31563 93.68505 74.70625 94.356926Q75.1125 95.013176 75.925 95.013176Q76.72188 95.013176 77.1125 94.388176Q77.50313 93.763176 77.51875 92.43505L77.51875 90.6538Z" fill-rule="nonzero"/><path fill="#757575" d="M121.73705 316.45L120.65893 316.45L120.65893 309.23126L118.47143 310.02814L118.47143 309.04376L121.5808 307.8719L121.73705 307.8719L121.73705 316.45Z" fill-rule="nonzero"/><path fill="#757575" d="M194.61116 316.45L189.01741 316.45L189.01741 315.66876L191.97054 312.3875Q192.62679 311.6375 192.87679 311.1844Q193.12679 310.71564 193.12679 310.21564Q193.12679 309.54376 192.72054 309.1219Q192.32991 308.6844 191.64241 308.6844Q190.84554 308.6844 190.39241 309.15314Q189.93929 309.60626 189.93929 310.4344L188.86116 310.4344Q188.86116 309.2469 189.61116 308.52814Q190.37679 307.79376 191.64241 307.79376Q192.84554 307.79376 193.53304 308.41876Q194.22054 309.04376 194.22054 310.09064Q194.22054 311.34064 192.61116 313.09064L190.32991 315.5594L194.61116 315.5594L194.61116 316.45Z" fill-rule="nonzero"/><path fill="#757575" d="M264.4384 313.59064L265.6259 313.59064L265.6259 314.46564L264.4384 314.46564L264.4384 316.45L263.36026 316.45L263.36026 314.46564L259.46964 314.46564L259.46964 313.825L263.28214 307.91876L264.4384 307.91876L264.4384 313.59064ZM260.704 313.59064L263.36026 313.59064L263.36026 309.40314L263.21964 309.6375L260.704 313.59064Z" fill-rule="nonzero"/><path fill="#757575" d="M335.89062 310.1375Q335.89062 310.77814 335.54688 311.27814Q335.20312 311.77814 334.64062 312.0594Q335.29688 312.34064 335.6875 312.90314Q336.07812 313.45 336.07812 314.15314Q336.07812 315.2469 335.32812 315.91876Q334.59375 316.575 333.375 316.575Q332.14062 316.575 331.39062 315.91876Q330.65625 315.2469 330.65625 314.15314Q330.65625 313.45 331.03125 312.90314Q331.40625 312.34064 332.07812 312.0594Q331.51562 311.77814 331.1875 311.27814Q330.85938 310.77814 330.85938 310.1375Q330.85938 309.0594 331.54688 308.4344Q332.23438 307.79376 333.375 307.79376Q334.5 307.79376 335.1875 308.4344Q335.89062 309.0594 335.89062 310.1375ZM335.0 314.1219Q335.0 313.40314 334.54688 312.96564Q334.09375 312.5125 333.35938 312.5125Q332.625 312.5125 332.17188 312.96564Q331.73438 313.40314 331.73438 314.1375Q331.73438 314.85626 332.17188 315.27814Q332.60938 315.6844 333.375 315.6844Q334.125 315.6844 334.5625 315.2625Q335.0 314.84064 335.0 314.1219ZM333.375 308.6844Q332.73438 308.6844 332.32812 309.09064Q331.9375 309.48126 331.9375 310.16876Q331.9375 310.8094 332.32812 311.21564Q332.71875 311.6219 333.35938 311.6219Q334.01562 311.6219 334.40625 311.21564Q334.79688 310.8094 334.79688 310.16876Q334.79688 309.5125 334.39062 309.10626Q333.98438 308.6844 333.375 308.6844Z" fill-rule="nonzero"/><path fill="#757575" d="M401.6085 316.45L400.53036 316.45L400.53036 309.23126L398.34286 310.02814L398.34286 309.04376L401.45224 307.8719L401.6085 307.8719L401.6085 316.45ZM409.3116 307.91876L409.3116 308.825L409.1085 308.825Q407.84286 308.85626 407.09286 309.59064Q406.34286 310.3094 406.21786 311.6219Q406.90536 310.85626 408.0616 310.85626Q409.171 310.85626 409.84286 311.6375Q410.51474 312.41876 410.51474 313.66876Q410.51474 314.98126 409.796 315.77814Q409.07724 316.575 407.8585 316.575Q406.63974 316.575 405.8741 315.6375Q405.1241 314.6844 405.1241 313.2L405.1241 312.79376Q405.1241 310.4344 406.1241 309.1844Q407.1241 307.9344 409.1085 307.91876L409.3116 307.91876ZM407.88974 311.7625Q407.32724 311.7625 406.8585 312.09064Q406.38974 312.41876 406.20224 312.9344L406.20224 313.325Q406.20224 314.3875 406.671 315.02814Q407.15536 315.66876 407.8585 315.66876Q408.59286 315.66876 409.01474 315.1375Q409.4366 314.59064 409.4366 313.71564Q409.4366 312.84064 409.01474 312.3094Q408.59286 311.7625 407.88974 311.7625Z" fill-rule="nonzero"/><path fill="#757575" d="M470.46695 311.65314L471.27945 311.65314Q472.0607 311.6375 472.4982 311.2469Q472.9357 310.85626 472.9357 310.1844Q472.9357 308.6844 471.4357 308.6844Q470.73257 308.6844 470.3107 309.09064Q469.90445 309.4969 469.90445 310.15314L468.8107 310.15314Q468.8107 309.1375 469.54507 308.46564Q470.29507 307.79376 471.4357 307.79376Q472.63882 307.79376 473.32632 308.4344Q474.01382 309.075 474.01382 310.21564Q474.01382 310.77814 473.65445 311.29376Q473.29507 311.8094 472.67007 312.075Q473.3732 312.29376 473.7482 312.8094Q474.13882 313.325 474.13882 314.075Q474.13882 315.21564 473.38882 315.90314Q472.63882 316.575 471.4357 316.575Q470.2482 316.575 469.48257 315.91876Q468.73257 315.2625 468.73257 314.2L469.82632 314.2Q469.82632 314.8719 470.26382 315.27814Q470.70132 315.6844 471.45132 315.6844Q472.23257 315.6844 472.63882 315.27814Q473.0607 314.85626 473.0607 314.09064Q473.0607 313.35626 472.60757 312.96564Q472.15445 312.5594 471.27945 312.54376L470.46695 312.54376L470.46695 311.65314ZM481.48257 316.45L475.88882 316.45L475.88882 315.66876L478.84195 312.3875Q479.4982 311.6375 479.7482 311.1844Q479.9982 310.71564 479.9982 310.21564Q479.9982 309.54376 479.59195 309.1219Q479.20132 308.6844 478.51382 308.6844Q477.71695 308.6844 477.26382 309.15314Q476.8107 309.60626 476.8107 310.4344L475.73257 310.4344Q475.73257 309.2469 476.48257 308.52814Q477.2482 307.79376 478.51382 307.79376Q479.71695 307.79376 480.40445 308.41876Q481.09195 309.04376 481.09195 310.09064Q481.09195 311.34064 479.48257 313.09064L477.20132 315.5594L481.48257 315.5594L481.48257 316.45Z" fill-rule="nonzero"/><path fill="#757575" d="M543.9973 307.91876L543.9973 308.825L543.7942 308.825Q542.52856 308.85626 541.77856 309.59064Q541.02856 310.3094 540.90356 311.6219Q541.59106 310.85626 542.7473 310.85626Q543.8567 310.85626 544.52856 311.6375Q545.20044 312.41876 545.20044 313.66876Q545.20044 314.98126 544.4817 315.77814Q543.76294 316.575 542.5442 316.575Q541.32544 316.575 540.5598 315.6375Q539.8098 314.6844 539.8098 313.2L539.8098 312.79376Q539.8098 310.4344 540.8098 309.1844Q541.8098 307.9344 543.7942 307.91876L543.9973 307.91876ZM542.57544 311.7625Q542.01294 311.7625 541.5442 312.09064Q541.07544 312.41876 540.88794 312.9344L540.88794 313.325Q540.88794 314.3875 541.3567 315.02814Q541.84106 315.66876 542.5442 315.66876Q543.27856 315.66876 543.70044 315.1375Q544.1223 314.59064 544.1223 313.71564Q544.1223 312.84064 543.70044 312.3094Q543.27856 311.7625 542.57544 311.7625ZM551.3098 313.59064L552.4973 313.59064L552.4973 314.46564L551.3098 314.46564L551.3098 316.45L550.2317 316.45L550.2317 314.46564L546.34106 314.46564L546.34106 313.825L550.15356 307.91876L551.3098 307.91876L551.3098 313.59064ZM547.57544 313.59064L550.2317 313.59064L550.2317 309.40314L550.09106 309.6375L547.57544 313.59064Z" fill-rule="nonzero"/><path fill="#757575" d="M22.20625 37.55L20.33125 37.55L20.33125 23.33125L22.20625 23.33125L22.20625 37.55ZM26.628124 26.9875L26.690624 28.315624Q27.89375 26.784374 29.846874 26.784374Q33.20625 26.784374 33.221874 30.565624L33.221874 37.55L31.425 37.55L31.425 30.55Q31.409374 29.409374 30.89375 28.8625Q30.39375 28.315624 29.3 28.315624Q28.425 28.315624 27.753124 28.784374Q27.096874 29.253124 26.721874 30.01875L26.721874 37.55L24.925 37.55L24.925 26.9875L26.628124 26.9875ZM38.3625 24.425L38.3625 26.9875L40.346874 26.9875L40.346874 28.378124L38.3625 28.378124L38.3625 34.925Q38.3625 35.565624 38.628124 35.89375Q38.89375 36.20625 39.534374 36.20625Q39.846874 36.20625 40.39375 36.08125L40.39375 37.55Q39.675 37.753124 39.003124 37.753124Q37.8 37.753124 37.175 37.01875Q36.565624 36.284374 36.565624 34.925L36.565624 28.378124L34.64375 28.378124L34.64375 26.9875L36.565624 26.9875L36.565624 24.425L38.3625 24.425ZM47.3 37.753124Q45.159374 37.753124 43.8 36.346874Q42.45625 34.925 42.45625 32.565624L42.45625 32.221874Q42.45625 30.659374 43.05 29.425Q43.659374 28.190624 44.7375 27.4875Q45.815624 26.784374 47.08125 26.784374Q49.14375 26.784374 50.284374 28.14375Q51.425 29.503124 51.425 32.034374L51.425 32.784374L44.26875 32.784374Q44.3 34.346874 45.175 35.315624Q46.05 36.26875 47.39375 36.26875Q48.3625 36.26875 49.01875 35.878124Q49.690624 35.4875 50.190624 34.846874L51.284374 35.70625Q49.95625 37.753124 47.3 37.753124ZM47.08125 28.26875Q45.9875 28.26875 45.2375 29.065624Q44.503124 29.8625 44.33125 31.3L49.6125 31.3L49.6125 31.159374Q49.534374 29.784374 48.8625 29.034374Q48.20625 28.26875 47.08125 28.26875ZM55.878124 37.55L54.08125 37.55L54.08125 22.55L55.878124 22.55L55.878124 37.55ZM74.65938 33.034374Q74.39375 35.3 72.9875 36.534374Q71.59688 37.753124 69.26875 37.753124Q66.75313 37.753124 65.22188 35.940624Q63.70625 34.128124 63.70625 31.096874L63.70625 29.7375Q63.70625 27.753124 64.40938 26.253124Q65.12813 24.753124 66.425 23.940624Q67.72188 23.128124 69.44063 23.128124Q71.70625 23.128124 73.06563 24.39375Q74.44063 25.659374 74.65938 27.89375L72.76875 27.89375Q72.53438 26.20625 71.70625 25.440624Q70.89375 24.675 69.44063 24.675Q67.64375 24.675 66.6125 26.003124Q65.59688 27.33125 65.59688 29.784374L65.59688 31.159374Q65.59688 33.471874 66.56563 34.846874Q67.53438 36.20625 69.26875 36.20625Q70.83125 36.20625 71.65938 35.503124Q72.50313 34.8 72.76875 33.034374L74.65938 33.034374ZM76.44063 32.175Q76.44063 30.6125 77.05 29.378124Q77.65938 28.128124 78.7375 27.45625Q79.83125 26.784374 81.2375 26.784374Q83.39375 26.784374 84.72188 28.284374Q86.06563 29.76875 86.06563 32.253124L86.06563 32.378124Q86.06563 33.925 85.47188 35.159374Q84.87813 36.378124 83.76875 37.065624Q82.675 37.753124 81.25313 37.753124Q79.1125 37.753124 77.76875 36.253124Q76.44063 34.753124 76.44063 32.3L76.44063 32.175ZM78.25313 32.378124Q78.25313 34.14375 79.06563 35.20625Q79.89375 36.26875 81.25313 36.26875Q82.62813 36.26875 83.44063 35.190624Q84.25313 34.1125 84.25313 32.175Q84.25313 30.425 83.425 29.346874Q82.59688 28.26875 81.2375 28.26875Q79.89375 28.26875 79.06563 29.33125Q78.25313 30.39375 78.25313 32.378124ZM93.01875 28.596874Q92.6125 28.534374 92.14375 28.534374Q90.3625 28.534374 89.72188 30.05L89.72188 37.55L87.925 37.55L87.925 26.9875L89.675 26.9875L89.70625 28.20625Q90.59688 26.784374 92.22188 26.784374Q92.75313 26.784374 93.01875 26.925L93.01875 28.596874ZM99.3 37.753124Q97.15938 37.753124 95.8 36.346874Q94.45625 34.925 94.45625 32.565624L94.45625 32.221874Q94.45625 30.659374 95.05 29.425Q95.65938 28.190624 96.7375 27.4875Q97.81563 26.784374 99.08125 26.784374Q101.14375 26.784374 102.28438 28.14375Q103.425 29.503124 103.425 32.034374L103.425 32.784374L96.26875 32.784374Q96.3 34.346874 97.175 35.315624Q98.05 36.26875 99.39375 36.26875Q100.3625 36.26875 101.01875 35.878124Q101.69063 35.4875 102.19063 34.846874L103.28438 35.70625Q101.95625 37.753124 99.3 37.753124ZM99.08125 28.26875Q97.9875 28.26875 97.2375 29.065624Q96.50313 29.8625 96.33125 31.3L101.6125 31.3L101.6125 31.159374Q101.53438 29.784374 100.8625 29.034374Q100.20625 28.26875 99.08125 28.26875ZM112.87813 37.55L111.08125 37.55L111.08125 26.9875L112.87813 26.9875L112.87813 37.55ZM110.925 24.175Q110.925 23.7375 111.19063 23.440624Q111.47188 23.128124 111.9875 23.128124Q112.51875 23.128124 112.78438 23.440624Q113.06563 23.7375 113.06563 24.175Q113.06563 24.6125 112.78438 24.909374Q112.51875 25.20625 111.9875 25.20625Q111.47188 25.20625 111.19063 24.909374Q110.925 24.6125 110.925 24.175ZM124.90938 24.346874L119.01875 37.55L117.12813 37.55L123.00313 24.815624L115.3 24.815624L115.3 23.33125L124.90938 23.33125L124.90938 24.346874ZM130.675 32.253124L125.90938 32.253124L125.90938 30.76875L130.675 30.76875L130.675 32.253124ZM140.3625 32.76875L142.33125 32.76875L142.33125 34.253124L140.3625 34.253124L140.3625 37.55L138.55 37.55L138.55 34.253124L132.06563 34.253124L132.06563 33.190624L138.44063 23.33125L140.3625 23.33125L140.3625 32.76875ZM134.1125 32.76875L138.55 32.76875L138.55 25.8L138.33125 26.190624L134.1125 32.76875ZM152.90938 24.346874L147.01875 37.55L145.12813 37.55L151.00313 24.815624L143.3 24.815624L143.3 23.33125L152.90938 23.33125L152.90938 24.346874ZM161.65938 31.3Q161.09688 31.971874 160.3 32.39375Q159.51875 32.8 158.58125 32.8Q157.34688 32.8 156.425 32.190624Q155.51875 31.58125 155.01875 30.4875Q154.53438 29.378124 154.53438 28.05Q154.53438 26.628124 155.06563 25.4875Q155.6125 24.346874 156.59688 23.7375Q157.59688 23.128124 158.925 23.128124Q161.03438 23.128124 162.25313 24.70625Q163.47188 26.284374 163.47188 29.01875L163.47188 29.534374Q163.47188 33.690624 161.83125 35.596874Q160.19063 37.503124 156.87813 37.565624L156.53438 37.565624L156.53438 36.034374L156.90938 36.034374Q159.14375 36.003124 160.34688 34.878124Q161.55 33.7375 161.65938 31.3ZM158.87813 31.3Q159.78438 31.3 160.55 30.753124Q161.31563 30.190624 161.65938 29.3625L161.65938 28.64375Q161.65938 26.8625 160.89375 25.753124Q160.12813 24.64375 158.94063 24.64375Q157.75313 24.64375 157.01875 25.565624Q156.3 26.471874 156.3 27.95625Q156.3 29.409374 157.00313 30.3625Q157.70625 31.3 158.87813 31.3ZM174.64375 31.4875Q174.64375 34.659374 173.56563 36.20625Q172.4875 37.753124 170.175 37.753124Q167.89375 37.753124 166.8 36.2375Q165.70625 34.721874 165.675 31.721874L165.675 29.315624Q165.675 26.175 166.75313 24.659374Q167.84688 23.128124 170.15938 23.128124Q172.45625 23.128124 173.53438 24.6125Q174.6125 26.08125 174.64375 29.14375L174.64375 31.4875ZM172.84688 29.01875Q172.84688 26.721874 172.19063 25.675Q171.55 24.6125 170.15938 24.6125Q168.76875 24.6125 168.12813 25.659374Q167.50313 26.70625 167.4875 28.878124L167.4875 31.76875Q167.4875 34.065624 168.14375 35.175Q168.81563 36.26875 170.175 36.26875Q171.51875 36.26875 172.15938 35.2375Q172.81563 34.20625 172.84688 31.971874L172.84688 29.01875ZM180.81563 30.940624L179.08125 32.7375L179.08125 37.55L177.20625 37.55L177.20625 23.33125L179.08125 23.33125L179.08125 30.3625L185.39375 23.33125L187.65938 23.33125L182.06563 29.6125L188.09688 37.55L185.84688 37.55L180.81563 30.940624ZM194.84688 31.784374Q194.84688 29.565624 195.44063 27.534374Q196.03438 25.503124 197.20625 23.846874Q198.37813 22.190624 199.62813 21.503124L200.00313 22.690624Q198.58125 23.784374 197.65938 26.034374Q196.75313 28.284374 196.65938 31.065624L196.65938 31.89375Q196.65938 35.659374 198.03438 38.440624Q198.8625 40.096874 200.00313 41.034374L199.62813 42.14375Q198.33125 41.425 197.15938 39.721874Q194.84688 36.39375 194.84688 31.784374ZM210.3625 27.034374Q210.3625 28.1125 209.8 28.940624Q209.2375 29.76875 208.26875 30.2375Q209.39375 30.70625 210.03438 31.628124Q210.69063 32.55 210.69063 33.70625Q210.69063 35.55 209.44063 36.659374Q208.19063 37.753124 206.15938 37.753124Q204.1125 37.753124 202.87813 36.659374Q201.64375 35.55 201.64375 33.70625Q201.64375 32.565624 202.26875 31.64375Q202.90938 30.70625 204.01875 30.221874Q203.06563 29.753124 202.51875 28.925Q201.97188 28.096874 201.97188 27.034374Q201.97188 25.2375 203.12813 24.190624Q204.28438 23.128124 206.15938 23.128124Q208.03438 23.128124 209.19063 24.190624Q210.3625 25.2375 210.3625 27.034374ZM208.87813 33.675Q208.87813 32.4875 208.1125 31.7375Q207.3625 30.971874 206.14375 30.971874Q204.925 30.971874 204.19063 31.721874Q203.45625 32.45625 203.45625 33.675Q203.45625 34.878124 204.175 35.58125Q204.89375 36.26875 206.15938 36.26875Q207.44063 36.26875 208.15938 35.58125Q208.87813 34.878124 208.87813 33.675ZM206.15938 24.6125Q205.09688 24.6125 204.44063 25.284374Q203.78438 25.940624 203.78438 27.065624Q203.78438 28.159374 204.425 28.83125Q205.08125 29.4875 206.15938 29.4875Q207.25313 29.4875 207.89375 28.83125Q208.55 28.159374 208.55 27.08125Q208.55 25.9875 207.87813 25.3Q207.20625 24.6125 206.15938 24.6125ZM219.87813 37.55L218.08125 37.55L218.08125 22.55L219.87813 22.55L219.87813 37.55ZM222.44063 32.175Q222.44063 30.6125 223.05 29.378124Q223.65938 28.128124 224.7375 27.45625Q225.83125 26.784374 227.2375 26.784374Q229.39375 26.784374 230.72188 28.284374Q232.06563 29.76875 232.06563 32.253124L232.06563 32.378124Q232.06563 33.925 231.47188 35.159374Q230.87813 36.378124 229.76875 37.065624Q228.675 37.753124 227.25313 37.753124Q225.1125 37.753124 223.76875 36.253124Q222.44063 34.753124 222.44063 32.3L222.44063 32.175ZM224.25313 32.378124Q224.25313 34.14375 225.06563 35.20625Q225.89375 36.26875 227.25313 36.26875Q228.62813 36.26875 229.44063 35.190624Q230.25313 34.1125 230.25313 32.175Q230.25313 30.425 229.425 29.346874Q228.59688 28.26875 227.2375 28.26875Q225.89375 28.26875 225.06563 29.33125Q224.25313 30.39375 224.25313 32.378124ZM233.4875 32.175Q233.4875 29.70625 234.62813 28.253124Q235.76875 26.784374 237.65938 26.784374Q239.59688 26.784374 240.675 28.159374L240.76875 26.9875L242.40938 26.9875L242.40938 37.3Q242.40938 39.346874 241.19063 40.51875Q239.9875 41.70625 237.925 41.70625Q236.78438 41.70625 235.69063 41.221874Q234.59688 40.7375 234.01875 39.878124L234.95625 38.8Q236.12813 40.2375 237.8 40.2375Q239.12813 40.2375 239.8625 39.4875Q240.59688 38.753124 240.59688 37.409374L240.59688 36.4875Q239.51875 37.753124 237.64375 37.753124Q235.78438 37.753124 234.62813 36.253124Q233.4875 34.753124 233.4875 32.175ZM235.3 32.378124Q235.3 34.175 236.03438 35.190624Q236.76875 36.20625 238.08125 36.20625Q239.8 36.20625 240.59688 34.659374L240.59688 29.83125Q239.76875 28.315624 238.1125 28.315624Q236.78438 28.315624 236.03438 29.346874Q235.3 30.378124 235.3 32.378124ZM246.87813 37.55L245.08125 37.55L245.08125 26.9875L246.87813 26.9875L246.87813 37.55ZM244.925 24.175Q244.925 23.7375 245.19063 23.440624Q245.47188 23.128124 245.9875 23.128124Q246.51875 23.128124 246.78438 23.440624Q247.06563 23.7375 247.06563 24.175Q247.06563 24.6125 246.78438 24.909374Q246.51875 25.20625 245.9875 25.20625Q245.47188 25.20625 245.19063 24.909374Q244.925 24.6125 244.925 24.175ZM254.15938 36.26875Q255.12813 36.26875 255.84688 35.690624Q256.5656 35.096874 256.64374 34.221874L258.3625 34.221874Q258.3 35.128124 257.72186 35.95625Q257.15936 36.76875 256.1906 37.26875Q255.2375 37.753124 254.15938 37.753124Q252.00313 37.753124 250.72188 36.315624Q249.45625 34.8625 249.45625 32.3625L249.45625 32.065624Q249.45625 30.51875 250.01875 29.315624Q250.58125 28.1125 251.64375 27.45625Q252.70625 26.784374 254.14375 26.784374Q255.925 26.784374 257.09686 27.846874Q258.28436 28.909374 258.3625 30.6125L256.64374 30.6125Q256.5656 29.596874 255.8625 28.940624Q255.175 28.26875 254.14375 28.26875Q252.76875 28.26875 252.00313 29.26875Q251.25313 30.253124 251.25313 32.128124L251.25313 32.471874Q251.25313 34.3 252.00313 35.284374Q252.75313 36.26875 254.15938 36.26875ZM266.4406 37.55Q266.28436 37.2375 266.1906 36.440624Q264.925 37.753124 263.175 37.753124Q261.6125 37.753124 260.6125 36.8625Q259.6125 35.971874 259.6125 34.6125Q259.6125 32.971874 260.8625 32.065624Q262.1281 31.14375 264.39374 31.14375L266.15936 31.14375L266.15936 30.315624Q266.15936 29.3625 265.58124 28.8Q265.01874 28.2375 263.925 28.2375Q262.95624 28.2375 262.3 28.7375Q261.64374 29.221874 261.64374 29.909374L259.83124 29.909374Q259.83124 29.128124 260.39374 28.39375Q260.95624 27.64375 261.90936 27.221874Q262.8781 26.784374 264.03436 26.784374Q265.8625 26.784374 266.89374 27.70625Q267.925 28.6125 267.97186 30.221874L267.97186 35.08125Q267.97186 36.534374 268.33124 37.39375L268.33124 37.55L266.4406 37.55ZM263.4406 36.175Q264.3 36.175 265.05 35.7375Q265.8156 35.3 266.15936 34.596874L266.15936 32.425L264.7375 32.425Q261.425 32.425 261.425 34.3625Q261.425 35.221874 261.9875 35.70625Q262.55 36.175 263.4406 36.175ZM272.8781 37.55L271.08124 37.55L271.08124 22.55L272.8781 22.55L272.8781 37.55ZM285.15936 36.26875Q286.1281 36.26875 286.84686 35.690624Q287.5656 35.096874 287.64374 34.221874L289.3625 34.221874Q289.3 35.128124 288.72186 35.95625Q288.15936 36.76875 287.1906 37.26875Q286.2375 37.753124 285.15936 37.753124Q283.0031 37.753124 281.72186 36.315624Q280.45624 34.8625 280.45624 32.3625L280.45624 32.065624Q280.45624 30.51875 281.01874 29.315624Q281.58124 28.1125 282.64374 27.45625Q283.70624 26.784374 285.14374 26.784374Q286.925 26.784374 288.09686 27.846874Q289.28436 28.909374 289.3625 30.6125L287.64374 30.6125Q287.5656 29.596874 286.8625 28.940624Q286.175 28.26875 285.14374 28.26875Q283.76874 28.26875 283.0031 29.26875Q282.2531 30.253124 282.2531 32.128124L282.2531 32.471874Q282.2531 34.3 283.0031 35.284374Q283.7531 36.26875 285.15936 36.26875ZM290.4406 32.175Q290.4406 30.6125 291.05 29.378124Q291.65936 28.128124 292.7375 27.45625Q293.83124 26.784374 295.2375 26.784374Q297.39374 26.784374 298.72186 28.284374Q300.0656 29.76875 300.0656 32.253124L300.0656 32.378124Q300.0656 33.925 299.47186 35.159374Q298.8781 36.378124 297.76874 37.065624Q296.675 37.753124 295.2531 37.753124Q293.1125 37.753124 291.76874 36.253124Q290.4406 34.753124 290.4406 32.3L290.4406 32.175ZM292.2531 32.378124Q292.2531 34.14375 293.0656 35.20625Q293.89374 36.26875 295.2531 36.26875Q296.6281 36.26875 297.4406 35.190624Q298.2531 34.1125 298.2531 32.175Q298.2531 30.425 297.425 29.346874Q296.59686 28.26875 295.2375 28.26875Q293.89374 28.26875 293.0656 29.33125Q292.2531 30.39375 292.2531 32.378124ZM307.01874 28.596874Q306.6125 28.534374 306.14374 28.534374Q304.3625 28.534374 303.72186 30.05L303.72186 37.55L301.925 37.55L301.925 26.9875L303.675 26.9875L303.70624 28.20625Q304.59686 26.784374 306.22186 26.784374Q306.7531 26.784374 307.01874 26.925L307.01874 28.596874ZM313.3 37.753124Q311.15936 37.753124 309.8 36.346874Q308.45624 34.925 308.45624 32.565624L308.45624 32.221874Q308.45624 30.659374 309.05 29.425Q309.65936 28.190624 310.7375 27.4875Q311.8156 26.784374 313.08124 26.784374Q315.14374 26.784374 316.28436 28.14375Q317.425 29.503124 317.425 32.034374L317.425 32.784374L310.26874 32.784374Q310.3 34.346874 311.175 35.315624Q312.05 36.26875 313.39374 36.26875Q314.3625 36.26875 315.01874 35.878124Q315.6906 35.4875 316.1906 34.846874L317.28436 35.70625Q315.95624 37.753124 313.3 37.753124ZM313.08124 28.26875Q311.9875 28.26875 311.2375 29.065624Q310.5031 29.8625 310.33124 31.3L315.6125 31.3L315.6125 31.159374Q315.53436 29.784374 314.8625 29.034374Q314.20624 28.26875 313.08124 28.26875ZM326.0656 34.753124Q326.0656 34.01875 325.51874 33.6125Q324.97186 33.20625 323.59686 32.909374Q322.22186 32.6125 321.40936 32.20625Q320.6125 31.8 320.22186 31.2375Q319.84686 30.659374 319.84686 29.878124Q319.84686 28.58125 320.9406 27.690624Q322.03436 26.784374 323.7531 26.784374Q325.55 26.784374 326.65936 27.721874Q327.78436 28.64375 327.78436 30.08125L325.95624 30.08125Q325.95624 29.346874 325.33124 28.815624Q324.70624 28.26875 323.7531 28.26875Q322.7531 28.26875 322.1906 28.70625Q321.64374 29.128124 321.64374 29.83125Q321.64374 30.471874 322.15936 30.815624Q322.675 31.14375 324.03436 31.45625Q325.39374 31.753124 326.22186 32.175Q327.0656 32.58125 327.47186 33.175Q327.8781 33.76875 327.8781 34.6125Q327.8781 36.034374 326.7375 36.89375Q325.6125 37.753124 323.8 37.753124Q322.53436 37.753124 321.55 37.3Q320.58124 36.846874 320.01874 36.05Q319.47186 35.2375 319.47186 34.3L321.28436 34.3Q321.33124 35.20625 322.0031 35.7375Q322.6906 36.26875 323.8 36.26875Q324.83124 36.26875 325.4406 35.8625Q326.0656 35.440624 326.0656 34.753124ZM329.8625 40.378124L328.83124 39.675Q329.7531 38.39375 329.78436 37.034374L329.78436 35.409374L331.5656 35.409374L331.5656 36.83125Q331.5656 37.815624 331.08124 38.8Q330.59686 39.784374 329.8625 40.378124ZM346.3625 32.76875L348.33124 32.76875L348.33124 34.253124L346.3625 34.253124L346.3625 37.55L344.55 37.55L344.55 34.253124L338.0656 34.253124L338.0656 33.190624L344.4406 23.33125L346.3625 23.33125L346.3625 32.76875ZM340.1125 32.76875L344.55 32.76875L344.55 25.8L344.33124 26.190624L340.1125 32.76875ZM363.84686 32.378124Q363.84686 34.8 362.7375 36.284374Q361.64374 37.753124 359.7531 37.753124Q357.83124 37.753124 356.72186 36.51875L356.72186 41.6125L354.925 41.6125L354.925 26.9875L356.5656 26.9875L356.65936 28.159374Q357.7531 26.784374 359.72186 26.784374Q361.6281 26.784374 362.7375 28.221874Q363.84686 29.659374 363.84686 32.221874L363.84686 32.378124ZM362.03436 32.175Q362.03436 30.39375 361.26874 29.3625Q360.51874 28.315624 359.1906 28.315624Q357.55 28.315624 356.72186 29.76875L356.72186 34.83125Q357.53436 36.26875 359.20624 36.26875Q360.5031 36.26875 361.26874 35.2375Q362.03436 34.20625 362.03436 32.175ZM367.72186 28.26875Q368.925 26.784374 370.84686 26.784374Q374.20624 26.784374 374.22186 30.565624L374.22186 37.55L372.425 37.55L372.425 30.55Q372.40936 29.409374 371.89374 28.8625Q371.39374 28.315624 370.3 28.315624Q369.425 28.315624 368.7531 28.784374Q368.09686 29.253124 367.72186 30.01875L367.72186 37.55L365.925 37.55L365.925 22.55L367.72186 22.55L367.72186 28.26875ZM380.3781 34.909374L382.83124 26.9875L384.76874 26.9875L380.51874 39.175Q379.53436 41.815624 377.39374 41.815624L377.05 41.784374L376.3781 41.659374L376.3781 40.190624L376.8625 40.2375Q377.78436 40.2375 378.28436 39.8625Q378.8 39.4875 379.1281 38.503124L379.53436 37.425L375.76874 26.9875L377.7375 26.9875L380.3781 34.909374ZM392.0656 34.753124Q392.0656 34.01875 391.51874 33.6125Q390.97186 33.20625 389.59686 32.909374Q388.22186 32.6125 387.40936 32.20625Q386.6125 31.8 386.22186 31.2375Q385.84686 30.659374 385.84686 29.878124Q385.84686 28.58125 386.9406 27.690624Q388.03436 26.784374 389.7531 26.784374Q391.55 26.784374 392.65936 27.721874Q393.78436 28.64375 393.78436 30.08125L391.95624 30.08125Q391.95624 29.346874 391.33124 28.815624Q390.70624 28.26875 389.7531 28.26875Q388.7531 28.26875 388.1906 28.70625Q387.64374 29.128124 387.64374 29.83125Q387.64374 30.471874 388.15936 30.815624Q388.675 31.14375 390.03436 31.45625Q391.39374 31.753124 392.22186 32.175Q393.0656 32.58125 393.47186 33.175Q393.8781 33.76875 393.8781 34.6125Q393.8781 36.034374 392.7375 36.89375Q391.6125 37.753124 389.8 37.753124Q388.53436 37.753124 387.55 37.3Q386.58124 36.846874 386.01874 36.05Q385.47186 35.2375 385.47186 34.3L387.28436 34.3Q387.33124 35.20625 388.0031 35.7375Q388.6906 36.26875 389.8 36.26875Q390.83124 36.26875 391.4406 35.8625Q392.0656 35.440624 392.0656 34.753124ZM397.8781 37.55L396.08124 37.55L396.08124 26.9875L397.8781 26.9875L397.8781 37.55ZM395.925 24.175Q395.925 23.7375 396.1906 23.440624Q396.47186 23.128124 396.9875 23.128124Q397.51874 23.128124 397.78436 23.440624Q398.0656 23.7375 398.0656 24.175Q398.0656 24.6125 397.78436 24.909374Q397.51874 25.20625 396.9875 25.20625Q396.47186 25.20625 396.1906 24.909374Q395.925 24.6125 395.925 24.175ZM405.15936 36.26875Q406.1281 36.26875 406.84686 35.690624Q407.5656 35.096874 407.64374 34.221874L409.3625 34.221874Q409.3 35.128124 408.72186 35.95625Q408.15936 36.76875 407.1906 37.26875Q406.2375 37.753124 405.15936 37.753124Q403.0031 37.753124 401.72186 36.315624Q400.45624 34.8625 400.45624 32.3625L400.45624 32.065624Q400.45624 30.51875 401.01874 29.315624Q401.58124 28.1125 402.64374 27.45625Q403.70624 26.784374 405.14374 26.784374Q406.925 26.784374 408.09686 27.846874Q409.28436 28.909374 409.3625 30.6125L407.64374 30.6125Q407.5656 29.596874 406.8625 28.940624Q406.175 28.26875 405.14374 28.26875Q403.76874 28.26875 403.0031 29.26875Q402.2531 30.253124 402.2531 32.128124L402.2531 32.471874Q402.2531 34.3 403.0031 35.284374Q403.7531 36.26875 405.15936 36.26875ZM417.4406 37.55Q417.28436 37.2375 417.1906 36.440624Q415.925 37.753124 414.175 37.753124Q412.6125 37.753124 411.6125 36.8625Q410.6125 35.971874 410.6125 34.6125Q410.6125 32.971874 411.8625 32.065624Q413.1281 31.14375 415.39374 31.14375L417.15936 31.14375L417.15936 30.315624Q417.15936 29.3625 416.58124 28.8Q416.01874 28.2375 414.925 28.2375Q413.95624 28.2375 413.3 28.7375Q412.64374 29.221874 412.64374 29.909374L410.83124 29.909374Q410.83124 29.128124 411.39374 28.39375Q411.95624 27.64375 412.90936 27.221874Q413.8781 26.784374 415.03436 26.784374Q416.8625 26.784374 417.89374 27.70625Q418.925 28.6125 418.97186 30.221874L418.97186 35.08125Q418.97186 36.534374 419.33124 37.39375L419.33124 37.55L417.4406 37.55ZM414.4406 36.175Q415.3 36.175 416.05 35.7375Q416.8156 35.3 417.15936 34.596874L417.15936 32.425L415.7375 32.425Q412.425 32.425 412.425 34.3625Q412.425 35.221874 412.9875 35.70625Q413.55 36.175 414.4406 36.175ZM423.8781 37.55L422.08124 37.55L422.08124 22.55L423.8781 22.55L423.8781 37.55ZM431.08124 31.878124Q431.08124 34.05 430.5031 36.05Q429.9406 38.05 428.76874 39.7375Q427.59686 41.425 426.3 42.14375L425.925 41.034374Q427.425 39.878124 428.33124 37.45625Q429.2531 35.034374 429.26874 32.065624L429.26874 31.753124Q429.26874 29.70625 428.83124 27.940624Q428.40936 26.175 427.64374 24.784374Q426.8781 23.39375 425.925 22.6125L426.3 21.503124Q427.59686 22.221874 428.7531 23.89375Q429.925 25.55 430.5031 27.565624Q431.08124 29.58125 431.08124 31.878124Z" fill-rule="nonzero"/></svg>