<svg version="1.1" viewBox="0.0 0.0 670.0 414.0" fill="none" stroke="none" stroke-linecap="square" stroke-miterlimit="10" width="670" height="414" xmlns:xlink="http://www.w3.org/1999/xlink" xmlns="http://www.w3.org/2000/svg"><path fill="#ffffff" d="M0 0L670.0 0L670.0 414.0L0 414.0L0 0Z" fill-rule="nonzero"/><path stroke="#cccccc" stroke-width="1.0" stroke-linecap="butt" d="M195.5 113.5L195.5 339.5" fill-rule="nonzero"/><path stroke="#cccccc" stroke-width="1.0" stroke-linecap="butt" d="M314.5 113.5L314.5 339.5" fill-rule="nonzero"/><path stroke="#cccccc" stroke-width="1.0" stroke-linecap="butt" d="M434.5 113.5L434.5 339.5" fill-rule="nonzero"/><path stroke="#cccccc" stroke-width="1.0" stroke-linecap="butt" d="M553.5 113.5L553.5 339.5" fill-rule="nonzero"/><path stroke="#333333" stroke-width="1.0" stroke-linecap="butt" d="M87.5 339.5L649.5 339.5" fill-rule="nonzero"/><path stroke="#cccccc" stroke-width="1.0" stroke-linecap="butt" d="M87.5 282.5L649.5 282.5" fill-rule="nonzero"/><path stroke="#cccccc" stroke-width="1.0" stroke-linecap="butt" d="M87.5 226.5L649.5 226.5" fill-rule="nonzero"/><path stroke="#cccccc" stroke-width="1.0" stroke-linecap="butt" d="M87.5 170.5L649.5 170.5" fill-rule="nonzero"/><path stroke="#cccccc" stroke-width="1.0" stroke-linecap="butt" d="M87.5 113.5L649.5 113.5" fill-rule="nonzero"/><clipPath id="id_0"><path d="M87.7 113.8L649.3 113.8L649.3 339.3L87.7 339.3L87.7 113.8Z" clip-rule="nonzero"/></clipPath><path stroke="#4285f4" stroke-width="2.0" stroke-linecap="butt" clip-path="url(#id_0)" d="M87.7 188.18794L99.64893 233.92047L123.54681 252.79312L171.34256 266.5633L219.13829 250.43947L266.93405 270.3686L362.52554 265.00507L458.11703 270.38834L553.7085 267.86612L649.3 270.93967" fill-rule="nonzero"/><path stroke="#db4437" stroke-width="2.0" stroke-linecap="butt" clip-path="url(#id_0)" d="M87.7 190.78119L99.64893 238.29799L123.54681 247.83946L171.34256 265.63367L219.13829 244.12491L266.93405 265.5384L362.52554 258.31393L458.11703 271.86142L553.7085 259.305L649.3 267.42188" fill-rule="nonzero"/><path stroke="#f4b400" stroke-width="2.0" stroke-linecap="butt" clip-path="url(#id_0)" d="M87.7 166.14194L99.64893 223.46404L123.54681 235.53731L171.34256 248.82602L219.13829 242.76796L266.93405 252.83484L362.52554 255.77818L458.11703 260.45618L553.7085 257.4638L649.3 262.2382" fill-rule="nonzero"/><path fill="#000000" fill-opacity="0.0" clip-path="url(#id_0)" d="M90.7 188.18794C90.7 189.84479 89.35686 191.18794 87.7 191.18794C86.043144 191.18794 84.7 189.84479 84.7 188.18794C84.7 186.53108 86.043144 185.18794 87.7 185.18794C89.35686 185.18794 90.7 186.53108 90.7 188.18794Z" fill-rule="nonzero"/><path fill="#000000" fill-opacity="0.0" clip-path="url(#id_0)" d="M102.64893 233.92047C102.64893 235.57732 101.30579 236.92047 99.64893 236.92047C97.99208 236.92047 96.64893 235.57732 96.64893 233.92047C96.64893 232.26361 97.99208 230.92047 99.64893 230.92047C101.30579 230.92047 102.64893 232.26361 102.64893 233.92047Z" fill-rule="nonzero"/><path fill="#000000" fill-opacity="0.0" clip-path="url(#id_0)" d="M126.54681 252.79312C126.54681 254.44998 125.20366 255.79312 123.54681 255.79312C121.88995 255.79312 120.54681 254.44998 120.54681 252.79312C120.54681 251.13628 121.88995 249.79312 123.54681 249.79312C125.20366 249.79312 126.54681 251.13628 126.54681 252.79312Z" fill-rule="nonzero"/><path fill="#000000" fill-opacity="0.0" clip-path="url(#id_0)" d="M174.34256 266.5633C174.34256 268.22012 172.9994 269.5633 171.34256 269.5633C169.6857 269.5633 168.34256 268.22012 168.34256 266.5633C168.34256 264.90643 169.6857 263.5633 171.34256 263.5633C172.9994 263.5633 174.34256 264.90643 174.34256 266.5633Z" fill-rule="nonzero"/><path fill="#000000" fill-opacity="0.0" clip-path="url(#id_0)" d="M222.13829 250.43947C222.13829 252.09633 220.79515 253.43947 219.13829 253.43947C217.48145 253.43947 216.13829 252.09633 216.13829 250.43947C216.13829 248.78262 217.48145 247.43947 219.13829 247.43947C220.79515 247.43947 222.13829 248.78262 222.13829 250.43947Z" fill-rule="nonzero"/><path fill="#000000" fill-opacity="0.0" clip-path="url(#id_0)" d="M269.93405 270.3686C269.93405 272.02545 268.5909 273.3686 266.93405 273.3686C265.2772 273.3686 263.93405 272.02545 263.93405 270.3686C263.93405 268.71173 265.2772 267.3686 266.93405 267.3686C268.5909 267.3686 269.93405 268.71173 269.93405 270.3686Z" fill-rule="nonzero"/><path fill="#000000" fill-opacity="0.0" clip-path="url(#id_0)" d="M365.52554 265.00507C365.52554 266.66193 364.18237 268.00507 362.52554 268.00507C360.86868 268.00507 359.52554 266.66193 359.52554 265.00507C359.52554 263.34824 360.86868 262.00507 362.52554 262.00507C364.18237 262.00507 365.52554 263.34824 365.52554 265.00507Z" fill-rule="nonzero"/><path fill="#000000" fill-opacity="0.0" clip-path="url(#id_0)" d="M461.11703 270.38834C461.11703 272.0452 459.77386 273.38834 458.11703 273.38834C456.46017 273.38834 455.11703 272.0452 455.11703 270.38834C455.11703 268.73148 456.46017 267.38834 458.11703 267.38834C459.77386 267.38834 461.11703 268.73148 461.11703 270.38834Z" fill-rule="nonzero"/><path fill="#000000" fill-opacity="0.0" clip-path="url(#id_0)" d="M556.7085 267.86612C556.7085 269.52295 555.36536 270.86612 553.7085 270.86612C552.05164 270.86612 550.7085 269.52295 550.7085 267.86612C550.7085 266.20926 552.05164 264.86612 553.7085 264.86612C555.36536 264.86612 556.7085 266.20926 556.7085 267.86612Z" fill-rule="nonzero"/><path fill="#000000" fill-opacity="0.0" clip-path="url(#id_0)" d="M652.3 270.93967C652.3 272.59653 650.95685 273.93967 649.3 273.93967C647.6431 273.93967 646.3 272.59653 646.3 270.93967C646.3 269.2828 647.6431 267.93967 649.3 267.93967C650.95685 267.93967 652.3 269.2828 652.3 270.93967Z" fill-rule="nonzero"/><path fill="#000000" fill-opacity="0.0" clip-path="url(#id_0)" d="M90.7 190.78119C90.7 192.43805 89.35686 193.78119 87.7 193.78119C86.043144 193.78119 84.7 192.43805 84.7 190.78119C84.7 189.12433 86.043144 187.78119 87.7 187.78119C89.35686 187.78119 90.7 189.12433 90.7 190.78119Z" fill-rule="nonzero"/><path fill="#000000" fill-opacity="0.0" clip-path="url(#id_0)" d="M102.64893 238.29799C102.64893 239.95483 101.30579 241.29799 99.64893 241.29799C97.99208 241.29799 96.64893 239.95483 96.64893 238.29799C96.64893 236.64113 97.99208 235.29799 99.64893 235.29799C101.30579 235.29799 102.64893 236.64113 102.64893 238.29799Z" fill-rule="nonzero"/><path fill="#000000" fill-opacity="0.0" clip-path="url(#id_0)" d="M126.54681 247.83946C126.54681 249.4963 125.20366 250.83946 123.54681 250.83946C121.88995 250.83946 120.54681 249.4963 120.54681 247.83946C120.54681 246.1826 121.88995 244.83946 123.54681 244.83946C125.20366 244.83946 126.54681 246.1826 126.54681 247.83946Z" fill-rule="nonzero"/><path fill="#000000" fill-opacity="0.0" clip-path="url(#id_0)" d="M174.34256 265.63367C174.34256 267.29053 172.9994 268.63367 171.34256 268.63367C169.6857 268.63367 168.34256 267.29053 168.34256 265.63367C168.34256 263.9768 169.6857 262.63367 171.34256 262.63367C172.9994 262.63367 174.34256 263.9768 174.34256 265.63367Z" fill-rule="nonzero"/><path fill="#000000" fill-opacity="0.0" clip-path="url(#id_0)" d="M222.13829 244.12491C222.13829 245.78175 220.79515 247.12491 219.13829 247.12491C217.48145 247.12491 216.13829 245.78175 216.13829 244.12491C216.13829 242.46805 217.48145 241.12491 219.13829 241.12491C220.79515 241.12491 222.13829 242.46805 222.13829 244.12491Z" fill-rule="nonzero"/><path fill="#000000" fill-opacity="0.0" clip-path="url(#id_0)" d="M269.93405 265.5384C269.93405 267.19525 268.5909 268.5384 266.93405 268.5384C265.2772 268.5384 263.93405 267.19525 263.93405 265.5384C263.93405 263.88153 265.2772 262.5384 266.93405 262.5384C268.5909 262.5384 269.93405 263.88153 269.93405 265.5384Z" fill-rule="nonzero"/><path fill="#000000" fill-opacity="0.0" clip-path="url(#id_0)" d="M365.52554 258.31393C365.52554 259.9708 364.18237 261.31393 362.52554 261.31393C360.86868 261.31393 359.52554 259.9708 359.52554 258.31393C359.52554 256.65707 360.86868 255.31393 362.52554 255.31393C364.18237 255.31393 365.52554 256.65707 365.52554 258.31393Z" fill-rule="nonzero"/><path fill="#000000" fill-opacity="0.0" clip-path="url(#id_0)" d="M461.11703 271.86142C461.11703 273.51825 459.77386 274.86142 458.11703 274.86142C456.46017 274.86142 455.11703 273.51825 455.11703 271.86142C455.11703 270.20456 456.46017 268.86142 458.11703 268.86142C459.77386 268.86142 461.11703 270.20456 461.11703 271.86142Z" fill-rule="nonzero"/><path fill="#000000" fill-opacity="0.0" clip-path="url(#id_0)" d="M556.7085 259.305C556.7085 260.96185 555.36536 262.305 553.7085 262.305C552.05164 262.305 550.7085 260.96185 550.7085 259.305C550.7085 257.64816 552.05164 256.305 553.7085 256.305C555.36536 256.305 556.7085 257.64816 556.7085 259.305Z" fill-rule="nonzero"/><path fill="#000000" fill-opacity="0.0" clip-path="url(#id_0)" d="M652.3 267.42188C652.3 269.07874 650.95685 270.42188 649.3 270.42188C647.6431 270.42188 646.3 269.07874 646.3 267.42188C646.3 265.765 647.6431 264.42188 649.3 264.42188C650.95685 264.42188 652.3 265.765 652.3 267.42188Z" fill-rule="nonzero"/><path fill="#000000" fill-opacity="0.0" clip-path="url(#id_0)" d="M90.7 166.14194C90.7 167.79878 89.35686 169.14194 87.7 169.14194C86.043144 169.14194 84.7 167.79878 84.7 166.14194C84.7 164.48508 86.043144 163.14194 87.7 163.14194C89.35686 163.14194 90.7 164.48508 90.7 166.14194Z" fill-rule="nonzero"/><path fill="#000000" fill-opacity="0.0" clip-path="url(#id_0)" d="M102.64893 223.46404C102.64893 225.12088 101.30579 226.46404 99.64893 226.46404C97.99208 226.46404 96.64893 225.12088 96.64893 223.46404C96.64893 221.80717 97.99208 220.46404 99.64893 220.46404C101.30579 220.46404 102.64893 221.80717 102.64893 223.46404Z" fill-rule="nonzero"/><path fill="#000000" fill-opacity="0.0" clip-path="url(#id_0)" d="M126.54681 235.53731C126.54681 237.19415 125.20366 238.53731 123.54681 238.53731C121.88995 238.53731 120.54681 237.19415 120.54681 235.53731C120.54681 233.88045 121.88995 232.53731 123.54681 232.53731C125.20366 232.53731 126.54681 233.88045 126.54681 235.53731Z" fill-rule="nonzero"/><path fill="#000000" fill-opacity="0.0" clip-path="url(#id_0)" d="M174.34256 248.82602C174.34256 250.48286 172.9994 251.82602 171.34256 251.82602C169.6857 251.82602 168.34256 250.48286 168.34256 248.82602C168.34256 247.16916 169.6857 245.82602 171.34256 245.82602C172.9994 245.82602 174.34256 247.16916 174.34256 248.82602Z" fill-rule="nonzero"/><path fill="#000000" fill-opacity="0.0" clip-path="url(#id_0)" d="M222.13829 242.76796C222.13829 244.42482 220.79515 245.76796 219.13829 245.76796C217.48145 245.76796 216.13829 244.42482 216.13829 242.76796C216.13829 241.1111 217.48145 239.76796 219.13829 239.76796C220.79515 239.76796 222.13829 241.1111 222.13829 242.76796Z" fill-rule="nonzero"/><path fill="#000000" fill-opacity="0.0" clip-path="url(#id_0)" d="M269.93405 252.83484C269.93405 254.4917 268.5909 255.83484 266.93405 255.83484C265.2772 255.83484 263.93405 254.4917 263.93405 252.83484C263.93405 251.178 265.2772 249.83484 266.93405 249.83484C268.5909 249.83484 269.93405 251.178 269.93405 252.83484Z" fill-rule="nonzero"/><path fill="#000000" fill-opacity="0.0" clip-path="url(#id_0)" d="M365.52554 255.77818C365.52554 257.43503 364.18237 258.77817 362.52554 258.77817C360.86868 258.77817 359.52554 257.43503 359.52554 255.77818C359.52554 254.12132 360.86868 252.77818 362.52554 252.77818C364.18237 252.77818 365.52554 254.12132 365.52554 255.77818Z" fill-rule="nonzero"/><path fill="#000000" fill-opacity="0.0" clip-path="url(#id_0)" d="M461.11703 260.45618C461.11703 262.11304 459.77386 263.45618 458.11703 263.45618C456.46017 263.45618 455.11703 262.11304 455.11703 260.45618C455.11703 258.79932 456.46017 257.45618 458.11703 257.45618C459.77386 257.45618 461.11703 258.79932 461.11703 260.45618Z" fill-rule="nonzero"/><path fill="#000000" fill-opacity="0.0" clip-path="url(#id_0)" d="M556.7085 257.4638C556.7085 259.12064 555.36536 260.4638 553.7085 260.4638C552.05164 260.4638 550.7085 259.12064 550.7085 257.4638C550.7085 255.80695 552.05164 254.46379 553.7085 254.46379C555.36536 254.46379 556.7085 255.80695 556.7085 257.4638Z" fill-rule="nonzero"/><path fill="#000000" fill-opacity="0.0" clip-path="url(#id_0)" d="M652.3 262.2382C652.3 263.89505 650.95685 265.2382 649.3 265.2382C647.6431 265.2382 646.3 263.89505 646.3 262.2382C646.3 260.58133 647.6431 259.2382 649.3 259.2382C650.95685 259.2382 652.3 260.58133 652.3 262.2382Z" fill-rule="nonzero"/><path fill="#424242" d="M338.39062 382.6906L335.64062 382.6906L335.64062 390.3L334.53125 390.3L334.53125 382.6906L331.78125 382.6906L331.78125 381.76874L338.39062 381.76874L338.39062 382.6906ZM340.40625 384.72186Q341.125 383.84686 342.28125 383.84686Q344.29688 383.84686 344.3125 386.1125L344.3125 390.3L343.21875 390.3L343.21875 386.09686Q343.21875 385.425 342.90625 385.09686Q342.60938 384.76874 341.95312 384.76874Q341.42188 384.76874 341.01562 385.05Q340.625 385.33124 340.40625 385.78436L340.40625 390.3L339.32812 390.3L339.32812 381.3L340.40625 381.3L340.40625 384.72186ZM349.39062 384.925Q349.14062 384.89374 348.85938 384.89374Q347.78125 384.89374 347.40625 385.8L347.40625 390.3L346.32812 390.3L346.32812 383.95624L347.375 383.95624L347.39062 384.6906Q347.92188 383.84686 348.90625 383.84686Q349.21875 383.84686 349.39062 383.925L349.39062 384.925ZM352.95312 390.425Q351.65625 390.425 350.84375 389.58124Q350.04688 388.72186 350.04688 387.3L350.04688 387.1125Q350.04688 386.15936 350.40625 385.425Q350.76562 384.675 351.40625 384.26874Q352.0625 383.84686 352.8125 383.84686Q354.04688 383.84686 354.73438 384.65936Q355.42188 385.47186 355.42188 386.9875L355.42188 387.4406L351.125 387.4406Q351.15625 388.3781 351.67188 388.95624Q352.20312 389.53436 353.01562 389.53436Q353.57812 389.53436 353.96875 389.3Q354.375 389.0656 354.6875 388.675L355.34375 389.1906Q354.54688 390.425 352.95312 390.425ZM352.8125 384.7375Q352.15625 384.7375 351.70312 385.22186Q351.26562 385.6906 351.17188 386.55L354.34375 386.55L354.34375 386.47186Q354.29688 385.64374 353.89062 385.1906Q353.5 384.7375 352.8125 384.7375ZM360.23438 390.3Q360.14062 390.1125 360.07812 389.6281Q359.32812 390.425 358.28125 390.425Q357.34375 390.425 356.73438 389.89374Q356.14062 389.3625 356.14062 388.53436Q356.14062 387.55 356.89062 387.0031Q357.64062 386.45624 359.01562 386.45624L360.0625 386.45624L360.0625 385.95624Q360.0625 385.39374 359.71875 385.0656Q359.39062 384.72186 358.71875 384.72186Q358.14062 384.72186 357.75 385.01874Q357.35938 385.3 357.35938 385.72186L356.26562 385.72186Q356.26562 385.2375 356.59375 384.8Q356.9375 384.3625 357.51562 384.1125Q358.09375 383.84686 358.78125 383.84686Q359.89062 383.84686 360.5 384.39374Q361.125 384.9406 361.15625 385.89374L361.15625 388.8156Q361.15625 389.6906 361.375 390.20624L361.375 390.3L360.23438 390.3ZM358.4375 389.47186Q358.95312 389.47186 359.40625 389.20624Q359.85938 388.9406 360.0625 388.51874L360.0625 387.22186L359.21875 387.22186Q357.21875 387.22186 357.21875 388.39374Q357.21875 388.89374 357.5625 389.1906Q357.90625 389.47186 358.4375 389.47186ZM363.0625 387.08124Q363.0625 385.6125 363.75 384.7375Q364.4375 383.84686 365.5625 383.84686Q366.67188 383.84686 367.32812 384.59686L367.32812 381.3L368.40625 381.3L368.40625 390.3L367.40625 390.3L367.35938 389.6125Q366.70312 390.425 365.54688 390.425Q364.45312 390.425 363.75 389.51874Q363.0625 388.6125 363.0625 387.15936L363.0625 387.08124ZM364.14062 387.20624Q364.14062 388.28436 364.57812 388.89374Q365.03125 389.5031 365.8125 389.5031Q366.84375 389.5031 367.32812 388.5656L367.32812 385.65936Q366.84375 384.76874 365.82812 384.76874Q365.03125 384.76874 364.57812 385.3781Q364.14062 385.9875 364.14062 387.20624ZM379.76562 387.59686Q379.60938 388.9406 378.76562 389.6906Q377.92188 390.425 376.53125 390.425Q375.01562 390.425 374.10938 389.34686Q373.20312 388.2531 373.20312 386.425L373.20312 385.6125Q373.20312 384.425 373.625 383.51874Q374.04688 382.6125 374.82812 382.1281Q375.60938 381.64374 376.625 381.64374Q377.98438 381.64374 378.79688 382.40936Q379.625 383.175 379.76562 384.5031L378.64062 384.5031Q378.48438 383.4875 378.0 383.03436Q377.51562 382.58124 376.625 382.58124Q375.54688 382.58124 374.9375 383.3781Q374.32812 384.175 374.32812 385.64374L374.32812 386.47186Q374.32812 387.8625 374.90625 388.6906Q375.48438 389.5031 376.53125 389.5031Q377.46875 389.5031 377.96875 389.08124Q378.46875 388.64374 378.64062 387.59686L379.76562 387.59686ZM381.03125 387.0656Q381.03125 386.14374 381.39062 385.39374Q381.76562 384.64374 382.42188 384.2531Q383.07812 383.84686 383.90625 383.84686Q385.20312 383.84686 386.0 384.7375Q386.8125 385.6281 386.8125 387.1281L386.8125 387.20624Q386.8125 388.1281 386.45312 388.8625Q386.09375 389.59686 385.4375 390.01874Q384.78125 390.425 383.92188 390.425Q382.64062 390.425 381.82812 389.53436Q381.03125 388.6281 381.03125 387.14374L381.03125 387.0656ZM382.125 387.20624Q382.125 388.2531 382.60938 388.89374Q383.10938 389.53436 383.92188 389.53436Q384.75 389.53436 385.23438 388.89374Q385.71875 388.2375 385.71875 387.0656Q385.71875 386.03436 385.21875 385.39374Q384.73438 384.7375 383.90625 384.7375Q383.10938 384.7375 382.60938 385.3781Q382.125 386.0031 382.125 387.20624ZM392.23438 389.675Q391.60938 390.425 390.375 390.425Q389.35938 390.425 388.82812 389.83124Q388.29688 389.2375 388.29688 388.08124L388.29688 383.95624L389.375 383.95624L389.375 388.05Q389.375 389.5031 390.54688 389.5031Q391.79688 389.5031 392.20312 388.5656L392.20312 383.95624L393.29688 383.95624L393.29688 390.3L392.26562 390.3L392.23438 389.675ZM396.34375 383.95624L396.375 384.7531Q397.10938 383.84686 398.28125 383.84686Q400.29688 383.84686 400.3125 386.1125L400.3125 390.3L399.21875 390.3L399.21875 386.09686Q399.21875 385.425 398.90625 385.09686Q398.60938 384.76874 397.95312 384.76874Q397.42188 384.76874 397.01562 385.05Q396.625 385.33124 396.40625 385.78436L396.40625 390.3L395.32812 390.3L395.32812 383.95624L396.34375 383.95624ZM403.79688 382.425L403.79688 383.95624L404.96875 383.95624L404.96875 384.8L403.79688 384.8L403.79688 388.72186Q403.79688 389.1125 403.95312 389.3Q404.10938 389.4875 404.48438 389.4875Q404.67188 389.4875 405.0 389.425L405.0 390.3Q404.57812 390.425 404.17188 390.425Q403.45312 390.425 403.07812 389.9875Q402.70312 389.53436 402.70312 388.72186L402.70312 384.8L401.54688 384.8L401.54688 383.95624L402.70312 383.95624L402.70312 382.425L403.79688 382.425Z" fill-rule="nonzero"/><path fill="#424242" d="M26.356237 265.45624L27.059362 265.425Q26.246862 264.7375 26.246862 263.55Q26.246862 262.22186 27.262487 261.7375Q26.809362 261.425 26.528112 260.925Q26.246862 260.40936 26.246862 259.72186Q26.246862 257.6281 28.449987 257.59686L32.69999 257.59686L32.69999 258.675L28.512487 258.675Q27.840612 258.675 27.512487 258.9875Q27.168737 259.3 27.168737 260.03436Q27.168737 260.64374 27.528112 261.05Q27.887487 261.4406 28.496862 261.5031L32.69999 261.5031L32.69999 262.58124L28.543737 262.58124Q27.168737 262.58124 27.168737 263.9406Q27.168737 265.0031 28.074987 265.39374L32.69999 265.39374L32.69999 266.4875L26.356237 266.4875L26.356237 265.45624ZM32.69999 254.3L32.69999 255.37813L26.356237 255.37813L26.356237 254.3L32.69999 254.3ZM24.684362 255.47188Q24.418737 255.47188 24.231237 255.31563Q24.043737 255.14375 24.043737 254.83125Q24.043737 254.51875 24.231237 254.3625Q24.418737 254.19063 24.684362 254.19063Q24.934362 254.19063 25.121862 254.3625Q25.293737 254.51875 25.293737 254.83125Q25.293737 255.14375 25.121862 255.31563Q24.934362 255.47188 24.684362 255.47188ZM32.69999 251.3L32.69999 252.37813L23.699987 252.37813L23.699987 251.3L32.69999 251.3ZM32.69999 248.3L32.69999 249.37813L23.699987 249.37813L23.699987 248.3L32.69999 248.3ZM32.69999 245.3L32.69999 246.37813L26.356237 246.37813L26.356237 245.3L32.69999 245.3ZM24.684362 246.47188Q24.418737 246.47188 24.231237 246.31563Q24.043737 246.14375 24.043737 245.83125Q24.043737 245.51875 24.231237 245.3625Q24.418737 245.19063 24.684362 245.19063Q24.934362 245.19063 25.121862 245.3625Q25.293737 245.51875 25.293737 245.83125Q25.293737 246.14375 25.121862 246.31563Q24.934362 246.47188 24.684362 246.47188ZM31.012487 239.78438Q30.574987 239.78438 30.340612 240.12813Q30.090612 240.45625 29.918737 241.28438Q29.746862 242.09688 29.496862 242.58125Q29.246862 243.06563 28.918737 243.3Q28.574987 243.51875 28.106237 243.51875Q27.324987 243.51875 26.793737 242.8625Q26.246862 242.20625 26.246862 241.175Q26.246862 240.09688 26.809362 239.44063Q27.356237 238.76875 28.215612 238.76875L28.215612 239.84688Q27.778112 239.84688 27.465612 240.2375Q27.137487 240.6125 27.137487 241.175Q27.137487 241.76875 27.403112 242.1125Q27.653112 242.44063 28.059362 242.44063Q28.449987 242.44063 28.653112 242.12813Q28.856237 241.81563 29.043737 241.00313Q29.215612 240.19063 29.465612 239.69063Q29.715612 239.19063 30.074987 238.95625Q30.434362 238.70625 30.934362 238.70625Q31.793737 238.70625 32.309364 239.39375Q32.82499 240.06563 32.82499 241.14375Q32.82499 241.90938 32.559364 242.50313Q32.278114 243.08125 31.793737 243.40938Q31.309362 243.7375 30.746862 243.7375L30.746862 242.65938Q31.293737 242.62813 31.621862 242.22188Q31.934362 241.81563 31.934362 241.14375Q31.934362 240.53438 31.684362 240.15938Q31.434362 239.78438 31.012487 239.78438ZM32.82499 234.84688Q32.82499 236.14375 31.981237 236.95625Q31.121862 237.75313 29.699987 237.75313L29.512487 237.75313Q28.559362 237.75313 27.824987 237.39375Q27.074987 237.03438 26.668737 236.39375Q26.246862 235.7375 26.246862 234.9875Q26.246862 233.75313 27.059362 233.06563Q27.871862 232.37813 29.387487 232.37813L29.840612 232.37813L29.840612 236.675Q30.778112 236.64375 31.356237 236.12813Q31.934362 235.59688 31.934362 234.78438Q31.934362 234.22188 31.699987 233.83125Q31.465612 233.425 31.074987 233.1125L31.590612 232.45625Q32.82499 233.25313 32.82499 234.84688ZM27.137487 234.9875Q27.137487 235.64375 27.621862 236.09688Q28.090612 236.53438 28.949987 236.62813L28.949987 233.45625L28.871862 233.45625Q28.043737 233.50313 27.590612 233.90938Q27.137487 234.3 27.137487 234.9875ZM31.934362 228.94063Q31.934362 228.3625 31.590612 227.925Q31.231237 227.4875 30.699987 227.44063L30.699987 226.40938Q31.246862 226.44063 31.746862 226.8Q32.23124 227.14375 32.528114 227.72188Q32.82499 228.28438 32.82499 228.94063Q32.82499 230.2375 31.965612 231.00313Q31.090612 231.75313 29.590612 231.75313L29.403112 231.75313Q28.481237 231.75313 27.762487 231.425Q27.043737 231.08125 26.653112 230.45625Q26.246862 229.81563 26.246862 228.94063Q26.246862 227.87813 26.887487 227.175Q27.512487 226.45625 28.543737 226.40938L28.543737 227.44063Q27.918737 227.4875 27.528112 227.90938Q27.137487 228.33125 27.137487 228.94063Q27.137487 229.76875 27.731237 230.22188Q28.324987 230.675 29.449987 230.675L29.653112 230.675Q30.746862 230.675 31.340612 230.22188Q31.934362 229.76875 31.934362 228.94063ZM29.465612 225.76875Q28.543737 225.76875 27.793737 225.40938Q27.043737 225.03438 26.653112 224.37813Q26.246862 223.72188 26.246862 222.89375Q26.246862 221.59688 27.137487 220.8Q28.028112 219.9875 29.528112 219.9875L29.606237 219.9875Q30.528112 219.9875 31.262487 220.34688Q31.996862 220.70625 32.41874 221.3625Q32.82499 222.01875 32.82499 222.87813Q32.82499 224.15938 31.934362 224.97188Q31.028112 225.76875 29.543737 225.76875L29.465612 225.76875ZM29.606237 224.675Q30.653112 224.675 31.293737 224.19063Q31.934362 223.69063 31.934362 222.87813Q31.934362 222.05 31.293737 221.56563Q30.637487 221.08125 29.465612 221.08125Q28.434362 221.08125 27.793737 221.58125Q27.137487 222.06563 27.137487 222.89375Q27.137487 223.69063 27.778112 224.19063Q28.403112 224.675 29.606237 224.675ZM26.356237 217.45625L27.153112 217.425Q26.246862 216.69063 26.246862 215.51875Q26.246862 213.50313 28.512487 213.4875L32.69999 213.4875L32.69999 214.58125L28.496862 214.58125Q27.824987 214.58125 27.496862 214.89375Q27.168737 215.19063 27.168737 215.84688Q27.168737 216.37813 27.449987 216.78438Q27.731237 217.175 28.184362 217.39375L32.69999 217.39375L32.69999 218.47188L26.356237 218.47188L26.356237 217.45625ZM29.481237 211.7375Q28.012487 211.7375 27.137487 211.05Q26.246862 210.3625 26.246862 209.2375Q26.246862 208.12813 26.996862 207.47188L23.699987 207.47188L23.699987 206.39375L32.69999 206.39375L32.69999 207.39375L32.01249 207.44063Q32.82499 208.09688 32.82499 209.25313Q32.82499 210.34688 31.918737 211.05Q31.012487 211.7375 29.559362 211.7375L29.481237 211.7375ZM29.606237 210.65938Q30.684362 210.65938 31.293737 210.22188Q31.903112 209.76875 31.903112 208.9875Q31.903112 207.95625 30.965612 207.47188L28.059362 207.47188Q27.168737 207.95625 27.168737 208.97188Q27.168737 209.76875 27.778112 210.22188Q28.387487 210.65938 29.606237 210.65938ZM31.012487 200.78438Q30.574987 200.78438 30.340612 201.12813Q30.090612 201.45625 29.918737 202.28438Q29.746862 203.09688 29.496862 203.58125Q29.246862 204.06563 28.918737 204.3Q28.574987 204.51875 28.106237 204.51875Q27.324987 204.51875 26.793737 203.8625Q26.246862 203.20625 26.246862 202.175Q26.246862 201.09688 26.809362 200.44063Q27.356237 199.76875 28.215612 199.76875L28.215612 200.84688Q27.778112 200.84688 27.465612 201.2375Q27.137487 201.6125 27.137487 202.175Q27.137487 202.76875 27.403112 203.1125Q27.653112 203.44063 28.059362 203.44063Q28.449987 203.44063 28.653112 203.12813Q28.856237 202.81563 29.043737 202.00313Q29.215612 201.19063 29.465612 200.69063Q29.715612 200.19063 30.074987 199.95625Q30.434362 199.70625 30.934362 199.70625Q31.793737 199.70625 32.309364 200.39375Q32.82499 201.06563 32.82499 202.14375Q32.82499 202.90938 32.559364 203.50313Q32.278114 204.08125 31.793737 204.40938Q31.309362 204.7375 30.746862 204.7375L30.746862 203.65938Q31.293737 203.62813 31.621862 203.22188Q31.934362 202.81563 31.934362 202.14375Q31.934362 201.53438 31.684362 201.15938Q31.434362 200.78438 31.012487 200.78438Z" fill-rule="nonzero"/><path fill="#757575" d="M80.7625 340.15936Q80.7625 342.0656 80.10625 343.0031Q79.46562 343.925 78.075 343.925Q76.71562 343.925 76.05937 343.01874Q75.40312 342.1125 75.37187 340.3L75.37187 338.8625Q75.37187 336.97186 76.0125 336.0656Q76.66875 335.14374 78.05937 335.14374Q79.43437 335.14374 80.09062 336.03436Q80.74687 336.90936 80.7625 338.7531L80.7625 340.15936ZM79.66875 338.675Q79.66875 337.3 79.27812 336.675Q78.90312 336.03436 78.05937 336.03436Q77.23125 336.03436 76.84062 336.675Q76.46562 337.3 76.46562 338.59686L76.46562 340.33124Q76.46562 341.70624 76.85625 342.3781Q77.2625 343.03436 78.075 343.03436Q78.87187 343.03436 79.2625 342.40936Q79.65312 341.78436 79.66875 340.45624L79.66875 338.675Z" fill-rule="nonzero"/><path fill="#757575" d="M57.965626 287.425L56.8875 287.425L56.8875 280.20624L54.7 281.0031L54.7 280.01874L57.809376 278.84686L57.965626 278.84686L57.965626 287.425ZM66.7625 283.78436Q66.7625 285.6906 66.10625 286.6281Q65.46562 287.55 64.075 287.55Q62.715626 287.55 62.059376 286.64374Q61.403126 285.7375 61.371876 283.925L61.371876 282.4875Q61.371876 280.59686 62.0125 279.6906Q62.66875 278.76874 64.05937 278.76874Q65.43437 278.76874 66.09062 279.65936Q66.74687 280.53436 66.7625 282.3781L66.7625 283.78436ZM65.66875 282.3Q65.66875 280.925 65.27812 280.3Q64.90312 279.65936 64.05937 279.65936Q63.23125 279.65936 62.840626 280.3Q62.465626 280.925 62.465626 282.22186L62.465626 283.95624Q62.465626 285.33124 62.85625 286.0031Q63.2625 286.65936 64.075 286.65936Q64.87187 286.65936 65.2625 286.03436Q65.65312 285.40936 65.66875 284.08124L65.66875 282.3ZM73.7625 283.78436Q73.7625 285.6906 73.10625 286.6281Q72.46562 287.55 71.075 287.55Q69.71562 287.55 69.05937 286.64374Q68.40312 285.7375 68.37187 283.925L68.37187 282.4875Q68.37187 280.59686 69.0125 279.6906Q69.66875 278.76874 71.05937 278.76874Q72.43437 278.76874 73.09062 279.65936Q73.74687 280.53436 73.7625 282.3781L73.7625 283.78436ZM72.66875 282.3Q72.66875 280.925 72.27812 280.3Q71.90312 279.65936 71.05937 279.65936Q70.23125 279.65936 69.84062 280.3Q69.46562 280.925 69.46562 282.22186L69.46562 283.95624Q69.46562 285.33124 69.85625 286.0031Q70.2625 286.65936 71.075 286.65936Q71.87187 286.65936 72.2625 286.03436Q72.65312 285.40936 72.66875 284.08124L72.66875 282.3ZM80.7625 283.78436Q80.7625 285.6906 80.10625 286.6281Q79.46562 287.55 78.075 287.55Q76.71562 287.55 76.05937 286.64374Q75.40312 285.7375 75.37187 283.925L75.37187 282.4875Q75.37187 280.59686 76.0125 279.6906Q76.66875 278.76874 78.05937 278.76874Q79.43437 278.76874 80.09062 279.65936Q80.74687 280.53436 80.7625 282.3781L80.7625 283.78436ZM79.66875 282.3Q79.66875 280.925 79.27812 280.3Q78.90312 279.65936 78.05937 279.65936Q77.23125 279.65936 76.84062 280.3Q76.46562 280.925 76.46562 282.22186L76.46562 283.95624Q76.46562 285.33124 76.85625 286.0031Q77.2625 286.65936 78.075 286.65936Q78.87187 286.65936 79.2625 286.03436Q79.65312 285.40936 79.66875 284.08124L79.66875 282.3Z" fill-rule="nonzero"/><path fill="#757575" d="M59.996876 231.05L54.403126 231.05L54.403126 230.26875L57.35625 226.9875Q58.0125 226.2375 58.2625 225.78438Q58.5125 225.31563 58.5125 224.81563Q58.5125 224.14375 58.10625 223.72188Q57.715626 223.28438 57.028126 223.28438Q56.23125 223.28438 55.778126 223.75313Q55.325 224.20625 55.325 225.03438L54.246876 225.03438Q54.246876 223.84688 54.996876 223.12813Q55.7625 222.39375 57.028126 222.39375Q58.23125 222.39375 58.91875 223.01875Q59.60625 223.64375 59.60625 224.69063Q59.60625 225.94063 57.996876 227.69063L55.715626 230.15938L59.996876 230.15938L59.996876 231.05ZM66.7625 227.40938Q66.7625 229.31563 66.10625 230.25313Q65.46562 231.175 64.075 231.175Q62.715626 231.175 62.059376 230.26875Q61.403126 229.3625 61.371876 227.55L61.371876 226.1125Q61.371876 224.22188 62.0125 223.31563Q62.66875 222.39375 64.05937 222.39375Q65.43437 222.39375 66.09062 223.28438Q66.74687 224.15938 66.7625 226.00313L66.7625 227.40938ZM65.66875 225.925Q65.66875 224.55 65.27812 223.925Q64.90312 223.28438 64.05937 223.28438Q63.23125 223.28438 62.840626 223.925Q62.465626 224.55 62.465626 225.84688L62.465626 227.58125Q62.465626 228.95625 62.85625 229.62813Q63.2625 230.28438 64.075 230.28438Q64.87187 230.28438 65.2625 229.65938Q65.65312 229.03438 65.66875 227.70625L65.66875 225.925ZM73.7625 227.40938Q73.7625 229.31563 73.10625 230.25313Q72.46562 231.175 71.075 231.175Q69.71562 231.175 69.05937 230.26875Q68.40312 229.3625 68.37187 227.55L68.37187 226.1125Q68.37187 224.22188 69.0125 223.31563Q69.66875 222.39375 71.05937 222.39375Q72.43437 222.39375 73.09062 223.28438Q73.74687 224.15938 73.7625 226.00313L73.7625 227.40938ZM72.66875 225.925Q72.66875 224.55 72.27812 223.925Q71.90312 223.28438 71.05937 223.28438Q70.23125 223.28438 69.84062 223.925Q69.46562 224.55 69.46562 225.84688L69.46562 227.58125Q69.46562 228.95625 69.85625 229.62813Q70.2625 230.28438 71.075 230.28438Q71.87187 230.28438 72.2625 229.65938Q72.65312 229.03438 72.66875 227.70625L72.66875 225.925ZM80.7625 227.40938Q80.7625 229.31563 80.10625 230.25313Q79.46562 231.175 78.075 231.175Q76.71562 231.175 76.05937 230.26875Q75.40312 229.3625 75.37187 227.55L75.37187 226.1125Q75.37187 224.22188 76.0125 223.31563Q76.66875 222.39375 78.05937 222.39375Q79.43437 222.39375 80.09062 223.28438Q80.74687 224.15938 80.7625 226.00313L80.7625 227.40938ZM79.66875 225.925Q79.66875 224.55 79.27812 223.925Q78.90312 223.28438 78.05937 223.28438Q77.23125 223.28438 76.84062 223.925Q76.46562 224.55 76.46562 225.84688L76.46562 227.58125Q76.46562 228.95625 76.85625 229.62813Q77.2625 230.28438 78.075 230.28438Q78.87187 230.28438 79.2625 229.65938Q79.65312 229.03438 79.66875 227.70625L79.66875 225.925Z" fill-rule="nonzero"/><path fill="#757575" d="M55.98125 169.87813L56.79375 169.87813Q57.575 169.8625 58.0125 169.47188Q58.45 169.08125 58.45 168.40938Q58.45 166.90938 56.95 166.90938Q56.246876 166.90938 55.825 167.31563Q55.41875 167.72188 55.41875 168.37813L54.325 168.37813Q54.325 167.3625 55.059376 166.69063Q55.809376 166.01875 56.95 166.01875Q58.153126 166.01875 58.840626 166.65938Q59.528126 167.3 59.528126 168.44063Q59.528126 169.00313 59.16875 169.51875Q58.809376 170.03438 58.184376 170.3Q58.8875 170.51875 59.2625 171.03438Q59.653126 171.55 59.653126 172.3Q59.653126 173.44063 58.903126 174.12813Q58.153126 174.8 56.95 174.8Q55.7625 174.8 54.996876 174.14375Q54.246876 173.4875 54.246876 172.425L55.340626 172.425Q55.340626 173.09688 55.778126 173.50313Q56.215626 173.90938 56.965626 173.90938Q57.746876 173.90938 58.153126 173.50313Q58.575 173.08125 58.575 172.31563Q58.575 171.58125 58.121876 171.19063Q57.66875 170.78438 56.79375 170.76875L55.98125 170.76875L55.98125 169.87813ZM66.7625 171.03438Q66.7625 172.94063 66.10625 173.87813Q65.46562 174.8 64.075 174.8Q62.715626 174.8 62.059376 173.89375Q61.403126 172.9875 61.371876 171.175L61.371876 169.7375Q61.371876 167.84688 62.0125 166.94063Q62.66875 166.01875 64.05937 166.01875Q65.43437 166.01875 66.09062 166.90938Q66.74687 167.78438 66.7625 169.62813L66.7625 171.03438ZM65.66875 169.55Q65.66875 168.175 65.27812 167.55Q64.90312 166.90938 64.05937 166.90938Q63.23125 166.90938 62.840626 167.55Q62.465626 168.175 62.465626 169.47188L62.465626 171.20625Q62.465626 172.58125 62.85625 173.25313Q63.2625 173.90938 64.075 173.90938Q64.87187 173.90938 65.2625 173.28438Q65.65312 172.65938 65.66875 171.33125L65.66875 169.55ZM73.7625 171.03438Q73.7625 172.94063 73.10625 173.87813Q72.46562 174.8 71.075 174.8Q69.71562 174.8 69.05937 173.89375Q68.40312 172.9875 68.37187 171.175L68.37187 169.7375Q68.37187 167.84688 69.0125 166.94063Q69.66875 166.01875 71.05937 166.01875Q72.43437 166.01875 73.09062 166.90938Q73.74687 167.78438 73.7625 169.62813L73.7625 171.03438ZM72.66875 169.55Q72.66875 168.175 72.27812 167.55Q71.90312 166.90938 71.05937 166.90938Q70.23125 166.90938 69.84062 167.55Q69.46562 168.175 69.46562 169.47188L69.46562 171.20625Q69.46562 172.58125 69.85625 173.25313Q70.2625 173.90938 71.075 173.90938Q71.87187 173.90938 72.2625 173.28438Q72.65312 172.65938 72.66875 171.33125L72.66875 169.55ZM80.7625 171.03438Q80.7625 172.94063 80.10625 173.87813Q79.46562 174.8 78.075 174.8Q76.71562 174.8 76.05937 173.89375Q75.40312 172.9875 75.37187 171.175L75.37187 169.7375Q75.37187 167.84688 76.0125 166.94063Q76.66875 166.01875 78.05937 166.01875Q79.43437 166.01875 80.09062 166.90938Q80.74687 167.78438 80.7625 169.62813L80.7625 171.03438ZM79.66875 169.55Q79.66875 168.175 79.27812 167.55Q78.90312 166.90938 78.05937 166.90938Q77.23125 166.90938 76.84062 167.55Q76.46562 168.175 76.46562 169.47188L76.46562 171.20625Q76.46562 172.58125 76.85625 173.25313Q77.2625 173.90938 78.075 173.90938Q78.87187 173.90938 79.2625 173.28438Q79.65312 172.65938 79.66875 171.33125L79.66875 169.55Z" fill-rule="nonzero"/><path fill="#757575" d="M58.98125 115.44063L60.16875 115.44063L60.16875 116.31563L58.98125 116.31563L58.98125 118.3L57.903126 118.3L57.903126 116.31563L54.0125 116.31563L54.0125 115.675L57.825 109.76875L58.98125 109.76875L58.98125 115.44063ZM55.246876 115.44063L57.903126 115.44063L57.903126 111.25313L57.7625 111.4875L55.246876 115.44063ZM66.7625 114.65938Q66.7625 116.56563 66.10625 117.50313Q65.46562 118.425 64.075 118.425Q62.715626 118.425 62.059376 117.51875Q61.403126 116.6125 61.371876 114.8L61.371876 113.3625Q61.371876 111.47188 62.0125 110.56563Q62.66875 109.64375 64.05937 109.64375Q65.43437 109.64375 66.09062 110.53438Q66.74687 111.40938 66.7625 113.25313L66.7625 114.65938ZM65.66875 113.175Q65.66875 111.8 65.27812 111.175Q64.90312 110.53438 64.05937 110.53438Q63.23125 110.53438 62.840626 111.175Q62.465626 111.8 62.465626 113.09688L62.465626 114.83125Q62.465626 116.20625 62.85625 116.87813Q63.2625 117.53438 64.075 117.53438Q64.87187 117.53438 65.2625 116.90938Q65.65312 116.28438 65.66875 114.95625L65.66875 113.175ZM73.7625 114.65938Q73.7625 116.56563 73.10625 117.50313Q72.46562 118.425 71.075 118.425Q69.71562 118.425 69.05937 117.51875Q68.40312 116.6125 68.37187 114.8L68.37187 113.3625Q68.37187 111.47188 69.0125 110.56563Q69.66875 109.64375 71.05937 109.64375Q72.43437 109.64375 73.09062 110.53438Q73.74687 111.40938 73.7625 113.25313L73.7625 114.65938ZM72.66875 113.175Q72.66875 111.8 72.27812 111.175Q71.90312 110.53438 71.05937 110.53438Q70.23125 110.53438 69.84062 111.175Q69.46562 111.8 69.46562 113.09688L69.46562 114.83125Q69.46562 116.20625 69.85625 116.87813Q70.2625 117.53438 71.075 117.53438Q71.87187 117.53438 72.2625 116.90938Q72.65312 116.28438 72.66875 114.95625L72.66875 113.175ZM80.7625 114.65938Q80.7625 116.56563 80.10625 117.50313Q79.46562 118.425 78.075 118.425Q76.71562 118.425 76.05937 117.51875Q75.40312 116.6125 75.37187 114.8L75.37187 113.3625Q75.37187 111.47188 76.0125 110.56563Q76.66875 109.64375 78.05937 109.64375Q79.43437 109.64375 80.09062 110.53438Q80.74687 111.40938 80.7625 113.25313L80.7625 114.65938ZM79.66875 113.175Q79.66875 111.8 79.27812 111.175Q78.90312 110.53438 78.05937 110.53438Q77.23125 110.53438 76.84062 111.175Q76.46562 111.8 76.46562 113.09688L76.46562 114.83125Q76.46562 116.20625 76.85625 116.87813Q77.2625 117.53438 78.075 117.53438Q78.87187 117.53438 79.2625 116.90938Q79.65312 116.28438 79.66875 114.95625L79.66875 113.175Z" fill-rule="nonzero"/><path fill="#757575" d="M192.50606 357.3L191.42793 357.3L191.42793 350.08124L189.24043 350.8781L189.24043 349.89374L192.34981 348.72186L192.50606 348.72186L192.50606 357.3ZM201.30293 353.65936Q201.30293 355.5656 200.64668 356.5031Q200.00606 357.425 198.61543 357.425Q197.25606 357.425 196.59981 356.51874Q195.94356 355.6125 195.91231 353.8L195.91231 352.3625Q195.91231 350.47186 196.55293 349.5656Q197.20918 348.64374 198.59981 348.64374Q199.97481 348.64374 200.63106 349.53436Q201.28731 350.40936 201.30293 352.2531L201.30293 353.65936ZM200.20918 352.175Q200.20918 350.8 199.81856 350.175Q199.44356 349.53436 198.59981 349.53436Q197.77168 349.53436 197.38106 350.175Q197.00606 350.8 197.00606 352.09686L197.00606 353.83124Q197.00606 355.20624 197.39668 355.8781Q197.80293 356.53436 198.61543 356.53436Q199.41231 356.53436 199.80293 355.90936Q200.19356 355.28436 200.20918 353.95624L200.20918 352.175Z" fill-rule="nonzero"/><path fill="#757575" d="M314.02667 357.3L308.43292 357.3L308.43292 356.51874L311.38605 353.2375Q312.0423 352.4875 312.2923 352.03436Q312.5423 351.5656 312.5423 351.0656Q312.5423 350.39374 312.13605 349.97186Q311.74542 349.53436 311.05792 349.53436Q310.26105 349.53436 309.80792 350.0031Q309.3548 350.45624 309.3548 351.28436L308.27667 351.28436Q308.27667 350.09686 309.02667 349.3781Q309.7923 348.64374 311.05792 348.64374Q312.26105 348.64374 312.94855 349.26874Q313.63605 349.89374 313.63605 350.9406Q313.63605 352.1906 312.02667 353.9406L309.74542 356.40936L314.02667 356.40936L314.02667 357.3ZM320.7923 353.65936Q320.7923 355.5656 320.13605 356.5031Q319.49542 357.425 318.1048 357.425Q316.74542 357.425 316.08917 356.51874Q315.43292 355.6125 315.40167 353.8L315.40167 352.3625Q315.40167 350.47186 316.0423 349.5656Q316.69855 348.64374 318.08917 348.64374Q319.46417 348.64374 320.12042 349.53436Q320.77667 350.40936 320.7923 352.2531L320.7923 353.65936ZM319.69855 352.175Q319.69855 350.8 319.30792 350.175Q318.93292 349.53436 318.08917 349.53436Q317.26105 349.53436 316.87042 350.175Q316.49542 350.8 316.49542 352.09686L316.49542 353.83124Q316.49542 355.20624 316.88605 355.8781Q317.2923 356.53436 318.1048 356.53436Q318.90167 356.53436 319.2923 355.90936Q319.68292 355.28436 319.69855 353.95624L319.69855 352.175Z" fill-rule="nonzero"/><path fill="#757575" d="M429.5004 352.5031L430.3129 352.5031Q431.09415 352.4875 431.53165 352.09686Q431.96915 351.70624 431.96915 351.03436Q431.96915 349.53436 430.46915 349.53436Q429.76602 349.53436 429.34415 349.9406Q428.9379 350.34686 428.9379 351.0031L427.84415 351.0031Q427.84415 349.9875 428.57852 349.3156Q429.32852 348.64374 430.46915 348.64374Q431.67227 348.64374 432.35977 349.28436Q433.04727 349.925 433.04727 351.0656Q433.04727 351.6281 432.6879 352.14374Q432.32852 352.65936 431.70352 352.925Q432.40665 353.14374 432.78165 353.65936Q433.17227 354.175 433.17227 354.925Q433.17227 356.0656 432.42227 356.7531Q431.67227 357.425 430.46915 357.425Q429.28165 357.425 428.51602 356.76874Q427.76602 356.1125 427.76602 355.05L428.85977 355.05Q428.85977 355.72186 429.29727 356.1281Q429.73477 356.53436 430.48477 356.53436Q431.26602 356.53436 431.67227 356.1281Q432.09415 355.70624 432.09415 354.9406Q432.09415 354.20624 431.64102 353.8156Q431.1879 353.40936 430.3129 353.39374L429.5004 353.39374L429.5004 352.5031ZM440.28165 353.65936Q440.28165 355.5656 439.6254 356.5031Q438.98477 357.425 437.59415 357.425Q436.23477 357.425 435.57852 356.51874Q434.92227 355.6125 434.89102 353.8L434.89102 352.3625Q434.89102 350.47186 435.53165 349.5656Q436.1879 348.64374 437.57852 348.64374Q438.95352 348.64374 439.60977 349.53436Q440.26602 350.40936 440.28165 352.2531L440.28165 353.65936ZM439.1879 352.175Q439.1879 350.8 438.79727 350.175Q438.42227 349.53436 437.57852 349.53436Q436.7504 349.53436 436.35977 350.175Q435.98477 350.8 435.98477 352.09686L435.98477 353.83124Q435.98477 355.20624 436.3754 355.8781Q436.78165 356.53436 437.59415 356.53436Q438.39102 356.53436 438.78165 355.90936Q439.17227 355.28436 439.1879 353.95624L439.1879 352.175Z" fill-rule="nonzero"/><path fill="#757575" d="M551.98975 354.4406L553.17725 354.4406L553.17725 355.3156L551.98975 355.3156L551.98975 357.3L550.9116 357.3L550.9116 355.3156L547.021 355.3156L547.021 354.675L550.8335 348.76874L551.98975 348.76874L551.98975 354.4406ZM548.2554 354.4406L550.9116 354.4406L550.9116 350.2531L550.771 350.4875L548.2554 354.4406ZM559.771 353.65936Q559.771 355.5656 559.11475 356.5031Q558.4741 357.425 557.0835 357.425Q555.7241 357.425 555.0679 356.51874Q554.4116 355.6125 554.3804 353.8L554.3804 352.3625Q554.3804 350.47186 555.021 349.5656Q555.67725 348.64374 557.0679 348.64374Q558.4429 348.64374 559.0991 349.53436Q559.7554 350.40936 559.771 352.2531L559.771 353.65936ZM558.67725 352.175Q558.67725 350.8 558.2866 350.175Q557.9116 349.53436 557.0679 349.53436Q556.23975 349.53436 555.8491 350.175Q555.4741 350.8 555.4741 352.09686L555.4741 353.83124Q555.4741 355.20624 555.86475 355.8781Q556.271 356.53436 557.0835 356.53436Q557.8804 356.53436 558.271 355.90936Q558.6616 355.28436 558.67725 353.95624L558.67725 352.175Z" fill-rule="nonzero"/><path stroke="#4285f4" stroke-width="4.0" stroke-linecap="butt" d="M120.5 66.0L132.5 66.0" fill-rule="nonzero"/><path fill="#757575" d="M148.04688 70.5L146.92188 70.5L142.625 63.921875L142.625 70.5L141.48438 70.5L141.48438 61.96875L142.625 61.96875L146.92188 68.578125L146.92188 61.96875L148.04688 61.96875L148.04688 70.5ZM150.03125 67.265625Q150.03125 66.34375 150.39062 65.59375Q150.76562 64.84375 151.42188 64.453125Q152.07812 64.046875 152.90625 64.046875Q154.20312 64.046875 155.0 64.9375Q155.8125 65.828125 155.8125 67.328125L155.8125 67.40625Q155.8125 68.328125 155.45312 69.0625Q155.09375 69.796875 154.4375 70.21875Q153.78125 70.625 152.92188 70.625Q151.64062 70.625 150.82812 69.734375Q150.03125 68.828125 150.03125 67.34375L150.03125 67.265625ZM151.125 67.40625Q151.125 68.453125 151.60938 69.09375Q152.10938 69.734375 152.92188 69.734375Q153.75 69.734375 154.23438 69.09375Q154.71875 68.4375 154.71875 67.265625Q154.71875 66.234375 154.21875 65.59375Q153.73438 64.9375 152.90625 64.9375Q152.10938 64.9375 151.60938 65.578125Q151.125 66.203125 151.125 67.40625ZM167.04688 70.5L165.92188 70.5L161.625 63.921875L161.625 70.5L160.48438 70.5L160.48438 61.96875L161.625 61.96875L165.92188 68.578125L165.92188 61.96875L167.04688 61.96875L167.04688 70.5ZM175.5 61.96875L175.5 67.765625Q175.48438 68.96875 174.73438 69.75Q173.98438 70.515625 172.70312 70.609375L172.39062 70.625Q171.0 70.625 170.15625 69.875Q169.32812 69.109375 169.32812 67.78125L169.32812 61.96875L170.4375 61.96875L170.4375 67.75Q170.4375 68.671875 170.9375 69.1875Q171.45312 69.703125 172.39062 69.703125Q173.35938 69.703125 173.85938 69.1875Q174.35938 68.671875 174.35938 67.75L174.35938 61.96875L175.5 61.96875ZM178.9375 61.96875L181.73438 68.921875L184.51562 61.96875L185.98438 61.96875L185.98438 70.5L184.85938 70.5L184.85938 67.171875L184.96875 63.59375L182.15625 70.5L181.29688 70.5L178.5 63.609375L178.60938 67.171875L178.60938 70.5L177.48438 70.5L177.48438 61.96875L178.9375 61.96875ZM192.20312 68.265625L188.625 68.265625L187.82812 70.5L186.67188 70.5L189.92188 61.96875L190.90625 61.96875L194.17188 70.5L193.01562 70.5L192.20312 68.265625ZM188.96875 67.34375L191.875 67.34375L190.42188 63.359375L188.96875 67.34375ZM198.03125 67.265625Q198.03125 66.34375 198.39062 65.59375Q198.76562 64.84375 199.42188 64.453125Q200.07812 64.046875 200.90625 64.046875Q202.20312 64.046875 203.0 64.9375Q203.8125 65.828125 203.8125 67.328125L203.8125 67.40625Q203.8125 68.328125 203.45312 69.0625Q203.09375 69.796875 202.4375 70.21875Q201.78125 70.625 200.92188 70.625Q199.64062 70.625 198.82812 69.734375Q198.03125 68.828125 198.03125 67.34375L198.03125 67.265625ZM199.125 67.40625Q199.125 68.453125 199.60938 69.09375Q200.10938 69.734375 200.92188 69.734375Q201.75 69.734375 202.23438 69.09375Q202.71875 68.4375 202.71875 67.265625Q202.71875 66.234375 202.21875 65.59375Q201.73438 64.9375 200.90625 64.9375Q200.10938 64.9375 199.60938 65.578125Q199.125 66.203125 199.125 67.40625ZM210.67188 67.40625Q210.67188 68.84375 210.01562 69.734375Q209.35938 70.625 208.21875 70.625Q207.0625 70.625 206.40625 69.890625L206.40625 72.9375L205.32812 72.9375L205.32812 64.15625L206.3125 64.15625L206.35938 64.859375Q207.03125 64.046875 208.20312 64.046875Q209.34375 64.046875 210.0 64.90625Q210.67188 65.765625 210.67188 67.296875L210.67188 67.40625ZM209.59375 67.28125Q209.59375 66.203125 209.125 65.59375Q208.67188 64.96875 207.875 64.96875Q206.89062 64.96875 206.40625 65.828125L206.40625 68.859375Q206.89062 69.734375 207.89062 69.734375Q208.67188 69.734375 209.125 69.125Q209.59375 68.5 209.59375 67.28125ZM213.79688 62.625L213.79688 64.15625L214.96875 64.15625L214.96875 65.0L213.79688 65.0L213.79688 68.921875Q213.79688 69.3125 213.95312 69.5Q214.10938 69.6875 214.48438 69.6875Q214.67188 69.6875 215.0 69.625L215.0 70.5Q214.57812 70.625 214.17188 70.625Q213.45312 70.625 213.07812 70.1875Q212.70312 69.734375 212.70312 68.921875L212.70312 65.0L211.54688 65.0L211.54688 64.15625L212.70312 64.15625L212.70312 62.625L213.79688 62.625ZM217.5 70.5L216.42188 70.5L216.42188 64.15625L217.5 64.15625L217.5 70.5ZM216.32812 62.484375Q216.32812 62.21875 216.48438 62.03125Q216.65625 61.84375 216.96875 61.84375Q217.28125 61.84375 217.4375 62.03125Q217.60938 62.21875 217.60938 62.484375Q217.60938 62.734375 217.4375 62.921875Q217.28125 63.09375 216.96875 63.09375Q216.65625 63.09375 216.48438 62.921875Q216.32812 62.734375 216.32812 62.484375ZM220.34375 64.15625L220.375 64.859375Q221.0625 64.046875 222.25 64.046875Q223.57812 64.046875 224.0625 65.0625Q224.375 64.609375 224.875 64.328125Q225.39062 64.046875 226.07812 64.046875Q228.17188 64.046875 228.20312 66.25L228.20312 70.5L227.125 70.5L227.125 66.3125Q227.125 65.640625 226.8125 65.3125Q226.5 64.96875 225.76562 64.96875Q225.15625 64.96875 224.75 65.328125Q224.35938 65.6875 224.29688 66.296875L224.29688 70.5L223.21875 70.5L223.21875 66.34375Q223.21875 64.96875 221.85938 64.96875Q220.79688 64.96875 220.40625 65.875L220.40625 70.5L219.3125 70.5L219.3125 64.15625L220.34375 64.15625ZM231.5 70.5L230.42188 70.5L230.42188 64.15625L231.5 64.15625L231.5 70.5ZM230.32812 62.484375Q230.32812 62.21875 230.48438 62.03125Q230.65625 61.84375 230.96875 61.84375Q231.28125 61.84375 231.4375 62.03125Q231.60938 62.21875 231.60938 62.484375Q231.60938 62.734375 231.4375 62.921875Q231.28125 63.09375 230.96875 63.09375Q230.65625 63.09375 230.48438 62.921875Q230.32812 62.734375 230.32812 62.484375ZM234.34375 69.609375L238.04688 69.609375L238.04688 70.5L233.01562 70.5L233.01562 69.703125L236.51562 65.0625L233.0625 65.0625L233.0625 64.15625L237.875 64.15625L237.875 64.921875L234.34375 69.609375ZM243.23438 70.5Q243.14062 70.3125 243.07812 69.828125Q242.32812 70.625 241.28125 70.625Q240.34375 70.625 239.73438 70.09375Q239.14062 69.5625 239.14062 68.734375Q239.14062 67.75 239.89062 67.203125Q240.64062 66.65625 242.01562 66.65625L243.0625 66.65625L243.0625 66.15625Q243.0625 65.59375 242.71875 65.265625Q242.39062 64.921875 241.71875 64.921875Q241.14062 64.921875 240.75 65.21875Q240.35938 65.5 240.35938 65.921875L239.26562 65.921875Q239.26562 65.4375 239.59375 65.0Q239.9375 64.5625 240.51562 64.3125Q241.09375 64.046875 241.78125 64.046875Q242.89062 64.046875 243.5 64.59375Q244.125 65.140625 244.15625 66.09375L244.15625 69.015625Q244.15625 69.890625 244.375 70.40625L244.375 70.5L243.23438 70.5ZM241.4375 69.671875Q241.95312 69.671875 242.40625 69.40625Q242.85938 69.140625 243.0625 68.71875L243.0625 67.421875L242.21875 67.421875Q240.21875 67.421875 240.21875 68.59375Q240.21875 69.09375 240.5625 69.390625Q240.90625 69.671875 241.4375 69.671875ZM247.79688 62.625L247.79688 64.15625L248.96875 64.15625L248.96875 65.0L247.79688 65.0L247.79688 68.921875Q247.79688 69.3125 247.95312 69.5Q248.10938 69.6875 248.48438 69.6875Q248.67188 69.6875 249.0 69.625L249.0 70.5Q248.57812 70.625 248.17188 70.625Q247.45312 70.625 247.07812 70.1875Q246.70312 69.734375 246.70312 68.921875L246.70312 65.0L245.54688 65.0L245.54688 64.15625L246.70312 64.15625L246.70312 62.625L247.79688 62.625ZM251.5 70.5L250.42188 70.5L250.42188 64.15625L251.5 64.15625L251.5 70.5ZM250.32812 62.484375Q250.32812 62.21875 250.48438 62.03125Q250.65625 61.84375 250.96875 61.84375Q251.28125 61.84375 251.4375 62.03125Q251.60938 62.21875 251.60938 62.484375Q251.60938 62.734375 251.4375 62.921875Q251.28125 63.09375 250.96875 63.09375Q250.65625 63.09375 250.48438 62.921875Q250.32812 62.734375 250.32812 62.484375ZM253.03125 67.265625Q253.03125 66.34375 253.39062 65.59375Q253.76562 64.84375 254.42188 64.453125Q255.07812 64.046875 255.90625 64.046875Q257.20312 64.046875 258.0 64.9375Q258.8125 65.828125 258.8125 67.328125L258.8125 67.40625Q258.8125 68.328125 258.45312 69.0625Q258.09375 69.796875 257.4375 70.21875Q256.78125 70.625 255.92188 70.625Q254.64062 70.625 253.82812 69.734375Q253.03125 68.828125 253.03125 67.34375L253.03125 67.265625ZM254.125 67.40625Q254.125 68.453125 254.60938 69.09375Q255.10938 69.734375 255.92188 69.734375Q256.75 69.734375 257.23438 69.09375Q257.71875 68.4375 257.71875 67.265625Q257.71875 66.234375 257.21875 65.59375Q256.73438 64.9375 255.90625 64.9375Q255.10938 64.9375 254.60938 65.578125Q254.125 66.203125 254.125 67.40625ZM261.34375 64.15625L261.375 64.953125Q262.10938 64.046875 263.28125 64.046875Q265.29688 64.046875 265.3125 66.3125L265.3125 70.5L264.21875 70.5L264.21875 66.296875Q264.21875 65.625 263.90625 65.296875Q263.60938 64.96875 262.95312 64.96875Q262.42188 64.96875 262.01562 65.25Q261.625 65.53125 261.40625 65.984375L261.40625 70.5L260.32812 70.5L260.32812 64.15625L261.34375 64.15625ZM271.01562 68.8125Q271.01562 68.375 270.67188 68.140625Q270.34375 67.890625 269.51562 67.71875Q268.70312 67.546875 268.21875 67.296875Q267.73438 67.046875 267.5 66.71875Q267.28125 66.375 267.28125 65.90625Q267.28125 65.125 267.9375 64.59375Q268.59375 64.046875 269.625 64.046875Q270.70312 64.046875 271.35938 64.609375Q272.03125 65.15625 272.03125 66.015625L270.95312 66.015625Q270.95312 65.578125 270.5625 65.265625Q270.1875 64.9375 269.625 64.9375Q269.03125 64.9375 268.6875 65.203125Q268.35938 65.453125 268.35938 65.859375Q268.35938 66.25 268.67188 66.453125Q268.98438 66.65625 269.79688 66.84375Q270.60938 67.015625 271.10938 67.265625Q271.60938 67.515625 271.84375 67.875Q272.09375 68.234375 272.09375 68.734375Q272.09375 69.59375 271.40625 70.109375Q270.73438 70.625 269.65625 70.625Q268.89062 70.625 268.29688 70.359375Q267.71875 70.078125 267.39062 69.59375Q267.0625 69.109375 267.0625 68.546875L268.14062 68.546875Q268.17188 69.09375 268.57812 69.421875Q268.98438 69.734375 269.65625 69.734375Q270.26562 69.734375 270.64062 69.484375Q271.01562 69.234375 271.01562 68.8125Z" fill-rule="nonzero"/><path stroke="#db4437" stroke-width="4.0" stroke-linecap="butt" d="M334.5 66.0L346.5 66.0" fill-rule="nonzero"/><path fill="#757575" d="M358.0 66.703125Q356.5625 66.28125 355.89062 65.671875Q355.23438 65.0625 355.23438 64.171875Q355.23438 63.171875 356.03125 62.515625Q356.84375 61.84375 358.14062 61.84375Q359.01562 61.84375 359.70312 62.1875Q360.39062 62.53125 360.76562 63.125Q361.15625 63.71875 361.15625 64.4375L360.01562 64.4375Q360.01562 63.65625 359.51562 63.21875Q359.03125 62.78125 358.14062 62.78125Q357.3125 62.78125 356.84375 63.15625Q356.375 63.515625 356.375 64.15625Q356.375 64.6875 356.8125 65.046875Q357.26562 65.40625 358.32812 65.703125Q359.39062 66.0 359.98438 66.359375Q360.59375 66.71875 360.875 67.203125Q361.17188 67.6875 361.17188 68.328125Q361.17188 69.375 360.35938 70.0Q359.54688 70.625 358.20312 70.625Q357.3125 70.625 356.54688 70.28125Q355.79688 69.9375 355.375 69.359375Q354.96875 68.765625 354.96875 68.03125L356.09375 68.03125Q356.09375 68.796875 356.67188 69.25Q357.25 69.703125 358.20312 69.703125Q359.09375 69.703125 359.5625 69.34375Q360.03125 68.96875 360.03125 68.34375Q360.03125 67.71875 359.59375 67.375Q359.15625 67.03125 358.0 66.703125ZM363.5 70.5L362.42188 70.5L362.42188 64.15625L363.5 64.15625L363.5 70.5ZM362.32812 62.484375Q362.32812 62.21875 362.48438 62.03125Q362.65625 61.84375 362.96875 61.84375Q363.28125 61.84375 363.4375 62.03125Q363.60938 62.21875 363.60938 62.484375Q363.60938 62.734375 363.4375 62.921875Q363.28125 63.09375 362.96875 63.09375Q362.65625 63.09375 362.48438 62.921875Q362.32812 62.734375 362.32812 62.484375ZM366.34375 64.15625L366.375 64.953125Q367.10938 64.046875 368.28125 64.046875Q370.29688 64.046875 370.3125 66.3125L370.3125 70.5L369.21875 70.5L369.21875 66.296875Q369.21875 65.625 368.90625 65.296875Q368.60938 64.96875 367.95312 64.96875Q367.42188 64.96875 367.01562 65.25Q366.625 65.53125 366.40625 65.984375L366.40625 70.5L365.32812 70.5L365.32812 64.15625L366.34375 64.15625ZM372.0625 67.28125Q372.0625 65.796875 372.75 64.921875Q373.4375 64.046875 374.5625 64.046875Q375.71875 64.046875 376.375 64.859375L376.42188 64.15625L377.42188 64.15625L377.42188 70.34375Q377.42188 71.578125 376.6875 72.28125Q375.95312 73.0 374.73438 73.0Q374.04688 73.0 373.39062 72.703125Q372.73438 72.40625 372.39062 71.90625L372.95312 71.25Q373.64062 72.109375 374.65625 72.109375Q375.4375 72.109375 375.875 71.65625Q376.32812 71.21875 376.32812 70.40625L376.32812 69.859375Q375.67188 70.625 374.54688 70.625Q373.4375 70.625 372.75 69.734375Q372.0625 68.828125 372.0625 67.28125ZM373.15625 67.40625Q373.15625 68.46875 373.59375 69.09375Q374.03125 69.703125 374.82812 69.703125Q375.84375 69.703125 376.32812 68.765625L376.32812 65.875Q375.82812 64.96875 374.82812 64.96875Q374.04688 64.96875 373.59375 65.578125Q373.15625 66.1875 373.15625 67.40625ZM380.5 70.5L379.42188 70.5L379.42188 61.5L380.5 61.5L380.5 70.5ZM384.95312 70.625Q383.65625 70.625 382.84375 69.78125Q382.04688 68.921875 382.04688 67.5L382.04688 67.3125Q382.04688 66.359375 382.40625 65.625Q382.76562 64.875 383.40625 64.46875Q384.0625 64.046875 384.8125 64.046875Q386.04688 64.046875 386.73438 64.859375Q387.42188 65.671875 387.42188 67.1875L387.42188 67.640625L383.125 67.640625Q383.15625 68.578125 383.67188 69.15625Q384.20312 69.734375 385.01562 69.734375Q385.57812 69.734375 385.96875 69.5Q386.375 69.265625 386.6875 68.875L387.34375 69.390625Q386.54688 70.625 384.95312 70.625ZM384.8125 64.9375Q384.15625 64.9375 383.70312 65.421875Q383.26562 65.890625 383.17188 66.75L386.34375 66.75L386.34375 66.671875Q386.29688 65.84375 385.89062 65.390625Q385.5 64.9375 384.8125 64.9375ZM398.04688 70.5L396.92188 70.5L392.625 63.921875L392.625 70.5L391.48438 70.5L391.48438 61.96875L392.625 61.96875L396.92188 68.578125L396.92188 61.96875L398.04688 61.96875L398.04688 70.5ZM406.5 61.96875L406.5 67.765625Q406.48438 68.96875 405.73438 69.75Q404.98438 70.515625 403.70312 70.609375L403.39062 70.625Q402.0 70.625 401.15625 69.875Q400.32812 69.109375 400.32812 67.78125L400.32812 61.96875L401.4375 61.96875L401.4375 67.75Q401.4375 68.671875 401.9375 69.1875Q402.45312 69.703125 403.39062 69.703125Q404.35938 69.703125 404.85938 69.1875Q405.35938 68.671875 405.35938 67.75L405.35938 61.96875L406.5 61.96875ZM409.9375 61.96875L412.73438 68.921875L415.51562 61.96875L416.98438 61.96875L416.98438 70.5L415.85938 70.5L415.85938 67.171875L415.96875 63.59375L413.15625 70.5L412.29688 70.5L409.5 63.609375L409.60938 67.171875L409.60938 70.5L408.48438 70.5L408.48438 61.96875L409.9375 61.96875ZM423.20312 68.265625L419.625 68.265625L418.82812 70.5L417.67188 70.5L420.92188 61.96875L421.90625 61.96875L425.17188 70.5L424.01562 70.5L423.20312 68.265625ZM419.96875 67.34375L422.875 67.34375L421.42188 63.359375L419.96875 67.34375ZM430.34375 64.15625L430.375 64.859375Q431.0625 64.046875 432.25 64.046875Q433.57812 64.046875 434.0625 65.0625Q434.375 64.609375 434.875 64.328125Q435.39062 64.046875 436.07812 64.046875Q438.17188 64.046875 438.20312 66.25L438.20312 70.5L437.125 70.5L437.125 66.3125Q437.125 65.640625 436.8125 65.3125Q436.5 64.96875 435.76562 64.96875Q435.15625 64.96875 434.75 65.328125Q434.35938 65.6875 434.29688 66.296875L434.29688 70.5L433.21875 70.5L433.21875 66.34375Q433.21875 64.96875 431.85938 64.96875Q430.79688 64.96875 430.40625 65.875L430.40625 70.5L429.3125 70.5L429.3125 64.15625L430.34375 64.15625ZM442.95312 70.625Q441.65625 70.625 440.84375 69.78125Q440.04688 68.921875 440.04688 67.5L440.04688 67.3125Q440.04688 66.359375 440.40625 65.625Q440.76562 64.875 441.40625 64.46875Q442.0625 64.046875 442.8125 64.046875Q444.04688 64.046875 444.73438 64.859375Q445.42188 65.671875 445.42188 67.1875L445.42188 67.640625L441.125 67.640625Q441.15625 68.578125 441.67188 69.15625Q442.20312 69.734375 443.01562 69.734375Q443.57812 69.734375 443.96875 69.5Q444.375 69.265625 444.6875 68.875L445.34375 69.390625Q444.54688 70.625 442.95312 70.625ZM442.8125 64.9375Q442.15625 64.9375 441.70312 65.421875Q441.26562 65.890625 441.17188 66.75L444.34375 66.75L444.34375 66.671875Q444.29688 65.84375 443.89062 65.390625Q443.5 64.9375 442.8125 64.9375ZM447.34375 64.15625L447.375 64.859375Q448.0625 64.046875 449.25 64.046875Q450.57812 64.046875 451.0625 65.0625Q451.375 64.609375 451.875 64.328125Q452.39062 64.046875 453.07812 64.046875Q455.17188 64.046875 455.20312 66.25L455.20312 70.5L454.125 70.5L454.125 66.3125Q454.125 65.640625 453.8125 65.3125Q453.5 64.96875 452.76562 64.96875Q452.15625 64.96875 451.75 65.328125Q451.35938 65.6875 451.29688 66.296875L451.29688 70.5L450.21875 70.5L450.21875 66.34375Q450.21875 64.96875 448.85938 64.96875Q447.79688 64.96875 447.40625 65.875L447.40625 70.5L446.3125 70.5L446.3125 64.15625L447.34375 64.15625ZM457.03125 67.265625Q457.03125 66.34375 457.39062 65.59375Q457.76562 64.84375 458.42188 64.453125Q459.07812 64.046875 459.90625 64.046875Q461.20312 64.046875 462.0 64.9375Q462.8125 65.828125 462.8125 67.328125L462.8125 67.40625Q462.8125 68.328125 462.45312 69.0625Q462.09375 69.796875 461.4375 70.21875Q460.78125 70.625 459.92188 70.625Q458.64062 70.625 457.82812 69.734375Q457.03125 68.828125 457.03125 67.34375L457.03125 67.265625ZM458.125 67.40625Q458.125 68.453125 458.60938 69.09375Q459.10938 69.734375 459.92188 69.734375Q460.75 69.734375 461.23438 69.09375Q461.71875 68.4375 461.71875 67.265625Q461.71875 66.234375 461.21875 65.59375Q460.73438 64.9375 459.90625 64.9375Q459.10938 64.9375 458.60938 65.578125Q458.125 66.203125 458.125 67.40625ZM467.39062 65.125Q467.14062 65.09375 466.85938 65.09375Q465.78125 65.09375 465.40625 66.0L465.40625 70.5L464.32812 70.5L464.32812 64.15625L465.375 64.15625L465.39062 64.890625Q465.92188 64.046875 466.90625 64.046875Q467.21875 64.046875 467.39062 64.125L467.39062 65.125ZM470.39062 68.90625L471.875 64.15625L473.03125 64.15625L470.48438 71.484375Q469.89062 73.0625 468.60938 73.0625L468.39062 73.046875L468.0 72.96875L468.0 72.09375L468.28125 72.109375Q468.84375 72.109375 469.14062 71.890625Q469.45312 71.671875 469.65625 71.078125L469.89062 70.421875L467.625 64.15625L468.8125 64.15625L470.39062 68.90625Z" fill-rule="nonzero"/><path stroke="#f4b400" stroke-width="4.0" stroke-linecap="butt" d="M214.5 85.0L226.5 85.0" fill-rule="nonzero"/><path fill="#757575" d="M236.70312 89.5L235.57812 89.5L235.57812 80.96875L236.70312 80.96875L236.70312 89.5ZM239.34375 83.15625L239.375 83.953125Q240.10938 83.046875 241.28125 83.046875Q243.29688 83.046875 243.3125 85.3125L243.3125 89.5L242.21875 89.5L242.21875 85.296875Q242.21875 84.625 241.90625 84.296875Q241.60938 83.96875 240.95312 83.96875Q240.42188 83.96875 240.01562 84.25Q239.625 84.53125 239.40625 84.984375L239.40625 89.5L238.32812 89.5L238.32812 83.15625L239.34375 83.15625ZM246.79688 81.625L246.79688 83.15625L247.96875 83.15625L247.96875 84.0L246.79688 84.0L246.79688 87.921875Q246.79688 88.3125 246.95312 88.5Q247.10938 88.6875 247.48438 88.6875Q247.67188 88.6875 248.0 88.625L248.0 89.5Q247.57812 89.625 247.17188 89.625Q246.45312 89.625 246.07812 89.1875Q245.70312 88.734375 245.70312 87.921875L245.70312 84.0L244.54688 84.0L244.54688 83.15625L245.70312 83.15625L245.70312 81.625L246.79688 81.625ZM251.95312 89.625Q250.65625 89.625 249.84375 88.78125Q249.04688 87.921875 249.04688 86.5L249.04688 86.3125Q249.04688 85.359375 249.40625 84.625Q249.76562 83.875 250.40625 83.46875Q251.0625 83.046875 251.8125 83.046875Q253.04688 83.046875 253.73438 83.859375Q254.42188 84.671875 254.42188 86.1875L254.42188 86.640625L250.125 86.640625Q250.15625 87.578125 250.67188 88.15625Q251.20312 88.734375 252.01562 88.734375Q252.57812 88.734375 252.96875 88.5Q253.375 88.265625 253.6875 87.875L254.34375 88.390625Q253.54688 89.625 251.95312 89.625ZM251.8125 83.9375Q251.15625 83.9375 250.70312 84.421875Q250.26562 84.890625 250.17188 85.75L253.34375 85.75L253.34375 85.671875Q253.29688 84.84375 252.89062 84.390625Q252.5 83.9375 251.8125 83.9375ZM258.39062 84.125Q258.14062 84.09375 257.85938 84.09375Q256.78125 84.09375 256.40625 85.0L256.40625 89.5L255.32812 89.5L255.32812 83.15625L256.375 83.15625L256.39062 83.890625Q256.92188 83.046875 257.90625 83.046875Q258.21875 83.046875 258.39062 83.125L258.39062 84.125ZM260.5 89.5L259.42188 89.5L259.42188 80.5L260.5 80.5L260.5 89.5ZM264.95312 89.625Q263.65625 89.625 262.84375 88.78125Q262.04688 87.921875 262.04688 86.5L262.04688 86.3125Q262.04688 85.359375 262.40625 84.625Q262.76562 83.875 263.40625 83.46875Q264.0625 83.046875 264.8125 83.046875Q266.04688 83.046875 266.73438 83.859375Q267.42188 84.671875 267.42188 86.1875L267.42188 86.640625L263.125 86.640625Q263.15625 87.578125 263.67188 88.15625Q264.20312 88.734375 265.01562 88.734375Q265.57812 88.734375 265.96875 88.5Q266.375 88.265625 266.6875 87.875L267.34375 88.390625Q266.54688 89.625 264.95312 89.625ZM264.8125 83.9375Q264.15625 83.9375 263.70312 84.421875Q263.26562 84.890625 263.17188 85.75L266.34375 85.75L266.34375 85.671875Q266.29688 84.84375 265.89062 84.390625Q265.5 83.9375 264.8125 83.9375ZM272.23438 89.5Q272.14062 89.3125 272.07812 88.828125Q271.32812 89.625 270.28125 89.625Q269.34375 89.625 268.73438 89.09375Q268.14062 88.5625 268.14062 87.734375Q268.14062 86.75 268.89062 86.203125Q269.64062 85.65625 271.01562 85.65625L272.0625 85.65625L272.0625 85.15625Q272.0625 84.59375 271.71875 84.265625Q271.39062 83.921875 270.71875 83.921875Q270.14062 83.921875 269.75 84.21875Q269.35938 84.5 269.35938 84.921875L268.26562 84.921875Q268.26562 84.4375 268.59375 84.0Q268.9375 83.5625 269.51562 83.3125Q270.09375 83.046875 270.78125 83.046875Q271.89062 83.046875 272.5 83.59375Q273.125 84.140625 273.15625 85.09375L273.15625 88.015625Q273.15625 88.890625 273.375 89.40625L273.375 89.5L272.23438 89.5ZM270.4375 88.671875Q270.95312 88.671875 271.40625 88.40625Q271.85938 88.140625 272.0625 87.71875L272.0625 86.421875L271.21875 86.421875Q269.21875 86.421875 269.21875 87.59375Q269.21875 88.09375 269.5625 88.390625Q269.90625 88.671875 270.4375 88.671875ZM277.40625 88.03125L278.98438 83.15625L280.09375 83.15625L277.8125 89.5L276.98438 89.5L274.6875 83.15625L275.79688 83.15625L277.40625 88.03125ZM283.95312 89.625Q282.65625 89.625 281.84375 88.78125Q281.04688 87.921875 281.04688 86.5L281.04688 86.3125Q281.04688 85.359375 281.40625 84.625Q281.76562 83.875 282.40625 83.46875Q283.0625 83.046875 283.8125 83.046875Q285.04688 83.046875 285.73438 83.859375Q286.42188 84.671875 286.42188 86.1875L286.42188 86.640625L282.125 86.640625Q282.15625 87.578125 282.67188 88.15625Q283.20312 88.734375 284.01562 88.734375Q284.57812 88.734375 284.96875 88.5Q285.375 88.265625 285.6875 87.875L286.34375 88.390625Q285.54688 89.625 283.95312 89.625ZM283.8125 83.9375Q283.15625 83.9375 282.70312 84.421875Q282.26562 84.890625 282.17188 85.75L285.34375 85.75L285.34375 85.671875Q285.29688 84.84375 284.89062 84.390625Q284.5 83.9375 283.8125 83.9375ZM287.0625 86.28125Q287.0625 84.8125 287.75 83.9375Q288.4375 83.046875 289.5625 83.046875Q290.67188 83.046875 291.32812 83.796875L291.32812 80.5L292.40625 80.5L292.40625 89.5L291.40625 89.5L291.35938 88.8125Q290.70312 89.625 289.54688 89.625Q288.45312 89.625 287.75 88.71875Q287.0625 87.8125 287.0625 86.359375L287.0625 86.28125ZM288.14062 86.40625Q288.14062 87.484375 288.57812 88.09375Q289.03125 88.703125 289.8125 88.703125Q290.84375 88.703125 291.32812 87.765625L291.32812 84.859375Q290.84375 83.96875 289.82812 83.96875Q289.03125 83.96875 288.57812 84.578125Q288.14062 85.1875 288.14062 86.40625ZM304.04688 89.5L302.92188 89.5L298.625 82.921875L298.625 89.5L297.48438 89.5L297.48438 80.96875L298.625 80.96875L302.92188 87.578125L302.92188 80.96875L304.04688 80.96875L304.04688 89.5ZM312.5 80.96875L312.5 86.765625Q312.48438 87.96875 311.73438 88.75Q310.98438 89.515625 309.70312 89.609375L309.39062 89.625Q308.0 89.625 307.15625 88.875Q306.32812 88.109375 306.32812 86.78125L306.32812 80.96875L307.4375 80.96875L307.4375 86.75Q307.4375 87.671875 307.9375 88.1875Q308.45312 88.703125 309.39062 88.703125Q310.35938 88.703125 310.85938 88.1875Q311.35938 87.671875 311.35938 86.75L311.35938 80.96875L312.5 80.96875ZM315.9375 80.96875L318.73438 87.921875L321.51562 80.96875L322.98438 80.96875L322.98438 89.5L321.85938 89.5L321.85938 86.171875L321.96875 82.59375L319.15625 89.5L318.29688 89.5L315.5 82.609375L315.60938 86.171875L315.60938 89.5L314.48438 89.5L314.48438 80.96875L315.9375 80.96875ZM329.20312 87.265625L325.625 87.265625L324.82812 89.5L323.67188 89.5L326.92188 80.96875L327.90625 80.96875L331.17188 89.5L330.01562 89.5L329.20312 87.265625ZM325.96875 86.34375L328.875 86.34375L327.42188 82.359375L325.96875 86.34375ZM336.34375 83.15625L336.375 83.859375Q337.0625 83.046875 338.25 83.046875Q339.57812 83.046875 340.0625 84.0625Q340.375 83.609375 340.875 83.328125Q341.39062 83.046875 342.07812 83.046875Q344.17188 83.046875 344.20312 85.25L344.20312 89.5L343.125 89.5L343.125 85.3125Q343.125 84.640625 342.8125 84.3125Q342.5 83.96875 341.76562 83.96875Q341.15625 83.96875 340.75 84.328125Q340.35938 84.6875 340.29688 85.296875L340.29688 89.5L339.21875 89.5L339.21875 85.34375Q339.21875 83.96875 337.85938 83.96875Q336.79688 83.96875 336.40625 84.875L336.40625 89.5L335.3125 89.5L335.3125 83.15625L336.34375 83.15625ZM348.95312 89.625Q347.65625 89.625 346.84375 88.78125Q346.04688 87.921875 346.04688 86.5L346.04688 86.3125Q346.04688 85.359375 346.40625 84.625Q346.76562 83.875 347.40625 83.46875Q348.0625 83.046875 348.8125 83.046875Q350.04688 83.046875 350.73438 83.859375Q351.42188 84.671875 351.42188 86.1875L351.42188 86.640625L347.125 86.640625Q347.15625 87.578125 347.67188 88.15625Q348.20312 88.734375 349.01562 88.734375Q349.57812 88.734375 349.96875 88.5Q350.375 88.265625 350.6875 87.875L351.34375 88.390625Q350.54688 89.625 348.95312 89.625ZM348.8125 83.9375Q348.15625 83.9375 347.70312 84.421875Q347.26562 84.890625 347.17188 85.75L350.34375 85.75L350.34375 85.671875Q350.29688 84.84375 349.89062 84.390625Q349.5 83.9375 348.8125 83.9375ZM353.34375 83.15625L353.375 83.859375Q354.0625 83.046875 355.25 83.046875Q356.57812 83.046875 357.0625 84.0625Q357.375 83.609375 357.875 83.328125Q358.39062 83.046875 359.07812 83.046875Q361.17188 83.046875 361.20312 85.25L361.20312 89.5L360.125 89.5L360.125 85.3125Q360.125 84.640625 359.8125 84.3125Q359.5 83.96875 358.76562 83.96875Q358.15625 83.96875 357.75 84.328125Q357.35938 84.6875 357.29688 85.296875L357.29688 89.5L356.21875 89.5L356.21875 85.34375Q356.21875 83.96875 354.85938 83.96875Q353.79688 83.96875 353.40625 84.875L353.40625 89.5L352.3125 89.5L352.3125 83.15625L353.34375 83.15625ZM363.03125 86.265625Q363.03125 85.34375 363.39062 84.59375Q363.76562 83.84375 364.42188 83.453125Q365.07812 83.046875 365.90625 83.046875Q367.20312 83.046875 368.0 83.9375Q368.8125 84.828125 368.8125 86.328125L368.8125 86.40625Q368.8125 87.328125 368.45312 88.0625Q368.09375 88.796875 367.4375 89.21875Q366.78125 89.625 365.92188 89.625Q364.64062 89.625 363.82812 88.734375Q363.03125 87.828125 363.03125 86.34375L363.03125 86.265625ZM364.125 86.40625Q364.125 87.453125 364.60938 88.09375Q365.10938 88.734375 365.92188 88.734375Q366.75 88.734375 367.23438 88.09375Q367.71875 87.4375 367.71875 86.265625Q367.71875 85.234375 367.21875 84.59375Q366.73438 83.9375 365.90625 83.9375Q365.10938 83.9375 364.60938 84.578125Q364.125 85.203125 364.125 86.40625ZM373.39062 84.125Q373.14062 84.09375 372.85938 84.09375Q371.78125 84.09375 371.40625 85.0L371.40625 89.5L370.32812 89.5L370.32812 83.15625L371.375 83.15625L371.39062 83.890625Q371.92188 83.046875 372.90625 83.046875Q373.21875 83.046875 373.39062 83.125L373.39062 84.125ZM376.39062 87.90625L377.875 83.15625L379.03125 83.15625L376.48438 90.484375Q375.89062 92.0625 374.60938 92.0625L374.39062 92.046875L374.0 91.96875L374.0 91.09375L374.28125 91.109375Q374.84375 91.109375 375.14062 90.890625Q375.45312 90.671875 375.65625 90.078125L375.89062 89.421875L373.625 83.15625L374.8125 83.15625L376.39062 87.90625Z" fill-rule="nonzero"/><path fill="#757575" d="M24.23125 34.1375L24.23125 39.7L22.35625 39.7L22.35625 25.48125L27.590626 25.48125Q29.934376 25.48125 31.246876 26.66875Q32.575 27.85625 32.575 29.825Q32.575 31.903126 31.278126 33.028126Q29.98125 34.1375 27.575 34.1375L24.23125 34.1375ZM24.23125 32.60625L27.590626 32.60625Q29.10625 32.60625 29.903126 31.903126Q30.7 31.184376 30.7 29.840626Q30.7 28.575 29.903126 27.825Q29.10625 27.059376 27.7 27.028126L24.23125 27.028126L24.23125 32.60625ZM39.45 39.903126Q37.309376 39.903126 35.95 38.496876Q34.60625 37.075 34.60625 34.715626L34.60625 34.371876Q34.60625 32.809376 35.2 31.575Q35.809376 30.340626 36.8875 29.6375Q37.965626 28.934376 39.23125 28.934376Q41.29375 28.934376 42.434376 30.29375Q43.575 31.653126 43.575 34.184376L43.575 34.934376L36.41875 34.934376Q36.45 36.496876 37.325 37.465626Q38.2 38.41875 39.54375 38.41875Q40.5125 38.41875 41.16875 38.028126Q41.840626 37.6375 42.340626 36.996876L43.434376 37.85625Q42.10625 39.903126 39.45 39.903126ZM39.23125 30.41875Q38.1375 30.41875 37.3875 31.215626Q36.653126 32.0125 36.48125 33.45L41.7625 33.45L41.7625 33.309376Q41.684376 31.934376 41.0125 31.184376Q40.35625 30.41875 39.23125 30.41875ZM51.16875 30.746876Q50.7625 30.684376 50.29375 30.684376Q48.5125 30.684376 47.871876 32.2L47.871876 39.7L46.075 39.7L46.075 29.1375L47.825 29.1375L47.85625 30.35625Q48.746876 28.934376 50.371876 28.934376Q50.903126 28.934376 51.16875 29.075L51.16875 30.746876ZM53.95 39.7L53.95 30.528126L52.29375 30.528126L52.29375 29.1375L53.95 29.1375L53.95 28.04375Q53.95 26.35625 54.85625 25.434376Q55.778126 24.496876 57.434376 24.496876Q58.059376 24.496876 58.66875 24.653126L58.575 26.121876Q58.121876 26.04375 57.60625 26.04375Q56.715626 26.04375 56.23125 26.559376Q55.7625 27.059376 55.7625 28.0125L55.7625 29.1375L58.0125 29.1375L58.0125 30.528126L55.7625 30.528126L55.7625 39.7L53.95 39.7ZM59.590626 34.325Q59.590626 32.7625 60.2 31.528126Q60.809376 30.278126 61.8875 29.60625Q62.98125 28.934376 64.3875 28.934376Q66.54375 28.934376 67.87187 30.434376Q69.21562 31.91875 69.21562 34.403126L69.21562 34.528126Q69.21562 36.075 68.62187 37.309376Q68.02812 38.528126 66.91875 39.215626Q65.825 39.903126 64.40312 39.903126Q62.2625 39.903126 60.91875 38.403126Q59.590626 36.903126 59.590626 34.45L59.590626 34.325ZM61.403126 34.528126Q61.403126 36.29375 62.215626 37.35625Q63.04375 38.41875 64.40312 38.41875Q65.77812 38.41875 66.59062 37.340626Q67.40312 36.2625 67.40312 34.325Q67.40312 32.575 66.575 31.496876Q65.74687 30.41875 64.3875 30.41875Q63.04375 30.41875 62.215626 31.48125Q61.403126 32.54375 61.403126 34.528126ZM76.16875 30.746876Q75.7625 30.684376 75.29375 30.684376Q73.5125 30.684376 72.87187 32.2L72.87187 39.7L71.075 39.7L71.075 29.1375L72.825 29.1375L72.85625 30.35625Q73.74687 28.934376 75.37187 28.934376Q75.90312 28.934376 76.16875 29.075L76.16875 30.746876ZM79.7625 29.1375L79.80937 30.309376Q80.98125 28.934376 82.95 28.934376Q85.16875 28.934376 85.96562 30.6375Q86.49687 29.871876 87.34062 29.403126Q88.18437 28.934376 89.34062 28.934376Q92.80937 28.934376 92.87187 32.621876L92.87187 39.7L91.05937 39.7L91.05937 32.73125Q91.05937 31.590626 90.54375 31.028126Q90.02812 30.465626 88.80937 30.465626Q87.80937 30.465626 87.1375 31.075Q86.48125 31.66875 86.37187 32.684376L86.37187 39.7L84.55937 39.7L84.55937 32.778126Q84.55937 30.465626 82.29375 30.465626Q80.5125 30.465626 79.87187 31.98125L79.87187 39.7L78.05937 39.7L78.05937 29.1375L79.7625 29.1375ZM102.59062 39.7Q102.43437 39.3875 102.34062 38.590626Q101.075 39.903126 99.325 39.903126Q97.7625 39.903126 96.7625 39.0125Q95.7625 38.121876 95.7625 36.7625Q95.7625 35.121876 97.0125 34.215626Q98.27812 33.29375 100.54375 33.29375L102.30937 33.29375L102.30937 32.465626Q102.30937 31.5125 101.73125 30.95Q101.16875 30.3875 100.075 30.3875Q99.10625 30.3875 98.45 30.8875Q97.79375 31.371876 97.79375 32.059376L95.98125 32.059376Q95.98125 31.278126 96.54375 30.54375Q97.10625 29.79375 98.05937 29.371876Q99.02812 28.934376 100.18437 28.934376Q102.0125 28.934376 103.04375 29.85625Q104.075 30.7625 104.12187 32.371876L104.12187 37.23125Q104.12187 38.684376 104.48125 39.54375L104.48125 39.7L102.59062 39.7ZM99.59062 38.325Q100.45 38.325 101.2 37.8875Q101.96562 37.45 102.30937 36.746876L102.30937 34.575L100.8875 34.575Q97.575 34.575 97.575 36.5125Q97.575 37.371876 98.1375 37.85625Q98.7 38.325 99.59062 38.325ZM108.77812 29.1375L108.84062 30.465626Q110.04375 28.934376 111.99687 28.934376Q115.35625 28.934376 115.37187 32.715626L115.37187 39.7L113.575 39.7L113.575 32.7Q113.55937 31.559376 113.04375 31.0125Q112.54375 30.465626 111.45 30.465626Q110.575 30.465626 109.90312 30.934376Q109.24687 31.403126 108.87187 32.16875L108.87187 39.7L107.075 39.7L107.075 29.1375L108.77812 29.1375ZM122.30937 38.41875Q123.27812 38.41875 123.99687 37.840626Q124.71562 37.246876 124.79375 36.371876L126.5125 36.371876Q126.45 37.278126 125.87187 38.10625Q125.30937 38.91875 124.34062 39.41875Q123.3875 39.903126 122.30937 39.903126Q120.15312 39.903126 118.87187 38.465626Q117.60625 37.0125 117.60625 34.5125L117.60625 34.215626Q117.60625 32.66875 118.16875 31.465626Q118.73125 30.2625 119.79375 29.60625Q120.85625 28.934376 122.29375 28.934376Q124.075 28.934376 125.24687 29.996876Q126.43437 31.059376 126.5125 32.7625L124.79375 32.7625Q124.71562 31.746876 124.0125 31.090626Q123.325 30.41875 122.29375 30.41875Q120.91875 30.41875 120.15312 31.41875Q119.40312 32.403126 119.40312 34.278126L119.40312 34.621876Q119.40312 36.45 120.15312 37.434376Q120.90312 38.41875 122.30937 38.41875ZM132.45 39.903126Q130.30937 39.903126 128.95 38.496876Q127.60625 37.075 127.60625 34.715626L127.60625 34.371876Q127.60625 32.809376 128.2 31.575Q128.80937 30.340626 129.8875 29.6375Q130.96562 28.934376 132.23125 28.934376Q134.29375 28.934376 135.43437 30.29375Q136.575 31.653126 136.575 34.184376L136.575 34.934376L129.41875 34.934376Q129.45 36.496876 130.325 37.465626Q131.2 38.41875 132.54375 38.41875Q133.5125 38.41875 134.16875 38.028126Q134.84062 37.6375 135.34062 36.996876L136.43437 37.85625Q135.10625 39.903126 132.45 39.903126ZM132.23125 30.41875Q131.1375 30.41875 130.3875 31.215626Q129.65312 32.0125 129.48125 33.45L134.7625 33.45L134.7625 33.309376Q134.68437 31.934376 134.0125 31.184376Q133.35625 30.41875 132.23125 30.41875ZM152.99687 34.528126Q152.99687 36.95 151.8875 38.434376Q150.79375 39.903126 148.90312 39.903126Q146.98125 39.903126 145.87187 38.66875L145.87187 43.7625L144.075 43.7625L144.075 29.1375L145.71562 29.1375L145.80937 30.309376Q146.90312 28.934376 148.87187 28.934376Q150.77812 28.934376 151.8875 30.371876Q152.99687 31.809376 152.99687 34.371876L152.99687 34.528126ZM151.18437 34.325Q151.18437 32.54375 150.41875 31.5125Q149.66875 30.465626 148.34062 30.465626Q146.7 30.465626 145.87187 31.91875L145.87187 36.98125Q146.68437 38.41875 148.35625 38.41875Q149.65312 38.41875 150.41875 37.3875Q151.18437 36.35625 151.18437 34.325ZM159.45 39.903126Q157.30937 39.903126 155.95 38.496876Q154.60625 37.075 154.60625 34.715626L154.60625 34.371876Q154.60625 32.809376 155.2 31.575Q155.80937 30.340626 156.8875 29.6375Q157.96562 28.934376 159.23125 28.934376Q161.29375 28.934376 162.43437 30.29375Q163.575 31.653126 163.575 34.184376L163.575 34.934376L156.41875 34.934376Q156.45 36.496876 157.325 37.465626Q158.2 38.41875 159.54375 38.41875Q160.5125 38.41875 161.16875 38.028126Q161.84062 37.6375 162.34062 36.996876L163.43437 37.85625Q162.10625 39.903126 159.45 39.903126ZM159.23125 30.41875Q158.1375 30.41875 157.3875 31.215626Q156.65312 32.0125 156.48125 33.45L161.7625 33.45L161.7625 33.309376Q161.68437 31.934376 161.0125 31.184376Q160.35625 30.41875 159.23125 30.41875ZM171.16875 30.746876Q170.7625 30.684376 170.29375 30.684376Q168.5125 30.684376 167.87187 32.2L167.87187 39.7L166.075 39.7L166.075 29.1375L167.825 29.1375L167.85625 30.35625Q168.74687 28.934376 170.37187 28.934376Q170.90312 28.934376 171.16875 29.075L171.16875 30.746876ZM186.99687 34.528126Q186.99687 36.95 185.8875 38.434376Q184.79375 39.903126 182.90312 39.903126Q180.98125 39.903126 179.87187 38.66875L179.87187 43.7625L178.075 43.7625L178.075 29.1375L179.71562 29.1375L179.80937 30.309376Q180.90312 28.934376 182.87187 28.934376Q184.77812 28.934376 185.8875 30.371876Q186.99687 31.809376 186.99687 34.371876L186.99687 34.528126ZM185.18437 34.325Q185.18437 32.54375 184.41875 31.5125Q183.66875 30.465626 182.34062 30.465626Q180.7 30.465626 179.87187 31.91875L179.87187 36.98125Q180.68437 38.41875 182.35625 38.41875Q183.65312 38.41875 184.41875 37.3875Q185.18437 36.35625 185.18437 34.325ZM195.59062 39.7Q195.43437 39.3875 195.34062 38.590626Q194.075 39.903126 192.325 39.903126Q190.7625 39.903126 189.7625 39.0125Q188.7625 38.121876 188.7625 36.7625Q188.7625 35.121876 190.0125 34.215626Q191.27812 33.29375 193.54375 33.29375L195.30937 33.29375L195.30937 32.465626Q195.30937 31.5125 194.73125 30.95Q194.16875 30.3875 193.075 30.3875Q192.10625 30.3875 191.45 30.8875Q190.79375 31.371876 190.79375 32.059376L188.98125 32.059376Q188.98125 31.278126 189.54375 30.54375Q190.10625 29.79375 191.05937 29.371876Q192.02812 28.934376 193.18437 28.934376Q195.0125 28.934376 196.04375 29.85625Q197.075 30.7625 197.12187 32.371876L197.12187 37.23125Q197.12187 38.684376 197.48125 39.54375L197.48125 39.7L195.59062 39.7ZM192.59062 38.325Q193.45 38.325 194.2 37.8875Q194.96562 37.45 195.30937 36.746876L195.30937 34.575L193.8875 34.575Q190.575 34.575 190.575 36.5125Q190.575 37.371876 191.1375 37.85625Q191.7 38.325 192.59062 38.325ZM205.16875 30.746876Q204.7625 30.684376 204.29375 30.684376Q202.5125 30.684376 201.87187 32.2L201.87187 39.7L200.075 39.7L200.075 29.1375L201.825 29.1375L201.85625 30.35625Q202.74687 28.934376 204.37187 28.934376Q204.90312 28.934376 205.16875 29.075L205.16875 30.746876ZM213.59062 39.7Q213.43437 39.3875 213.34062 38.590626Q212.075 39.903126 210.325 39.903126Q208.7625 39.903126 207.7625 39.0125Q206.7625 38.121876 206.7625 36.7625Q206.7625 35.121876 208.0125 34.215626Q209.27812 33.29375 211.54375 33.29375L213.30937 33.29375L213.30937 32.465626Q213.30937 31.5125 212.73125 30.95Q212.16875 30.3875 211.075 30.3875Q210.10625 30.3875 209.45 30.8875Q208.79375 31.371876 208.79375 32.059376L206.98125 32.059376Q206.98125 31.278126 207.54375 30.54375Q208.10625 29.79375 209.05937 29.371876Q210.02812 28.934376 211.18437 28.934376Q213.0125 28.934376 214.04375 29.85625Q215.075 30.7625 215.12187 32.371876L215.12187 37.23125Q215.12187 38.684376 215.48125 39.54375L215.48125 39.7L213.59062 39.7ZM210.59062 38.325Q211.45 38.325 212.2 37.8875Q212.96562 37.45 213.30937 36.746876L213.30937 34.575L211.8875 34.575Q208.575 34.575 208.575 36.5125Q208.575 37.371876 209.1375 37.85625Q209.7 38.325 210.59062 38.325ZM220.02812 39.7L218.23125 39.7L218.23125 24.7L220.02812 24.7L220.02812 39.7ZM225.02812 39.7L223.23125 39.7L223.23125 24.7L225.02812 24.7L225.02812 39.7ZM232.45 39.903126Q230.30937 39.903126 228.95 38.496876Q227.60625 37.075 227.60625 34.715626L227.60625 34.371876Q227.60625 32.809376 228.2 31.575Q228.80937 30.340626 229.8875 29.6375Q230.96562 28.934376 232.23125 28.934376Q234.29375 28.934376 235.43437 30.29375Q236.575 31.653126 236.575 34.184376L236.575 34.934376L229.41875 34.934376Q229.45 36.496876 230.325 37.465626Q231.2 38.41875 232.54375 38.41875Q233.5125 38.41875 234.16875 38.028126Q234.84062 37.6375 235.34062 36.996876L236.43437 37.85625Q235.10625 39.903126 232.45 39.903126ZM232.23125 30.41875Q231.1375 30.41875 230.3875 31.215626Q229.65312 32.0125 229.48125 33.45L234.7625 33.45L234.7625 33.309376Q234.68437 31.934376 234.0125 31.184376Q233.35625 30.41875 232.23125 30.41875ZM241.02812 39.7L239.23125 39.7L239.23125 24.7L241.02812 24.7L241.02812 39.7ZM251.5125 26.575L251.5125 29.1375L253.49687 29.1375L253.49687 30.528126L251.5125 30.528126L251.5125 37.075Q251.5125 37.715626 251.77812 38.04375Q252.04375 38.35625 252.68437 38.35625Q252.99687 38.35625 253.54375 38.23125L253.54375 39.7Q252.825 39.903126 252.15312 39.903126Q250.95 39.903126 250.325 39.16875Q249.71562 38.434376 249.71562 37.075L249.71562 30.528126L247.79375 30.528126L247.79375 29.1375L249.71562 29.1375L249.71562 26.575L251.5125 26.575ZM257.8719 30.41875Q259.075 28.934376 260.9969 28.934376Q264.35626 28.934376 264.3719 32.715626L264.3719 39.7L262.575 39.7L262.575 32.7Q262.5594 31.559376 262.04376 31.0125Q261.54376 30.465626 260.45 30.465626Q259.575 30.465626 258.90314 30.934376Q258.2469 31.403126 257.8719 32.16875L257.8719 39.7L256.075 39.7L256.075 24.7L257.8719 24.7L257.8719 30.41875ZM272.16876 30.746876Q271.7625 30.684376 271.29376 30.684376Q269.5125 30.684376 268.8719 32.2L268.8719 39.7L267.075 39.7L267.075 29.1375L268.825 29.1375L268.85626 30.35625Q269.7469 28.934376 271.3719 28.934376Q271.90314 28.934376 272.16876 29.075L272.16876 30.746876ZM278.45 39.903126Q276.3094 39.903126 274.95 38.496876Q273.60626 37.075 273.60626 34.715626L273.60626 34.371876Q273.60626 32.809376 274.2 31.575Q274.8094 30.340626 275.8875 29.6375Q276.96564 28.934376 278.23126 28.934376Q280.29376 28.934376 281.4344 30.29375Q282.575 31.653126 282.575 34.184376L282.575 34.934376L275.41876 34.934376Q275.45 36.496876 276.325 37.465626Q277.2 38.41875 278.54376 38.41875Q279.5125 38.41875 280.16876 38.028126Q280.84064 37.6375 281.34064 36.996876L282.4344 37.85625Q281.10626 39.903126 278.45 39.903126ZM278.23126 30.41875Q277.1375 30.41875 276.3875 31.215626Q275.65314 32.0125 275.48126 33.45L280.7625 33.45L280.7625 33.309376Q280.6844 31.934376 280.0125 31.184376Q279.35626 30.41875 278.23126 30.41875ZM291.59064 39.7Q291.4344 39.3875 291.34064 38.590626Q290.075 39.903126 288.325 39.903126Q286.7625 39.903126 285.7625 39.0125Q284.7625 38.121876 284.7625 36.7625Q284.7625 35.121876 286.0125 34.215626Q287.27814 33.29375 289.54376 33.29375L291.3094 33.29375L291.3094 32.465626Q291.3094 31.5125 290.73126 30.95Q290.16876 30.3875 289.075 30.3875Q288.10626 30.3875 287.45 30.8875Q286.79376 31.371876 286.79376 32.059376L284.98126 32.059376Q284.98126 31.278126 285.54376 30.54375Q286.10626 29.79375 287.0594 29.371876Q288.02814 28.934376 289.1844 28.934376Q291.0125 28.934376 292.04376 29.85625Q293.075 30.7625 293.1219 32.371876L293.1219 37.23125Q293.1219 38.684376 293.48126 39.54375L293.48126 39.7L291.59064 39.7ZM288.59064 38.325Q289.45 38.325 290.2 37.8875Q290.96564 37.45 291.3094 36.746876L291.3094 34.575L289.8875 34.575Q286.575 34.575 286.575 36.5125Q286.575 37.371876 287.1375 37.85625Q287.7 38.325 288.59064 38.325ZM295.6219 34.325Q295.6219 31.903126 296.77814 30.41875Q297.9344 28.934376 299.79376 28.934376Q301.65314 28.934376 302.73126 30.2L302.73126 24.7L304.54376 24.7L304.54376 39.7L302.8875 39.7L302.79376 38.559376Q301.71564 39.903126 299.77814 39.903126Q297.95 39.903126 296.77814 38.403126Q295.6219 36.8875 295.6219 34.465626L295.6219 34.325ZM297.4344 34.528126Q297.4344 36.325 298.16876 37.340626Q298.91876 38.35625 300.23126 38.35625Q301.95 38.35625 302.73126 36.825L302.73126 31.965626Q301.9344 30.465626 300.2469 30.465626Q298.91876 30.465626 298.16876 31.496876Q297.4344 32.528126 297.4344 34.528126ZM313.21564 36.903126Q313.21564 36.16875 312.66876 35.7625Q312.1219 35.35625 310.7469 35.059376Q309.3719 34.7625 308.5594 34.35625Q307.7625 33.95 307.3719 33.3875Q306.9969 32.809376 306.9969 32.028126Q306.9969 30.73125 308.09064 29.840626Q309.1844 28.934376 310.90314 28.934376Q312.7 28.934376 313.8094 29.871876Q314.9344 30.79375 314.9344 32.23125L313.10626 32.23125Q313.10626 31.496876 312.48126 30.965626Q311.85626 30.41875 310.90314 30.41875Q309.90314 30.41875 309.34064 30.85625Q308.79376 31.278126 308.79376 31.98125Q308.79376 32.621876 309.3094 32.965626Q309.825 33.29375 311.1844 33.60625Q312.54376 33.903126 313.3719 34.325Q314.21564 34.73125 314.6219 35.325Q315.02814 35.91875 315.02814 36.7625Q315.02814 38.184376 313.8875 39.04375Q312.7625 39.903126 310.95 39.903126Q309.6844 39.903126 308.7 39.45Q307.73126 38.996876 307.16876 38.2Q306.6219 37.3875 306.6219 36.45L308.4344 36.45Q308.48126 37.35625 309.15314 37.8875Q309.84064 38.41875 310.95 38.41875Q311.98126 38.41875 312.59064 38.0125Q313.21564 37.590626 313.21564 36.903126ZM322.95 39.7L322.95 30.528126L321.29376 30.528126L321.29376 29.1375L322.95 29.1375L322.95 28.04375Q322.95 26.35625 323.85626 25.434376Q324.77814 24.496876 326.4344 24.496876Q327.0594 24.496876 327.66876 24.653126L327.575 26.121876Q327.1219 26.04375 326.60626 26.04375Q325.71564 26.04375 325.23126 26.559376Q324.7625 27.059376 324.7625 28.0125L324.7625 29.1375L327.0125 29.1375L327.0125 30.528126L324.7625 30.528126L324.7625 39.7L322.95 39.7ZM328.59064 34.325Q328.59064 32.7625 329.2 31.528126Q329.8094 30.278126 330.8875 29.60625Q331.98126 28.934376 333.3875 28.934376Q335.54376 28.934376 336.8719 30.434376Q338.21564 31.91875 338.21564 34.403126L338.21564 34.528126Q338.21564 36.075 337.6219 37.309376Q337.02814 38.528126 335.91876 39.215626Q334.825 39.903126 333.40314 39.903126Q331.2625 39.903126 329.91876 38.403126Q328.59064 36.903126 328.59064 34.45L328.59064 34.325ZM330.40314 34.528126Q330.40314 36.29375 331.21564 37.35625Q332.04376 38.41875 333.40314 38.41875Q334.77814 38.41875 335.59064 37.340626Q336.40314 36.2625 336.40314 34.325Q336.40314 32.575 335.575 31.496876Q334.7469 30.41875 333.3875 30.41875Q332.04376 30.41875 331.21564 31.48125Q330.40314 32.54375 330.40314 34.528126ZM345.16876 30.746876Q344.7625 30.684376 344.29376 30.684376Q342.5125 30.684376 341.8719 32.2L341.8719 39.7L340.075 39.7L340.075 29.1375L341.825 29.1375L341.85626 30.35625Q342.7469 28.934376 344.3719 28.934376Q344.90314 28.934376 345.16876 29.075L345.16876 30.746876ZM360.9969 34.528126Q360.9969 36.95 359.8875 38.434376Q358.79376 39.903126 356.90314 39.903126Q354.98126 39.903126 353.8719 38.66875L353.8719 43.7625L352.075 43.7625L352.075 29.1375L353.71564 29.1375L353.8094 30.309376Q354.90314 28.934376 356.8719 28.934376Q358.77814 28.934376 359.8875 30.371876Q360.9969 31.809376 360.9969 34.371876L360.9969 34.528126ZM359.1844 34.325Q359.1844 32.54375 358.41876 31.5125Q357.66876 30.465626 356.34064 30.465626Q354.7 30.465626 353.8719 31.91875L353.8719 36.98125Q354.6844 38.41875 356.35626 38.41875Q357.65314 38.41875 358.41876 37.3875Q359.1844 36.35625 359.1844 34.325ZM368.16876 30.746876Q367.7625 30.684376 367.29376 30.684376Q365.5125 30.684376 364.8719 32.2L364.8719 39.7L363.075 39.7L363.075 29.1375L364.825 29.1375L364.85626 30.35625Q365.7469 28.934376 367.3719 28.934376Q367.90314 28.934376 368.16876 29.075L368.16876 30.746876ZM374.45 39.903126Q372.3094 39.903126 370.95 38.496876Q369.60626 37.075 369.60626 34.715626L369.60626 34.371876Q369.60626 32.809376 370.2 31.575Q370.8094 30.340626 371.8875 29.6375Q372.96564 28.934376 374.23126 28.934376Q376.29376 28.934376 377.4344 30.29375Q378.575 31.653126 378.575 34.184376L378.575 34.934376L371.41876 34.934376Q371.45 36.496876 372.325 37.465626Q373.2 38.41875 374.54376 38.41875Q375.5125 38.41875 376.16876 38.028126Q376.84064 37.6375 377.34064 36.996876L378.4344 37.85625Q377.10626 39.903126 374.45 39.903126ZM374.23126 30.41875Q373.1375 30.41875 372.3875 31.215626Q371.65314 32.0125 371.48126 33.45L376.7625 33.45L376.7625 33.309376Q376.6844 31.934376 376.0125 31.184376Q375.35626 30.41875 374.23126 30.41875ZM381.95 39.7L381.95 30.528126L380.29376 30.528126L380.29376 29.1375L381.95 29.1375L381.95 28.04375Q381.95 26.35625 382.85626 25.434376Q383.77814 24.496876 385.4344 24.496876Q386.0594 24.496876 386.66876 24.653126L386.575 26.121876Q386.1219 26.04375 385.60626 26.04375Q384.71564 26.04375 384.23126 26.559376Q383.7625 27.059376 383.7625 28.0125L383.7625 29.1375L386.0125 29.1375L386.0125 30.528126L383.7625 30.528126L383.7625 39.7L381.95 39.7ZM390.02814 39.7L388.23126 39.7L388.23126 29.1375L390.02814 29.1375L390.02814 39.7ZM388.075 26.325Q388.075 25.8875 388.34064 25.590626Q388.6219 25.278126 389.1375 25.278126Q389.66876 25.278126 389.9344 25.590626Q390.21564 25.8875 390.21564 26.325Q390.21564 26.7625 389.9344 27.059376Q389.66876 27.35625 389.1375 27.35625Q388.6219 27.35625 388.34064 27.059376Q388.075 26.7625 388.075 26.325ZM396.60626 32.996876L398.95 29.1375L401.0594 29.1375L397.60626 34.35625L401.16876 39.7L399.09064 39.7L396.6375 35.746876L394.2 39.7L392.10626 39.7L395.66876 34.35625L392.21564 29.1375L394.29376 29.1375L396.60626 32.996876ZM414.21564 36.903126Q414.21564 36.16875 413.66876 35.7625Q413.1219 35.35625 411.7469 35.059376Q410.3719 34.7625 409.5594 34.35625Q408.7625 33.95 408.3719 33.3875Q407.9969 32.809376 407.9969 32.028126Q407.9969 30.73125 409.09064 29.840626Q410.1844 28.934376 411.90314 28.934376Q413.7 28.934376 414.8094 29.871876Q415.9344 30.79375 415.9344 32.23125L414.10626 32.23125Q414.10626 31.496876 413.48126 30.965626Q412.85626 30.41875 411.90314 30.41875Q410.90314 30.41875 410.34064 30.85625Q409.79376 31.278126 409.79376 31.98125Q409.79376 32.621876 410.3094 32.965626Q410.825 33.29375 412.1844 33.60625Q413.54376 33.903126 414.3719 34.325Q415.21564 34.73125 415.6219 35.325Q416.02814 35.91875 416.02814 36.7625Q416.02814 38.184376 414.8875 39.04375Q413.7625 39.903126 411.95 39.903126Q410.6844 39.903126 409.7 39.45Q408.73126 38.996876 408.16876 38.2Q407.6219 37.3875 407.6219 36.45L409.4344 36.45Q409.48126 37.35625 410.15314 37.8875Q410.84064 38.41875 411.95 38.41875Q412.98126 38.41875 413.59064 38.0125Q414.21564 37.590626 414.21564 36.903126ZM424.59064 38.653126Q423.54376 39.903126 421.4969 39.903126Q419.8094 39.903126 418.91876 38.91875Q418.04376 37.934376 418.02814 36.0125L418.02814 29.1375L419.84064 29.1375L419.84064 35.965626Q419.84064 38.35625 421.79376 38.35625Q423.85626 38.35625 424.54376 36.825L424.54376 29.1375L426.35626 29.1375L426.35626 39.7L424.6375 39.7L424.59064 38.653126ZM430.7625 29.1375L430.8094 30.309376Q431.98126 28.934376 433.95 28.934376Q436.16876 28.934376 436.96564 30.6375Q437.4969 29.871876 438.34064 29.403126Q439.1844 28.934376 440.34064 28.934376Q443.8094 28.934376 443.8719 32.621876L443.8719 39.7L442.0594 39.7L442.0594 32.73125Q442.0594 31.590626 441.54376 31.028126Q441.02814 30.465626 439.8094 30.465626Q438.8094 30.465626 438.1375 31.075Q437.48126 31.66875 437.3719 32.684376L437.3719 39.7L435.5594 39.7L435.5594 32.778126Q435.5594 30.465626 433.29376 30.465626Q431.5125 30.465626 430.8719 31.98125L430.8719 39.7L429.0594 39.7L429.0594 29.1375L430.7625 29.1375ZM456.3094 38.41875Q457.27814 38.41875 457.9969 37.840626Q458.71564 37.246876 458.79376 36.371876L460.5125 36.371876Q460.45 37.278126 459.8719 38.10625Q459.3094 38.91875 458.34064 39.41875Q457.3875 39.903126 456.3094 39.903126Q454.15314 39.903126 452.8719 38.465626Q451.60626 37.0125 451.60626 34.5125L451.60626 34.215626Q451.60626 32.66875 452.16876 31.465626Q452.73126 30.2625 453.79376 29.60625Q454.85626 28.934376 456.29376 28.934376Q458.075 28.934376 459.2469 29.996876Q460.4344 31.059376 460.5125 32.7625L458.79376 32.7625Q458.71564 31.746876 458.0125 31.090626Q457.325 30.41875 456.29376 30.41875Q454.91876 30.41875 454.15314 31.41875Q453.40314 32.403126 453.40314 34.278126L453.40314 34.621876Q453.40314 36.45 454.15314 37.434376Q454.90314 38.41875 456.3094 38.41875ZM468.59064 39.7Q468.4344 39.3875 468.34064 38.590626Q467.075 39.903126 465.325 39.903126Q463.7625 39.903126 462.7625 39.0125Q461.7625 38.121876 461.7625 36.7625Q461.7625 35.121876 463.0125 34.215626Q464.27814 33.29375 466.54376 33.29375L468.3094 33.29375L468.3094 32.465626Q468.3094 31.5125 467.73126 30.95Q467.16876 30.3875 466.075 30.3875Q465.10626 30.3875 464.45 30.8875Q463.79376 31.371876 463.79376 32.059376L461.98126 32.059376Q461.98126 31.278126 462.54376 30.54375Q463.10626 29.79375 464.0594 29.371876Q465.02814 28.934376 466.1844 28.934376Q468.0125 28.934376 469.04376 29.85625Q470.075 30.7625 470.1219 32.371876L470.1219 37.23125Q470.1219 38.684376 470.48126 39.54375L470.48126 39.7L468.59064 39.7ZM465.59064 38.325Q466.45 38.325 467.2 37.8875Q467.96564 37.45 468.3094 36.746876L468.3094 34.575L466.8875 34.575Q463.575 34.575 463.575 36.5125Q463.575 37.371876 464.1375 37.85625Q464.7 38.325 465.59064 38.325ZM475.02814 39.7L473.23126 39.7L473.23126 24.7L475.02814 24.7L475.02814 39.7ZM482.3094 38.41875Q483.27814 38.41875 483.9969 37.840626Q484.71564 37.246876 484.79376 36.371876L486.5125 36.371876Q486.45 37.278126 485.8719 38.10625Q485.3094 38.91875 484.34064 39.41875Q483.3875 39.903126 482.3094 39.903126Q480.15314 39.903126 478.8719 38.465626Q477.60626 37.0125 477.60626 34.5125L477.60626 34.215626Q477.60626 32.66875 478.16876 31.465626Q478.73126 30.2625 479.79376 29.60625Q480.85626 28.934376 482.29376 28.934376Q484.075 28.934376 485.2469 29.996876Q486.4344 31.059376 486.5125 32.7625L484.79376 32.7625Q484.71564 31.746876 484.0125 31.090626Q483.325 30.41875 482.29376 30.41875Q480.91876 30.41875 480.15314 31.41875Q479.40314 32.403126 479.40314 34.278126L479.40314 34.621876Q479.40314 36.45 480.15314 37.434376Q480.90314 38.41875 482.3094 38.41875ZM494.59064 38.653126Q493.54376 39.903126 491.4969 39.903126Q489.8094 39.903126 488.91876 38.91875Q488.04376 37.934376 488.02814 36.0125L488.02814 29.1375L489.84064 29.1375L489.84064 35.965626Q489.84064 38.35625 491.79376 38.35625Q493.85626 38.35625 494.54376 36.825L494.54376 29.1375L496.35626 29.1375L496.35626 39.7L494.6375 39.7L494.59064 38.653126ZM501.02814 39.7L499.23126 39.7L499.23126 24.7L501.02814 24.7L501.02814 39.7ZM510.59064 39.7Q510.4344 39.3875 510.34064 38.590626Q509.075 39.903126 507.325 39.903126Q505.7625 39.903126 504.7625 39.0125Q503.7625 38.121876 503.7625 36.7625Q503.7625 35.121876 505.0125 34.215626Q506.27814 33.29375 508.54376 33.29375L510.3094 33.29375L510.3094 32.465626Q510.3094 31.5125 509.73126 30.95Q509.16876 30.3875 508.075 30.3875Q507.10626 30.3875 506.45 30.8875Q505.79376 31.371876 505.79376 32.059376L503.98126 32.059376Q503.98126 31.278126 504.54376 30.54375Q505.10626 29.79375 506.0594 29.371876Q507.02814 28.934376 508.1844 28.934376Q510.0125 28.934376 511.04376 29.85625Q512.075 30.7625 512.1219 32.371876L512.1219 37.23125Q512.1219 38.684376 512.48126 39.54375L512.48126 39.7L510.59064 39.7ZM507.59064 38.325Q508.45 38.325 509.2 37.8875Q509.96564 37.45 510.3094 36.746876L510.3094 34.575L508.8875 34.575Q505.575 34.575 505.575 36.5125Q505.575 37.371876 506.1375 37.85625Q506.7 38.325 507.59064 38.325ZM517.5125 26.575L517.5125 29.1375L519.4969 29.1375L519.4969 30.528126L517.5125 30.528126L517.5125 37.075Q517.5125 37.715626 517.77814 38.04375Q518.04376 38.35625 518.6844 38.35625Q518.9969 38.35625 519.54376 38.23125L519.54376 39.7Q518.825 39.903126 518.15314 39.903126Q516.95 39.903126 516.325 39.16875Q515.71564 38.434376 515.71564 37.075L515.71564 30.528126L513.79376 30.528126L513.79376 29.1375L515.71564 29.1375L515.71564 26.575L517.5125 26.575ZM524.02814 39.7L522.23126 39.7L522.23126 29.1375L524.02814 29.1375L524.02814 39.7ZM522.075 26.325Q522.075 25.8875 522.34064 25.590626Q522.6219 25.278126 523.1375 25.278126Q523.66876 25.278126 523.9344 25.590626Q524.21564 25.8875 524.21564 26.325Q524.21564 26.7625 523.9344 27.059376Q523.66876 27.35625 523.1375 27.35625Q522.6219 27.35625 522.34064 27.059376Q522.075 26.7625 522.075 26.325ZM526.59064 34.325Q526.59064 32.7625 527.2 31.528126Q527.8094 30.278126 528.8875 29.60625Q529.98126 28.934376 531.3875 28.934376Q533.54376 28.934376 534.8719 30.434376Q536.21564 31.91875 536.21564 34.403126L536.21564 34.528126Q536.21564 36.075 535.6219 37.309376Q535.02814 38.528126 533.91876 39.215626Q532.825 39.903126 531.40314 39.903126Q529.2625 39.903126 527.91876 38.403126Q526.59064 36.903126 526.59064 34.45L526.59064 34.325ZM528.40314 34.528126Q528.40314 36.29375 529.21564 37.35625Q530.04376 38.41875 531.40314 38.41875Q532.77814 38.41875 533.59064 37.340626Q534.40314 36.2625 534.40314 34.325Q534.40314 32.575 533.575 31.496876Q532.7469 30.41875 531.3875 30.41875Q530.04376 30.41875 529.21564 31.48125Q528.40314 32.54375 528.40314 34.528126ZM539.77814 29.1375L539.84064 30.465626Q541.04376 28.934376 542.9969 28.934376Q546.35626 28.934376 546.3719 32.715626L546.3719 39.7L544.575 39.7L544.575 32.7Q544.5594 31.559376 544.04376 31.0125Q543.54376 30.465626 542.45 30.465626Q541.575 30.465626 540.90314 30.934376Q540.2469 31.403126 539.8719 32.16875L539.8719 39.7L538.075 39.7L538.075 29.1375L539.77814 29.1375Z" fill-rule="nonzero"/></svg>