<svg version="1.1" viewBox="0.0 0.0 821.0 507.0" fill="none" stroke="none" stroke-linecap="square" stroke-miterlimit="10" width="821" height="507" xmlns:xlink="http://www.w3.org/1999/xlink" xmlns="http://www.w3.org/2000/svg"><path fill="#ffffff" d="M0 0L821.0 0L821.0 507.0L0 507.0L0 0Z" fill-rule="nonzero"/><path stroke="#cccccc" stroke-width="1.0" stroke-linecap="butt" d="M255.5 105.5L255.5 427.5" fill-rule="nonzero"/><path stroke="#cccccc" stroke-width="1.0" stroke-linecap="butt" d="M397.5 105.5L397.5 427.5" fill-rule="nonzero"/><path stroke="#cccccc" stroke-width="1.0" stroke-linecap="butt" d="M539.5 105.5L539.5 427.5" fill-rule="nonzero"/><path stroke="#cccccc" stroke-width="1.0" stroke-linecap="butt" d="M681.5 105.5L681.5 427.5" fill-rule="nonzero"/><path stroke="#333333" stroke-width="1.0" stroke-linecap="butt" d="M127.5 427.5L795.5 427.5" fill-rule="nonzero"/><path stroke="#cccccc" stroke-width="1.0" stroke-linecap="butt" d="M127.5 347.5L795.5 347.5" fill-rule="nonzero"/><path stroke="#cccccc" stroke-width="1.0" stroke-linecap="butt" d="M127.5 266.5L795.5 266.5" fill-rule="nonzero"/><path stroke="#cccccc" stroke-width="1.0" stroke-linecap="butt" d="M127.5 186.5L795.5 186.5" fill-rule="nonzero"/><path stroke="#cccccc" stroke-width="1.0" stroke-linecap="butt" d="M127.5 105.5L795.5 105.5" fill-rule="nonzero"/><clipPath id="id_0"><path d="M127.35 105.65L795.65 105.65L795.65 427.65L127.35 427.65L127.35 105.65Z" clip-rule="nonzero"/></clipPath><path stroke="#4285f4" stroke-width="2.0" stroke-linecap="butt" clip-path="url(#id_0)" d="M127.35 306.5578L141.56915 422.82727L170.00745 409.43274L226.88405 392.66214L283.76065 384.2127L340.63724 382.64255L454.3904 383.25052L568.1436 385.94556L681.8968 387.1274L795.65 385.18552" fill-rule="nonzero"/><path stroke="#db4437" stroke-width="2.0" stroke-linecap="butt" clip-path="url(#id_0)" d="M127.35 142.80988L141.56915 226.18532L170.00745 268.70026L226.88405 301.07993L283.76065 304.91104L340.63724 294.85883L454.3904 299.8542L568.1436 293.48334L681.8968 299.34393L795.65 293.21478" fill-rule="nonzero"/><path stroke="#f4b400" stroke-width="2.0" stroke-linecap="butt" clip-path="url(#id_0)" d="M127.35 299.70636L141.56915 395.61737L170.00745 410.6777L226.88405 419.61172L283.76065 421.6163L340.63724 423.31158L454.3904 425.00787L568.1436 425.6142L681.8968 425.973L795.65 426.11035" fill-rule="nonzero"/><path fill="#000000" fill-opacity="0.0" clip-path="url(#id_0)" d="M130.35 306.5578C130.35 308.21466 129.00685 309.5578 127.35 309.5578C125.693146 309.5578 124.35 308.21466 124.35 306.5578C124.35 304.90094 125.693146 303.5578 127.35 303.5578C129.00685 303.5578 130.35 304.90094 130.35 306.5578Z" fill-rule="nonzero"/><path fill="#000000" fill-opacity="0.0" clip-path="url(#id_0)" d="M144.56915 422.82727C144.56915 424.48413 143.226 425.82727 141.56915 425.82727C139.9123 425.82727 138.56915 424.48413 138.56915 422.82727C138.56915 421.1704 139.9123 419.82727 141.56915 419.82727C143.226 419.82727 144.56915 421.1704 144.56915 422.82727Z" fill-rule="nonzero"/><path fill="#000000" fill-opacity="0.0" clip-path="url(#id_0)" d="M173.00745 409.43274C173.00745 411.0896 171.6643 412.43274 170.00745 412.43274C168.35059 412.43274 167.00745 411.0896 167.00745 409.43274C167.00745 407.77588 168.35059 406.43274 170.00745 406.43274C171.6643 406.43274 173.00745 407.77588 173.00745 409.43274Z" fill-rule="nonzero"/><path fill="#000000" fill-opacity="0.0" clip-path="url(#id_0)" d="M229.88405 392.66214C229.88405 394.319 228.5409 395.66214 226.88405 395.66214C225.22719 395.66214 223.88405 394.319 223.88405 392.66214C223.88405 391.00528 225.22719 389.66214 226.88405 389.66214C228.5409 389.66214 229.88405 391.00528 229.88405 392.66214Z" fill-rule="nonzero"/><path fill="#000000" fill-opacity="0.0" clip-path="url(#id_0)" d="M286.76065 384.2127C286.76065 385.86957 285.41748 387.2127 283.76065 387.2127C282.1038 387.2127 280.76065 385.86957 280.76065 384.2127C280.76065 382.55585 282.1038 381.2127 283.76065 381.2127C285.41748 381.2127 286.76065 382.55585 286.76065 384.2127Z" fill-rule="nonzero"/><path fill="#000000" fill-opacity="0.0" clip-path="url(#id_0)" d="M343.63724 382.64255C343.63724 384.2994 342.2941 385.64255 340.63724 385.64255C338.98038 385.64255 337.63724 384.2994 337.63724 382.64255C337.63724 380.9857 338.98038 379.64255 340.63724 379.64255C342.2941 379.64255 343.63724 380.9857 343.63724 382.64255Z" fill-rule="nonzero"/><path fill="#000000" fill-opacity="0.0" clip-path="url(#id_0)" d="M457.3904 383.25052C457.3904 384.90738 456.04727 386.25052 454.3904 386.25052C452.73358 386.25052 451.3904 384.90738 451.3904 383.25052C451.3904 381.5937 452.73358 380.25052 454.3904 380.25052C456.04727 380.25052 457.3904 381.5937 457.3904 383.25052Z" fill-rule="nonzero"/><path fill="#000000" fill-opacity="0.0" clip-path="url(#id_0)" d="M571.1436 385.94556C571.1436 387.60242 569.8005 388.94556 568.1436 388.94556C566.48676 388.94556 565.1436 387.60242 565.1436 385.94556C565.1436 384.2887 566.48676 382.94556 568.1436 382.94556C569.8005 382.94556 571.1436 384.2887 571.1436 385.94556Z" fill-rule="nonzero"/><path fill="#000000" fill-opacity="0.0" clip-path="url(#id_0)" d="M684.8968 387.1274C684.8968 388.78427 683.55365 390.1274 681.8968 390.1274C680.2399 390.1274 678.8968 388.78427 678.8968 387.1274C678.8968 385.47058 680.2399 384.1274 681.8968 384.1274C683.55365 384.1274 684.8968 385.47058 684.8968 387.1274Z" fill-rule="nonzero"/><path fill="#000000" fill-opacity="0.0" clip-path="url(#id_0)" d="M798.65 385.18552C798.65 386.84238 797.3069 388.18552 795.65 388.18552C793.99316 388.18552 792.65 386.84238 792.65 385.18552C792.65 383.5287 793.99316 382.18552 795.65 382.18552C797.3069 382.18552 798.65 383.5287 798.65 385.18552Z" fill-rule="nonzero"/><path fill="#000000" fill-opacity="0.0" clip-path="url(#id_0)" d="M130.35 142.80988C130.35 144.46674 129.00685 145.80988 127.35 145.80988C125.693146 145.80988 124.35 144.46674 124.35 142.80988C124.35 141.15303 125.693146 139.80988 127.35 139.80988C129.00685 139.80988 130.35 141.15303 130.35 142.80988Z" fill-rule="nonzero"/><path fill="#000000" fill-opacity="0.0" clip-path="url(#id_0)" d="M144.56915 226.18532C144.56915 227.84218 143.226 229.18532 141.56915 229.18532C139.9123 229.18532 138.56915 227.84218 138.56915 226.18532C138.56915 224.52847 139.9123 223.18532 141.56915 223.18532C143.226 223.18532 144.56915 224.52847 144.56915 226.18532Z" fill-rule="nonzero"/><path fill="#000000" fill-opacity="0.0" clip-path="url(#id_0)" d="M173.00745 268.70026C173.00745 270.35712 171.6643 271.70026 170.00745 271.70026C168.35059 271.70026 167.00745 270.35712 167.00745 268.70026C167.00745 267.0434 168.35059 265.70026 170.00745 265.70026C171.6643 265.70026 173.00745 267.0434 173.00745 268.70026Z" fill-rule="nonzero"/><path fill="#000000" fill-opacity="0.0" clip-path="url(#id_0)" d="M229.88405 301.07993C229.88405 302.73676 228.5409 304.07993 226.88405 304.07993C225.22719 304.07993 223.88405 302.73676 223.88405 301.07993C223.88405 299.42307 225.22719 298.07993 226.88405 298.07993C228.5409 298.07993 229.88405 299.42307 229.88405 301.07993Z" fill-rule="nonzero"/><path fill="#000000" fill-opacity="0.0" clip-path="url(#id_0)" d="M286.76065 304.91104C286.76065 306.5679 285.41748 307.91104 283.76065 307.91104C282.1038 307.91104 280.76065 306.5679 280.76065 304.91104C280.76065 303.25418 282.1038 301.91104 283.76065 301.91104C285.41748 301.91104 286.76065 303.25418 286.76065 304.91104Z" fill-rule="nonzero"/><path fill="#000000" fill-opacity="0.0" clip-path="url(#id_0)" d="M343.63724 294.85883C343.63724 296.5157 342.2941 297.85883 340.63724 297.85883C338.98038 297.85883 337.63724 296.5157 337.63724 294.85883C337.63724 293.20197 338.98038 291.85883 340.63724 291.85883C342.2941 291.85883 343.63724 293.20197 343.63724 294.85883Z" fill-rule="nonzero"/><path fill="#000000" fill-opacity="0.0" clip-path="url(#id_0)" d="M457.3904 299.8542C457.3904 301.51105 456.04727 302.8542 454.3904 302.8542C452.73358 302.8542 451.3904 301.51105 451.3904 299.8542C451.3904 298.19736 452.73358 296.8542 454.3904 296.8542C456.04727 296.8542 457.3904 298.19736 457.3904 299.8542Z" fill-rule="nonzero"/><path fill="#000000" fill-opacity="0.0" clip-path="url(#id_0)" d="M571.1436 293.48334C571.1436 295.1402 569.8005 296.48334 568.1436 296.48334C566.48676 296.48334 565.1436 295.1402 565.1436 293.48334C565.1436 291.82648 566.48676 290.48334 568.1436 290.48334C569.8005 290.48334 571.1436 291.82648 571.1436 293.48334Z" fill-rule="nonzero"/><path fill="#000000" fill-opacity="0.0" clip-path="url(#id_0)" d="M684.8968 299.34393C684.8968 301.0008 683.55365 302.34393 681.8968 302.34393C680.2399 302.34393 678.8968 301.0008 678.8968 299.34393C678.8968 297.68707 680.2399 296.34393 681.8968 296.34393C683.55365 296.34393 684.8968 297.68707 684.8968 299.34393Z" fill-rule="nonzero"/><path fill="#000000" fill-opacity="0.0" clip-path="url(#id_0)" d="M798.65 293.21478C798.65 294.87164 797.3069 296.21478 795.65 296.21478C793.99316 296.21478 792.65 294.87164 792.65 293.21478C792.65 291.55792 793.99316 290.21478 795.65 290.21478C797.3069 290.21478 798.65 291.55792 798.65 293.21478Z" fill-rule="nonzero"/><path fill="#000000" fill-opacity="0.0" clip-path="url(#id_0)" d="M130.35 299.70636C130.35 301.36322 129.00685 302.70636 127.35 302.70636C125.693146 302.70636 124.35 301.36322 124.35 299.70636C124.35 298.04953 125.693146 296.70636 127.35 296.70636C129.00685 296.70636 130.35 298.04953 130.35 299.70636Z" fill-rule="nonzero"/><path fill="#000000" fill-opacity="0.0" clip-path="url(#id_0)" d="M144.56915 395.61737C144.56915 397.27423 143.226 398.61737 141.56915 398.61737C139.9123 398.61737 138.56915 397.27423 138.56915 395.61737C138.56915 393.96054 139.9123 392.61737 141.56915 392.61737C143.226 392.61737 144.56915 393.96054 144.56915 395.61737Z" fill-rule="nonzero"/><path fill="#000000" fill-opacity="0.0" clip-path="url(#id_0)" d="M173.00745 410.6777C173.00745 412.33456 171.6643 413.6777 170.00745 413.6777C168.35059 413.6777 167.00745 412.33456 167.00745 410.6777C167.00745 409.02084 168.35059 407.6777 170.00745 407.6777C171.6643 407.6777 173.00745 409.02084 173.00745 410.6777Z" fill-rule="nonzero"/><path fill="#000000" fill-opacity="0.0" clip-path="url(#id_0)" d="M229.88405 419.61172C229.88405 421.2686 228.5409 422.61172 226.88405 422.61172C225.22719 422.61172 223.88405 421.2686 223.88405 419.61172C223.88405 417.9549 225.22719 416.61172 226.88405 416.61172C228.5409 416.61172 229.88405 417.9549 229.88405 419.61172Z" fill-rule="nonzero"/><path fill="#000000" fill-opacity="0.0" clip-path="url(#id_0)" d="M286.76065 421.6163C286.76065 423.27316 285.41748 424.6163 283.76065 424.6163C282.1038 424.6163 280.76065 423.27316 280.76065 421.6163C280.76065 419.95944 282.1038 418.6163 283.76065 418.6163C285.41748 418.6163 286.76065 419.95944 286.76065 421.6163Z" fill-rule="nonzero"/><path fill="#000000" fill-opacity="0.0" clip-path="url(#id_0)" d="M343.63724 423.31158C343.63724 424.96844 342.2941 426.31158 340.63724 426.31158C338.98038 426.31158 337.63724 424.96844 337.63724 423.31158C337.63724 421.65475 338.98038 420.31158 340.63724 420.31158C342.2941 420.31158 343.63724 421.65475 343.63724 423.31158Z" fill-rule="nonzero"/><path fill="#000000" fill-opacity="0.0" clip-path="url(#id_0)" d="M457.3904 425.00787C457.3904 426.66473 456.04727 428.00787 454.3904 428.00787C452.73358 428.00787 451.3904 426.66473 451.3904 425.00787C451.3904 423.351 452.73358 422.00787 454.3904 422.00787C456.04727 422.00787 457.3904 423.351 457.3904 425.00787Z" fill-rule="nonzero"/><path fill="#000000" fill-opacity="0.0" clip-path="url(#id_0)" d="M571.1436 425.6142C571.1436 427.27106 569.8005 428.6142 568.1436 428.6142C566.48676 428.6142 565.1436 427.27106 565.1436 425.6142C565.1436 423.95734 566.48676 422.6142 568.1436 422.6142C569.8005 422.6142 571.1436 423.95734 571.1436 425.6142Z" fill-rule="nonzero"/><path fill="#000000" fill-opacity="0.0" clip-path="url(#id_0)" d="M684.8968 425.973C684.8968 427.62985 683.55365 428.973 681.8968 428.973C680.2399 428.973 678.8968 427.62985 678.8968 425.973C678.8968 424.31613 680.2399 422.973 681.8968 422.973C683.55365 422.973 684.8968 424.31613 684.8968 425.973Z" fill-rule="nonzero"/><path fill="#000000" fill-opacity="0.0" clip-path="url(#id_0)" d="M798.65 426.11035C798.65 427.7672 797.3069 429.11035 795.65 429.11035C793.99316 429.11035 792.65 427.7672 792.65 426.11035C792.65 424.45352 793.99316 423.11035 795.65 423.11035C797.3069 423.11035 798.65 424.45352 798.65 426.11035Z" fill-rule="nonzero"/><path fill="#424242" d="M437.84375 472.30624L437.875 473.10312Q438.60938 472.19687 439.78125 472.19687Q441.79688 472.19687 441.8125 474.4625L441.8125 478.65L440.71875 478.65L440.71875 474.44687Q440.71875 473.775 440.40625 473.44687Q440.10938 473.11874 439.45312 473.11874Q438.92188 473.11874 438.51562 473.4Q438.125 473.68124 437.90625 474.13437L437.90625 478.65L436.82812 478.65L436.82812 472.30624L437.84375 472.30624ZM448.29688 470.775L448.29688 472.30624L449.46875 472.30624L449.46875 473.15L448.29688 473.15L448.29688 477.07187Q448.29688 477.4625 448.45312 477.65Q448.60938 477.8375 448.98438 477.8375Q449.17188 477.8375 449.5 477.775L449.5 478.65Q449.07812 478.775 448.67188 478.775Q447.95312 478.775 447.57812 478.3375Q447.20312 477.88437 447.20312 477.07187L447.20312 473.15L446.04688 473.15L446.04688 472.30624L447.20312 472.30624L447.20312 470.775L448.29688 470.775ZM451.90625 473.07187Q452.625 472.19687 453.78125 472.19687Q455.79688 472.19687 455.8125 474.4625L455.8125 478.65L454.71875 478.65L454.71875 474.44687Q454.71875 473.775 454.40625 473.44687Q454.10938 473.11874 453.45312 473.11874Q452.92188 473.11874 452.51562 473.4Q452.125 473.68124 451.90625 474.13437L451.90625 478.65L450.82812 478.65L450.82812 469.65L451.90625 469.65L451.90625 473.07187ZM460.89062 473.275Q460.64062 473.24374 460.35938 473.24374Q459.28125 473.24374 458.90625 474.15L458.90625 478.65L457.82812 478.65L457.82812 472.30624L458.875 472.30624L458.89062 473.04062Q459.42188 472.19687 460.40625 472.19687Q460.71875 472.19687 460.89062 472.275L460.89062 473.275ZM464.45312 478.775Q463.15625 478.775 462.34375 477.93124Q461.54688 477.07187 461.54688 475.65L461.54688 475.4625Q461.54688 474.50937 461.90625 473.775Q462.26562 473.025 462.90625 472.61874Q463.5625 472.19687 464.3125 472.19687Q465.54688 472.19687 466.23438 473.00937Q466.92188 473.82187 466.92188 475.3375L466.92188 475.79062L462.625 475.79062Q462.65625 476.72812 463.17188 477.30624Q463.70312 477.88437 464.51562 477.88437Q465.07812 477.88437 465.46875 477.65Q465.875 477.41562 466.1875 477.025L466.84375 477.54062Q466.04688 478.775 464.45312 478.775ZM464.3125 473.0875Q463.65625 473.0875 463.20312 473.57187Q462.76562 474.04062 462.67188 474.9L465.84375 474.9L465.84375 474.82187Q465.79688 473.99374 465.39062 473.54062Q465.0 473.0875 464.3125 473.0875ZM471.73438 478.65Q471.64062 478.4625 471.57812 477.97812Q470.82812 478.775 469.78125 478.775Q468.84375 478.775 468.23438 478.24374Q467.64062 477.7125 467.64062 476.88437Q467.64062 475.9 468.39062 475.35312Q469.14062 474.80624 470.51562 474.80624L471.5625 474.80624L471.5625 474.30624Q471.5625 473.74374 471.21875 473.41562Q470.89062 473.07187 470.21875 473.07187Q469.64062 473.07187 469.25 473.36874Q468.85938 473.65 468.85938 474.07187L467.76562 474.07187Q467.76562 473.5875 468.09375 473.15Q468.4375 472.7125 469.01562 472.4625Q469.59375 472.19687 470.28125 472.19687Q471.39062 472.19687 472.0 472.74374Q472.625 473.29062 472.65625 474.24374L472.65625 477.16562Q472.65625 478.04062 472.875 478.55624L472.875 478.65L471.73438 478.65ZM469.9375 477.82187Q470.45312 477.82187 470.90625 477.55624Q471.35938 477.29062 471.5625 476.86874L471.5625 475.57187L470.71875 475.57187Q468.71875 475.57187 468.71875 476.74374Q468.71875 477.24374 469.0625 477.54062Q469.40625 477.82187 469.9375 477.82187ZM474.5625 475.43124Q474.5625 473.9625 475.25 473.0875Q475.9375 472.19687 477.0625 472.19687Q478.17188 472.19687 478.82812 472.94687L478.82812 469.65L479.90625 469.65L479.90625 478.65L478.90625 478.65L478.85938 477.9625Q478.20312 478.775 477.04688 478.775Q475.95312 478.775 475.25 477.86874Q474.5625 476.9625 474.5625 475.50937L474.5625 475.43124ZM475.64062 475.55624Q475.64062 476.63437 476.07812 477.24374Q476.53125 477.85312 477.3125 477.85312Q478.34375 477.85312 478.82812 476.91562L478.82812 474.00937Q478.34375 473.11874 477.32812 473.11874Q476.53125 473.11874 476.07812 473.72812Q475.64062 474.3375 475.64062 475.55624ZM485.51562 476.9625Q485.51562 476.525 485.17188 476.29062Q484.84375 476.04062 484.01562 475.86874Q483.20312 475.69687 482.71875 475.44687Q482.23438 475.19687 482.0 474.86874Q481.78125 474.525 481.78125 474.05624Q481.78125 473.275 482.4375 472.74374Q483.09375 472.19687 484.125 472.19687Q485.20312 472.19687 485.85938 472.75937Q486.53125 473.30624 486.53125 474.16562L485.45312 474.16562Q485.45312 473.72812 485.0625 473.41562Q484.6875 473.0875 484.125 473.0875Q483.53125 473.0875 483.1875 473.35312Q482.85938 473.60312 482.85938 474.00937Q482.85938 474.4 483.17188 474.60312Q483.48438 474.80624 484.29688 474.99374Q485.10938 475.16562 485.60938 475.41562Q486.10938 475.66562 486.34375 476.025Q486.59375 476.38437 486.59375 476.88437Q486.59375 477.74374 485.90625 478.25937Q485.23438 478.775 484.15625 478.775Q483.39062 478.775 482.79688 478.50937Q482.21875 478.22812 481.89062 477.74374Q481.5625 477.25937 481.5625 476.69687L482.64062 476.69687Q482.67188 477.24374 483.07812 477.57187Q483.48438 477.88437 484.15625 477.88437Q484.76562 477.88437 485.14062 477.63437Q485.51562 477.38437 485.51562 476.9625Z" fill-rule="nonzero"/><path fill="#424242" d="M36.724995 305.16562Q37.474995 305.79062 37.474995 307.025Q37.474995 308.04062 36.881245 308.57187Q36.287495 309.10312 35.131245 309.10312L31.006245 309.10312L31.006245 308.025L35.099995 308.025Q36.55312 308.025 36.55312 306.85312Q36.55312 305.60312 35.61562 305.19687L31.006245 305.19687L31.006245 304.10312L37.349995 304.10312L37.349995 305.13437L36.724995 305.16562ZM34.256245 296.72812Q35.693745 296.72812 36.58437 297.38437Q37.474995 298.04062 37.474995 299.18124Q37.474995 300.3375 36.74062 300.99374L39.787495 300.99374L39.787495 302.07187L31.006245 302.07187L31.006245 301.0875L31.70937 301.04062Q30.89687 300.36874 30.89687 299.19687Q30.89687 298.05624 31.756245 297.4Q32.61562 296.72812 34.14687 296.72812L34.256245 296.72812ZM34.131245 297.80624Q33.05312 297.80624 32.443745 298.275Q31.818745 298.72812 31.818745 299.525Q31.818745 300.50937 32.67812 300.99374L35.70937 300.99374Q36.58437 300.50937 36.58437 299.50937Q36.58437 298.72812 35.974995 298.275Q35.349995 297.80624 34.131245 297.80624ZM34.131245 295.3375Q32.662495 295.3375 31.787495 294.65Q30.89687 293.9625 30.89687 292.8375Q30.89687 291.72812 31.64687 291.07187L28.349995 291.07187L28.349995 289.99374L37.349995 289.99374L37.349995 290.99374L36.662495 291.04062Q37.474995 291.69687 37.474995 292.85312Q37.474995 293.94687 36.568745 294.65Q35.662495 295.3375 34.20937 295.3375L34.131245 295.3375ZM34.256245 294.25937Q35.33437 294.25937 35.943745 293.82187Q36.55312 293.36874 36.55312 292.5875Q36.55312 291.55624 35.61562 291.07187L32.70937 291.07187Q31.818745 291.55624 31.818745 292.57187Q31.818745 293.36874 32.42812 293.82187Q33.037495 294.25937 34.256245 294.25937ZM37.349995 284.16562Q37.162495 284.25937 36.67812 284.32187Q37.474995 285.07187 37.474995 286.11874Q37.474995 287.05624 36.943745 287.66562Q36.412495 288.25937 35.58437 288.25937Q34.599995 288.25937 34.05312 287.50937Q33.506245 286.75937 33.506245 285.38437L33.506245 284.3375L33.006245 284.3375Q32.443745 284.3375 32.11562 284.68124Q31.77187 285.00937 31.77187 285.68124Q31.77187 286.25937 32.068745 286.65Q32.349995 287.04062 32.77187 287.04062L32.77187 288.13437Q32.287495 288.13437 31.849995 287.80624Q31.412495 287.4625 31.162495 286.88437Q30.89687 286.30624 30.89687 285.61874Q30.89687 284.50937 31.443745 283.9Q31.99062 283.275 32.943745 283.24374L35.86562 283.24374Q36.74062 283.24374 37.256245 283.025L37.349995 283.025L37.349995 284.16562ZM36.52187 285.9625Q36.52187 285.44687 36.256245 284.99374Q35.99062 284.54062 35.568745 284.3375L34.27187 284.3375L34.27187 285.18124Q34.27187 287.18124 35.443745 287.18124Q35.943745 287.18124 36.24062 286.8375Q36.52187 286.49374 36.52187 285.9625ZM29.474995 279.60312L31.006245 279.60312L31.006245 278.43124L31.849995 278.43124L31.849995 279.60312L35.77187 279.60312Q36.162495 279.60312 36.349995 279.44687Q36.537495 279.29062 36.537495 278.91562Q36.537495 278.72812 36.474995 278.4L37.349995 278.4Q37.474995 278.82187 37.474995 279.22812Q37.474995 279.94687 37.037495 280.32187Q36.58437 280.69687 35.77187 280.69687L31.849995 280.69687L31.849995 281.85312L31.006245 281.85312L31.006245 280.69687L29.474995 280.69687L29.474995 279.60312ZM37.474995 274.44687Q37.474995 275.74374 36.631245 276.55624Q35.77187 277.35312 34.349995 277.35312L34.162495 277.35312Q33.20937 277.35312 32.474995 276.99374Q31.724995 276.63437 31.318745 275.99374Q30.89687 275.3375 30.89687 274.5875Q30.89687 273.35312 31.70937 272.66562Q32.52187 271.97812 34.037495 271.97812L34.49062 271.97812L34.49062 276.275Q35.42812 276.24374 36.006245 275.72812Q36.58437 275.19687 36.58437 274.38437Q36.58437 273.82187 36.349995 273.43124Q36.11562 273.025 35.724995 272.7125L36.24062 272.05624Q37.474995 272.85312 37.474995 274.44687ZM31.787495 274.5875Q31.787495 275.24374 32.27187 275.69687Q32.74062 276.13437 33.599995 276.22812L33.599995 273.05624L33.52187 273.05624Q32.693745 273.10312 32.24062 273.50937Q31.787495 273.9 31.787495 274.5875ZM35.662495 267.38437Q35.224995 267.38437 34.99062 267.72812Q34.74062 268.05624 34.568745 268.88437Q34.39687 269.69687 34.14687 270.18124Q33.89687 270.66562 33.568745 270.9Q33.224995 271.11874 32.756245 271.11874Q31.974995 271.11874 31.443745 270.4625Q30.89687 269.80624 30.89687 268.775Q30.89687 267.69687 31.45937 267.04062Q32.006245 266.36874 32.86562 266.36874L32.86562 267.44687Q32.42812 267.44687 32.11562 267.8375Q31.787495 268.2125 31.787495 268.775Q31.787495 269.36874 32.05312 269.7125Q32.30312 270.04062 32.70937 270.04062Q33.099995 270.04062 33.30312 269.72812Q33.506245 269.41562 33.693745 268.60312Q33.86562 267.79062 34.11562 267.29062Q34.36562 266.79062 34.724995 266.55624Q35.08437 266.30624 35.58437 266.30624Q36.443745 266.30624 36.95937 266.99374Q37.474995 267.66562 37.474995 268.74374Q37.474995 269.50937 37.20937 270.10312Q36.92812 270.68124 36.443745 271.00937Q35.95937 271.3375 35.39687 271.3375L35.39687 270.25937Q35.943745 270.22812 36.27187 269.82187Q36.58437 269.41562 36.58437 268.74374Q36.58437 268.13437 36.33437 267.75937Q36.08437 267.38437 35.662495 267.38437ZM38.08437 261.86874L38.08437 262.79062L28.818745 259.22812L28.818745 258.30624L38.08437 261.86874ZM35.662495 250.38437Q35.224995 250.38437 34.99062 250.72812Q34.74062 251.05624 34.568745 251.88437Q34.39687 252.69687 34.14687 253.18124Q33.89687 253.66562 33.568745 253.9Q33.224995 254.11874 32.756245 254.11874Q31.974995 254.11874 31.443745 253.4625Q30.89687 252.80624 30.89687 251.775Q30.89687 250.69687 31.45937 250.04062Q32.006245 249.36874 32.86562 249.36874L32.86562 250.44687Q32.42812 250.44687 32.11562 250.8375Q31.787495 251.2125 31.787495 251.775Q31.787495 252.36874 32.05312 252.7125Q32.30312 253.04062 32.70937 253.04062Q33.099995 253.04062 33.30312 252.72812Q33.506245 252.41562 33.693745 251.60312Q33.86562 250.79062 34.11562 250.29062Q34.36562 249.79062 34.724995 249.55624Q35.08437 249.30624 35.58437 249.30624Q36.443745 249.30624 36.95937 249.99374Q37.474995 250.66562 37.474995 251.74374Q37.474995 252.50937 37.20937 253.10312Q36.92812 253.68124 36.443745 254.00937Q35.95937 254.3375 35.39687 254.3375L35.39687 253.25937Q35.943745 253.22812 36.27187 252.82187Q36.58437 252.41562 36.58437 251.74374Q36.58437 251.13437 36.33437 250.75937Q36.08437 250.38437 35.662495 250.38437ZM37.474995 245.44687Q37.474995 246.74374 36.631245 247.55624Q35.77187 248.35312 34.349995 248.35312L34.162495 248.35312Q33.20937 248.35312 32.474995 247.99374Q31.724995 247.63437 31.318745 246.99374Q30.89687 246.3375 30.89687 245.5875Q30.89687 244.35312 31.70937 243.66562Q32.52187 242.97812 34.037495 242.97812L34.49062 242.97812L34.49062 247.275Q35.42812 247.24374 36.006245 246.72812Q36.58437 246.19687 36.58437 245.38437Q36.58437 244.82187 36.349995 244.43124Q36.11562 244.025 35.724995 243.7125L36.24062 243.05624Q37.474995 243.85312 37.474995 245.44687ZM31.787495 245.5875Q31.787495 246.24374 32.27187 246.69687Q32.74062 247.13437 33.599995 247.22812L33.599995 244.05624L33.52187 244.05624Q32.693745 244.10312 32.24062 244.50937Q31.787495 244.9 31.787495 245.5875ZM36.58437 239.54062Q36.58437 238.9625 36.24062 238.525Q35.881245 238.0875 35.349995 238.04062L35.349995 237.00937Q35.89687 237.04062 36.39687 237.4Q36.881245 237.74374 37.17812 238.32187Q37.474995 238.88437 37.474995 239.54062Q37.474995 240.8375 36.61562 241.60312Q35.74062 242.35312 34.24062 242.35312L34.05312 242.35312Q33.131245 242.35312 32.412495 242.025Q31.693745 241.68124 31.30312 241.05624Q30.89687 240.41562 30.89687 239.54062Q30.89687 238.47812 31.537495 237.775Q32.162495 237.05624 33.193745 237.00937L33.193745 238.04062Q32.568745 238.0875 32.17812 238.50937Q31.787495 238.93124 31.787495 239.54062Q31.787495 240.36874 32.381245 240.82187Q32.974995 241.275 34.099995 241.275L34.30312 241.275Q35.39687 241.275 35.99062 240.82187Q36.58437 240.36874 36.58437 239.54062Z" fill-rule="nonzero"/><path fill="#757575" d="M120.4125 428.50937Q120.4125 430.41562 119.75625 431.35312Q119.11562 432.275 117.725 432.275Q116.36562 432.275 115.70937 431.36874Q115.05312 430.4625 115.02187 428.65L115.02187 427.2125Q115.02187 425.32187 115.6625 424.41562Q116.31875 423.49374 117.70937 423.49374Q119.08437 423.49374 119.74062 424.38437Q120.39687 425.25937 120.4125 427.10312L120.4125 428.50937ZM119.31875 427.025Q119.31875 425.65 118.92812 425.025Q118.55312 424.38437 117.70937 424.38437Q116.88125 424.38437 116.49062 425.025Q116.11562 425.65 116.11562 426.94687L116.11562 428.68124Q116.11562 430.05624 116.50625 430.72812Q116.9125 431.38437 117.725 431.38437Q118.52187 431.38437 118.9125 430.75937Q119.30312 430.13437 119.31875 428.80624L119.31875 427.025Z" fill-rule="nonzero"/><path fill="#757575" d="M71.64687 351.65L66.05312 351.65L66.05312 350.86874L69.00625 347.5875Q69.6625 346.8375 69.9125 346.38437Q70.1625 345.91562 70.1625 345.41562Q70.1625 344.74374 69.75625 344.32187Q69.36562 343.88437 68.67812 343.88437Q67.88125 343.88437 67.42812 344.35312Q66.975 344.80624 66.975 345.63437L65.89687 345.63437Q65.89687 344.44687 66.64687 343.72812Q67.4125 342.99374 68.67812 342.99374Q69.88125 342.99374 70.56875 343.61874Q71.25625 344.24374 71.25625 345.29062Q71.25625 346.54062 69.64687 348.29062L67.36562 350.75937L71.64687 350.75937L71.64687 351.65ZM73.55312 347.36874L73.99062 343.11874L78.36562 343.11874L78.36562 344.11874L74.9125 344.11874L74.64687 346.44687Q75.2875 346.07187 76.08437 346.07187Q77.24062 346.07187 77.92812 346.85312Q78.61562 347.61874 78.61562 348.93124Q78.61562 350.24374 77.89687 351.00937Q77.19375 351.775 75.9125 351.775Q74.7875 351.775 74.06875 351.15Q73.35 350.50937 73.25625 349.4L74.27187 349.4Q74.38125 350.13437 74.80312 350.50937Q75.225 350.88437 75.9125 350.88437Q76.6625 350.88437 77.1 350.36874Q77.5375 349.85312 77.5375 348.94687Q77.5375 348.0875 77.06875 347.57187Q76.6 347.05624 75.81875 347.05624Q75.11562 347.05624 74.70937 347.35312L74.42812 347.5875L73.55312 347.36874ZM85.4125 348.00937Q85.4125 349.91562 84.75625 350.85312Q84.11562 351.775 82.725 351.775Q81.36562 351.775 80.70937 350.86874Q80.05312 349.9625 80.02187 348.15L80.02187 346.7125Q80.02187 344.82187 80.6625 343.91562Q81.31875 342.99374 82.70937 342.99374Q84.08437 342.99374 84.74062 343.88437Q85.39687 344.75937 85.4125 346.60312L85.4125 348.00937ZM84.31875 346.525Q84.31875 345.15 83.92812 344.525Q83.55312 343.88437 82.70937 343.88437Q81.88125 343.88437 81.49062 344.525Q81.11562 345.15 81.11562 346.44687L81.11562 348.18124Q81.11562 349.55624 81.50625 350.22812Q81.9125 350.88437 82.725 350.88437Q83.52187 350.88437 83.9125 350.25937Q84.30312 349.63437 84.31875 348.30624L84.31875 346.525ZM92.4125 348.00937Q92.4125 349.91562 91.75625 350.85312Q91.11562 351.775 89.725 351.775Q88.36562 351.775 87.70937 350.86874Q87.05312 349.9625 87.02187 348.15L87.02187 346.7125Q87.02187 344.82187 87.6625 343.91562Q88.31875 342.99374 89.70937 342.99374Q91.08437 342.99374 91.74062 343.88437Q92.39687 344.75937 92.4125 346.60312L92.4125 348.00937ZM91.31875 346.525Q91.31875 345.15 90.92812 344.525Q90.55312 343.88437 89.70937 343.88437Q88.88125 343.88437 88.49062 344.525Q88.11562 345.15 88.11562 346.44687L88.11562 348.18124Q88.11562 349.55624 88.50625 350.22812Q88.9125 350.88437 89.725 350.88437Q90.52187 350.88437 90.9125 350.25937Q91.30312 349.63437 91.31875 348.30624L91.31875 346.525ZM99.4125 348.00937Q99.4125 349.91562 98.75625 350.85312Q98.11562 351.775 96.725 351.775Q95.36562 351.775 94.70937 350.86874Q94.05312 349.9625 94.02187 348.15L94.02187 346.7125Q94.02187 344.82187 94.6625 343.91562Q95.31875 342.99374 96.70937 342.99374Q98.08437 342.99374 98.74062 343.88437Q99.39687 344.75937 99.4125 346.60312L99.4125 348.00937ZM98.31875 346.525Q98.31875 345.15 97.92812 344.525Q97.55312 343.88437 96.70937 343.88437Q95.88125 343.88437 95.49062 344.525Q95.11562 345.15 95.11562 346.44687L95.11562 348.18124Q95.11562 349.55624 95.50625 350.22812Q95.9125 350.88437 96.725 350.88437Q97.52187 350.88437 97.9125 350.25937Q98.30312 349.63437 98.31875 348.30624L98.31875 346.525ZM106.4125 348.00937Q106.4125 349.91562 105.75625 350.85312Q105.11562 351.775 103.725 351.775Q102.36562 351.775 101.70937 350.86874Q101.05312 349.9625 101.02187 348.15L101.02187 346.7125Q101.02187 344.82187 101.6625 343.91562Q102.31875 342.99374 103.70937 342.99374Q105.08437 342.99374 105.74062 343.88437Q106.39687 344.75937 106.4125 346.60312L106.4125 348.00937ZM105.31875 346.525Q105.31875 345.15 104.92812 344.525Q104.55312 343.88437 103.70937 343.88437Q102.88125 343.88437 102.49062 344.525Q102.11562 345.15 102.11562 346.44687L102.11562 348.18124Q102.11562 349.55624 102.50625 350.22812Q102.9125 350.88437 103.725 350.88437Q104.52187 350.88437 104.9125 350.25937Q105.30312 349.63437 105.31875 348.30624L105.31875 346.525ZM113.4125 348.00937Q113.4125 349.91562 112.75625 350.85312Q112.11562 351.775 110.725 351.775Q109.36562 351.775 108.70937 350.86874Q108.05312 349.9625 108.02187 348.15L108.02187 346.7125Q108.02187 344.82187 108.6625 343.91562Q109.31875 342.99374 110.70937 342.99374Q112.08437 342.99374 112.74062 343.88437Q113.39687 344.75937 113.4125 346.60312L113.4125 348.00937ZM112.31875 346.525Q112.31875 345.15 111.92812 344.525Q111.55312 343.88437 110.70937 343.88437Q109.88125 343.88437 109.49062 344.525Q109.11562 345.15 109.11562 346.44687L109.11562 348.18124Q109.11562 349.55624 109.50625 350.22812Q109.9125 350.88437 110.725 350.88437Q111.52187 350.88437 111.9125 350.25937Q112.30312 349.63437 112.31875 348.30624L112.31875 346.525ZM120.4125 348.00937Q120.4125 349.91562 119.75625 350.85312Q119.11562 351.775 117.725 351.775Q116.36562 351.775 115.70937 350.86874Q115.05312 349.9625 115.02187 348.15L115.02187 346.7125Q115.02187 344.82187 115.6625 343.91562Q116.31875 342.99374 117.70937 342.99374Q119.08437 342.99374 119.74062 343.88437Q120.39687 344.75937 120.4125 346.60312L120.4125 348.00937ZM119.31875 346.525Q119.31875 345.15 118.92812 344.525Q118.55312 343.88437 117.70937 343.88437Q116.88125 343.88437 116.49062 344.525Q116.11562 345.15 116.11562 346.44687L116.11562 348.18124Q116.11562 349.55624 116.50625 350.22812Q116.9125 350.88437 117.725 350.88437Q118.52187 350.88437 118.9125 350.25937Q119.30312 349.63437 119.31875 348.30624L119.31875 346.525Z" fill-rule="nonzero"/><path fill="#757575" d="M66.55312 266.86874L66.99062 262.61874L71.36562 262.61874L71.36562 263.61874L67.9125 263.61874L67.64687 265.94687Q68.2875 265.57187 69.08437 265.57187Q70.24062 265.57187 70.92812 266.35312Q71.61562 267.11874 71.61562 268.43124Q71.61562 269.74374 70.89687 270.50937Q70.19375 271.275 68.9125 271.275Q67.7875 271.275 67.06875 270.65Q66.35 270.00937 66.25625 268.9L67.27187 268.9Q67.38125 269.63437 67.80312 270.00937Q68.225 270.38437 68.9125 270.38437Q69.6625 270.38437 70.1 269.86874Q70.5375 269.35312 70.5375 268.44687Q70.5375 267.5875 70.06875 267.07187Q69.6 266.55624 68.81875 266.55624Q68.11562 266.55624 67.70937 266.85312L67.42812 267.0875L66.55312 266.86874ZM78.4125 267.50937Q78.4125 269.41562 77.75625 270.35312Q77.11562 271.275 75.725 271.275Q74.36562 271.275 73.70937 270.36874Q73.05312 269.4625 73.02187 267.65L73.02187 266.2125Q73.02187 264.32187 73.6625 263.41562Q74.31875 262.49374 75.70937 262.49374Q77.08437 262.49374 77.74062 263.38437Q78.39687 264.25937 78.4125 266.10312L78.4125 267.50937ZM77.31875 266.025Q77.31875 264.65 76.92812 264.025Q76.55312 263.38437 75.70937 263.38437Q74.88125 263.38437 74.49062 264.025Q74.11562 264.65 74.11562 265.94687L74.11562 267.68124Q74.11562 269.05624 74.50625 269.72812Q74.9125 270.38437 75.725 270.38437Q76.52187 270.38437 76.9125 269.75937Q77.30312 269.13437 77.31875 267.80624L77.31875 266.025ZM85.4125 267.50937Q85.4125 269.41562 84.75625 270.35312Q84.11562 271.275 82.725 271.275Q81.36562 271.275 80.70937 270.36874Q80.05312 269.4625 80.02187 267.65L80.02187 266.2125Q80.02187 264.32187 80.6625 263.41562Q81.31875 262.49374 82.70937 262.49374Q84.08437 262.49374 84.74062 263.38437Q85.39687 264.25937 85.4125 266.10312L85.4125 267.50937ZM84.31875 266.025Q84.31875 264.65 83.92812 264.025Q83.55312 263.38437 82.70937 263.38437Q81.88125 263.38437 81.49062 264.025Q81.11562 264.65 81.11562 265.94687L81.11562 267.68124Q81.11562 269.05624 81.50625 269.72812Q81.9125 270.38437 82.725 270.38437Q83.52187 270.38437 83.9125 269.75937Q84.30312 269.13437 84.31875 267.80624L84.31875 266.025ZM92.4125 267.50937Q92.4125 269.41562 91.75625 270.35312Q91.11562 271.275 89.725 271.275Q88.36562 271.275 87.70937 270.36874Q87.05312 269.4625 87.02187 267.65L87.02187 266.2125Q87.02187 264.32187 87.6625 263.41562Q88.31875 262.49374 89.70937 262.49374Q91.08437 262.49374 91.74062 263.38437Q92.39687 264.25937 92.4125 266.10312L92.4125 267.50937ZM91.31875 266.025Q91.31875 264.65 90.92812 264.025Q90.55312 263.38437 89.70937 263.38437Q88.88125 263.38437 88.49062 264.025Q88.11562 264.65 88.11562 265.94687L88.11562 267.68124Q88.11562 269.05624 88.50625 269.72812Q88.9125 270.38437 89.725 270.38437Q90.52187 270.38437 90.9125 269.75937Q91.30312 269.13437 91.31875 267.80624L91.31875 266.025ZM99.4125 267.50937Q99.4125 269.41562 98.75625 270.35312Q98.11562 271.275 96.725 271.275Q95.36562 271.275 94.70937 270.36874Q94.05312 269.4625 94.02187 267.65L94.02187 266.2125Q94.02187 264.32187 94.6625 263.41562Q95.31875 262.49374 96.70937 262.49374Q98.08437 262.49374 98.74062 263.38437Q99.39687 264.25937 99.4125 266.10312L99.4125 267.50937ZM98.31875 266.025Q98.31875 264.65 97.92812 264.025Q97.55312 263.38437 96.70937 263.38437Q95.88125 263.38437 95.49062 264.025Q95.11562 264.65 95.11562 265.94687L95.11562 267.68124Q95.11562 269.05624 95.50625 269.72812Q95.9125 270.38437 96.725 270.38437Q97.52187 270.38437 97.9125 269.75937Q98.30312 269.13437 98.31875 267.80624L98.31875 266.025ZM106.4125 267.50937Q106.4125 269.41562 105.75625 270.35312Q105.11562 271.275 103.725 271.275Q102.36562 271.275 101.70937 270.36874Q101.05312 269.4625 101.02187 267.65L101.02187 266.2125Q101.02187 264.32187 101.6625 263.41562Q102.31875 262.49374 103.70937 262.49374Q105.08437 262.49374 105.74062 263.38437Q106.39687 264.25937 106.4125 266.10312L106.4125 267.50937ZM105.31875 266.025Q105.31875 264.65 104.92812 264.025Q104.55312 263.38437 103.70937 263.38437Q102.88125 263.38437 102.49062 264.025Q102.11562 264.65 102.11562 265.94687L102.11562 267.68124Q102.11562 269.05624 102.50625 269.72812Q102.9125 270.38437 103.725 270.38437Q104.52187 270.38437 104.9125 269.75937Q105.30312 269.13437 105.31875 267.80624L105.31875 266.025ZM113.4125 267.50937Q113.4125 269.41562 112.75625 270.35312Q112.11562 271.275 110.725 271.275Q109.36562 271.275 108.70937 270.36874Q108.05312 269.4625 108.02187 267.65L108.02187 266.2125Q108.02187 264.32187 108.6625 263.41562Q109.31875 262.49374 110.70937 262.49374Q112.08437 262.49374 112.74062 263.38437Q113.39687 264.25937 113.4125 266.10312L113.4125 267.50937ZM112.31875 266.025Q112.31875 264.65 111.92812 264.025Q111.55312 263.38437 110.70937 263.38437Q109.88125 263.38437 109.49062 264.025Q109.11562 264.65 109.11562 265.94687L109.11562 267.68124Q109.11562 269.05624 109.50625 269.72812Q109.9125 270.38437 110.725 270.38437Q111.52187 270.38437 111.9125 269.75937Q112.30312 269.13437 112.31875 267.80624L112.31875 266.025ZM120.4125 267.50937Q120.4125 269.41562 119.75625 270.35312Q119.11562 271.275 117.725 271.275Q116.36562 271.275 115.70937 270.36874Q115.05312 269.4625 115.02187 267.65L115.02187 266.2125Q115.02187 264.32187 115.6625 263.41562Q116.31875 262.49374 117.70937 262.49374Q119.08437 262.49374 119.74062 263.38437Q120.39687 264.25937 120.4125 266.10312L120.4125 267.50937ZM119.31875 266.025Q119.31875 264.65 118.92812 264.025Q118.55312 263.38437 117.70937 263.38437Q116.88125 263.38437 116.49062 264.025Q116.11562 264.65 116.11562 265.94687L116.11562 267.68124Q116.11562 269.05624 116.50625 269.72812Q116.9125 270.38437 117.725 270.38437Q118.52187 270.38437 118.9125 269.75937Q119.30312 269.13437 119.31875 267.80624L119.31875 266.025Z" fill-rule="nonzero"/><path fill="#757575" d="M71.56875 182.72812L68.0375 190.65L66.89687 190.65L70.4125 183.00937L65.80312 183.00937L65.80312 182.11874L71.56875 182.11874L71.56875 182.72812ZM73.55312 186.36874L73.99062 182.11874L78.36562 182.11874L78.36562 183.11874L74.9125 183.11874L74.64687 185.44687Q75.2875 185.07187 76.08437 185.07187Q77.24062 185.07187 77.92812 185.85312Q78.61562 186.61874 78.61562 187.93124Q78.61562 189.24374 77.89687 190.00937Q77.19375 190.775 75.9125 190.775Q74.7875 190.775 74.06875 190.15Q73.35 189.50937 73.25625 188.4L74.27187 188.4Q74.38125 189.13437 74.80312 189.50937Q75.225 189.88437 75.9125 189.88437Q76.6625 189.88437 77.1 189.36874Q77.5375 188.85312 77.5375 187.94687Q77.5375 187.0875 77.06875 186.57187Q76.6 186.05624 75.81875 186.05624Q75.11562 186.05624 74.70937 186.35312L74.42812 186.5875L73.55312 186.36874ZM85.4125 187.00937Q85.4125 188.91562 84.75625 189.85312Q84.11562 190.775 82.725 190.775Q81.36562 190.775 80.70937 189.86874Q80.05312 188.9625 80.02187 187.15L80.02187 185.7125Q80.02187 183.82187 80.6625 182.91562Q81.31875 181.99374 82.70937 181.99374Q84.08437 181.99374 84.74062 182.88437Q85.39687 183.75937 85.4125 185.60312L85.4125 187.00937ZM84.31875 185.525Q84.31875 184.15 83.92812 183.525Q83.55312 182.88437 82.70937 182.88437Q81.88125 182.88437 81.49062 183.525Q81.11562 184.15 81.11562 185.44687L81.11562 187.18124Q81.11562 188.55624 81.50625 189.22812Q81.9125 189.88437 82.725 189.88437Q83.52187 189.88437 83.9125 189.25937Q84.30312 188.63437 84.31875 187.30624L84.31875 185.525ZM92.4125 187.00937Q92.4125 188.91562 91.75625 189.85312Q91.11562 190.775 89.725 190.775Q88.36562 190.775 87.70937 189.86874Q87.05312 188.9625 87.02187 187.15L87.02187 185.7125Q87.02187 183.82187 87.6625 182.91562Q88.31875 181.99374 89.70937 181.99374Q91.08437 181.99374 91.74062 182.88437Q92.39687 183.75937 92.4125 185.60312L92.4125 187.00937ZM91.31875 185.525Q91.31875 184.15 90.92812 183.525Q90.55312 182.88437 89.70937 182.88437Q88.88125 182.88437 88.49062 183.525Q88.11562 184.15 88.11562 185.44687L88.11562 187.18124Q88.11562 188.55624 88.50625 189.22812Q88.9125 189.88437 89.725 189.88437Q90.52187 189.88437 90.9125 189.25937Q91.30312 188.63437 91.31875 187.30624L91.31875 185.525ZM99.4125 187.00937Q99.4125 188.91562 98.75625 189.85312Q98.11562 190.775 96.725 190.775Q95.36562 190.775 94.70937 189.86874Q94.05312 188.9625 94.02187 187.15L94.02187 185.7125Q94.02187 183.82187 94.6625 182.91562Q95.31875 181.99374 96.70937 181.99374Q98.08437 181.99374 98.74062 182.88437Q99.39687 183.75937 99.4125 185.60312L99.4125 187.00937ZM98.31875 185.525Q98.31875 184.15 97.92812 183.525Q97.55312 182.88437 96.70937 182.88437Q95.88125 182.88437 95.49062 183.525Q95.11562 184.15 95.11562 185.44687L95.11562 187.18124Q95.11562 188.55624 95.50625 189.22812Q95.9125 189.88437 96.725 189.88437Q97.52187 189.88437 97.9125 189.25937Q98.30312 188.63437 98.31875 187.30624L98.31875 185.525ZM106.4125 187.00937Q106.4125 188.91562 105.75625 189.85312Q105.11562 190.775 103.725 190.775Q102.36562 190.775 101.70937 189.86874Q101.05312 188.9625 101.02187 187.15L101.02187 185.7125Q101.02187 183.82187 101.6625 182.91562Q102.31875 181.99374 103.70937 181.99374Q105.08437 181.99374 105.74062 182.88437Q106.39687 183.75937 106.4125 185.60312L106.4125 187.00937ZM105.31875 185.525Q105.31875 184.15 104.92812 183.525Q104.55312 182.88437 103.70937 182.88437Q102.88125 182.88437 102.49062 183.525Q102.11562 184.15 102.11562 185.44687L102.11562 187.18124Q102.11562 188.55624 102.50625 189.22812Q102.9125 189.88437 103.725 189.88437Q104.52187 189.88437 104.9125 189.25937Q105.30312 188.63437 105.31875 187.30624L105.31875 185.525ZM113.4125 187.00937Q113.4125 188.91562 112.75625 189.85312Q112.11562 190.775 110.725 190.775Q109.36562 190.775 108.70937 189.86874Q108.05312 188.9625 108.02187 187.15L108.02187 185.7125Q108.02187 183.82187 108.6625 182.91562Q109.31875 181.99374 110.70937 181.99374Q112.08437 181.99374 112.74062 182.88437Q113.39687 183.75937 113.4125 185.60312L113.4125 187.00937ZM112.31875 185.525Q112.31875 184.15 111.92812 183.525Q111.55312 182.88437 110.70937 182.88437Q109.88125 182.88437 109.49062 183.525Q109.11562 184.15 109.11562 185.44687L109.11562 187.18124Q109.11562 188.55624 109.50625 189.22812Q109.9125 189.88437 110.725 189.88437Q111.52187 189.88437 111.9125 189.25937Q112.30312 188.63437 112.31875 187.30624L112.31875 185.525ZM120.4125 187.00937Q120.4125 188.91562 119.75625 189.85312Q119.11562 190.775 117.725 190.775Q116.36562 190.775 115.70937 189.86874Q115.05312 188.9625 115.02187 187.15L115.02187 185.7125Q115.02187 183.82187 115.6625 182.91562Q116.31875 181.99374 117.70937 181.99374Q119.08437 181.99374 119.74062 182.88437Q120.39687 183.75937 120.4125 185.60312L120.4125 187.00937ZM119.31875 185.525Q119.31875 184.15 118.92812 183.525Q118.55312 182.88437 117.70937 182.88437Q116.88125 182.88437 116.49062 183.525Q116.11562 184.15 116.11562 185.44687L116.11562 187.18124Q116.11562 188.55624 116.50625 189.22812Q116.9125 189.88437 117.725 189.88437Q118.52187 189.88437 118.9125 189.25937Q119.30312 188.63437 119.31875 187.30624L119.31875 185.525Z" fill-rule="nonzero"/><path fill="#757575" d="M62.615623 110.15L61.5375 110.15L61.5375 102.93125L59.35 103.72813L59.35 102.74375L62.459373 101.57188L62.615623 101.57188L62.615623 110.15ZM71.4125 106.50938Q71.4125 108.41563 70.75625 109.35313Q70.11562 110.275 68.725 110.275Q67.36562 110.275 66.70937 109.36875Q66.05312 108.4625 66.02187 106.65L66.02187 105.2125Q66.02187 103.32188 66.6625 102.41563Q67.31875 101.49375 68.70937 101.49375Q70.08437 101.49375 70.74062 102.38438Q71.39687 103.25938 71.4125 105.10313L71.4125 106.50938ZM70.31875 105.025Q70.31875 103.65 69.92812 103.025Q69.55312 102.38438 68.70937 102.38438Q67.88125 102.38438 67.49062 103.025Q67.11562 103.65 67.11562 104.94688L67.11562 106.68125Q67.11562 108.05625 67.50625 108.72813Q67.9125 109.38438 68.725 109.38438Q69.52187 109.38438 69.9125 108.75938Q70.30312 108.13438 70.31875 106.80625L70.31875 105.025ZM78.4125 106.50938Q78.4125 108.41563 77.75625 109.35313Q77.11562 110.275 75.725 110.275Q74.36562 110.275 73.70937 109.36875Q73.05312 108.4625 73.02187 106.65L73.02187 105.2125Q73.02187 103.32188 73.6625 102.41563Q74.31875 101.49375 75.70937 101.49375Q77.08437 101.49375 77.74062 102.38438Q78.39687 103.25938 78.4125 105.10313L78.4125 106.50938ZM77.31875 105.025Q77.31875 103.65 76.92812 103.025Q76.55312 102.38438 75.70937 102.38438Q74.88125 102.38438 74.49062 103.025Q74.11562 103.65 74.11562 104.94688L74.11562 106.68125Q74.11562 108.05625 74.50625 108.72813Q74.9125 109.38438 75.725 109.38438Q76.52187 109.38438 76.9125 108.75938Q77.30312 108.13438 77.31875 106.80625L77.31875 105.025ZM85.4125 106.50938Q85.4125 108.41563 84.75625 109.35313Q84.11562 110.275 82.725 110.275Q81.36562 110.275 80.70937 109.36875Q80.05312 108.4625 80.02187 106.65L80.02187 105.2125Q80.02187 103.32188 80.6625 102.41563Q81.31875 101.49375 82.70937 101.49375Q84.08437 101.49375 84.74062 102.38438Q85.39687 103.25938 85.4125 105.10313L85.4125 106.50938ZM84.31875 105.025Q84.31875 103.65 83.92812 103.025Q83.55312 102.38438 82.70937 102.38438Q81.88125 102.38438 81.49062 103.025Q81.11562 103.65 81.11562 104.94688L81.11562 106.68125Q81.11562 108.05625 81.50625 108.72813Q81.9125 109.38438 82.725 109.38438Q83.52187 109.38438 83.9125 108.75938Q84.30312 108.13438 84.31875 106.80625L84.31875 105.025ZM92.4125 106.50938Q92.4125 108.41563 91.75625 109.35313Q91.11562 110.275 89.725 110.275Q88.36562 110.275 87.70937 109.36875Q87.05312 108.4625 87.02187 106.65L87.02187 105.2125Q87.02187 103.32188 87.6625 102.41563Q88.31875 101.49375 89.70937 101.49375Q91.08437 101.49375 91.74062 102.38438Q92.39687 103.25938 92.4125 105.10313L92.4125 106.50938ZM91.31875 105.025Q91.31875 103.65 90.92812 103.025Q90.55312 102.38438 89.70937 102.38438Q88.88125 102.38438 88.49062 103.025Q88.11562 103.65 88.11562 104.94688L88.11562 106.68125Q88.11562 108.05625 88.50625 108.72813Q88.9125 109.38438 89.725 109.38438Q90.52187 109.38438 90.9125 108.75938Q91.30312 108.13438 91.31875 106.80625L91.31875 105.025ZM99.4125 106.50938Q99.4125 108.41563 98.75625 109.35313Q98.11562 110.275 96.725 110.275Q95.36562 110.275 94.70937 109.36875Q94.05312 108.4625 94.02187 106.65L94.02187 105.2125Q94.02187 103.32188 94.6625 102.41563Q95.31875 101.49375 96.70937 101.49375Q98.08437 101.49375 98.74062 102.38438Q99.39687 103.25938 99.4125 105.10313L99.4125 106.50938ZM98.31875 105.025Q98.31875 103.65 97.92812 103.025Q97.55312 102.38438 96.70937 102.38438Q95.88125 102.38438 95.49062 103.025Q95.11562 103.65 95.11562 104.94688L95.11562 106.68125Q95.11562 108.05625 95.50625 108.72813Q95.9125 109.38438 96.725 109.38438Q97.52187 109.38438 97.9125 108.75938Q98.30312 108.13438 98.31875 106.80625L98.31875 105.025ZM106.4125 106.50938Q106.4125 108.41563 105.75625 109.35313Q105.11562 110.275 103.725 110.275Q102.36562 110.275 101.70937 109.36875Q101.05312 108.4625 101.02187 106.65L101.02187 105.2125Q101.02187 103.32188 101.6625 102.41563Q102.31875 101.49375 103.70937 101.49375Q105.08437 101.49375 105.74062 102.38438Q106.39687 103.25938 106.4125 105.10313L106.4125 106.50938ZM105.31875 105.025Q105.31875 103.65 104.92812 103.025Q104.55312 102.38438 103.70937 102.38438Q102.88125 102.38438 102.49062 103.025Q102.11562 103.65 102.11562 104.94688L102.11562 106.68125Q102.11562 108.05625 102.50625 108.72813Q102.9125 109.38438 103.725 109.38438Q104.52187 109.38438 104.9125 108.75938Q105.30312 108.13438 105.31875 106.80625L105.31875 105.025ZM113.4125 106.50938Q113.4125 108.41563 112.75625 109.35313Q112.11562 110.275 110.725 110.275Q109.36562 110.275 108.70937 109.36875Q108.05312 108.4625 108.02187 106.65L108.02187 105.2125Q108.02187 103.32188 108.6625 102.41563Q109.31875 101.49375 110.70937 101.49375Q112.08437 101.49375 112.74062 102.38438Q113.39687 103.25938 113.4125 105.10313L113.4125 106.50938ZM112.31875 105.025Q112.31875 103.65 111.92812 103.025Q111.55312 102.38438 110.70937 102.38438Q109.88125 102.38438 109.49062 103.025Q109.11562 103.65 109.11562 104.94688L109.11562 106.68125Q109.11562 108.05625 109.50625 108.72813Q109.9125 109.38438 110.725 109.38438Q111.52187 109.38438 111.9125 108.75938Q112.30312 108.13438 112.31875 106.80625L112.31875 105.025ZM120.4125 106.50938Q120.4125 108.41563 119.75625 109.35313Q119.11562 110.275 117.725 110.275Q116.36562 110.275 115.70937 109.36875Q115.05312 108.4625 115.02187 106.65L115.02187 105.2125Q115.02187 103.32188 115.6625 102.41563Q116.31875 101.49375 117.70937 101.49375Q119.08437 101.49375 119.74062 102.38438Q120.39687 103.25938 120.4125 105.10313L120.4125 106.50938ZM119.31875 105.025Q119.31875 103.65 118.92812 103.025Q118.55312 102.38438 117.70937 102.38438Q116.88125 102.38438 116.49062 103.025Q116.11562 103.65 116.11562 104.94688L116.11562 106.68125Q116.11562 108.05625 116.50625 108.72813Q116.9125 109.38438 117.725 109.38438Q118.52187 109.38438 118.9125 108.75938Q119.30312 108.13438 119.31875 106.80625L119.31875 105.025Z" fill-rule="nonzero"/><path fill="#757575" d="M252.58797 445.65L251.50984 445.65L251.50984 438.43124L249.32234 439.22812L249.32234 438.24374L252.43172 437.07187L252.58797 437.07187L252.58797 445.65ZM261.38483 442.00937Q261.38483 443.91562 260.72858 444.85312Q260.08795 445.775 258.69733 445.775Q257.33795 445.775 256.6817 444.86874Q256.02545 443.9625 255.99422 442.15L255.99422 440.7125Q255.99422 438.82187 256.63483 437.91562Q257.29108 436.99374 258.6817 436.99374Q260.0567 436.99374 260.71295 437.88437Q261.3692 438.75937 261.38483 440.60312L261.38483 442.00937ZM260.29108 440.525Q260.29108 439.15 259.90045 438.525Q259.52545 437.88437 258.6817 437.88437Q257.85358 437.88437 257.46295 438.525Q257.08795 439.15 257.08795 440.44687L257.08795 442.18124Q257.08795 443.55624 257.47858 444.22812Q257.88483 444.88437 258.69733 444.88437Q259.4942 444.88437 259.88483 444.25937Q260.27545 443.63437 260.29108 442.30624L260.29108 440.525Z" fill-rule="nonzero"/><path fill="#757575" d="M396.8107 445.65L391.21695 445.65L391.21695 444.86874L394.17007 441.5875Q394.82632 440.8375 395.07632 440.38437Q395.32632 439.91562 395.32632 439.41562Q395.32632 438.74374 394.92007 438.32187Q394.52945 437.88437 393.84195 437.88437Q393.04507 437.88437 392.59195 438.35312Q392.13882 438.80624 392.13882 439.63437L391.0607 439.63437Q391.0607 438.44687 391.8107 437.72812Q392.57632 436.99374 393.84195 436.99374Q395.04507 436.99374 395.73257 437.61874Q396.42007 438.24374 396.42007 439.29062Q396.42007 440.54062 394.8107 442.29062L392.52945 444.75937L396.8107 444.75937L396.8107 445.65ZM403.57632 442.00937Q403.57632 443.91562 402.92007 444.85312Q402.27945 445.775 400.88882 445.775Q399.52945 445.775 398.8732 444.86874Q398.21695 443.9625 398.1857 442.15L398.1857 440.7125Q398.1857 438.82187 398.82632 437.91562Q399.48257 436.99374 400.8732 436.99374Q402.2482 436.99374 402.90445 437.88437Q403.5607 438.75937 403.57632 440.60312L403.57632 442.00937ZM402.48257 440.525Q402.48257 439.15 402.09195 438.525Q401.71695 437.88437 400.8732 437.88437Q400.04507 437.88437 399.65445 438.525Q399.27945 439.15 399.27945 440.44687L399.27945 442.18124Q399.27945 443.55624 399.67007 444.22812Q400.07632 444.88437 400.88882 444.88437Q401.6857 444.88437 402.07632 444.25937Q402.46695 443.63437 402.48257 442.30624L402.48257 440.525Z" fill-rule="nonzero"/><path fill="#757575" d="M534.9866 440.85312L535.7991 440.85312Q536.5803 440.8375 537.0178 440.44687Q537.4553 440.05624 537.4553 439.38437Q537.4553 437.88437 535.9553 437.88437Q535.2522 437.88437 534.8303 438.29062Q534.4241 438.69687 534.4241 439.35312L533.3303 439.35312Q533.3303 438.3375 534.0647 437.66562Q534.8147 436.99374 535.9553 436.99374Q537.15845 436.99374 537.84595 437.63437Q538.53345 438.275 538.53345 439.41562Q538.53345 439.97812 538.1741 440.49374Q537.8147 441.00937 537.1897 441.275Q537.8928 441.49374 538.2678 442.00937Q538.65845 442.525 538.65845 443.275Q538.65845 444.41562 537.90845 445.10312Q537.15845 445.775 535.9553 445.775Q534.7678 445.775 534.0022 445.11874Q533.2522 444.4625 533.2522 443.4L534.34595 443.4Q534.34595 444.07187 534.78345 444.47812Q535.22095 444.88437 535.97095 444.88437Q536.7522 444.88437 537.15845 444.47812Q537.5803 444.05624 537.5803 443.29062Q537.5803 442.55624 537.1272 442.16562Q536.6741 441.75937 535.7991 441.74374L534.9866 441.74374L534.9866 440.85312ZM545.7678 442.00937Q545.7678 443.91562 545.1116 444.85312Q544.47095 445.775 543.0803 445.775Q541.72095 445.775 541.0647 444.86874Q540.40845 443.9625 540.3772 442.15L540.3772 440.7125Q540.3772 438.82187 541.0178 437.91562Q541.6741 436.99374 543.0647 436.99374Q544.4397 436.99374 545.09595 437.88437Q545.7522 438.75937 545.7678 440.60312L545.7678 442.00937ZM544.6741 440.525Q544.6741 439.15 544.28345 438.525Q543.90845 437.88437 543.0647 437.88437Q542.2366 437.88437 541.84595 438.525Q541.47095 439.15 541.47095 440.44687L541.47095 442.18124Q541.47095 443.55624 541.8616 444.22812Q542.2678 444.88437 543.0803 444.88437Q543.8772 444.88437 544.2678 444.25937Q544.65845 443.63437 544.6741 442.30624L544.6741 440.525Z" fill-rule="nonzero"/><path fill="#757575" d="M680.17804 442.79062L681.36554 442.79062L681.36554 443.66562L680.17804 443.66562L680.17804 445.65L679.0999 445.65L679.0999 443.66562L675.2093 443.66562L675.2093 443.025L679.0218 437.11874L680.17804 437.11874L680.17804 442.79062ZM676.44366 442.79062L679.0999 442.79062L679.0999 438.60312L678.9593 438.8375L676.44366 442.79062ZM687.9593 442.00937Q687.9593 443.91562 687.30304 444.85312Q686.6624 445.775 685.2718 445.775Q683.9124 445.775 683.25616 444.86874Q682.5999 443.9625 682.56866 442.15L682.56866 440.7125Q682.56866 438.82187 683.2093 437.91562Q683.86554 436.99374 685.25616 436.99374Q686.63116 436.99374 687.2874 437.88437Q687.94366 438.75937 687.9593 440.60312L687.9593 442.00937ZM686.86554 440.525Q686.86554 439.15 686.4749 438.525Q686.0999 437.88437 685.25616 437.88437Q684.42804 437.88437 684.0374 438.525Q683.6624 439.15 683.6624 440.44687L683.6624 442.18124Q683.6624 443.55624 684.05304 444.22812Q684.4593 444.88437 685.2718 444.88437Q686.06866 444.88437 686.4593 444.25937Q686.8499 443.63437 686.86554 442.30624L686.86554 440.525Z" fill-rule="nonzero"/><path stroke="#4285f4" stroke-width="4.0" stroke-linecap="butt" d="M252.0 73.75L264.0 73.75" fill-rule="nonzero"/><path fill="#757575" d="M278.17188 75.15625Q278.17188 76.59375 277.51562 77.484375Q276.85938 78.375 275.71875 78.375Q274.5625 78.375 273.90625 77.640625L273.90625 80.6875L272.82812 80.6875L272.82812 71.90625L273.8125 71.90625L273.85938 72.609375Q274.53125 71.796875 275.70312 71.796875Q276.84375 71.796875 277.5 72.65625Q278.17188 73.515625 278.17188 75.046875L278.17188 75.15625ZM277.09375 75.03125Q277.09375 73.953125 276.625 73.34375Q276.17188 72.71875 275.375 72.71875Q274.39062 72.71875 273.90625 73.578125L273.90625 76.609375Q274.39062 77.484375 275.39062 77.484375Q276.17188 77.484375 276.625 76.875Q277.09375 76.25 277.09375 75.03125ZM281.29688 70.375L281.29688 71.90625L282.46875 71.90625L282.46875 72.75L281.29688 72.75L281.29688 76.671875Q281.29688 77.0625 281.45312 77.25Q281.60938 77.4375 281.98438 77.4375Q282.17188 77.4375 282.5 77.375L282.5 78.25Q282.07812 78.375 281.67188 78.375Q280.95312 78.375 280.57812 77.9375Q280.20312 77.484375 280.20312 76.671875L280.20312 72.75L279.04688 72.75L279.04688 71.90625L280.20312 71.90625L280.20312 70.375L281.29688 70.375ZM284.90625 72.671875Q285.625 71.796875 286.78125 71.796875Q288.79688 71.796875 288.8125 74.0625L288.8125 78.25L287.71875 78.25L287.71875 74.046875Q287.71875 73.375 287.40625 73.046875Q287.10938 72.71875 286.45312 72.71875Q285.92188 72.71875 285.51562 73.0Q285.125 73.28125 284.90625 73.734375L284.90625 78.25L283.82812 78.25L283.82812 69.25L284.90625 69.25L284.90625 72.671875ZM293.89062 72.875Q293.64062 72.84375 293.35938 72.84375Q292.28125 72.84375 291.90625 73.75L291.90625 78.25L290.82812 78.25L290.82812 71.90625L291.875 71.90625L291.89062 72.640625Q292.42188 71.796875 293.40625 71.796875Q293.71875 71.796875 293.89062 71.875L293.89062 72.875ZM297.45312 78.375Q296.15625 78.375 295.34375 77.53125Q294.54688 76.671875 294.54688 75.25L294.54688 75.0625Q294.54688 74.109375 294.90625 73.375Q295.26562 72.625 295.90625 72.21875Q296.5625 71.796875 297.3125 71.796875Q298.54688 71.796875 299.23438 72.609375Q299.92188 73.421875 299.92188 74.9375L299.92188 75.390625L295.625 75.390625Q295.65625 76.328125 296.17188 76.90625Q296.70312 77.484375 297.51562 77.484375Q298.07812 77.484375 298.46875 77.25Q298.875 77.015625 299.1875 76.625L299.84375 77.140625Q299.04688 78.375 297.45312 78.375ZM297.3125 72.6875Q296.65625 72.6875 296.20312 73.171875Q295.76562 73.640625 295.67188 74.5L298.84375 74.5L298.84375 74.421875Q298.79688 73.59375 298.39062 73.140625Q298.0 72.6875 297.3125 72.6875ZM304.73438 78.25Q304.64062 78.0625 304.57812 77.578125Q303.82812 78.375 302.78125 78.375Q301.84375 78.375 301.23438 77.84375Q300.64062 77.3125 300.64062 76.484375Q300.64062 75.5 301.39062 74.953125Q302.14062 74.40625 303.51562 74.40625L304.5625 74.40625L304.5625 73.90625Q304.5625 73.34375 304.21875 73.015625Q303.89062 72.671875 303.21875 72.671875Q302.64062 72.671875 302.25 72.96875Q301.85938 73.25 301.85938 73.671875L300.76562 73.671875Q300.76562 73.1875 301.09375 72.75Q301.4375 72.3125 302.01562 72.0625Q302.59375 71.796875 303.28125 71.796875Q304.39062 71.796875 305.0 72.34375Q305.625 72.890625 305.65625 73.84375L305.65625 76.765625Q305.65625 77.640625 305.875 78.15625L305.875 78.25L304.73438 78.25ZM302.9375 77.421875Q303.45312 77.421875 303.90625 77.15625Q304.35938 76.890625 304.5625 76.46875L304.5625 75.171875L303.71875 75.171875Q301.71875 75.171875 301.71875 76.34375Q301.71875 76.84375 302.0625 77.140625Q302.40625 77.421875 302.9375 77.421875ZM307.5625 75.03125Q307.5625 73.5625 308.25 72.6875Q308.9375 71.796875 310.0625 71.796875Q311.17188 71.796875 311.82812 72.546875L311.82812 69.25L312.90625 69.25L312.90625 78.25L311.90625 78.25L311.85938 77.5625Q311.20312 78.375 310.04688 78.375Q308.95312 78.375 308.25 77.46875Q307.5625 76.5625 307.5625 75.109375L307.5625 75.03125ZM308.64062 75.15625Q308.64062 76.234375 309.07812 76.84375Q309.53125 77.453125 310.3125 77.453125Q311.34375 77.453125 311.82812 76.515625L311.82812 73.609375Q311.34375 72.71875 310.32812 72.71875Q309.53125 72.71875 309.07812 73.328125Q308.64062 73.9375 308.64062 75.15625ZM318.84375 71.90625L318.875 72.609375Q319.5625 71.796875 320.75 71.796875Q322.07812 71.796875 322.5625 72.8125Q322.875 72.359375 323.375 72.078125Q323.89062 71.796875 324.57812 71.796875Q326.67188 71.796875 326.70312 74.0L326.70312 78.25L325.625 78.25L325.625 74.0625Q325.625 73.390625 325.3125 73.0625Q325.0 72.71875 324.26562 72.71875Q323.65625 72.71875 323.25 73.078125Q322.85938 73.4375 322.79688 74.046875L322.79688 78.25L321.71875 78.25L321.71875 74.09375Q321.71875 72.71875 320.35938 72.71875Q319.29688 72.71875 318.90625 73.625L318.90625 78.25L317.8125 78.25L317.8125 71.90625L318.84375 71.90625ZM332.73438 77.625Q332.10938 78.375 330.875 78.375Q329.85938 78.375 329.32812 77.78125Q328.79688 77.1875 328.79688 76.03125L328.79688 71.90625L329.875 71.90625L329.875 76.0Q329.875 77.453125 331.04688 77.453125Q332.29688 77.453125 332.70312 76.515625L332.70312 71.90625L333.79688 71.90625L333.79688 78.25L332.76562 78.25L332.73438 77.625ZM337.29688 70.375L337.29688 71.90625L338.46875 71.90625L338.46875 72.75L337.29688 72.75L337.29688 76.671875Q337.29688 77.0625 337.45312 77.25Q337.60938 77.4375 337.98438 77.4375Q338.17188 77.4375 338.5 77.375L338.5 78.25Q338.07812 78.375 337.67188 78.375Q336.95312 78.375 336.57812 77.9375Q336.20312 77.484375 336.20312 76.671875L336.20312 72.75L335.04688 72.75L335.04688 71.90625L336.20312 71.90625L336.20312 70.375L337.29688 70.375ZM342.45312 78.375Q341.15625 78.375 340.34375 77.53125Q339.54688 76.671875 339.54688 75.25L339.54688 75.0625Q339.54688 74.109375 339.90625 73.375Q340.26562 72.625 340.90625 72.21875Q341.5625 71.796875 342.3125 71.796875Q343.54688 71.796875 344.23438 72.609375Q344.92188 73.421875 344.92188 74.9375L344.92188 75.390625L340.625 75.390625Q340.65625 76.328125 341.17188 76.90625Q341.70312 77.484375 342.51562 77.484375Q343.07812 77.484375 343.46875 77.25Q343.875 77.015625 344.1875 76.625L344.84375 77.140625Q344.04688 78.375 342.45312 78.375ZM342.3125 72.6875Q341.65625 72.6875 341.20312 73.171875Q340.76562 73.640625 340.67188 74.5L343.84375 74.5L343.84375 74.421875Q343.79688 73.59375 343.39062 73.140625Q343.0 72.6875 342.3125 72.6875ZM347.95312 74.21875L349.35938 71.90625L350.625 71.90625L348.54688 75.046875L350.6875 78.25L349.4375 78.25L347.96875 75.875L346.5 78.25L345.23438 78.25L347.375 75.046875L345.3125 71.90625L346.5625 71.90625L347.95312 74.21875Z" fill-rule="nonzero"/><path stroke="#db4437" stroke-width="4.0" stroke-linecap="butt" d="M367.0 73.75L379.0 73.75" fill-rule="nonzero"/><path fill="#757575" d="M391.73438 78.25Q391.64062 78.0625 391.57812 77.578125Q390.82812 78.375 389.78125 78.375Q388.84375 78.375 388.23438 77.84375Q387.64062 77.3125 387.64062 76.484375Q387.64062 75.5 388.39062 74.953125Q389.14062 74.40625 390.51562 74.40625L391.5625 74.40625L391.5625 73.90625Q391.5625 73.34375 391.21875 73.015625Q390.89062 72.671875 390.21875 72.671875Q389.64062 72.671875 389.25 72.96875Q388.85938 73.25 388.85938 73.671875L387.76562 73.671875Q387.76562 73.1875 388.09375 72.75Q388.4375 72.3125 389.01562 72.0625Q389.59375 71.796875 390.28125 71.796875Q391.39062 71.796875 392.0 72.34375Q392.625 72.890625 392.65625 73.84375L392.65625 76.765625Q392.65625 77.640625 392.875 78.15625L392.875 78.25L391.73438 78.25ZM389.9375 77.421875Q390.45312 77.421875 390.90625 77.15625Q391.35938 76.890625 391.5625 76.46875L391.5625 75.171875L390.71875 75.171875Q388.71875 75.171875 388.71875 76.34375Q388.71875 76.84375 389.0625 77.140625Q389.40625 77.421875 389.9375 77.421875ZM396.29688 70.375L396.29688 71.90625L397.46875 71.90625L397.46875 72.75L396.29688 72.75L396.29688 76.671875Q396.29688 77.0625 396.45312 77.25Q396.60938 77.4375 396.98438 77.4375Q397.17188 77.4375 397.5 77.375L397.5 78.25Q397.07812 78.375 396.67188 78.375Q395.95312 78.375 395.57812 77.9375Q395.20312 77.484375 395.20312 76.671875L395.20312 72.75L394.04688 72.75L394.04688 71.90625L395.20312 71.90625L395.20312 70.375L396.29688 70.375ZM398.53125 75.015625Q398.53125 74.09375 398.89062 73.34375Q399.26562 72.59375 399.92188 72.203125Q400.57812 71.796875 401.40625 71.796875Q402.70312 71.796875 403.5 72.6875Q404.3125 73.578125 404.3125 75.078125L404.3125 75.15625Q404.3125 76.078125 403.95312 76.8125Q403.59375 77.546875 402.9375 77.96875Q402.28125 78.375 401.42188 78.375Q400.14062 78.375 399.32812 77.484375Q398.53125 76.578125 398.53125 75.09375L398.53125 75.015625ZM399.625 75.15625Q399.625 76.203125 400.10938 76.84375Q400.60938 77.484375 401.42188 77.484375Q402.25 77.484375 402.73438 76.84375Q403.21875 76.1875 403.21875 75.015625Q403.21875 73.984375 402.71875 73.34375Q402.23438 72.6875 401.40625 72.6875Q400.60938 72.6875 400.10938 73.328125Q399.625 73.953125 399.625 75.15625ZM406.84375 71.90625L406.875 72.609375Q407.5625 71.796875 408.75 71.796875Q410.07812 71.796875 410.5625 72.8125Q410.875 72.359375 411.375 72.078125Q411.89062 71.796875 412.57812 71.796875Q414.67188 71.796875 414.70312 74.0L414.70312 78.25L413.625 78.25L413.625 74.0625Q413.625 73.390625 413.3125 73.0625Q413.0 72.71875 412.26562 72.71875Q411.65625 72.71875 411.25 73.078125Q410.85938 73.4375 410.79688 74.046875L410.79688 78.25L409.71875 78.25L409.71875 74.09375Q409.71875 72.71875 408.35938 72.71875Q407.29688 72.71875 406.90625 73.625L406.90625 78.25L405.8125 78.25L405.8125 71.90625L406.84375 71.90625ZM418.0 78.25L416.92188 78.25L416.92188 71.90625L418.0 71.90625L418.0 78.25ZM416.82812 70.234375Q416.82812 69.96875 416.98438 69.78125Q417.15625 69.59375 417.46875 69.59375Q417.78125 69.59375 417.9375 69.78125Q418.10938 69.96875 418.10938 70.234375Q418.10938 70.484375 417.9375 70.671875Q417.78125 70.84375 417.46875 70.84375Q417.15625 70.84375 416.98438 70.671875Q416.82812 70.484375 416.82812 70.234375ZM422.35938 77.484375Q422.9375 77.484375 423.375 77.140625Q423.8125 76.78125 423.85938 76.25L424.89062 76.25Q424.85938 76.796875 424.5 77.296875Q424.15625 77.78125 423.57812 78.078125Q423.01562 78.375 422.35938 78.375Q421.0625 78.375 420.29688 77.515625Q419.54688 76.640625 419.54688 75.140625L419.54688 74.953125Q419.54688 74.03125 419.875 73.3125Q420.21875 72.59375 420.84375 72.203125Q421.48438 71.796875 422.35938 71.796875Q423.42188 71.796875 424.125 72.4375Q424.84375 73.0625 424.89062 74.09375L423.85938 74.09375Q423.8125 73.46875 423.39062 73.078125Q422.96875 72.6875 422.35938 72.6875Q421.53125 72.6875 421.07812 73.28125Q420.625 73.875 420.625 75.0L420.625 75.203125Q420.625 76.296875 421.07812 76.890625Q421.53125 77.484375 422.35938 77.484375ZM430.0 78.25L428.92188 78.25L428.92188 71.90625L430.0 71.90625L430.0 78.25ZM428.82812 70.234375Q428.82812 69.96875 428.98438 69.78125Q429.15625 69.59375 429.46875 69.59375Q429.78125 69.59375 429.9375 69.78125Q430.10938 69.96875 430.10938 70.234375Q430.10938 70.484375 429.9375 70.671875Q429.78125 70.84375 429.46875 70.84375Q429.15625 70.84375 428.98438 70.671875Q428.82812 70.484375 428.82812 70.234375ZM432.84375 71.90625L432.875 72.703125Q433.60938 71.796875 434.78125 71.796875Q436.79688 71.796875 436.8125 74.0625L436.8125 78.25L435.71875 78.25L435.71875 74.046875Q435.71875 73.375 435.40625 73.046875Q435.10938 72.71875 434.45312 72.71875Q433.92188 72.71875 433.51562 73.0Q433.125 73.28125 432.90625 73.734375L432.90625 78.25L431.82812 78.25L431.82812 71.90625L432.84375 71.90625ZM441.35938 77.484375Q441.9375 77.484375 442.375 77.140625Q442.8125 76.78125 442.85938 76.25L443.89062 76.25Q443.85938 76.796875 443.5 77.296875Q443.15625 77.78125 442.57812 78.078125Q442.01562 78.375 441.35938 78.375Q440.0625 78.375 439.29688 77.515625Q438.54688 76.640625 438.54688 75.140625L438.54688 74.953125Q438.54688 74.03125 438.875 73.3125Q439.21875 72.59375 439.84375 72.203125Q440.48438 71.796875 441.35938 71.796875Q442.42188 71.796875 443.125 72.4375Q443.84375 73.0625 443.89062 74.09375L442.85938 74.09375Q442.8125 73.46875 442.39062 73.078125Q441.96875 72.6875 441.35938 72.6875Q440.53125 72.6875 440.07812 73.28125Q439.625 73.875 439.625 75.0L439.625 75.203125Q439.625 76.296875 440.07812 76.890625Q440.53125 77.484375 441.35938 77.484375ZM447.89062 72.875Q447.64062 72.84375 447.35938 72.84375Q446.28125 72.84375 445.90625 73.75L445.90625 78.25L444.82812 78.25L444.82812 71.90625L445.875 71.90625L445.89062 72.640625Q446.42188 71.796875 447.40625 71.796875Q447.71875 71.796875 447.89062 71.875L447.89062 72.875ZM451.45312 78.375Q450.15625 78.375 449.34375 77.53125Q448.54688 76.671875 448.54688 75.25L448.54688 75.0625Q448.54688 74.109375 448.90625 73.375Q449.26562 72.625 449.90625 72.21875Q450.5625 71.796875 451.3125 71.796875Q452.54688 71.796875 453.23438 72.609375Q453.92188 73.421875 453.92188 74.9375L453.92188 75.390625L449.625 75.390625Q449.65625 76.328125 450.17188 76.90625Q450.70312 77.484375 451.51562 77.484375Q452.07812 77.484375 452.46875 77.25Q452.875 77.015625 453.1875 76.625L453.84375 77.140625Q453.04688 78.375 451.45312 78.375ZM451.3125 72.6875Q450.65625 72.6875 450.20312 73.171875Q449.76562 73.640625 449.67188 74.5L452.84375 74.5L452.84375 74.421875Q452.79688 73.59375 452.39062 73.140625Q452.0 72.6875 451.3125 72.6875ZM455.84375 71.90625L455.875 72.609375Q456.5625 71.796875 457.75 71.796875Q459.07812 71.796875 459.5625 72.8125Q459.875 72.359375 460.375 72.078125Q460.89062 71.796875 461.57812 71.796875Q463.67188 71.796875 463.70312 74.0L463.70312 78.25L462.625 78.25L462.625 74.0625Q462.625 73.390625 462.3125 73.0625Q462.0 72.71875 461.26562 72.71875Q460.65625 72.71875 460.25 73.078125Q459.85938 73.4375 459.79688 74.046875L459.79688 78.25L458.71875 78.25L458.71875 74.09375Q458.71875 72.71875 457.35938 72.71875Q456.29688 72.71875 455.90625 73.625L455.90625 78.25L454.8125 78.25L454.8125 71.90625L455.84375 71.90625ZM468.45312 78.375Q467.15625 78.375 466.34375 77.53125Q465.54688 76.671875 465.54688 75.25L465.54688 75.0625Q465.54688 74.109375 465.90625 73.375Q466.26562 72.625 466.90625 72.21875Q467.5625 71.796875 468.3125 71.796875Q469.54688 71.796875 470.23438 72.609375Q470.92188 73.421875 470.92188 74.9375L470.92188 75.390625L466.625 75.390625Q466.65625 76.328125 467.17188 76.90625Q467.70312 77.484375 468.51562 77.484375Q469.07812 77.484375 469.46875 77.25Q469.875 77.015625 470.1875 76.625L470.84375 77.140625Q470.04688 78.375 468.45312 78.375ZM468.3125 72.6875Q467.65625 72.6875 467.20312 73.171875Q466.76562 73.640625 466.67188 74.5L469.84375 74.5L469.84375 74.421875Q469.79688 73.59375 469.39062 73.140625Q469.0 72.6875 468.3125 72.6875ZM472.84375 71.90625L472.875 72.703125Q473.60938 71.796875 474.78125 71.796875Q476.79688 71.796875 476.8125 74.0625L476.8125 78.25L475.71875 78.25L475.71875 74.046875Q475.71875 73.375 475.40625 73.046875Q475.10938 72.71875 474.45312 72.71875Q473.92188 72.71875 473.51562 73.0Q473.125 73.28125 472.90625 73.734375L472.90625 78.25L471.82812 78.25L471.82812 71.90625L472.84375 71.90625ZM480.29688 70.375L480.29688 71.90625L481.46875 71.90625L481.46875 72.75L480.29688 72.75L480.29688 76.671875Q480.29688 77.0625 480.45312 77.25Q480.60938 77.4375 480.98438 77.4375Q481.17188 77.4375 481.5 77.375L481.5 78.25Q481.07812 78.375 480.67188 78.375Q479.95312 78.375 479.57812 77.9375Q479.20312 77.484375 479.20312 76.671875L479.20312 72.75L478.04688 72.75L478.04688 71.90625L479.20312 71.90625L479.20312 70.375L480.29688 70.375Z" fill-rule="nonzero"/><path stroke="#f4b400" stroke-width="4.0" stroke-linecap="butt" d="M498.0 73.75L510.0 73.75" fill-rule="nonzero"/><path fill="#757575" d="M520.0 78.25L518.9219 78.25L518.9219 69.25L520.0 69.25L520.0 78.25ZM521.53125 75.015625Q521.53125 74.09375 521.8906 73.34375Q522.2656 72.59375 522.9219 72.203125Q523.5781 71.796875 524.40625 71.796875Q525.7031 71.796875 526.5 72.6875Q527.3125 73.578125 527.3125 75.078125L527.3125 75.15625Q527.3125 76.078125 526.9531 76.8125Q526.59375 77.546875 525.9375 77.96875Q525.28125 78.375 524.4219 78.375Q523.1406 78.375 522.3281 77.484375Q521.53125 76.578125 521.53125 75.09375L521.53125 75.015625ZM522.625 75.15625Q522.625 76.203125 523.1094 76.84375Q523.6094 77.484375 524.4219 77.484375Q525.25 77.484375 525.7344 76.84375Q526.21875 76.1875 526.21875 75.015625Q526.21875 73.984375 525.71875 73.34375Q525.2344 72.6875 524.40625 72.6875Q523.6094 72.6875 523.1094 73.328125Q522.625 73.953125 522.625 75.15625ZM531.3594 77.484375Q531.9375 77.484375 532.375 77.140625Q532.8125 76.78125 532.8594 76.25L533.8906 76.25Q533.8594 76.796875 533.5 77.296875Q533.15625 77.78125 532.5781 78.078125Q532.0156 78.375 531.3594 78.375Q530.0625 78.375 529.2969 77.515625Q528.5469 76.640625 528.5469 75.140625L528.5469 74.953125Q528.5469 74.03125 528.875 73.3125Q529.21875 72.59375 529.84375 72.203125Q530.4844 71.796875 531.3594 71.796875Q532.4219 71.796875 533.125 72.4375Q533.84375 73.0625 533.8906 74.09375L532.8594 74.09375Q532.8125 73.46875 532.3906 73.078125Q531.96875 72.6875 531.3594 72.6875Q530.53125 72.6875 530.0781 73.28125Q529.625 73.875 529.625 75.0L529.625 75.203125Q529.625 76.296875 530.0781 76.890625Q530.53125 77.484375 531.3594 77.484375ZM536.59375 75.3125L535.90625 76.015625L535.90625 78.25L534.8281 78.25L534.8281 69.25L535.90625 69.25L535.90625 74.6875L536.4844 74.0L538.46875 71.90625L539.78125 71.90625L537.3125 74.5625L540.0781 78.25L538.7969 78.25L536.59375 75.3125ZM545.3906 79.140625L540.03125 79.140625L540.03125 78.25L545.3906 78.25L545.3906 79.140625ZM548.8906 72.875Q548.6406 72.84375 548.3594 72.84375Q547.28125 72.84375 546.90625 73.75L546.90625 78.25L545.8281 78.25L545.8281 71.90625L546.875 71.90625L546.8906 72.640625Q547.4219 71.796875 548.40625 71.796875Q548.71875 71.796875 548.8906 71.875L548.8906 72.875ZM550.84375 71.90625L550.875 72.609375Q551.5625 71.796875 552.75 71.796875Q554.0781 71.796875 554.5625 72.8125Q554.875 72.359375 555.375 72.078125Q555.8906 71.796875 556.5781 71.796875Q558.6719 71.796875 558.7031 74.0L558.7031 78.25L557.625 78.25L557.625 74.0625Q557.625 73.390625 557.3125 73.0625Q557.0 72.71875 556.2656 72.71875Q555.65625 72.71875 555.25 73.078125Q554.8594 73.4375 554.7969 74.046875L554.7969 78.25L553.71875 78.25L553.71875 74.09375Q553.71875 72.71875 552.3594 72.71875Q551.2969 72.71875 550.90625 73.625L550.90625 78.25L549.8125 78.25L549.8125 71.90625L550.84375 71.90625ZM566.4375 76.75L567.65625 71.90625L568.7344 71.90625L566.8906 78.25L566.0156 78.25L564.46875 73.4375L562.96875 78.25L562.09375 78.25L560.25 71.90625L561.3281 71.90625L562.5781 76.65625L564.0625 71.90625L564.9219 71.90625L566.4375 76.75Z" fill-rule="nonzero"/><path fill="#757575" d="M28.88125 38.7875L28.88125 44.35L27.00625 44.35L27.00625 30.131248L32.240623 30.131248Q34.584373 30.131248 35.896873 31.318748Q37.225 32.50625 37.225 34.475Q37.225 36.553123 35.928123 37.678123Q34.63125 38.7875 32.225 38.7875L28.88125 38.7875ZM28.88125 37.25625L32.240623 37.25625Q33.75625 37.25625 34.553123 36.553123Q35.35 35.834373 35.35 34.490623Q35.35 33.225 34.553123 32.475Q33.75625 31.709373 32.35 31.678123L28.88125 31.678123L28.88125 37.25625ZM44.1 44.553123Q41.959373 44.553123 40.6 43.146873Q39.25625 41.725 39.25625 39.365623L39.25625 39.021873Q39.25625 37.459373 39.85 36.225Q40.459373 34.990623 41.5375 34.2875Q42.615623 33.584373 43.88125 33.584373Q45.94375 33.584373 47.084373 34.94375Q48.225 36.303123 48.225 38.834373L48.225 39.584373L41.06875 39.584373Q41.1 41.146873 41.975 42.115623Q42.85 43.06875 44.19375 43.06875Q45.1625 43.06875 45.81875 42.678123Q46.490623 42.2875 46.990623 41.646873L48.084373 42.50625Q46.75625 44.553123 44.1 44.553123ZM43.88125 35.06875Q42.7875 35.06875 42.0375 35.865623Q41.303123 36.6625 41.13125 38.1L46.4125 38.1L46.4125 37.959373Q46.334373 36.584373 45.6625 35.834373Q45.00625 35.06875 43.88125 35.06875ZM55.81875 35.396873Q55.4125 35.334373 54.94375 35.334373Q53.1625 35.334373 52.521873 36.85L52.521873 44.35L50.725 44.35L50.725 33.7875L52.475 33.7875L52.50625 35.00625Q53.396873 33.584373 55.021873 33.584373Q55.553123 33.584373 55.81875 33.725L55.81875 35.396873ZM58.6 44.35L58.6 35.178123L56.94375 35.178123L56.94375 33.7875L58.6 33.7875L58.6 32.69375Q58.6 31.006248 59.50625 30.084373Q60.428123 29.146873 62.084373 29.146873Q62.709373 29.146873 63.31875 29.303123L63.225 30.771873Q62.771873 30.693748 62.25625 30.693748Q61.365623 30.693748 60.88125 31.209373Q60.4125 31.709373 60.4125 32.6625L60.4125 33.7875L62.6625 33.7875L62.6625 35.178123L60.4125 35.178123L60.4125 44.35L58.6 44.35ZM64.24062 38.975Q64.24062 37.4125 64.85 36.178123Q65.45937 34.928123 66.5375 34.25625Q67.63125 33.584373 69.0375 33.584373Q71.19375 33.584373 72.52187 35.084373Q73.86562 36.56875 73.86562 39.053123L73.86562 39.178123Q73.86562 40.725 73.27187 41.959373Q72.67812 43.178123 71.56875 43.865623Q70.475 44.553123 69.05312 44.553123Q66.9125 44.553123 65.56875 43.053123Q64.24062 41.553123 64.24062 39.1L64.24062 38.975ZM66.05312 39.178123Q66.05312 40.94375 66.86562 42.00625Q67.69375 43.06875 69.05312 43.06875Q70.42812 43.06875 71.24062 41.990623Q72.05312 40.9125 72.05312 38.975Q72.05312 37.225 71.225 36.146873Q70.39687 35.06875 69.0375 35.06875Q67.69375 35.06875 66.86562 36.13125Q66.05312 37.19375 66.05312 39.178123ZM80.81875 35.396873Q80.4125 35.334373 79.94375 35.334373Q78.1625 35.334373 77.52187 36.85L77.52187 44.35L75.725 44.35L75.725 33.7875L77.475 33.7875L77.50625 35.00625Q78.39687 33.584373 80.02187 33.584373Q80.55312 33.584373 80.81875 33.725L80.81875 35.396873ZM84.4125 33.7875L84.45937 34.959373Q85.63125 33.584373 87.6 33.584373Q89.81875 33.584373 90.61562 35.2875Q91.14687 34.521873 91.99062 34.053123Q92.83437 33.584373 93.99062 33.584373Q97.45937 33.584373 97.52187 37.271873L97.52187 44.35L95.70937 44.35L95.70937 37.38125Q95.70937 36.240623 95.19375 35.678123Q94.67812 35.115623 93.45937 35.115623Q92.45937 35.115623 91.7875 35.725Q91.13125 36.31875 91.02187 37.334373L91.02187 44.35L89.20937 44.35L89.20937 37.428123Q89.20937 35.115623 86.94375 35.115623Q85.1625 35.115623 84.52187 36.63125L84.52187 44.35L82.70937 44.35L82.70937 33.7875L84.4125 33.7875ZM107.24062 44.35Q107.08437 44.0375 106.99062 43.240623Q105.725 44.553123 103.975 44.553123Q102.4125 44.553123 101.4125 43.6625Q100.4125 42.771873 100.4125 41.4125Q100.4125 39.771873 101.6625 38.865623Q102.92812 37.94375 105.19375 37.94375L106.95937 37.94375L106.95937 37.115623Q106.95937 36.1625 106.38125 35.6Q105.81875 35.0375 104.725 35.0375Q103.75625 35.0375 103.1 35.5375Q102.44375 36.021873 102.44375 36.709373L100.63125 36.709373Q100.63125 35.928123 101.19375 35.19375Q101.75625 34.44375 102.70937 34.021873Q103.67812 33.584373 104.83437 33.584373Q106.6625 33.584373 107.69375 34.50625Q108.725 35.4125 108.77187 37.021873L108.77187 41.88125Q108.77187 43.334373 109.13125 44.19375L109.13125 44.35L107.24062 44.35ZM104.24062 42.975Q105.1 42.975 105.85 42.5375Q106.61562 42.1 106.95937 41.396873L106.95937 39.225L105.5375 39.225Q102.225 39.225 102.225 41.1625Q102.225 42.021873 102.7875 42.50625Q103.35 42.975 104.24062 42.975ZM113.42812 33.7875L113.49062 35.115623Q114.69375 33.584373 116.64687 33.584373Q120.00625 33.584373 120.02187 37.365623L120.02187 44.35L118.225 44.35L118.225 37.35Q118.20937 36.209373 117.69375 35.6625Q117.19375 35.115623 116.1 35.115623Q115.225 35.115623 114.55312 35.584373Q113.89687 36.053123 113.52187 36.81875L113.52187 44.35L111.725 44.35L111.725 33.7875L113.42812 33.7875ZM126.95937 43.06875Q127.92812 43.06875 128.64688 42.490623Q129.36563 41.896873 129.44376 41.021873L131.1625 41.021873Q131.1 41.928123 130.52188 42.75625Q129.95938 43.56875 128.99063 44.06875Q128.0375 44.553123 126.95937 44.553123Q124.80312 44.553123 123.52187 43.115623Q122.25625 41.6625 122.25625 39.1625L122.25625 38.865623Q122.25625 37.31875 122.81875 36.115623Q123.38125 34.9125 124.44375 34.25625Q125.50625 33.584373 126.94375 33.584373Q128.725 33.584373 129.89688 34.646873Q131.08438 35.709373 131.1625 37.4125L129.44376 37.4125Q129.36563 36.396873 128.6625 35.740623Q127.975 35.06875 126.94375 35.06875Q125.56875 35.06875 124.80312 36.06875Q124.05312 37.053123 124.05312 38.928123L124.05312 39.271873Q124.05312 41.1 124.80312 42.084373Q125.55312 43.06875 126.95937 43.06875ZM137.1 44.553123Q134.95938 44.553123 133.6 43.146873Q132.25626 41.725 132.25626 39.365623L132.25626 39.021873Q132.25626 37.459373 132.85 36.225Q133.45938 34.990623 134.5375 34.2875Q135.61563 33.584373 136.88126 33.584373Q138.94376 33.584373 140.08438 34.94375Q141.225 36.303123 141.225 38.834373L141.225 39.584373L134.06876 39.584373Q134.1 41.146873 134.975 42.115623Q135.85 43.06875 137.19376 43.06875Q138.1625 43.06875 138.81876 42.678123Q139.49063 42.2875 139.99063 41.646873L141.08438 42.50625Q139.75626 44.553123 137.1 44.553123ZM136.88126 35.06875Q135.7875 35.06875 135.0375 35.865623Q134.30313 36.6625 134.13126 38.1L139.4125 38.1L139.4125 37.959373Q139.33438 36.584373 138.6625 35.834373Q138.00626 35.06875 136.88126 35.06875ZM148.24063 38.975Q148.24063 37.4125 148.85 36.178123Q149.45938 34.928123 150.5375 34.25625Q151.63126 33.584373 153.0375 33.584373Q155.19376 33.584373 156.52188 35.084373Q157.86563 36.56875 157.86563 39.053123L157.86563 39.178123Q157.86563 40.725 157.27188 41.959373Q156.67813 43.178123 155.56876 43.865623Q154.475 44.553123 153.05313 44.553123Q150.9125 44.553123 149.56876 43.053123Q148.24063 41.553123 148.24063 39.1L148.24063 38.975ZM150.05313 39.178123Q150.05313 40.94375 150.86563 42.00625Q151.69376 43.06875 153.05313 43.06875Q154.42813 43.06875 155.24063 41.990623Q156.05313 40.9125 156.05313 38.975Q156.05313 37.225 155.225 36.146873Q154.39688 35.06875 153.0375 35.06875Q151.69376 35.06875 150.86563 36.13125Q150.05313 37.19375 150.05313 39.178123ZM160.6 44.35L160.6 35.178123L158.94376 35.178123L158.94376 33.7875L160.6 33.7875L160.6 32.69375Q160.6 31.006248 161.50626 30.084373Q162.42813 29.146873 164.08438 29.146873Q164.70938 29.146873 165.31876 29.303123L165.225 30.771873Q164.77188 30.693748 164.25626 30.693748Q163.36563 30.693748 162.88126 31.209373Q162.4125 31.709373 162.4125 32.6625L162.4125 33.7875L164.6625 33.7875L164.6625 35.178123L162.4125 35.178123L162.4125 44.35L160.6 44.35ZM171.27188 38.975Q171.27188 36.553123 172.42813 35.06875Q173.58438 33.584373 175.44376 33.584373Q177.30313 33.584373 178.38126 34.85L178.38126 29.349998L180.19376 29.349998L180.19376 44.35L178.5375 44.35L178.44376 43.209373Q177.36563 44.553123 175.42813 44.553123Q173.6 44.553123 172.42813 43.053123Q171.27188 41.5375 171.27188 39.115623L171.27188 38.975ZM173.08438 39.178123Q173.08438 40.975 173.81876 41.990623Q174.56876 43.00625 175.88126 43.00625Q177.6 43.00625 178.38126 41.475L178.38126 36.615623Q177.58438 35.115623 175.89688 35.115623Q174.56876 35.115623 173.81876 36.146873Q173.08438 37.178123 173.08438 39.178123ZM184.67813 44.35L182.88126 44.35L182.88126 33.7875L184.67813 33.7875L184.67813 44.35ZM182.725 30.974998Q182.725 30.537498 182.99063 30.240623Q183.27188 29.928123 183.7875 29.928123Q184.31876 29.928123 184.58438 30.240623Q184.86563 30.537498 184.86563 30.974998Q184.86563 31.412498 184.58438 31.709373Q184.31876 32.00625 183.7875 32.00625Q183.27188 32.00625 182.99063 31.709373Q182.725 31.412498 182.725 30.974998ZM188.6 44.35L188.6 35.178123L186.94376 35.178123L186.94376 33.7875L188.6 33.7875L188.6 32.69375Q188.6 31.006248 189.50626 30.084373Q190.42813 29.146873 192.08438 29.146873Q192.70938 29.146873 193.31876 29.303123L193.225 30.771873Q192.77188 30.693748 192.25626 30.693748Q191.36563 30.693748 190.88126 31.209373Q190.4125 31.709373 190.4125 32.6625L190.4125 33.7875L192.6625 33.7875L192.6625 35.178123L190.4125 35.178123L190.4125 44.35L188.6 44.35ZM195.6 44.35L195.6 35.178123L193.94376 35.178123L193.94376 33.7875L195.6 33.7875L195.6 32.69375Q195.6 31.006248 196.50626 30.084373Q197.42813 29.146873 199.08438 29.146873Q199.70938 29.146873 200.31876 29.303123L200.225 30.771873Q199.77188 30.693748 199.25626 30.693748Q198.36563 30.693748 197.88126 31.209373Q197.4125 31.709373 197.4125 32.6625L197.4125 33.7875L199.6625 33.7875L199.6625 35.178123L197.4125 35.178123L197.4125 44.35L195.6 44.35ZM206.1 44.553123Q203.95938 44.553123 202.6 43.146873Q201.25626 41.725 201.25626 39.365623L201.25626 39.021873Q201.25626 37.459373 201.85 36.225Q202.45938 34.990623 203.5375 34.2875Q204.61563 33.584373 205.88126 33.584373Q207.94376 33.584373 209.08438 34.94375Q210.225 36.303123 210.225 38.834373L210.225 39.584373L203.06876 39.584373Q203.1 41.146873 203.975 42.115623Q204.85 43.06875 206.19376 43.06875Q207.1625 43.06875 207.81876 42.678123Q208.49063 42.2875 208.99063 41.646873L210.08438 42.50625Q208.75626 44.553123 206.1 44.553123ZM205.88126 35.06875Q204.7875 35.06875 204.0375 35.865623Q203.30313 36.6625 203.13126 38.1L208.4125 38.1L208.4125 37.959373Q208.33438 36.584373 207.6625 35.834373Q207.00626 35.06875 205.88126 35.06875ZM217.81876 35.396873Q217.4125 35.334373 216.94376 35.334373Q215.1625 35.334373 214.52188 36.85L214.52188 44.35L212.725 44.35L212.725 33.7875L214.475 33.7875L214.50626 35.00625Q215.39688 33.584373 217.02188 33.584373Q217.55313 33.584373 217.81876 33.725L217.81876 35.396873ZM224.1 44.553123Q221.95938 44.553123 220.6 43.146873Q219.25626 41.725 219.25626 39.365623L219.25626 39.021873Q219.25626 37.459373 219.85 36.225Q220.45938 34.990623 221.5375 34.2875Q222.61563 33.584373 223.88126 33.584373Q225.94376 33.584373 227.08438 34.94375Q228.225 36.303123 228.225 38.834373L228.225 39.584373L221.06876 39.584373Q221.1 41.146873 221.975 42.115623Q222.85 43.06875 224.19376 43.06875Q225.1625 43.06875 225.81876 42.678123Q226.49063 42.2875 226.99063 41.646873L228.08438 42.50625Q226.75626 44.553123 224.1 44.553123ZM223.88126 35.06875Q222.7875 35.06875 222.0375 35.865623Q221.30313 36.6625 221.13126 38.1L226.4125 38.1L226.4125 37.959373Q226.33438 36.584373 225.6625 35.834373Q225.00626 35.06875 223.88126 35.06875ZM232.42813 33.7875L232.49063 35.115623Q233.69376 33.584373 235.64688 33.584373Q239.00626 33.584373 239.02188 37.365623L239.02188 44.35L237.225 44.35L237.225 37.35Q237.20938 36.209373 236.69376 35.6625Q236.19376 35.115623 235.1 35.115623Q234.225 35.115623 233.55313 35.584373Q232.89688 36.053123 232.52188 36.81875L232.52188 44.35L230.725 44.35L230.725 33.7875L232.42813 33.7875ZM244.1625 31.224998L244.1625 33.7875L246.14688 33.7875L246.14688 35.178123L244.1625 35.178123L244.1625 41.725Q244.1625 42.365623 244.42813 42.69375Q244.69376 43.00625 245.33438 43.00625Q245.64688 43.00625 246.19376 42.88125L246.19376 44.35Q245.475 44.553123 244.80313 44.553123Q243.6 44.553123 242.975 43.81875Q242.36563 43.084373 242.36563 41.725L242.36563 35.178123L240.44376 35.178123L240.44376 33.7875L242.36563 33.7875L242.36563 31.224998L244.1625 31.224998ZM259.86563 41.553123Q259.86563 40.81875 259.31876 40.4125Q258.77188 40.00625 257.39688 39.709373Q256.02188 39.4125 255.20938 39.00625Q254.4125 38.6 254.02188 38.0375Q253.64688 37.459373 253.64688 36.678123Q253.64688 35.38125 254.74063 34.490623Q255.83438 33.584373 257.55313 33.584373Q259.35 33.584373 260.45938 34.521873Q261.58438 35.44375 261.58438 36.88125L259.75626 36.88125Q259.75626 36.146873 259.13126 35.615623Q258.50626 35.06875 257.55313 35.06875Q256.55313 35.06875 255.99063 35.50625Q255.44376 35.928123 255.44376 36.63125Q255.44376 37.271873 255.95938 37.615623Q256.475 37.94375 257.83438 38.25625Q259.19376 38.553123 260.02188 38.975Q260.86563 39.38125 261.27188 39.975Q261.67813 40.56875 261.67813 41.4125Q261.67813 42.834373 260.5375 43.69375Q259.4125 44.553123 257.6 44.553123Q256.33438 44.553123 255.35 44.1Q254.38126 43.646873 253.81876 42.85Q253.27188 42.0375 253.27188 41.1L255.08438 41.1Q255.13126 42.00625 255.80313 42.5375Q256.49063 43.06875 257.6 43.06875Q258.63126 43.06875 259.24063 42.6625Q259.86563 42.240623 259.86563 41.553123ZM265.52188 35.06875Q266.725 33.584373 268.64688 33.584373Q272.00626 33.584373 272.02188 37.365623L272.02188 44.35L270.225 44.35L270.225 37.35Q270.20938 36.209373 269.69376 35.6625Q269.19376 35.115623 268.1 35.115623Q267.225 35.115623 266.55313 35.584373Q265.89688 36.053123 265.52188 36.81875L265.52188 44.35L263.725 44.35L263.725 29.349998L265.52188 29.349998L265.52188 35.06875ZM281.24063 44.35Q281.08438 44.0375 280.99063 43.240623Q279.725 44.553123 277.975 44.553123Q276.4125 44.553123 275.4125 43.6625Q274.4125 42.771873 274.4125 41.4125Q274.4125 39.771873 275.6625 38.865623Q276.92813 37.94375 279.19376 37.94375L280.95938 37.94375L280.95938 37.115623Q280.95938 36.1625 280.38126 35.6Q279.81876 35.0375 278.725 35.0375Q277.75626 35.0375 277.1 35.5375Q276.44376 36.021873 276.44376 36.709373L274.63126 36.709373Q274.63126 35.928123 275.19376 35.19375Q275.75626 34.44375 276.70938 34.021873Q277.67813 33.584373 278.83438 33.584373Q280.6625 33.584373 281.69376 34.50625Q282.725 35.4125 282.77188 37.021873L282.77188 41.88125Q282.77188 43.334373 283.13126 44.19375L283.13126 44.35L281.24063 44.35ZM278.24063 42.975Q279.1 42.975 279.85 42.5375Q280.61563 42.1 280.95938 41.396873L280.95938 39.225L279.5375 39.225Q276.225 39.225 276.225 41.1625Q276.225 42.021873 276.7875 42.50625Q277.35 42.975 278.24063 42.975ZM290.81876 35.396873Q290.4125 35.334373 289.94376 35.334373Q288.1625 35.334373 287.52188 36.85L287.52188 44.35L285.725 44.35L285.725 33.7875L287.475 33.7875L287.50626 35.00625Q288.39688 33.584373 290.02188 33.584373Q290.55313 33.584373 290.81876 33.725L290.81876 35.396873ZM297.1 44.553123Q294.95938 44.553123 293.6 43.146873Q292.25626 41.725 292.25626 39.365623L292.25626 39.021873Q292.25626 37.459373 292.85 36.225Q293.45938 34.990623 294.5375 34.2875Q295.61563 33.584373 296.88126 33.584373Q298.94376 33.584373 300.08438 34.94375Q301.225 36.303123 301.225 38.834373L301.225 39.584373L294.06876 39.584373Q294.1 41.146873 294.975 42.115623Q295.85 43.06875 297.19376 43.06875Q298.1625 43.06875 298.81876 42.678123Q299.49063 42.2875 299.99063 41.646873L301.08438 42.50625Q299.75626 44.553123 297.1 44.553123ZM296.88126 35.06875Q295.7875 35.06875 295.0375 35.865623Q294.30313 36.6625 294.13126 38.1L299.4125 38.1L299.4125 37.959373Q299.33438 36.584373 298.6625 35.834373Q298.00626 35.06875 296.88126 35.06875ZM303.27188 38.975Q303.27188 36.553123 304.42813 35.06875Q305.58438 33.584373 307.44376 33.584373Q309.30313 33.584373 310.38126 34.85L310.38126 29.349998L312.19376 29.349998L312.19376 44.35L310.5375 44.35L310.44376 43.209373Q309.36563 44.553123 307.42813 44.553123Q305.6 44.553123 304.42813 43.053123Q303.27188 41.5375 303.27188 39.115623L303.27188 38.975ZM305.08438 39.178123Q305.08438 40.975 305.81876 41.990623Q306.56876 43.00625 307.88126 43.00625Q309.6 43.00625 310.38126 41.475L310.38126 36.615623Q309.58438 35.115623 307.89688 35.115623Q306.56876 35.115623 305.81876 36.146873Q305.08438 37.178123 305.08438 39.178123ZM323.95938 43.06875Q324.92813 43.06875 325.64688 42.490623Q326.36563 41.896873 326.44376 41.021873L328.1625 41.021873Q328.1 41.928123 327.52188 42.75625Q326.95938 43.56875 325.99063 44.06875Q325.0375 44.553123 323.95938 44.553123Q321.80313 44.553123 320.52188 43.115623Q319.25626 41.6625 319.25626 39.1625L319.25626 38.865623Q319.25626 37.31875 319.81876 36.115623Q320.38126 34.9125 321.44376 34.25625Q322.50626 33.584373 323.94376 33.584373Q325.725 33.584373 326.89688 34.646873Q328.08438 35.709373 328.1625 37.4125L326.44376 37.4125Q326.36563 36.396873 325.6625 35.740623Q324.975 35.06875 323.94376 35.06875Q322.56876 35.06875 321.80313 36.06875Q321.05313 37.053123 321.05313 38.928123L321.05313 39.271873Q321.05313 41.1 321.80313 42.084373Q322.55313 43.06875 323.95938 43.06875ZM329.24063 38.975Q329.24063 37.4125 329.85 36.178123Q330.45938 34.928123 331.5375 34.25625Q332.63126 33.584373 334.0375 33.584373Q336.19376 33.584373 337.52188 35.084373Q338.86563 36.56875 338.86563 39.053123L338.86563 39.178123Q338.86563 40.725 338.27188 41.959373Q337.67813 43.178123 336.56876 43.865623Q335.475 44.553123 334.05313 44.553123Q331.9125 44.553123 330.56876 43.053123Q329.24063 41.553123 329.24063 39.1L329.24063 38.975ZM331.05313 39.178123Q331.05313 40.94375 331.86563 42.00625Q332.69376 43.06875 334.05313 43.06875Q335.42813 43.06875 336.24063 41.990623Q337.05313 40.9125 337.05313 38.975Q337.05313 37.225 336.225 36.146873Q335.39688 35.06875 334.0375 35.06875Q332.69376 35.06875 331.86563 36.13125Q331.05313 37.19375 331.05313 39.178123ZM347.24063 43.303123Q346.19376 44.553123 344.14688 44.553123Q342.45938 44.553123 341.56876 43.56875Q340.69376 42.584373 340.67813 40.6625L340.67813 33.7875L342.49063 33.7875L342.49063 40.615623Q342.49063 43.00625 344.44376 43.00625Q346.50626 43.00625 347.19376 41.475L347.19376 33.7875L349.00626 33.7875L349.00626 44.35L347.2875 44.35L347.24063 43.303123ZM353.42813 33.7875L353.49063 35.115623Q354.69376 33.584373 356.64688 33.584373Q360.00626 33.584373 360.02188 37.365623L360.02188 44.35L358.225 44.35L358.225 37.35Q358.20938 36.209373 357.69376 35.6625Q357.19376 35.115623 356.1 35.115623Q355.225 35.115623 354.55313 35.584373Q353.89688 36.053123 353.52188 36.81875L353.52188 44.35L351.725 44.35L351.725 33.7875L353.42813 33.7875ZM365.1625 31.224998L365.1625 33.7875L367.14688 33.7875L367.14688 35.178123L365.1625 35.178123L365.1625 41.725Q365.1625 42.365623 365.42813 42.69375Q365.69376 43.00625 366.33438 43.00625Q366.64688 43.00625 367.19376 42.88125L367.19376 44.35Q366.475 44.553123 365.80313 44.553123Q364.6 44.553123 363.975 43.81875Q363.36563 43.084373 363.36563 41.725L363.36563 35.178123L361.44376 35.178123L361.44376 33.7875L363.36563 33.7875L363.36563 31.224998L365.1625 31.224998ZM374.1 44.553123Q371.95938 44.553123 370.6 43.146873Q369.25626 41.725 369.25626 39.365623L369.25626 39.021873Q369.25626 37.459373 369.85 36.225Q370.45938 34.990623 371.5375 34.2875Q372.61563 33.584373 373.88126 33.584373Q375.94376 33.584373 377.08438 34.94375Q378.225 36.303123 378.225 38.834373L378.225 39.584373L371.06876 39.584373Q371.1 41.146873 371.975 42.115623Q372.85 43.06875 374.19376 43.06875Q375.1625 43.06875 375.81876 42.678123Q376.49063 42.2875 376.99063 41.646873L378.08438 42.50625Q376.75626 44.553123 374.1 44.553123ZM373.88126 35.06875Q372.7875 35.06875 372.0375 35.865623Q371.30313 36.6625 371.13126 38.1L376.4125 38.1L376.4125 37.959373Q376.33438 36.584373 375.6625 35.834373Q375.00626 35.06875 373.88126 35.06875ZM385.81876 35.396873Q385.4125 35.334373 384.94376 35.334373Q383.1625 35.334373 382.52188 36.85L382.52188 44.35L380.725 44.35L380.725 33.7875L382.475 33.7875L382.50626 35.00625Q383.39688 33.584373 385.02188 33.584373Q385.55313 33.584373 385.81876 33.725L385.81876 35.396873ZM394.67813 44.35L392.88126 44.35L392.88126 33.7875L394.67813 33.7875L394.67813 44.35ZM392.725 30.974998Q392.725 30.537498 392.99063 30.240623Q393.27188 29.928123 393.7875 29.928123Q394.31876 29.928123 394.58438 30.240623Q394.86563 30.537498 394.86563 30.974998Q394.86563 31.412498 394.58438 31.709373Q394.31876 32.00625 393.7875 32.00625Q393.27188 32.00625 392.99063 31.709373Q392.725 31.412498 392.725 30.974998ZM399.4125 33.7875L399.45938 34.959373Q400.63126 33.584373 402.6 33.584373Q404.81876 33.584373 405.61563 35.2875Q406.14688 34.521873 406.99063 34.053123Q407.83438 33.584373 408.99063 33.584373Q412.45938 33.584373 412.52188 37.271873L412.52188 44.35L410.70938 44.35L410.70938 37.38125Q410.70938 36.240623 410.19376 35.678123Q409.67813 35.115623 408.45938 35.115623Q407.45938 35.115623 406.7875 35.725Q406.13126 36.31875 406.02188 37.334373L406.02188 44.35L404.20938 44.35L404.20938 37.428123Q404.20938 35.115623 401.94376 35.115623Q400.1625 35.115623 399.52188 36.63125L399.52188 44.35L397.70938 44.35L397.70938 33.7875L399.4125 33.7875ZM424.64688 39.178123Q424.64688 41.6 423.5375 43.084373Q422.44376 44.553123 420.55313 44.553123Q418.63126 44.553123 417.52188 43.31875L417.52188 48.4125L415.725 48.4125L415.725 33.7875L417.36563 33.7875L417.45938 34.959373Q418.55313 33.584373 420.52188 33.584373Q422.42813 33.584373 423.5375 35.021873Q424.64688 36.459373 424.64688 39.021873L424.64688 39.178123ZM422.83438 38.975Q422.83438 37.19375 422.06876 36.1625Q421.31876 35.115623 419.99063 35.115623Q418.35 35.115623 417.52188 36.56875L417.52188 41.63125Q418.33438 43.06875 420.00626 43.06875Q421.30313 43.06875 422.06876 42.0375Q422.83438 41.00625 422.83438 38.975ZM428.67813 44.35L426.88126 44.35L426.88126 29.349998L428.67813 29.349998L428.67813 44.35ZM436.1 44.553123Q433.95938 44.553123 432.6 43.146873Q431.25626 41.725 431.25626 39.365623L431.25626 39.021873Q431.25626 37.459373 431.85 36.225Q432.45938 34.990623 433.5375 34.2875Q434.61563 33.584373 435.88126 33.584373Q437.94376 33.584373 439.08438 34.94375Q440.225 36.303123 440.225 38.834373L440.225 39.584373L433.06876 39.584373Q433.1 41.146873 433.975 42.115623Q434.85 43.06875 436.19376 43.06875Q437.1625 43.06875 437.81876 42.678123Q438.49063 42.2875 438.99063 41.646873L440.08438 42.50625Q438.75626 44.553123 436.1 44.553123ZM435.88126 35.06875Q434.7875 35.06875 434.0375 35.865623Q433.30313 36.6625 433.13126 38.1L438.4125 38.1L438.4125 37.959373Q438.33438 36.584373 437.6625 35.834373Q437.00626 35.06875 435.88126 35.06875ZM444.4125 33.7875L444.45938 34.959373Q445.63126 33.584373 447.6 33.584373Q449.81876 33.584373 450.61563 35.2875Q451.14688 34.521873 451.99063 34.053123Q452.83438 33.584373 453.99063 33.584373Q457.45938 33.584373 457.52188 37.271873L457.52188 44.35L455.70938 44.35L455.70938 37.38125Q455.70938 36.240623 455.19376 35.678123Q454.67813 35.115623 453.45938 35.115623Q452.45938 35.115623 451.7875 35.725Q451.13126 36.31875 451.02188 37.334373L451.02188 44.35L449.20938 44.35L449.20938 37.428123Q449.20938 35.115623 446.94376 35.115623Q445.1625 35.115623 444.52188 36.63125L444.52188 44.35L442.70938 44.35L442.70938 33.7875L444.4125 33.7875ZM465.1 44.553123Q462.95938 44.553123 461.6 43.146873Q460.25626 41.725 460.25626 39.365623L460.25626 39.021873Q460.25626 37.459373 460.85 36.225Q461.45938 34.990623 462.5375 34.2875Q463.61563 33.584373 464.88126 33.584373Q466.94376 33.584373 468.08438 34.94375Q469.225 36.303123 469.225 38.834373L469.225 39.584373L462.06876 39.584373Q462.1 41.146873 462.975 42.115623Q463.85 43.06875 465.19376 43.06875Q466.1625 43.06875 466.81876 42.678123Q467.49063 42.2875 467.99063 41.646873L469.08438 42.50625Q467.75626 44.553123 465.1 44.553123ZM464.88126 35.06875Q463.7875 35.06875 463.0375 35.865623Q462.30313 36.6625 462.13126 38.1L467.4125 38.1L467.4125 37.959373Q467.33438 36.584373 466.6625 35.834373Q466.00626 35.06875 464.88126 35.06875ZM473.42813 33.7875L473.49063 35.115623Q474.69376 33.584373 476.64688 33.584373Q480.00626 33.584373 480.02188 37.365623L480.02188 44.35L478.225 44.35L478.225 37.35Q478.20938 36.209373 477.69376 35.6625Q477.19376 35.115623 476.1 35.115623Q475.225 35.115623 474.55313 35.584373Q473.89688 36.053123 473.52188 36.81875L473.52188 44.35L471.725 44.35L471.725 33.7875L473.42813 33.7875ZM485.1625 31.224998L485.1625 33.7875L487.14688 33.7875L487.14688 35.178123L485.1625 35.178123L485.1625 41.725Q485.1625 42.365623 485.42813 42.69375Q485.69376 43.00625 486.33438 43.00625Q486.64688 43.00625 487.19376 42.88125L487.19376 44.35Q486.475 44.553123 485.80313 44.553123Q484.6 44.553123 483.975 43.81875Q483.36563 43.084373 483.36563 41.725L483.36563 35.178123L481.44376 35.178123L481.44376 33.7875L483.36563 33.7875L483.36563 31.224998L485.1625 31.224998ZM496.24063 44.35Q496.08438 44.0375 495.99063 43.240623Q494.725 44.553123 492.975 44.553123Q491.4125 44.553123 490.4125 43.6625Q489.4125 42.771873 489.4125 41.4125Q489.4125 39.771873 490.6625 38.865623Q491.92813 37.94375 494.19376 37.94375L495.95938 37.94375L495.95938 37.115623Q495.95938 36.1625 495.38126 35.6Q494.81876 35.0375 493.725 35.0375Q492.75626 35.0375 492.1 35.5375Q491.44376 36.021873 491.44376 36.709373L489.63126 36.709373Q489.63126 35.928123 490.19376 35.19375Q490.75626 34.44375 491.70938 34.021873Q492.67813 33.584373 493.83438 33.584373Q495.6625 33.584373 496.69376 34.50625Q497.725 35.4125 497.77188 37.021873L497.77188 41.88125Q497.77188 43.334373 498.13126 44.19375L498.13126 44.35L496.24063 44.35ZM493.24063 42.975Q494.1 42.975 494.85 42.5375Q495.61563 42.1 495.95938 41.396873L495.95938 39.225L494.5375 39.225Q491.225 39.225 491.225 41.1625Q491.225 42.021873 491.7875 42.50625Q492.35 42.975 493.24063 42.975ZM503.1625 31.224998L503.1625 33.7875L505.14688 33.7875L505.14688 35.178123L503.1625 35.178123L503.1625 41.725Q503.1625 42.365623 503.42813 42.69375Q503.69376 43.00625 504.33438 43.00625Q504.64688 43.00625 505.19376 42.88125L505.19376 44.35Q504.475 44.553123 503.80313 44.553123Q502.6 44.553123 501.975 43.81875Q501.36563 43.084373 501.36563 41.725L501.36563 35.178123L499.44376 35.178123L499.44376 33.7875L501.36563 33.7875L501.36563 31.224998L503.1625 31.224998ZM509.67813 44.35L507.88126 44.35L507.88126 33.7875L509.67813 33.7875L509.67813 44.35ZM507.725 30.974998Q507.725 30.537498 507.99063 30.240623Q508.27188 29.928123 508.7875 29.928123Q509.31876 29.928123 509.58438 30.240623Q509.86563 30.537498 509.86563 30.974998Q509.86563 31.412498 509.58438 31.709373Q509.31876 32.00625 508.7875 32.00625Q508.27188 32.00625 507.99063 31.709373Q507.725 31.412498 507.725 30.974998ZM512.2406 38.975Q512.2406 37.4125 512.85 36.178123Q513.45935 34.928123 514.5375 34.25625Q515.6312 33.584373 517.0375 33.584373Q519.1937 33.584373 520.52185 35.084373Q521.8656 36.56875 521.8656 39.053123L521.8656 39.178123Q521.8656 40.725 521.27185 41.959373Q520.6781 43.178123 519.5687 43.865623Q518.475 44.553123 517.0531 44.553123Q514.9125 44.553123 513.5687 43.053123Q512.2406 41.553123 512.2406 39.1L512.2406 38.975ZM514.0531 39.178123Q514.0531 40.94375 514.8656 42.00625Q515.6937 43.06875 517.0531 43.06875Q518.4281 43.06875 519.2406 41.990623Q520.0531 40.9125 520.0531 38.975Q520.0531 37.225 519.225 36.146873Q518.39685 35.06875 517.0375 35.06875Q515.6937 35.06875 514.8656 36.13125Q514.0531 37.19375 514.0531 39.178123ZM525.4281 33.7875L525.4906 35.115623Q526.6937 33.584373 528.64685 33.584373Q532.0062 33.584373 532.02185 37.365623L532.02185 44.35L530.225 44.35L530.225 37.35Q530.20935 36.209373 529.6937 35.6625Q529.1937 35.115623 528.1 35.115623Q527.225 35.115623 526.5531 35.584373Q525.89685 36.053123 525.52185 36.81875L525.52185 44.35L523.725 44.35L523.725 33.7875L525.4281 33.7875ZM540.8656 41.553123Q540.8656 40.81875 540.3187 40.4125Q539.77185 40.00625 538.39685 39.709373Q537.02185 39.4125 536.20935 39.00625Q535.4125 38.6 535.02185 38.0375Q534.64685 37.459373 534.64685 36.678123Q534.64685 35.38125 535.7406 34.490623Q536.83435 33.584373 538.5531 33.584373Q540.35 33.584373 541.45935 34.521873Q542.58435 35.44375 542.58435 36.88125L540.7562 36.88125Q540.7562 36.146873 540.1312 35.615623Q539.5062 35.06875 538.5531 35.06875Q537.5531 35.06875 536.9906 35.50625Q536.4437 35.928123 536.4437 36.63125Q536.4437 37.271873 536.95935 37.615623Q537.475 37.94375 538.83435 38.25625Q540.1937 38.553123 541.02185 38.975Q541.8656 39.38125 542.27185 39.975Q542.6781 40.56875 542.6781 41.4125Q542.6781 42.834373 541.5375 43.69375Q540.4125 44.553123 538.6 44.553123Q537.33435 44.553123 536.35 44.1Q535.3812 43.646873 534.8187 42.85Q534.27185 42.0375 534.27185 41.1L536.08435 41.1Q536.1312 42.00625 536.8031 42.5375Q537.4906 43.06875 538.6 43.06875Q539.6312 43.06875 540.2406 42.6625Q540.8656 42.240623 540.8656 41.553123Z" fill-rule="nonzero"/></svg>