<svg version="1.1" viewBox="0.0 0.0 600.0 371.0" fill="none" stroke="none" stroke-linecap="square" stroke-miterlimit="10" width="600" height="371" xmlns:xlink="http://www.w3.org/1999/xlink" xmlns="http://www.w3.org/2000/svg"><path fill="#ffffff" d="M0 0L600.0 0L600.0 371.0L0 371.0L0 0Z" fill-rule="nonzero"/><path stroke="#333333" stroke-width="1.0" stroke-linecap="butt" d="M78.5 298.5L581.5 298.5" fill-rule="nonzero"/><path stroke="#cccccc" stroke-width="1.0" stroke-linecap="butt" d="M78.5 239.5L581.5 239.5" fill-rule="nonzero"/><path stroke="#cccccc" stroke-width="1.0" stroke-linecap="butt" d="M78.5 180.5L581.5 180.5" fill-rule="nonzero"/><path stroke="#cccccc" stroke-width="1.0" stroke-linecap="butt" d="M78.5 121.5L581.5 121.5" fill-rule="nonzero"/><path stroke="#cccccc" stroke-width="1.0" stroke-linecap="butt" d="M78.5 62.5L581.5 62.5" fill-rule="nonzero"/><clipPath id="id_0"><path d="M78.55 62.416668L581.45 62.416668L581.45 298.45L78.55 298.45L78.55 62.416668Z" clip-rule="nonzero"/></clipPath><path stroke="#4285f4" stroke-width="2.0" stroke-linecap="butt" clip-path="url(#id_0)" d="M114.47143 69.67469L186.31429 177.60094L258.15714 235.78316L330.0 255.07887L401.84286 252.01044L473.6857 210.35056L545.52856 134.46584" fill-rule="nonzero"/><path fill="#000000" fill-opacity="0.0" clip-path="url(#id_0)" d="M117.47143 69.67469C117.47143 71.33154 116.12828 72.67469 114.47143 72.67469C112.814575 72.67469 111.47143 71.33154 111.47143 69.67469C111.47143 68.01784 112.814575 66.67469 114.47143 66.67469C116.12828 66.67469 117.47143 68.01784 117.47143 69.67469Z" fill-rule="nonzero"/><path fill="#000000" fill-opacity="0.0" clip-path="url(#id_0)" d="M189.31429 177.60094C189.31429 179.25778 187.97115 180.60094 186.31429 180.60094C184.65742 180.60094 183.31429 179.25778 183.31429 177.60094C183.31429 175.94408 184.65742 174.60094 186.31429 174.60094C187.97115 174.60094 189.31429 175.94408 189.31429 177.60094Z" fill-rule="nonzero"/><path fill="#000000" fill-opacity="0.0" clip-path="url(#id_0)" d="M261.15714 235.78316C261.15714 237.44 259.814 238.78316 258.15714 238.78316C256.50027 238.78316 255.15715 237.44 255.15715 235.78316C255.15715 234.1263 256.50027 232.78316 258.15714 232.78316C259.814 232.78316 261.15714 234.1263 261.15714 235.78316Z" fill-rule="nonzero"/><path fill="#000000" fill-opacity="0.0" clip-path="url(#id_0)" d="M333.0 255.07887C333.0 256.73572 331.65686 258.0789 330.0 258.0789C328.34314 258.0789 327.0 256.73572 327.0 255.07887C327.0 253.42203 328.34314 252.07887 330.0 252.07887C331.65686 252.07887 333.0 253.42203 333.0 255.07887Z" fill-rule="nonzero"/><path fill="#000000" fill-opacity="0.0" clip-path="url(#id_0)" d="M404.84286 252.01044C404.84286 253.6673 403.49973 255.01044 401.84286 255.01044C400.186 255.01044 398.84286 253.6673 398.84286 252.01044C398.84286 250.35359 400.186 249.01044 401.84286 249.01044C403.49973 249.01044 404.84286 250.35359 404.84286 252.01044Z" fill-rule="nonzero"/><path fill="#000000" fill-opacity="0.0" clip-path="url(#id_0)" d="M476.6857 210.35056C476.6857 212.00742 475.34256 213.35056 473.6857 213.35056C472.02887 213.35056 470.6857 212.00742 470.6857 210.35056C470.6857 208.69371 472.02887 207.35056 473.6857 207.35056C475.34256 207.35056 476.6857 208.69371 476.6857 210.35056Z" fill-rule="nonzero"/><path fill="#000000" fill-opacity="0.0" clip-path="url(#id_0)" d="M548.52856 134.46584C548.52856 136.1227 547.1854 137.46584 545.52856 137.46584C543.8717 137.46584 542.52856 136.1227 542.52856 134.46584C542.52856 132.80899 543.8717 131.46584 545.52856 131.46584C547.1854 131.46584 548.52856 132.80899 548.52856 134.46584Z" fill-rule="nonzero"/><path fill="#424242" d="M281.84375 343.10626L281.875 343.90314Q282.60938 342.9969 283.78125 342.9969Q285.79688 342.9969 285.8125 345.2625L285.8125 349.45L284.71875 349.45L284.71875 345.2469Q284.71875 344.575 284.40625 344.2469Q284.10938 343.91876 283.45312 343.91876Q282.92188 343.91876 282.51562 344.2Q282.125 344.48126 281.90625 344.9344L281.90625 349.45L280.82812 349.45L280.82812 343.10626L281.84375 343.10626ZM291.73438 348.825Q291.10938 349.575 289.875 349.575Q288.85938 349.575 288.32812 348.98126Q287.79688 348.3875 287.79688 347.23126L287.79688 343.10626L288.875 343.10626L288.875 347.2Q288.875 348.65314 290.04688 348.65314Q291.29688 348.65314 291.70312 347.71564L291.70312 343.10626L292.79688 343.10626L292.79688 349.45L291.76562 349.45L291.73438 348.825ZM295.84375 343.10626L295.875 343.8094Q296.5625 342.9969 297.75 342.9969Q299.07812 342.9969 299.5625 344.0125Q299.875 343.5594 300.375 343.27814Q300.89062 342.9969 301.57812 342.9969Q303.67188 342.9969 303.70312 345.2L303.70312 349.45L302.625 349.45L302.625 345.2625Q302.625 344.59064 302.3125 344.2625Q302.0 343.91876 301.26562 343.91876Q300.65625 343.91876 300.25 344.27814Q299.85938 344.6375 299.79688 345.2469L299.79688 349.45L298.71875 349.45L298.71875 345.29376Q298.71875 343.91876 297.35938 343.91876Q296.29688 343.91876 295.90625 344.825L295.90625 349.45L294.8125 349.45L294.8125 343.10626L295.84375 343.10626ZM311.1875 346.35626Q311.1875 347.8094 310.51562 348.7Q309.85938 349.575 308.73438 349.575Q307.53125 349.575 306.875 348.71564L306.8125 349.45L305.82812 349.45L305.82812 340.45L306.90625 340.45L306.90625 343.8094Q307.5625 342.9969 308.71875 342.9969Q309.875 342.9969 310.53125 343.8719Q311.1875 344.73126 311.1875 346.2625L311.1875 346.35626ZM310.10938 346.23126Q310.10938 345.1219 309.67188 344.52814Q309.25 343.91876 308.45312 343.91876Q307.375 343.91876 306.90625 344.90314L306.90625 347.65314Q307.40625 348.65314 308.45312 348.65314Q309.23438 348.65314 309.67188 348.04376Q310.10938 347.4344 310.10938 346.23126ZM315.45312 349.575Q314.15625 349.575 313.34375 348.73126Q312.54688 347.8719 312.54688 346.45L312.54688 346.2625Q312.54688 345.3094 312.90625 344.575Q313.26562 343.825 313.90625 343.41876Q314.5625 342.9969 315.3125 342.9969Q316.54688 342.9969 317.23438 343.8094Q317.92188 344.6219 317.92188 346.1375L317.92188 346.59064L313.625 346.59064Q313.65625 347.52814 314.17188 348.10626Q314.70312 348.6844 315.51562 348.6844Q316.07812 348.6844 316.46875 348.45Q316.875 348.21564 317.1875 347.825L317.84375 348.34064Q317.04688 349.575 315.45312 349.575ZM315.3125 343.8875Q314.65625 343.8875 314.20312 344.3719Q313.76562 344.84064 313.67188 345.7L316.84375 345.7L316.84375 345.6219Q316.79688 344.79376 316.39062 344.34064Q316.0 343.8875 315.3125 343.8875ZM321.89062 344.075Q321.64062 344.04376 321.35938 344.04376Q320.28125 344.04376 319.90625 344.95L319.90625 349.45L318.82812 349.45L318.82812 343.10626L319.875 343.10626L319.89062 343.84064Q320.42188 342.9969 321.40625 342.9969Q321.71875 342.9969 321.89062 343.075L321.89062 344.075ZM325.53125 346.21564Q325.53125 345.29376 325.89062 344.54376Q326.26562 343.79376 326.92188 343.40314Q327.57812 342.9969 328.40625 342.9969Q329.70312 342.9969 330.5 343.8875Q331.3125 344.77814 331.3125 346.27814L331.3125 346.35626Q331.3125 347.27814 330.95312 348.0125Q330.59375 348.7469 329.9375 349.16876Q329.28125 349.575 328.42188 349.575Q327.14062 349.575 326.32812 348.6844Q325.53125 347.77814 325.53125 346.29376L325.53125 346.21564ZM326.625 346.35626Q326.625 347.40314 327.10938 348.04376Q327.60938 348.6844 328.42188 348.6844Q329.25 348.6844 329.73438 348.04376Q330.21875 347.3875 330.21875 346.21564Q330.21875 345.1844 329.71875 344.54376Q329.23438 343.8875 328.40625 343.8875Q327.60938 343.8875 327.10938 344.52814Q326.625 345.15314 326.625 346.35626ZM333.35938 349.45L333.35938 343.95L332.35938 343.95L332.35938 343.10626L333.35938 343.10626L333.35938 342.46564Q333.35938 341.4344 333.89062 340.8875Q334.4375 340.325 335.4375 340.325Q335.8125 340.325 336.1875 340.41876L336.125 341.3094Q335.84375 341.2469 335.54688 341.2469Q335.01562 341.2469 334.71875 341.5594Q334.4375 341.8719 334.4375 342.4344L334.4375 343.10626L335.79688 343.10626L335.79688 343.95L334.4375 343.95L334.4375 349.45L333.35938 349.45ZM341.29688 341.575L341.29688 343.10626L342.46875 343.10626L342.46875 343.95L341.29688 343.95L341.29688 347.8719Q341.29688 348.2625 341.45312 348.45Q341.60938 348.6375 341.98438 348.6375Q342.17188 348.6375 342.5 348.575L342.5 349.45Q342.07812 349.575 341.67188 349.575Q340.95312 349.575 340.57812 349.1375Q340.20312 348.6844 340.20312 347.8719L340.20312 343.95L339.04688 343.95L339.04688 343.10626L340.20312 343.10626L340.20312 341.575L341.29688 341.575ZM344.90625 343.8719Q345.625 342.9969 346.78125 342.9969Q348.79688 342.9969 348.8125 345.2625L348.8125 349.45L347.71875 349.45L347.71875 345.2469Q347.71875 344.575 347.40625 344.2469Q347.10938 343.91876 346.45312 343.91876Q345.92188 343.91876 345.51562 344.2Q345.125 344.48126 344.90625 344.9344L344.90625 349.45L343.82812 349.45L343.82812 340.45L344.90625 340.45L344.90625 343.8719ZM353.89062 344.075Q353.64062 344.04376 353.35938 344.04376Q352.28125 344.04376 351.90625 344.95L351.90625 349.45L350.82812 349.45L350.82812 343.10626L351.875 343.10626L351.89062 343.84064Q352.42188 342.9969 353.40625 342.9969Q353.71875 342.9969 353.89062 343.075L353.89062 344.075ZM357.45312 349.575Q356.15625 349.575 355.34375 348.73126Q354.54688 347.8719 354.54688 346.45L354.54688 346.2625Q354.54688 345.3094 354.90625 344.575Q355.26562 343.825 355.90625 343.41876Q356.5625 342.9969 357.3125 342.9969Q358.54688 342.9969 359.23438 343.8094Q359.92188 344.6219 359.92188 346.1375L359.92188 346.59064L355.625 346.59064Q355.65625 347.52814 356.17188 348.10626Q356.70312 348.6844 357.51562 348.6844Q358.07812 348.6844 358.46875 348.45Q358.875 348.21564 359.1875 347.825L359.84375 348.34064Q359.04688 349.575 357.45312 349.575ZM357.3125 343.8875Q356.65625 343.8875 356.20312 344.3719Q355.76562 344.84064 355.67188 345.7L358.84375 345.7L358.84375 345.6219Q358.79688 344.79376 358.39062 344.34064Q358.0 343.8875 357.3125 343.8875ZM364.73438 349.45Q364.64062 349.2625 364.57812 348.77814Q363.82812 349.575 362.78125 349.575Q361.84375 349.575 361.23438 349.04376Q360.64062 348.5125 360.64062 347.6844Q360.64062 346.7 361.39062 346.15314Q362.14062 345.60626 363.51562 345.60626L364.5625 345.60626L364.5625 345.10626Q364.5625 344.54376 364.21875 344.21564Q363.89062 343.8719 363.21875 343.8719Q362.64062 343.8719 362.25 344.16876Q361.85938 344.45 361.85938 344.8719L360.76562 344.8719Q360.76562 344.3875 361.09375 343.95Q361.4375 343.5125 362.01562 343.2625Q362.59375 342.9969 363.28125 342.9969Q364.39062 342.9969 365.0 343.54376Q365.625 344.09064 365.65625 345.04376L365.65625 347.96564Q365.65625 348.84064 365.875 349.35626L365.875 349.45L364.73438 349.45ZM362.9375 348.6219Q363.45312 348.6219 363.90625 348.35626Q364.35938 348.09064 364.5625 347.66876L364.5625 346.3719L363.71875 346.3719Q361.71875 346.3719 361.71875 347.54376Q361.71875 348.04376 362.0625 348.34064Q362.40625 348.6219 362.9375 348.6219ZM367.5625 346.23126Q367.5625 344.7625 368.25 343.8875Q368.9375 342.9969 370.0625 342.9969Q371.17188 342.9969 371.82812 343.7469L371.82812 340.45L372.90625 340.45L372.90625 349.45L371.90625 349.45L371.85938 348.7625Q371.20312 349.575 370.04688 349.575Q368.95312 349.575 368.25 348.66876Q367.5625 347.7625 367.5625 346.3094L367.5625 346.23126ZM368.64062 346.35626Q368.64062 347.4344 369.07812 348.04376Q369.53125 348.65314 370.3125 348.65314Q371.34375 348.65314 371.82812 347.71564L371.82812 344.8094Q371.34375 343.91876 370.32812 343.91876Q369.53125 343.91876 369.07812 344.52814Q368.64062 345.1375 368.64062 346.35626ZM378.51562 347.7625Q378.51562 347.325 378.17188 347.09064Q377.84375 346.84064 377.01562 346.66876Q376.20312 346.4969 375.71875 346.2469Q375.23438 345.9969 375.0 345.66876Q374.78125 345.325 374.78125 344.85626Q374.78125 344.075 375.4375 343.54376Q376.09375 342.9969 377.125 342.9969Q378.20312 342.9969 378.85938 343.5594Q379.53125 344.10626 379.53125 344.96564L378.45312 344.96564Q378.45312 344.52814 378.0625 344.21564Q377.6875 343.8875 377.125 343.8875Q376.53125 343.8875 376.1875 344.15314Q375.85938 344.40314 375.85938 344.8094Q375.85938 345.2 376.17188 345.40314Q376.48438 345.60626 377.29688 345.79376Q378.10938 345.96564 378.60938 346.21564Q379.10938 346.46564 379.34375 346.825Q379.59375 347.1844 379.59375 347.6844Q379.59375 348.54376 378.90625 349.0594Q378.23438 349.575 377.15625 349.575Q376.39062 349.575 375.79688 349.3094Q375.21875 349.02814 374.89062 348.54376Q374.5625 348.0594 374.5625 347.4969L375.64062 347.4969Q375.67188 348.04376 376.07812 348.3719Q376.48438 348.6844 377.15625 348.6844Q377.76562 348.6844 378.14062 348.4344Q378.51562 348.1844 378.51562 347.7625Z" fill-rule="nonzero"/><path fill="#424242" d="M27.456263 238.49583Q28.909388 238.49583 29.800013 239.16771Q30.675013 239.82396 30.675013 240.94896Q30.675013 242.15208 29.815638 242.80833L30.550013 242.87083L30.550013 243.85521L21.550013 243.85521L21.550013 242.77708L24.909388 242.77708Q24.096888 242.12083 24.096888 240.96458Q24.096888 239.80833 24.971888 239.15208Q25.831263 238.49583 27.362513 238.49583L27.456263 238.49583ZM27.331263 239.57396Q26.221888 239.57396 25.628138 240.01146Q25.018763 240.43333 25.018763 241.23021Q25.018763 242.30833 26.003138 242.77708L28.753138 242.77708Q29.753138 242.27708 29.753138 241.23021Q29.753138 240.44896 29.143763 240.01146Q28.534388 239.57396 27.331263 239.57396ZM30.550013 232.94896Q30.362513 233.04271 29.878138 233.10521Q30.675013 233.85521 30.675013 234.90208Q30.675013 235.83958 30.143763 236.44896Q29.612513 237.04271 28.784388 237.04271Q27.800013 237.04271 27.253138 236.29271Q26.706263 235.54271 26.706263 234.16771L26.706263 233.12083L26.206263 233.12083Q25.643763 233.12083 25.315638 233.46458Q24.971888 233.79271 24.971888 234.46458Q24.971888 235.04271 25.268763 235.43333Q25.550013 235.82396 25.971888 235.82396L25.971888 236.91771Q25.487513 236.91771 25.050013 236.58958Q24.612513 236.24583 24.362513 235.66771Q24.096888 235.08958 24.096888 234.40208Q24.096888 233.29271 24.643763 232.68333Q25.190638 232.05833 26.143763 232.02708L29.065638 232.02708Q29.940638 232.02708 30.456263 231.80833L30.550013 231.80833L30.550013 232.94896ZM29.721888 234.74583Q29.721888 234.23021 29.456263 233.77708Q29.190638 233.32396 28.768763 233.12083L27.471888 233.12083L27.471888 233.96458Q27.471888 235.96458 28.643763 235.96458Q29.143763 235.96458 29.440638 235.62083Q29.721888 235.27708 29.721888 234.74583ZM24.206263 228.83958L25.003138 228.80833Q24.096888 228.07396 24.096888 226.90208Q24.096888 224.88646 26.362513 224.87083L30.550013 224.87083L30.550013 225.96458L26.346888 225.96458Q25.675013 225.96458 25.346888 226.27708Q25.018763 226.57396 25.018763 227.23021Q25.018763 227.76146 25.300013 228.16771Q25.581263 228.55833 26.034388 228.77708L30.550013 228.77708L30.550013 229.85521L24.206263 229.85521L24.206263 228.83958ZM27.331263 223.12083Q25.862513 223.12083 24.987513 222.43333Q24.096888 221.74583 24.096888 220.62083Q24.096888 219.51146 24.846888 218.85521L21.550013 218.85521L21.550013 217.77708L30.550013 217.77708L30.550013 218.77708L29.862513 218.82396Q30.675013 219.48021 30.675013 220.63646Q30.675013 221.73021 29.768763 222.43333Q28.862513 223.12083 27.409388 223.12083L27.331263 223.12083ZM27.456263 222.04271Q28.534388 222.04271 29.143763 221.60521Q29.753138 221.15208 29.753138 220.37083Q29.753138 219.33958 28.815638 218.85521L25.909388 218.85521Q25.018763 219.33958 25.018763 220.35521Q25.018763 221.15208 25.628138 221.60521Q26.237513 222.04271 27.456263 222.04271ZM29.050013 210.24583L24.206263 209.02708L24.206263 207.94896L30.550013 209.79271L30.550013 210.66771L25.737513 212.21458L30.550013 213.71458L30.550013 214.58958L24.206263 216.43333L24.206263 215.35521L28.956263 214.10521L24.206263 212.62083L24.206263 211.76146L29.050013 210.24583ZM30.550013 205.68333L30.550013 206.76146L24.206263 206.76146L24.206263 205.68333L30.550013 205.68333ZM22.534388 206.85521Q22.268763 206.85521 22.081263 206.69896Q21.893763 206.52708 21.893763 206.21458Q21.893763 205.90208 22.081263 205.74583Q22.268763 205.57396 22.534388 205.57396Q22.784388 205.57396 22.971888 205.74583Q23.143763 205.90208 23.143763 206.21458Q23.143763 206.52708 22.971888 206.69896Q22.784388 206.85521 22.534388 206.85521ZM27.331263 204.12083Q25.862513 204.12083 24.987513 203.43333Q24.096888 202.74583 24.096888 201.62083Q24.096888 200.51146 24.846888 199.85521L21.550013 199.85521L21.550013 198.77708L30.550013 198.77708L30.550013 199.77708L29.862513 199.82396Q30.675013 200.48021 30.675013 201.63646Q30.675013 202.73021 29.768763 203.43333Q28.862513 204.12083 27.409388 204.12083L27.331263 204.12083ZM27.456263 203.04271Q28.534388 203.04271 29.143763 202.60521Q29.753138 202.15208 29.753138 201.37083Q29.753138 200.33958 28.815638 199.85521L25.909388 199.85521Q25.018763 200.33958 25.018763 201.35521Q25.018763 202.15208 25.628138 202.60521Q26.237513 203.04271 27.456263 203.04271ZM22.675013 195.38646L24.206263 195.38646L24.206263 194.21458L25.050013 194.21458L25.050013 195.38646L28.971888 195.38646Q29.362513 195.38646 29.550013 195.23021Q29.737513 195.07396 29.737513 194.69896Q29.737513 194.51146 29.675013 194.18333L30.550013 194.18333Q30.675013 194.60521 30.675013 195.01146Q30.675013 195.73021 30.237513 196.10521Q29.784388 196.48021 28.971888 196.48021L25.050013 196.48021L25.050013 197.63646L24.206263 197.63646L24.206263 196.48021L22.675013 196.48021L22.675013 195.38646ZM24.971888 191.77708Q24.096888 191.05833 24.096888 189.90208Q24.096888 187.88646 26.362513 187.87083L30.550013 187.87083L30.550013 188.96458L26.346888 188.96458Q25.675013 188.96458 25.346888 189.27708Q25.018763 189.57396 25.018763 190.23021Q25.018763 190.76146 25.300013 191.16771Q25.581263 191.55833 26.034388 191.77708L30.550013 191.77708L30.550013 192.85521L21.550013 192.85521L21.550013 191.77708L24.971888 191.77708ZM30.550013 181.68333L30.550013 182.76146L24.206263 182.76146L24.206263 181.68333L30.550013 181.68333ZM22.534388 182.85521Q22.268763 182.85521 22.081263 182.69896Q21.893763 182.52708 21.893763 182.21458Q21.893763 181.90208 22.081263 181.74583Q22.268763 181.57396 22.534388 181.57396Q22.784388 181.57396 22.971888 181.74583Q23.143763 181.90208 23.143763 182.21458Q23.143763 182.52708 22.971888 182.69896Q22.784388 182.85521 22.534388 182.85521ZM24.206263 178.83958L25.003138 178.80833Q24.096888 178.07396 24.096888 176.90208Q24.096888 174.88646 26.362513 174.87083L30.550013 174.87083L30.550013 175.96458L26.346888 175.96458Q25.675013 175.96458 25.346888 176.27708Q25.018763 176.57396 25.018763 177.23021Q25.018763 177.76146 25.300013 178.16771Q25.581263 178.55833 26.034388 178.77708L30.550013 178.77708L30.550013 179.85521L24.206263 179.85521L24.206263 178.83958ZM24.206263 168.83958L25.003138 168.80833Q24.096888 168.07396 24.096888 166.90208Q24.096888 164.88646 26.362513 164.87083L30.550013 164.87083L30.550013 165.96458L26.346888 165.96458Q25.675013 165.96458 25.346888 166.27708Q25.018763 166.57396 25.018763 167.23021Q25.018763 167.76146 25.300013 168.16771Q25.581263 168.55833 26.034388 168.77708L30.550013 168.77708L30.550013 169.85521L24.206263 169.85521L24.206263 168.83958ZM28.862513 159.16771Q28.425013 159.16771 28.190638 159.51146Q27.940638 159.83958 27.768763 160.66771Q27.596888 161.48021 27.346888 161.96458Q27.096888 162.44896 26.768763 162.68333Q26.425013 162.90208 25.956263 162.90208Q25.175013 162.90208 24.643763 162.24583Q24.096888 161.58958 24.096888 160.55833Q24.096888 159.48021 24.659388 158.82396Q25.206263 158.15208 26.065638 158.15208L26.065638 159.23021Q25.628138 159.23021 25.315638 159.62083Q24.987513 159.99583 24.987513 160.55833Q24.987513 161.15208 25.253138 161.49583Q25.503138 161.82396 25.909388 161.82396Q26.300013 161.82396 26.503138 161.51146Q26.706263 161.19896 26.893763 160.38646Q27.065638 159.57396 27.315638 159.07396Q27.565638 158.57396 27.925013 158.33958Q28.284388 158.08958 28.784388 158.08958Q29.643763 158.08958 30.159388 158.77708Q30.675013 159.44896 30.675013 160.52708Q30.675013 161.29271 30.409388 161.88646Q30.128138 162.46458 29.643763 162.79271Q29.159388 163.12083 28.596888 163.12083L28.596888 162.04271Q29.143763 162.01146 29.471888 161.60521Q29.784388 161.19896 29.784388 160.52708Q29.784388 159.91771 29.534388 159.54271Q29.284388 159.16771 28.862513 159.16771ZM31.284388 156.65208L31.284388 157.57396L22.018763 154.01146L22.018763 153.08958L31.284388 156.65208ZM27.456263 146.49583Q28.909388 146.49583 29.800013 147.16771Q30.675013 147.82396 30.675013 148.94896Q30.675013 150.15208 29.815638 150.80833L30.550013 150.87083L30.550013 151.85521L21.550013 151.85521L21.550013 150.77708L24.909388 150.77708Q24.096888 150.12083 24.096888 148.96458Q24.096888 147.80833 24.971888 147.15208Q25.831263 146.49583 27.362513 146.49583L27.456263 146.49583ZM27.331263 147.57396Q26.221888 147.57396 25.628138 148.01146Q25.018763 148.43333 25.018763 149.23021Q25.018763 150.30833 26.003138 150.77708L28.753138 150.77708Q29.753138 150.27708 29.753138 149.23021Q29.753138 148.44896 29.143763 148.01146Q28.534388 147.57396 27.331263 147.57396ZM28.956263 142.79271L24.206263 141.30833L24.206263 140.15208L31.534388 142.69896Q33.11251 143.29271 33.11251 144.57396L33.096886 144.79271L33.01876 145.18333L32.14376 145.18333L32.159386 144.90208Q32.159386 144.33958 31.940638 144.04271Q31.721888 143.73021 31.128138 143.52708L30.471888 143.29271L24.206263 145.55833L24.206263 144.37083L28.956263 142.79271ZM22.675013 137.38646L24.206263 137.38646L24.206263 136.21458L25.050013 136.21458L25.050013 137.38646L28.971888 137.38646Q29.362513 137.38646 29.550013 137.23021Q29.737513 137.07396 29.737513 136.69896Q29.737513 136.51146 29.675013 136.18333L30.550013 136.18333Q30.675013 136.60521 30.675013 137.01146Q30.675013 137.73021 30.237513 138.10521Q29.784388 138.48021 28.971888 138.48021L25.050013 138.48021L25.050013 139.63646L24.206263 139.63646L24.206263 138.48021L22.675013 138.48021L22.675013 137.38646ZM30.675013 132.23021Q30.675013 133.52708 29.831263 134.33958Q28.971888 135.13646 27.550013 135.13646L27.362513 135.13646Q26.409388 135.13646 25.675013 134.77708Q24.925013 134.41771 24.518763 133.77708Q24.096888 133.12083 24.096888 132.37083Q24.096888 131.13646 24.909388 130.44896Q25.721888 129.76146 27.237513 129.76146L27.690638 129.76146L27.690638 134.05833Q28.628138 134.02708 29.206263 133.51146Q29.784388 132.98021 29.784388 132.16771Q29.784388 131.60521 29.550013 131.21458Q29.315638 130.80833 28.925013 130.49583L29.440638 129.83958Q30.675013 130.63646 30.675013 132.23021ZM24.987513 132.37083Q24.987513 133.02708 25.471888 133.48021Q25.940638 133.91771 26.800013 134.01146L26.800013 130.83958L26.721888 130.83958Q25.893763 130.88646 25.440638 131.29271Q24.987513 131.68333 24.987513 132.37083Z" fill-rule="nonzero"/><path fill="#757575" d="M71.6125 299.3094Q71.6125 301.21564 70.95625 302.15314Q70.31563 303.075 68.925 303.075Q67.56563 303.075 66.90938 302.16876Q66.25313 301.2625 66.22188 299.45L66.22188 298.0125Q66.22188 296.1219 66.8625 295.21564Q67.51875 294.29376 68.90938 294.29376Q70.28438 294.29376 70.94063 295.1844Q71.59688 296.0594 71.6125 297.90314L71.6125 299.3094ZM70.51875 297.825Q70.51875 296.45 70.12813 295.825Q69.75313 295.1844 68.90938 295.1844Q68.08125 295.1844 67.69063 295.825Q67.31563 296.45 67.31563 297.7469L67.31563 299.48126Q67.31563 300.85626 67.70625 301.52814Q68.1125 302.1844 68.925 302.1844Q69.72188 302.1844 70.1125 301.5594Q70.50313 300.9344 70.51875 299.60626L70.51875 297.825Z" fill-rule="nonzero"/><path fill="#757575" d="M69.81563 243.94167L68.7375 243.94167L68.7375 236.72292L66.55 237.51979L66.55 236.53542L69.65938 235.36354L69.81563 235.36354L69.81563 243.94167Z" fill-rule="nonzero"/><path fill="#757575" d="M71.84688 184.93333L66.25313 184.93333L66.25313 184.15208L69.20625 180.87083Q69.8625 180.12083 70.1125 179.66771Q70.3625 179.19896 70.3625 178.69896Q70.3625 178.02708 69.95625 177.60521Q69.56563 177.16771 68.87813 177.16771Q68.08125 177.16771 67.62813 177.63646Q67.175 178.08958 67.175 178.91771L66.09688 178.91771Q66.09688 177.73021 66.84688 177.01146Q67.6125 176.27708 68.87813 176.27708Q70.08125 176.27708 70.76875 176.90208Q71.45625 177.52708 71.45625 178.57396Q71.45625 179.82396 69.84688 181.57396L67.56563 184.04271L71.84688 184.04271L71.84688 184.93333Z" fill-rule="nonzero"/><path fill="#757575" d="M67.83125 121.12813L68.64375 121.12813Q69.425 121.1125 69.8625 120.72188Q70.3 120.33125 70.3 119.65938Q70.3 118.15938 68.8 118.15938Q68.09688 118.15938 67.675 118.56563Q67.26875 118.97188 67.26875 119.62813L66.175 119.62813Q66.175 118.6125 66.90938 117.94063Q67.65938 117.26875 68.8 117.26875Q70.00313 117.26875 70.69063 117.90938Q71.37813 118.55 71.37813 119.69063Q71.37813 120.25313 71.01875 120.76875Q70.65938 121.28438 70.03438 121.55Q70.7375 121.76875 71.1125 122.28438Q71.50313 122.8 71.50313 123.55Q71.50313 124.69063 70.75313 125.37813Q70.00313 126.05 68.8 126.05Q67.6125 126.05 66.84688 125.39375Q66.09688 124.7375 66.09688 123.675L67.19063 123.675Q67.19063 124.34688 67.62813 124.75313Q68.06563 125.15938 68.81563 125.15938Q69.59688 125.15938 70.00313 124.75313Q70.425 124.33125 70.425 123.56563Q70.425 122.83125 69.97188 122.44063Q69.51875 122.03438 68.64375 122.01875L67.83125 122.01875L67.83125 121.12813Z" fill-rule="nonzero"/><path fill="#757575" d="M70.83125 64.05729L72.01875 64.05729L72.01875 64.93229L70.83125 64.93229L70.83125 66.916664L69.75313 66.916664L69.75313 64.93229L65.8625 64.93229L65.8625 64.291664L69.675 58.385414L70.83125 58.385414L70.83125 64.05729ZM67.09688 64.05729L69.75313 64.05729L69.75313 59.86979L69.6125 60.104164L67.09688 64.05729Z" fill-rule="nonzero"/><path fill="#757575" d="M115.23705 316.45L114.15893 316.45L114.15893 309.23126L111.97143 310.02814L111.97143 309.04376L115.0808 307.8719L115.23705 307.8719L115.23705 316.45Z" fill-rule="nonzero"/><path fill="#757575" d="M189.11116 316.45L183.51741 316.45L183.51741 315.66876L186.47054 312.3875Q187.12679 311.6375 187.37679 311.1844Q187.62679 310.71564 187.62679 310.21564Q187.62679 309.54376 187.22054 309.1219Q186.82991 308.6844 186.14241 308.6844Q185.34554 308.6844 184.89241 309.15314Q184.43929 309.60626 184.43929 310.4344L183.36116 310.4344Q183.36116 309.2469 184.11116 308.52814Q184.87679 307.79376 186.14241 307.79376Q187.34554 307.79376 188.03304 308.41876Q188.72054 309.04376 188.72054 310.09064Q188.72054 311.34064 187.11116 313.09064L184.82991 315.5594L189.11116 315.5594L189.11116 316.45Z" fill-rule="nonzero"/><path fill="#757575" d="M259.93842 313.59064L261.12592 313.59064L261.12592 314.46564L259.93842 314.46564L259.93842 316.45L258.8603 316.45L258.8603 314.46564L254.96965 314.46564L254.96965 313.825L258.78217 307.91876L259.93842 307.91876L259.93842 313.59064ZM256.20404 313.59064L258.8603 313.59064L258.8603 309.40314L258.71967 309.6375L256.20404 313.59064Z" fill-rule="nonzero"/><path fill="#757575" d="M332.39062 310.1375Q332.39062 310.77814 332.04688 311.27814Q331.70312 311.77814 331.14062 312.0594Q331.79688 312.34064 332.1875 312.90314Q332.57812 313.45 332.57812 314.15314Q332.57812 315.2469 331.82812 315.91876Q331.09375 316.575 329.875 316.575Q328.64062 316.575 327.89062 315.91876Q327.15625 315.2469 327.15625 314.15314Q327.15625 313.45 327.53125 312.90314Q327.90625 312.34064 328.57812 312.0594Q328.01562 311.77814 327.6875 311.27814Q327.35938 310.77814 327.35938 310.1375Q327.35938 309.0594 328.04688 308.4344Q328.73438 307.79376 329.875 307.79376Q331.0 307.79376 331.6875 308.4344Q332.39062 309.0594 332.39062 310.1375ZM331.5 314.1219Q331.5 313.40314 331.04688 312.96564Q330.59375 312.5125 329.85938 312.5125Q329.125 312.5125 328.67188 312.96564Q328.23438 313.40314 328.23438 314.1375Q328.23438 314.85626 328.67188 315.27814Q329.10938 315.6844 329.875 315.6844Q330.625 315.6844 331.0625 315.2625Q331.5 314.84064 331.5 314.1219ZM329.875 308.6844Q329.23438 308.6844 328.82812 309.09064Q328.4375 309.48126 328.4375 310.16876Q328.4375 310.8094 328.82812 311.21564Q329.21875 311.6219 329.85938 311.6219Q330.51562 311.6219 330.90625 311.21564Q331.29688 310.8094 331.29688 310.16876Q331.29688 309.5125 330.89062 309.10626Q330.48438 308.6844 329.875 308.6844Z" fill-rule="nonzero"/><path fill="#757575" d="M399.1085 316.45L398.03036 316.45L398.03036 309.23126L395.84286 310.02814L395.84286 309.04376L398.95224 307.8719L399.1085 307.8719L399.1085 316.45ZM406.8116 307.91876L406.8116 308.825L406.6085 308.825Q405.34286 308.85626 404.59286 309.59064Q403.84286 310.3094 403.71786 311.6219Q404.40536 310.85626 405.5616 310.85626Q406.671 310.85626 407.34286 311.6375Q408.01474 312.41876 408.01474 313.66876Q408.01474 314.98126 407.296 315.77814Q406.57724 316.575 405.3585 316.575Q404.13974 316.575 403.3741 315.6375Q402.6241 314.6844 402.6241 313.2L402.6241 312.79376Q402.6241 310.4344 403.6241 309.1844Q404.6241 307.9344 406.6085 307.91876L406.8116 307.91876ZM405.38974 311.7625Q404.82724 311.7625 404.3585 312.09064Q403.88974 312.41876 403.70224 312.9344L403.70224 313.325Q403.70224 314.3875 404.171 315.02814Q404.65536 315.66876 405.3585 315.66876Q406.09286 315.66876 406.51474 315.1375Q406.9366 314.59064 406.9366 313.71564Q406.9366 312.84064 406.51474 312.3094Q406.09286 311.7625 405.38974 311.7625Z" fill-rule="nonzero"/><path fill="#757575" d="M468.96695 311.65314L469.77945 311.65314Q470.5607 311.6375 470.9982 311.2469Q471.4357 310.85626 471.4357 310.1844Q471.4357 308.6844 469.9357 308.6844Q469.23257 308.6844 468.8107 309.09064Q468.40445 309.4969 468.40445 310.15314L467.3107 310.15314Q467.3107 309.1375 468.04507 308.46564Q468.79507 307.79376 469.9357 307.79376Q471.13882 307.79376 471.82632 308.4344Q472.51382 309.075 472.51382 310.21564Q472.51382 310.77814 472.15445 311.29376Q471.79507 311.8094 471.17007 312.075Q471.8732 312.29376 472.2482 312.8094Q472.63882 313.325 472.63882 314.075Q472.63882 315.21564 471.88882 315.90314Q471.13882 316.575 469.9357 316.575Q468.7482 316.575 467.98257 315.91876Q467.23257 315.2625 467.23257 314.2L468.32632 314.2Q468.32632 314.8719 468.76382 315.27814Q469.20132 315.6844 469.95132 315.6844Q470.73257 315.6844 471.13882 315.27814Q471.5607 314.85626 471.5607 314.09064Q471.5607 313.35626 471.10757 312.96564Q470.65445 312.5594 469.77945 312.54376L468.96695 312.54376L468.96695 311.65314ZM479.98257 316.45L474.38882 316.45L474.38882 315.66876L477.34195 312.3875Q477.9982 311.6375 478.2482 311.1844Q478.4982 310.71564 478.4982 310.21564Q478.4982 309.54376 478.09195 309.1219Q477.70132 308.6844 477.01382 308.6844Q476.21695 308.6844 475.76382 309.15314Q475.3107 309.60626 475.3107 310.4344L474.23257 310.4344Q474.23257 309.2469 474.98257 308.52814Q475.7482 307.79376 477.01382 307.79376Q478.21695 307.79376 478.90445 308.41876Q479.59195 309.04376 479.59195 310.09064Q479.59195 311.34064 477.98257 313.09064L475.70132 315.5594L479.98257 315.5594L479.98257 316.45Z" fill-rule="nonzero"/><path fill="#757575" d="M543.4973 307.91876L543.4973 308.825L543.2942 308.825Q542.02856 308.85626 541.27856 309.59064Q540.52856 310.3094 540.40356 311.6219Q541.09106 310.85626 542.2473 310.85626Q543.3567 310.85626 544.02856 311.6375Q544.70044 312.41876 544.70044 313.66876Q544.70044 314.98126 543.9817 315.77814Q543.26294 316.575 542.0442 316.575Q540.82544 316.575 540.0598 315.6375Q539.3098 314.6844 539.3098 313.2L539.3098 312.79376Q539.3098 310.4344 540.3098 309.1844Q541.3098 307.9344 543.2942 307.91876L543.4973 307.91876ZM542.07544 311.7625Q541.51294 311.7625 541.0442 312.09064Q540.57544 312.41876 540.38794 312.9344L540.38794 313.325Q540.38794 314.3875 540.8567 315.02814Q541.34106 315.66876 542.0442 315.66876Q542.77856 315.66876 543.20044 315.1375Q543.6223 314.59064 543.6223 313.71564Q543.6223 312.84064 543.20044 312.3094Q542.77856 311.7625 542.07544 311.7625ZM550.8098 313.59064L551.9973 313.59064L551.9973 314.46564L550.8098 314.46564L550.8098 316.45L549.7317 316.45L549.7317 314.46564L545.84106 314.46564L545.84106 313.825L549.65356 307.91876L550.8098 307.91876L550.8098 313.59064ZM547.07544 313.59064L549.7317 313.59064L549.7317 309.40314L549.59106 309.6375L547.07544 313.59064Z" fill-rule="nonzero"/><path fill="#757575" d="M22.628124 23.33125L27.26875 34.925L31.925 23.33125L34.346874 23.33125L34.346874 37.55L32.471874 37.55L32.471874 32.01875L32.659374 26.034374L27.9875 37.55L26.55 37.55L21.89375 26.065624L22.08125 32.01875L22.08125 37.55L20.20625 37.55L20.20625 23.33125L22.628124 23.33125ZM43.440624 36.503124Q42.39375 37.753124 40.346874 37.753124Q38.659374 37.753124 37.76875 36.76875Q36.89375 35.784374 36.878124 33.8625L36.878124 26.9875L38.690624 26.9875L38.690624 33.815624Q38.690624 36.20625 40.64375 36.20625Q42.70625 36.20625 43.39375 34.675L43.39375 26.9875L45.20625 26.9875L45.20625 37.55L43.4875 37.55L43.440624 36.503124ZM49.878124 37.55L48.08125 37.55L48.08125 22.55L49.878124 22.55L49.878124 37.55ZM55.3625 24.425L55.3625 26.9875L57.346874 26.9875L57.346874 28.378124L55.3625 28.378124L55.3625 34.925Q55.3625 35.565624 55.628124 35.89375Q55.89375 36.20625 56.534374 36.20625Q56.846874 36.20625 57.39375 36.08125L57.39375 37.55Q56.675 37.753124 56.003124 37.753124Q54.8 37.753124 54.175 37.01875Q53.565624 36.284374 53.565624 34.925L53.565624 28.378124L51.64375 28.378124L51.64375 26.9875L53.565624 26.9875L53.565624 24.425L55.3625 24.425ZM61.878124 37.55L60.08125 37.55L60.08125 26.9875L61.878124 26.9875L61.878124 37.55ZM59.925 24.175Q59.925 23.7375 60.190624 23.440624Q60.471874 23.128124 60.9875 23.128124Q61.51875 23.128124 61.784374 23.440624Q62.065624 23.7375 62.065624 24.175Q62.065624 24.6125 61.784374 24.909374Q61.51875 25.20625 60.9875 25.20625Q60.471874 25.20625 60.190624 24.909374Q59.925 24.6125 59.925 24.175ZM68.675 32.253124L63.909374 32.253124L63.909374 30.76875L68.675 30.76875L68.675 32.253124ZM73.3625 24.425L73.3625 26.9875L75.34688 26.9875L75.34688 28.378124L73.3625 28.378124L73.3625 34.925Q73.3625 35.565624 73.62813 35.89375Q73.89375 36.20625 74.53438 36.20625Q74.84688 36.20625 75.39375 36.08125L75.39375 37.55Q74.675 37.753124 74.00313 37.753124Q72.8 37.753124 72.175 37.01875Q71.56563 36.284374 71.56563 34.925L71.56563 28.378124L69.64375 28.378124L69.64375 26.9875L71.56563 26.9875L71.56563 24.425L73.3625 24.425ZM79.72188 28.26875Q80.925 26.784374 82.84688 26.784374Q86.20625 26.784374 86.22188 30.565624L86.22188 37.55L84.425 37.55L84.425 30.55Q84.40938 29.409374 83.89375 28.8625Q83.39375 28.315624 82.3 28.315624Q81.425 28.315624 80.75313 28.784374Q80.09688 29.253124 79.72188 30.01875L79.72188 37.55L77.925 37.55L77.925 22.55L79.72188 22.55L79.72188 28.26875ZM94.01875 28.596874Q93.6125 28.534374 93.14375 28.534374Q91.3625 28.534374 90.72188 30.05L90.72188 37.55L88.925 37.55L88.925 26.9875L90.675 26.9875L90.70625 28.20625Q91.59688 26.784374 93.22188 26.784374Q93.75313 26.784374 94.01875 26.925L94.01875 28.596874ZM100.3 37.753124Q98.15938 37.753124 96.8 36.346874Q95.45625 34.925 95.45625 32.565624L95.45625 32.221874Q95.45625 30.659374 96.05 29.425Q96.65938 28.190624 97.7375 27.4875Q98.81563 26.784374 100.08125 26.784374Q102.14375 26.784374 103.28438 28.14375Q104.425 29.503124 104.425 32.034374L104.425 32.784374L97.26875 32.784374Q97.3 34.346874 98.175 35.315624Q99.05 36.26875 100.39375 36.26875Q101.3625 36.26875 102.01875 35.878124Q102.69063 35.4875 103.19063 34.846874L104.28438 35.70625Q102.95625 37.753124 100.3 37.753124ZM100.08125 28.26875Q98.9875 28.26875 98.2375 29.065624Q97.50313 29.8625 97.33125 31.3L102.6125 31.3L102.6125 31.159374Q102.53438 29.784374 101.8625 29.034374Q101.20625 28.26875 100.08125 28.26875ZM113.44063 37.55Q113.28438 37.2375 113.19063 36.440624Q111.925 37.753124 110.175 37.753124Q108.6125 37.753124 107.6125 36.8625Q106.6125 35.971874 106.6125 34.6125Q106.6125 32.971874 107.8625 32.065624Q109.12813 31.14375 111.39375 31.14375L113.15938 31.14375L113.15938 30.315624Q113.15938 29.3625 112.58125 28.8Q112.01875 28.2375 110.925 28.2375Q109.95625 28.2375 109.3 28.7375Q108.64375 29.221874 108.64375 29.909374L106.83125 29.909374Q106.83125 29.128124 107.39375 28.39375Q107.95625 27.64375 108.90938 27.221874Q109.87813 26.784374 111.03438 26.784374Q112.8625 26.784374 113.89375 27.70625Q114.925 28.6125 114.97188 30.221874L114.97188 35.08125Q114.97188 36.534374 115.33125 37.39375L115.33125 37.55L113.44063 37.55ZM110.44063 36.175Q111.3 36.175 112.05 35.7375Q112.81563 35.3 113.15938 34.596874L113.15938 32.425L111.7375 32.425Q108.425 32.425 108.425 34.3625Q108.425 35.221874 108.9875 35.70625Q109.55 36.175 110.44063 36.175ZM117.47188 32.175Q117.47188 29.753124 118.62813 28.26875Q119.78438 26.784374 121.64375 26.784374Q123.50313 26.784374 124.58125 28.05L124.58125 22.55L126.39375 22.55L126.39375 37.55L124.7375 37.55L124.64375 36.409374Q123.56563 37.753124 121.62813 37.753124Q119.8 37.753124 118.62813 36.253124Q117.47188 34.7375 117.47188 32.315624L117.47188 32.175ZM119.28438 32.378124Q119.28438 34.175 120.01875 35.190624Q120.76875 36.20625 122.08125 36.20625Q123.8 36.20625 124.58125 34.675L124.58125 29.815624Q123.78438 28.315624 122.09688 28.315624Q120.76875 28.315624 120.01875 29.346874Q119.28438 30.378124 119.28438 32.378124ZM133.3 37.753124Q131.15938 37.753124 129.8 36.346874Q128.45625 34.925 128.45625 32.565624L128.45625 32.221874Q128.45625 30.659374 129.05 29.425Q129.65938 28.190624 130.7375 27.4875Q131.81563 26.784374 133.08125 26.784374Q135.14375 26.784374 136.28438 28.14375Q137.425 29.503124 137.425 32.034374L137.425 32.784374L130.26875 32.784374Q130.3 34.346874 131.175 35.315624Q132.05 36.26875 133.39375 36.26875Q134.3625 36.26875 135.01875 35.878124Q135.69063 35.4875 136.19063 34.846874L137.28438 35.70625Q135.95625 37.753124 133.3 37.753124ZM133.08125 28.26875Q131.9875 28.26875 131.2375 29.065624Q130.50313 29.8625 130.33125 31.3L135.6125 31.3L135.6125 31.159374Q135.53438 29.784374 134.8625 29.034374Q134.20625 28.26875 133.08125 28.26875ZM139.47188 32.175Q139.47188 29.753124 140.62813 28.26875Q141.78438 26.784374 143.64375 26.784374Q145.50313 26.784374 146.58125 28.05L146.58125 22.55L148.39375 22.55L148.39375 37.55L146.7375 37.55L146.64375 36.409374Q145.56563 37.753124 143.62813 37.753124Q141.8 37.753124 140.62813 36.253124Q139.47188 34.7375 139.47188 32.315624L139.47188 32.175ZM141.28438 32.378124Q141.28438 34.175 142.01875 35.190624Q142.76875 36.20625 144.08125 36.20625Q145.8 36.20625 146.58125 34.675L146.58125 29.815624Q145.78438 28.315624 144.09688 28.315624Q142.76875 28.315624 142.01875 29.346874Q141.28438 30.378124 141.28438 32.378124ZM157.87813 37.55L156.08125 37.55L156.08125 22.55L157.87813 22.55L157.87813 37.55ZM160.44063 32.175Q160.44063 30.6125 161.05 29.378124Q161.65938 28.128124 162.7375 27.45625Q163.83125 26.784374 165.2375 26.784374Q167.39375 26.784374 168.72188 28.284374Q170.06563 29.76875 170.06563 32.253124L170.06563 32.378124Q170.06563 33.925 169.47188 35.159374Q168.87813 36.378124 167.76875 37.065624Q166.675 37.753124 165.25313 37.753124Q163.1125 37.753124 161.76875 36.253124Q160.44063 34.753124 160.44063 32.3L160.44063 32.175ZM162.25313 32.378124Q162.25313 34.14375 163.06563 35.20625Q163.89375 36.26875 165.25313 36.26875Q166.62813 36.26875 167.44063 35.190624Q168.25313 34.1125 168.25313 32.175Q168.25313 30.425 167.425 29.346874Q166.59688 28.26875 165.2375 28.26875Q163.89375 28.26875 163.06563 29.33125Q162.25313 30.39375 162.25313 32.378124ZM178.44063 37.55Q178.28438 37.2375 178.19063 36.440624Q176.925 37.753124 175.175 37.753124Q173.6125 37.753124 172.6125 36.8625Q171.6125 35.971874 171.6125 34.6125Q171.6125 32.971874 172.8625 32.065624Q174.12813 31.14375 176.39375 31.14375L178.15938 31.14375L178.15938 30.315624Q178.15938 29.3625 177.58125 28.8Q177.01875 28.2375 175.925 28.2375Q174.95625 28.2375 174.3 28.7375Q173.64375 29.221874 173.64375 29.909374L171.83125 29.909374Q171.83125 29.128124 172.39375 28.39375Q172.95625 27.64375 173.90938 27.221874Q174.87813 26.784374 176.03438 26.784374Q177.8625 26.784374 178.89375 27.70625Q179.925 28.6125 179.97188 30.221874L179.97188 35.08125Q179.97188 36.534374 180.33125 37.39375L180.33125 37.55L178.44063 37.55ZM175.44063 36.175Q176.3 36.175 177.05 35.7375Q177.81563 35.3 178.15938 34.596874L178.15938 32.425L176.7375 32.425Q173.425 32.425 173.425 34.3625Q173.425 35.221874 173.9875 35.70625Q174.55 36.175 175.44063 36.175ZM182.47188 32.175Q182.47188 29.753124 183.62813 28.26875Q184.78438 26.784374 186.64375 26.784374Q188.50313 26.784374 189.58125 28.05L189.58125 22.55L191.39375 22.55L191.39375 37.55L189.7375 37.55L189.64375 36.409374Q188.56563 37.753124 186.62813 37.753124Q184.8 37.753124 183.62813 36.253124Q182.47188 34.7375 182.47188 32.315624L182.47188 32.175ZM184.28438 32.378124Q184.28438 34.175 185.01875 35.190624Q185.76875 36.20625 187.08125 36.20625Q188.8 36.20625 189.58125 34.675L189.58125 29.815624Q188.78438 28.315624 187.09688 28.315624Q185.76875 28.315624 185.01875 29.346874Q184.28438 30.378124 184.28438 32.378124ZM207.8625 32.378124Q207.8625 34.8 206.75313 36.284374Q205.64375 37.753124 203.76875 37.753124Q201.75313 37.753124 200.65938 36.33125L200.58125 37.55L198.925 37.55L198.925 22.55L200.72188 22.55L200.72188 28.14375Q201.81563 26.784374 203.7375 26.784374Q205.65938 26.784374 206.75313 28.2375Q207.8625 29.690624 207.8625 32.221874L207.8625 32.378124ZM206.05 32.175Q206.05 30.33125 205.33125 29.33125Q204.62813 28.315624 203.3 28.315624Q201.50313 28.315624 200.72188 29.9875L200.72188 34.55Q201.55 36.20625 203.31563 36.20625Q204.6125 36.20625 205.33125 35.20625Q206.05 34.20625 206.05 32.175ZM216.44063 37.55Q216.28438 37.2375 216.19063 36.440624Q214.925 37.753124 213.175 37.753124Q211.6125 37.753124 210.6125 36.8625Q209.6125 35.971874 209.6125 34.6125Q209.6125 32.971874 210.8625 32.065624Q212.12813 31.14375 214.39375 31.14375L216.15938 31.14375L216.15938 30.315624Q216.15938 29.3625 215.58125 28.8Q215.01875 28.2375 213.925 28.2375Q212.95625 28.2375 212.3 28.7375Q211.64375 29.221874 211.64375 29.909374L209.83125 29.909374Q209.83125 29.128124 210.39375 28.39375Q210.95625 27.64375 211.90938 27.221874Q212.87813 26.784374 214.03438 26.784374Q215.8625 26.784374 216.89375 27.70625Q217.925 28.6125 217.97188 30.221874L217.97188 35.08125Q217.97188 36.534374 218.33125 37.39375L218.33125 37.55L216.44063 37.55ZM213.44063 36.175Q214.3 36.175 215.05 35.7375Q215.81563 35.3 216.15938 34.596874L216.15938 32.425L214.7375 32.425Q211.425 32.425 211.425 34.3625Q211.425 35.221874 211.9875 35.70625Q212.55 36.175 213.44063 36.175ZM222.62813 26.9875L222.69063 28.315624Q223.89375 26.784374 225.84688 26.784374Q229.20625 26.784374 229.22188 30.565624L229.22188 37.55L227.425 37.55L227.425 30.55Q227.40938 29.409374 226.89375 28.8625Q226.39375 28.315624 225.3 28.315624Q224.425 28.315624 223.75313 28.784374Q223.09688 29.253124 222.72188 30.01875L222.72188 37.55L220.925 37.55L220.925 26.9875L222.62813 26.9875ZM231.47188 32.175Q231.47188 29.753124 232.62813 28.26875Q233.78438 26.784374 235.64375 26.784374Q237.50313 26.784374 238.58125 28.05L238.58125 22.55L240.39375 22.55L240.39375 37.55L238.7375 37.55L238.64375 36.409374Q237.56563 37.753124 235.62813 37.753124Q233.8 37.753124 232.62813 36.253124Q231.47188 34.7375 231.47188 32.315624L231.47188 32.175ZM233.28438 32.378124Q233.28438 34.175 234.01875 35.190624Q234.76875 36.20625 236.08125 36.20625Q237.8 36.20625 238.58125 34.675L238.58125 29.815624Q237.78438 28.315624 236.09688 28.315624Q234.76875 28.315624 234.01875 29.346874Q233.28438 30.378124 233.28438 32.378124ZM252.26875 35.065624L254.3 26.9875L256.1125 26.9875L253.03438 37.55L251.56563 37.55L249.00313 29.534374L246.50313 37.55L245.03438 37.55L241.97188 26.9875L243.76875 26.9875L245.84688 34.89375L248.31563 26.9875L249.76875 26.9875L252.26875 35.065624ZM259.8781 37.55L258.08124 37.55L258.08124 26.9875L259.8781 26.9875L259.8781 37.55ZM257.925 24.175Q257.925 23.7375 258.1906 23.440624Q258.47186 23.128124 258.9875 23.128124Q259.51874 23.128124 259.78436 23.440624Q260.0656 23.7375 260.0656 24.175Q260.0656 24.6125 259.78436 24.909374Q259.51874 25.20625 258.9875 25.20625Q258.47186 25.20625 258.1906 24.909374Q257.925 24.6125 257.925 24.175ZM262.47186 32.175Q262.47186 29.753124 263.6281 28.26875Q264.78436 26.784374 266.64374 26.784374Q268.5031 26.784374 269.58124 28.05L269.58124 22.55L271.39374 22.55L271.39374 37.55L269.7375 37.55L269.64374 36.409374Q268.5656 37.753124 266.6281 37.753124Q264.8 37.753124 263.6281 36.253124Q262.47186 34.7375 262.47186 32.315624L262.47186 32.175ZM264.28436 32.378124Q264.28436 34.175 265.01874 35.190624Q265.76874 36.20625 267.08124 36.20625Q268.8 36.20625 269.58124 34.675L269.58124 29.815624Q268.78436 28.315624 267.09686 28.315624Q265.76874 28.315624 265.01874 29.346874Q264.28436 30.378124 264.28436 32.378124ZM276.3625 24.425L276.3625 26.9875L278.34686 26.9875L278.34686 28.378124L276.3625 28.378124L276.3625 34.925Q276.3625 35.565624 276.6281 35.89375Q276.89374 36.20625 277.53436 36.20625Q277.84686 36.20625 278.39374 36.08125L278.39374 37.55Q277.675 37.753124 277.0031 37.753124Q275.8 37.753124 275.175 37.01875Q274.5656 36.284374 274.5656 34.925L274.5656 28.378124L272.64374 28.378124L272.64374 26.9875L274.5656 26.9875L274.5656 24.425L276.3625 24.425ZM282.72186 28.26875Q283.925 26.784374 285.84686 26.784374Q289.20624 26.784374 289.22186 30.565624L289.22186 37.55L287.425 37.55L287.425 30.55Q287.40936 29.409374 286.89374 28.8625Q286.39374 28.315624 285.3 28.315624Q284.425 28.315624 283.7531 28.784374Q283.09686 29.253124 282.72186 30.01875L282.72186 37.55L280.925 37.55L280.925 22.55L282.72186 22.55L282.72186 28.26875ZM296.4406 32.175Q296.4406 30.6125 297.05 29.378124Q297.65936 28.128124 298.7375 27.45625Q299.83124 26.784374 301.2375 26.784374Q303.39374 26.784374 304.72186 28.284374Q306.0656 29.76875 306.0656 32.253124L306.0656 32.378124Q306.0656 33.925 305.47186 35.159374Q304.8781 36.378124 303.76874 37.065624Q302.675 37.753124 301.2531 37.753124Q299.1125 37.753124 297.76874 36.253124Q296.4406 34.753124 296.4406 32.3L296.4406 32.175ZM298.2531 32.378124Q298.2531 34.14375 299.0656 35.20625Q299.89374 36.26875 301.2531 36.26875Q302.6281 36.26875 303.4406 35.190624Q304.2531 34.1125 304.2531 32.175Q304.2531 30.425 303.425 29.346874Q302.59686 28.26875 301.2375 28.26875Q299.89374 28.26875 299.0656 29.33125Q298.2531 30.39375 298.2531 32.378124ZM309.6281 26.9875L309.6906 28.315624Q310.89374 26.784374 312.84686 26.784374Q316.20624 26.784374 316.22186 30.565624L316.22186 37.55L314.425 37.55L314.425 30.55Q314.40936 29.409374 313.89374 28.8625Q313.39374 28.315624 312.3 28.315624Q311.425 28.315624 310.7531 28.784374Q310.09686 29.253124 309.72186 30.01875L309.72186 37.55L307.925 37.55L307.925 26.9875L309.6281 26.9875ZM332.05 33.83125L326.09686 33.83125L324.7531 37.55L322.83124 37.55L328.2531 23.33125L329.89374 23.33125L335.33124 37.55L333.40936 37.55L332.05 33.83125ZM326.65936 32.3L331.5031 32.3L329.08124 25.64375L326.65936 32.3ZM339.6281 23.33125L344.26874 34.925L348.925 23.33125L351.34686 23.33125L351.34686 37.55L349.47186 37.55L349.47186 32.01875L349.65936 26.034374L344.9875 37.55L343.55 37.55L338.89374 26.065624L339.08124 32.01875L339.08124 37.55L337.20624 37.55L337.20624 23.33125L339.6281 23.33125ZM354.20624 37.55L354.20624 23.33125L358.22186 23.33125Q360.0656 23.33125 361.4875 24.159374Q362.925 24.971874 363.6906 26.4875Q364.47186 28.003124 364.4875 29.95625L364.4875 30.8625Q364.4875 32.878124 363.70624 34.39375Q362.925 35.909374 361.4875 36.721874Q360.05 37.534374 358.14374 37.55L354.20624 37.55ZM356.08124 24.878124L356.08124 36.01875L358.05 36.01875Q360.22186 36.01875 361.425 34.675Q362.6281 33.315624 362.6281 30.83125L362.6281 30.003124Q362.6281 27.58125 361.4875 26.2375Q360.34686 24.89375 358.26874 24.878124L356.08124 24.878124ZM383.14374 30.89375Q383.14374 32.9875 382.4406 34.55Q381.7375 36.096874 380.4406 36.925Q379.15936 37.753124 377.4406 37.753124Q375.7531 37.753124 374.45624 36.925Q373.15936 36.096874 372.4406 34.565624Q371.72186 33.034374 371.70624 31.01875L371.70624 30.003124Q371.70624 27.95625 372.40936 26.378124Q373.1281 24.8 374.425 23.971874Q375.7375 23.128124 377.40936 23.128124Q379.1281 23.128124 380.425 23.95625Q381.7375 24.784374 382.4406 26.3625Q383.14374 27.925 383.14374 30.003124L383.14374 30.89375ZM381.26874 29.9875Q381.26874 27.45625 380.2531 26.1125Q379.2375 24.753124 377.40936 24.753124Q375.64374 24.753124 374.6125 26.1125Q373.59686 27.45625 373.5656 29.846874L373.5656 30.89375Q373.5656 33.346874 374.59686 34.753124Q375.6281 36.159374 377.4406 36.159374Q379.2531 36.159374 380.2375 34.83125Q381.2375 33.503124 381.26874 31.034374L381.26874 29.9875ZM394.84686 32.378124Q394.84686 34.8 393.7375 36.284374Q392.64374 37.753124 390.7531 37.753124Q388.83124 37.753124 387.72186 36.51875L387.72186 41.6125L385.925 41.6125L385.925 26.9875L387.5656 26.9875L387.65936 28.159374Q388.7531 26.784374 390.72186 26.784374Q392.6281 26.784374 393.7375 28.221874Q394.84686 29.659374 394.84686 32.221874L394.84686 32.378124ZM393.03436 32.175Q393.03436 30.39375 392.26874 29.3625Q391.51874 28.315624 390.1906 28.315624Q388.55 28.315624 387.72186 29.76875L387.72186 34.83125Q388.53436 36.26875 390.20624 36.26875Q391.5031 36.26875 392.26874 35.2375Q393.03436 34.20625 393.03436 32.175ZM399.3625 24.425L399.3625 26.9875L401.34686 26.9875L401.34686 28.378124L399.3625 28.378124L399.3625 34.925Q399.3625 35.565624 399.6281 35.89375Q399.89374 36.20625 400.53436 36.20625Q400.84686 36.20625 401.39374 36.08125L401.39374 37.55Q400.675 37.753124 400.0031 37.753124Q398.8 37.753124 398.175 37.01875Q397.5656 36.284374 397.5656 34.925L397.5656 28.378124L395.64374 28.378124L395.64374 26.9875L397.5656 26.9875L397.5656 24.425L399.3625 24.425ZM408.3 37.753124Q406.15936 37.753124 404.8 36.346874Q403.45624 34.925 403.45624 32.565624L403.45624 32.221874Q403.45624 30.659374 404.05 29.425Q404.65936 28.190624 405.7375 27.4875Q406.8156 26.784374 408.08124 26.784374Q410.14374 26.784374 411.28436 28.14375Q412.425 29.503124 412.425 32.034374L412.425 32.784374L405.26874 32.784374Q405.3 34.346874 406.175 35.315624Q407.05 36.26875 408.39374 36.26875Q409.3625 36.26875 410.01874 35.878124Q410.6906 35.4875 411.1906 34.846874L412.28436 35.70625Q410.95624 37.753124 408.3 37.753124ZM408.08124 28.26875Q406.9875 28.26875 406.2375 29.065624Q405.5031 29.8625 405.33124 31.3L410.6125 31.3L410.6125 31.159374Q410.53436 29.784374 409.8625 29.034374Q409.20624 28.26875 408.08124 28.26875ZM420.01874 28.596874Q419.6125 28.534374 419.14374 28.534374Q417.3625 28.534374 416.72186 30.05L416.72186 37.55L414.925 37.55L414.925 26.9875L416.675 26.9875L416.70624 28.20625Q417.59686 26.784374 419.22186 26.784374Q419.7531 26.784374 420.01874 26.925L420.01874 28.596874ZM421.4406 32.175Q421.4406 30.6125 422.05 29.378124Q422.65936 28.128124 423.7375 27.45625Q424.83124 26.784374 426.2375 26.784374Q428.39374 26.784374 429.72186 28.284374Q431.0656 29.76875 431.0656 32.253124L431.0656 32.378124Q431.0656 33.925 430.47186 35.159374Q429.8781 36.378124 428.76874 37.065624Q427.675 37.753124 426.2531 37.753124Q424.1125 37.753124 422.76874 36.253124Q421.4406 34.753124 421.4406 32.3L421.4406 32.175ZM423.2531 32.378124Q423.2531 34.14375 424.0656 35.20625Q424.89374 36.26875 426.2531 36.26875Q427.6281 36.26875 428.4406 35.190624Q429.2531 34.1125 429.2531 32.175Q429.2531 30.425 428.425 29.346874Q427.59686 28.26875 426.2375 28.26875Q424.89374 28.26875 424.0656 29.33125Q423.2531 30.39375 423.2531 32.378124ZM434.6281 26.9875L434.6906 28.315624Q435.89374 26.784374 437.84686 26.784374Q441.20624 26.784374 441.22186 30.565624L441.22186 37.55L439.425 37.55L439.425 30.55Q439.40936 29.409374 438.89374 28.8625Q438.39374 28.315624 437.3 28.315624Q436.425 28.315624 435.7531 28.784374Q435.09686 29.253124 434.72186 30.01875L434.72186 37.55L432.925 37.55L432.925 26.9875L434.6281 26.9875ZM455.8156 23.315624L455.8156 24.846874L455.4875 24.846874Q453.3781 24.89375 452.1281 26.1125Q450.8781 27.315624 450.6906 29.51875Q451.8156 28.221874 453.7531 28.221874Q455.6125 28.221874 456.72186 29.534374Q457.83124 30.846874 457.83124 32.909374Q457.83124 35.1125 456.6281 36.440624Q455.425 37.753124 453.425 37.753124Q451.3781 37.753124 450.1125 36.190624Q448.84686 34.6125 448.84686 32.14375L448.84686 31.440624Q448.84686 27.51875 450.51874 25.440624Q452.1906 23.3625 455.5031 23.315624L455.8156 23.315624ZM453.45624 29.721874Q452.51874 29.721874 451.7375 30.284374Q450.95624 30.846874 450.65936 31.675L450.65936 32.346874Q450.65936 34.096874 451.4406 35.175Q452.2375 36.253124 453.425 36.253124Q454.64374 36.253124 455.33124 35.3625Q456.03436 34.45625 456.03436 33.003124Q456.03436 31.534374 455.33124 30.628124Q454.6281 29.721874 453.45624 29.721874ZM465.675 37.55L463.84686 37.55L463.84686 25.503124L460.20624 26.846874L460.20624 25.20625L465.39374 23.26875L465.675 23.26875L465.675 37.55ZM479.90936 24.346874L474.01874 37.55L472.1281 37.55L478.0031 24.815624L470.3 24.815624L470.3 23.33125L479.90936 23.33125L479.90936 24.346874ZM489.3625 32.76875L491.33124 32.76875L491.33124 34.253124L489.3625 34.253124L489.3625 37.55L487.55 37.55L487.55 34.253124L481.0656 34.253124L481.0656 33.190624L487.4406 23.33125L489.3625 23.33125L489.3625 32.76875ZM483.1125 32.76875L487.55 32.76875L487.55 25.8L487.33124 26.190624L483.1125 32.76875Z" fill-rule="nonzero"/></svg>